<?xml version='1.0' encoding='utf-8'?>
<svg xmlns="http://www.w3.org/2000/svg" version="1.1" width="420mm" height="594mm" viewBox="0 0 420 594">
  <rect x="0" y="0" width="420" height="594" fill="#FFFEF8" />
  <text x="210.0" y="27.918" font-family="Georgia, 'Times New Roman', serif" font-size="16.0" fill="#1C1C1C" text-anchor="middle">The Double Pendulum</text>
  <text x="210.0" y="38.016" font-family="Georgia, 'Times New Roman', serif" font-size="6.0" fill="#8B0000" text-anchor="middle">Deterministic chaos in a simple mechanism</text>
  <line x1="63.0" y1="43.955999999999996" x2="357.0" y2="43.955999999999996" stroke="#8B0000" stroke-width="0.4" />
  <defs>
    <marker id="arrowhead" markerWidth="10" markerHeight="7" refX="10" refY="3.5" orient="auto">
      <polygon points="0 0, 10 3.5, 0 7" fill="#8B0000" />
    </marker>
  </defs>
  <g id="trajectories">
    <polyline points="364.5600,303.1893 364.5600,303.1039 364.5592,302.8475 364.5562,302.4202 364.5479,301.8220 364.5305,301.0528 364.4989,300.1127 364.4470,299.0017 364.3674,297.7198 364.2519,296.2669 364.0915,294.6432 363.8762,292.8485 363.5952,290.8830 363.2377,288.7467 362.7922,286.4397 362.2473,283.9622 361.5919,281.3144 360.8152,278.4967 359.9070,275.5096 358.8578,272.3540 357.6588,269.0308 356.3020,265.5413 354.7800,261.8873 353.0861,258.0709 351.2136,254.0946 349.1563,249.9618 346.9074,245.6764 344.4602,241.2432 341.8071,236.6680 338.9397,231.9578 335.8487,227.1211 332.5237,222.1682 328.9528,217.1115 325.1231,211.9661 321.0202,206.7501 316.6286,201.4854 311.9320,196.1985 306.9132,190.9208 301.5551,185.6900 295.8412,180.5511 289.7565,175.5568 283.2893,170.7688 276.4333,166.2580 269.1900,162.1036 261.5728,158.3909 253.6096,155.2057 245.3461,152.6271 236.8453,150.7166 228.1843,149.5097 219.4467,149.0101 210.7147,149.1912 202.0618,150.0026 193.5486,151.3793 185.2220,153.2501 177.1161,155.5440 169.2547,158.1944 161.6534,161.1408 154.3215,164.3296 147.2643,167.7144 140.4841,171.2550 133.9819,174.9177 127.7576,178.6741 121.8117,182.5010 116.1450,186.3793 110.7595,190.2941 105.6585,194.2339 100.8466,198.1898 96.3294,202.1557 92.1130,206.1270 88.2034,210.1003 84.6053,214.0731 81.3211,218.0423 78.3497,222.0041 75.6856,225.9533 73.3184,229.8827 71.2329,233.7833 69.4098,237.6442 67.8269,241.4532 66.4603,245.1976 65.2855,248.8643 64.2790,252.4409 63.4183,255.9155 62.6829,259.2774 62.0541,262.5170 61.5152,265.6257 61.0515,268.5962 60.6500,271.4221 60.2992,274.0979 59.9891,276.6189 59.7108,278.9814 59.4568,281.1819 59.2202,283.2178 58.9954,285.0868 58.7774,286.7872 58.5621,288.3175 58.3462,289.6767 58.1271,290.8641 57.9029,291.8791 57.6728,292.7216 57.4365,293.3916 57.1948,293.8894 56.9493,294.2154 56.7030,294.3703 56.4596,294.3548 56.2243,294.1700 56.0036,293.8169 55.8055,293.2967 55.6393,292.6107 55.5160,291.7600 55.4481,290.7459 55.4493,289.5694 55.5344,288.2311 55.7191,286.7318 56.0188,285.0714 56.4487,283.2498 57.0227,281.2663 57.7530,279.1198 58.6494,276.8092 59.7193,274.3330 60.9675,271.6901 62.3966,268.8792 64.0073,265.8995 65.7989,262.7505 67.7698,259.4323 69.9182,255.9452 72.2425,252.2901 74.7416,248.4687 77.4154,244.4830 80.2651,240.3358 83.2935,236.0308 86.5050,231.5728 89.9061,226.9675 93.5051,222.2225 97.3126,217.3472 101.3409,212.3534 105.6048,207.2560 110.1206,202.0734 114.9065,196.8284 119.9817,191.5491 125.3669,186.2703 131.0830,181.0342 137.1506,175.8925 143.5892,170.9085 150.4154,166.1589 157.6402,161.7365 165.2650,157.7508 173.2757,154.3271 181.6346,151.5981 190.2748,149.6869 199.0988,148.6829 207.9891,148.6175 216.8261,149.4566 225.5070,151.1122 233.9551,153.4673 242.1207,156.3980 249.9756,159.7881 257.5075,163.5352 264.7144,167.5523 271.6012,171.7662 278.1769,176.1160 284.4529,180.5509 290.4421,185.0291 296.1573,189.5161 301.6112,193.9833 306.8151,198.4077 311.7787,202.7708 316.5098,207.0577 321.0137,211.2570 325.2932,215.3599 329.3483,219.3599 333.1764,223.2526 336.7722,227.0354 340.1279,230.7071 343.2340,234.2681 346.0796,237.7199 348.6538,241.0651 350.9467,244.3067 352.9513,247.4483 354.6654,250.4930 356.0926,253.4429 357.2435,256.2987 358.1353,259.0591 358.7910,261.7205 359.2370,264.2778 359.5016,266.7245 359.6129,269.0533 359.5974,271.2564 359.4790,273.3265 359.2790,275.2567 359.0157,277.0405 358.7047,278.6724 358.3591,280.1475 357.9898,281.4615 357.6058,282.6107 357.2146,283.5921 356.8222,284.4031 356.4333,285.0416 356.0519,285.5058 355.6807,285.7943 355.3220,285.9061 354.9772,285.8404 354.6471,285.5965 354.3320,285.1743 354.0318,284.5736 353.7457,283.7947 353.4728,282.8379 353.2114,281.7040 352.9599,280.3937 352.7159,278.9082 352.4767,277.2489 352.2394,275.4177 352.0005,273.4165 351.7560,271.2479 351.5016,268.9147 351.2321,266.4205 350.9417,263.7693 350.6238,260.9661 350.2705,258.0166 349.8729,254.9276 349.4200,251.7076 348.8992,248.3663 348.2951,244.9157 347.5892,241.3699 346.7594,237.7458 345.7795,234.0629 344.6184,230.3439 343.2409,226.6136 341.6082,222.8983 339.6805,219.2235 337.4202,215.6115 334.7968,212.0785 331.7903,208.6326 328.3937,205.2735 324.6126,201.9936 320.4621,198.7805 315.9632,195.6203 311.1392,192.4994 306.0123,189.4067 300.6027,186.3341 294.9265,183.2777 288.9966,180.2375 282.8219,177.2180 276.4083,174.2284 269.7589,171.2824 262.8752,168.3993 255.7577,165.6036 248.4068,162.9260 240.8241,160.4038 233.0136,158.0817 224.9832,156.0126 216.7464,154.2585 208.3250,152.8916 199.7520,151.9943 191.0754,151.6578 182.3619,151.9767 173.6991,153.0389 165.1926,154.9087 156.9559,157.6078 149.0940,161.1040 141.6867,165.3144 134.7809,170.1228 128.3922,175.4021 122.5126,181.0306 117.1199,186.9013 112.1840,192.9243 107.6719,199.0261 103.5501,205.1474 99.7860,211.2402 96.3485,217.2664 93.2089,223.1956 90.3400,229.0036 87.7172,234.6712 85.3178,240.1834 83.1211,245.5286 81.1087,250.6979 79.2637,255.6846 77.5712,260.4836 76.0180,265.0912 74.5923,269.5049 73.2836,273.7229 72.0827,277.7442 70.9814,281.5681 69.9723,285.1945 69.0489,288.6233 68.2054,291.8552 67.4361,294.8905 66.7362,297.7300 66.1009,300.3747 65.5256,302.8256 65.0063,305.0838 64.5387,307.1505 64.1189,309.0271 63.7430,310.7149 63.4075,312.2152 63.1087,313.5295 62.8433,314.6590 62.6084,315.6051 62.4012,316.3687 62.2192,316.9511 62.0604,317.3530 61.9232,317.5751 61.8066,317.6179 61.7100,317.4818 61.6333,317.1667 61.5771,316.6727 61.5424,315.9992 61.5310,315.1459 61.5449,314.1119 61.5871,312.8963 61.6606,311.4982 61.7693,309.9164 61.9172,308.1496 62.1090,306.1966 62.3494,304.0562 62.6437,301.7270 62.9975,299.2079 63.4167,296.4978 63.9074,293.5958 64.4760,290.5010 65.1295,287.2131 65.8750,283.7316 66.7203,280.0567 67.6737,276.1888 68.7441,272.1288 69.9411,267.8783 71.2754,263.4394 72.7585,258.8151 74.4030,254.0096 76.2230,249.0282 78.2338,243.8777 80.4522,238.5670 82.8968,233.1073 85.5878,227.5125 88.5468,221.8001 91.7976,215.9917 95.3651,210.1140 99.2759,204.1998 103.5573,198.2890 108.2366,192.4300 113.3403,186.6809 118.8913,181.1101 124.9065,175.7964 131.3926,170.8272 138.3412,166.2937 145.7247,162.2829 153.4943,158.8675 161.5820,156.0956 169.9070,153.9847 178.3850,152.5226 186.9359,151.6727 195.4897,151.3831 203.9883,151.5948 212.3859,152.2474 220.6467,153.2838 228.7439,154.6512 236.6569,156.3031 244.3703,158.1987 251.8719,160.3036 259.1516,162.5890 266.2005,165.0318 273.0095,167.6143 279.5689,170.3238 285.8677,173.1522 291.8933,176.0960 297.6315,179.1552 303.0673,182.3327 308.1851,185.6333 312.9712,189.0623 317.4151,192.6233 321.5117,196.3168 325.2629,200.1380 328.6788,204.0763 331.7763,208.1152 334.5785,212.2335 337.1115,216.4069 339.4030,220.6101 341.4799,224.8181 343.3676,229.0075 345.0887,233.1571 346.6634,237.2483 348.1091,241.2648 349.4410,245.1926 350.6723,249.0196 351.8141,252.7356 352.8762,256.3318 353.8673,259.8007 354.7946,263.1360 355.6648,266.3320 356.4836,269.3842 357.2559,272.2886 357.9861,275.0417 358.6778,277.6408 359.3342,280.0834 359.9575,282.3678 360.5493,284.4924 361.1104,286.4561 361.6408,288.2581 362.1393,289.8979 362.6037,291.3751 363.0306,292.6896 363.4153,293.8414 363.7515,294.8303 364.0318,295.6562 364.2473,296.3187 364.3877,296.8169 364.4422,297.1497 364.3991,297.3153 364.2471,297.3113 363.9755,297.1348 363.5748,296.7824 363.0377,296.2503 362.3589,295.5349 361.5358,294.6325 360.5678,293.5397 359.4567,292.2537 358.2059,290.7722 356.8200,289.0935 355.3046,287.2167 353.6654,285.1411 351.9085,282.8668 350.0396,280.3941 348.0639,277.7237 345.9858,274.8563 343.8092,271.7930 341.5366,268.5348 339.1694,265.0828 336.7078,261.4382 334.1502,257.6022 331.4934,253.5759 328.7324,249.3609 325.8601,244.9591 322.8671,240.3732 319.7418,235.6065 316.4703,230.6641 313.0363,225.5529 309.4212,220.2819 305.6043,214.8638 301.5634,209.3144 297.2743,203.6548 292.7118,197.9111 287.8498,192.1164 282.6612,186.3119 277.1189,180.5488 271.1954,174.8916 264.8639,169.4216 258.0994,164.2431 250.8825,159.4899 243.2063,155.3322 235.0902,151.9764 226.5982,149.6462 217.8544,148.5301 209.0326,148.7099 200.3142,150.1233 191.8430,152.5967 183.7070,155.9154 175.9477,159.8767 168.5774,164.3110 161.5914,169.0836 154.9766,174.0881 148.7156,179.2406 142.7882,184.4740 137.1730,189.7342 131.8477,194.9770 126.7901,200.1668 121.9778,205.2744 117.3895,210.2767 113.0050,215.1551 108.8060,219.8953 104.7760,224.4861 100.9013,228.9189 97.1704,233.1875 93.5746,237.2869 90.1083,241.2135 86.7681,244.9644 83.5536,248.5373 80.4670,251.9304 77.5130,255.1422 74.6987,258.1713 72.0337,261.0171 69.5296,263.6790 67.2002,266.1574 65.0611,268.4532 63.1288,270.5685 61.4203,272.5065 59.9514,274.2719 58.7350,275.8703 57.7795,277.3085 57.0864,278.5938 56.6496,279.7330 56.4551,280.7320 56.4821,281.5947 56.7055,282.3230 57.0979,282.9172 57.6325,283.3754 58.2842,283.6951 59.0309,283.8729 59.8536,283.9053 60.7368,283.7887 61.6677,283.5200 62.6364,283.0963 63.6351,282.5153 64.6580,281.7751 65.7009,280.8742 66.7608,279.8116 67.8358,278.5868 68.9248,277.1997 70.0275,275.6505 71.1440,273.9398 72.2748,272.0685 73.4208,270.0380 74.5832,267.8496 75.7632,265.5053 76.9621,263.0069 78.1814,260.3569 79.4225,257.5576 80.6870,254.6118 81.9762,251.5224 83.2918,248.2926 84.6354,244.9261 86.0088,241.4268 87.4139,237.7992 88.8532,234.0489 90.3296,230.1821 91.8467,226.2067 93.4092,222.1326 95.0231,217.9720 96.6964,213.7407 98.4397,209.4589 100.2670,205.1527 102.1971,200.8559 104.2552,196.6114 106.4749,192.4736 108.8995,188.5086 111.5830,184.7920 114.5874,181.4019 117.9741,178.4051 121.7916,175.8398 126.0620,173.7039 130.7767,171.9577 135.9026,170.5377 141.3933,169.3743 147.2007,168.4033 153.2806,167.5723 159.5964,166.8413 166.1191,166.1819 172.8265,165.5760 179.7026,165.0146 186.7355,164.4958 193.9169,164.0247 201.2402,163.6125 208.6994,163.2759 216.2880,163.0369 223.9978,162.9226 231.8174,162.9649 239.7315,163.2015 247.7191,163.6755 255.7519,164.4371 263.7917,165.5442 271.7873,167.0637 279.6701,169.0715 287.3496,171.6499 294.7104,174.8779 301.6173,178.8143 307.9322,183.4728 313.5432,188.8039 318.3907,194.6977 322.4739,201.0107 325.8369,207.5968 328.5471,214.3285 330.6780,221.1039 332.2998,227.8453 333.4757,234.4946 334.2610,241.0087 334.7034,247.3560 334.8446,253.5128 334.7206,259.4621 334.3631,265.1915 333.8001,270.6924 333.0562,275.9589 332.1532,280.9875 331.1105,285.7766 329.9455,290.3258 328.6734,294.6360 327.3080,298.7087 325.8612,302.5463 324.3438,306.1515 322.7652,309.5274 321.1338,312.6773 319.4567,315.6046 317.7405,318.3128 315.9907,320.8053 314.2123,323.0856 312.4094,325.1569 310.5860,327.0226 308.7453,328.6857 306.8900,330.1495 305.0229,331.4169 303.1460,332.4910 301.2613,333.3749 299.3706,334.0714 297.4753,334.5838 295.5769,334.9153 293.6766,335.0693 291.7756,335.0493 289.8747,334.8593 287.9748,334.5034 286.0769,333.9862 284.1816,333.3129 282.2896,332.4889 280.4015,331.5205 278.5179,330.4144 276.6392,329.1783 274.7661,327.8203 272.8990,326.3496 271.0387,324.7760 269.1859,323.1104 267.3416,321.3640 265.5072,319.5490 263.6843,317.6781 261.8753,315.7642 260.0829,313.8204 258.3109,311.8592 256.5638,309.8929 254.8468,307.9321 253.1661,305.9861 251.5288,304.0616 249.9424,302.1627 248.4146,300.2901 246.9529,298.4408 245.5642,296.6076 244.2537,294.7791 243.0246,292.9397 241.8767,291.0699 240.8064,289.1469 239.8052,287.1450 238.8597,285.0373 237.9509,282.7963 237.0541,280.3955 236.1396,277.8111 235.1731,275.0233 234.1169,272.0176 232.9314,268.7859 231.5773,265.3275 230.0174,261.6487 228.2185,257.7629 226.1536,253.6891 223.8029,249.4511 221.1547,245.0751 218.2055,240.5886 214.9591,236.0181 211.4259,231.3885 207.6211,226.7217 203.5633,222.0367 199.2727,217.3499 194.7702,212.6753 190.0758,208.0262 185.2081,203.4163 180.1842,198.8617 175.0192,194.3831 169.7272,190.0092 164.3222,185.7811 158.8208,181.7591 153.2468,178.0338 147.6412,174.7437 142.0821,172.1027 136.7242,170.4334 131.8556,170.1682 127.9027,171.6989 125.2376,175.0502 123.9193,179.7929 123.7420,185.3805 124.4447,191.4056 125.8142,197.6178 127.6957,203.8699 129.9790,210.0737 132.5840,216.1748 135.4510,222.1384 138.5340,227.9420 141.7966,233.5705 145.2089,239.0144 148.7459,244.2675 152.3864,249.3264 156.1114,254.1899 159.9044,258.8585 163.7503,263.3341 167.6355,267.6197 171.5476,271.7197 175.4756,275.6390 179.4097,279.3833 183.3413,282.9586 187.2637,286.3709 191.1714,289.6259 195.0609,292.7283 198.9303,295.6820 202.7793,298.4892 206.6093,301.1505 210.4226,303.6648 214.2223,306.0294 218.0120,308.2401 221.7957,310.2915 225.5768,312.1773 229.3584,313.8907 233.1432,315.4245 236.9330,316.7716 240.7289,317.9249 244.5313,318.8775 248.3401,319.6232 252.1543,320.1556 255.9722,320.4691 259.7919,320.5582 263.6105,320.4180 267.4251,320.0436 271.2317,319.4305 275.0263,318.5745 278.8040,317.4714 282.5596,316.1173 286.2872,314.5087 289.9802,312.6421 293.6315,310.5141 297.2331,308.1219 300.7763,305.4626 304.2513,302.5338 307.6476,299.3336 310.9534,295.8604 314.1555,292.1131 317.2393,288.0915 320.1884,283.7958 322.9844,279.2277 325.6063,274.3897 328.0298,269.2862 330.2267,263.9235 332.1640,258.3108 333.8016,252.4615 335.0912,246.3943 335.9729,240.1367 336.3724,233.7284 336.1969,227.2282 335.3337,220.7226 333.6540,214.3358 331.0330,208.2341 327.3908,202.6094 322.7428,197.6312 317.2141,193.3891 310.9970,189.8744 304.2867,187.0108 297.2442,184.6985 289.9897,182.8415 282.6097,181.3582 275.1667,180.1817 267.7070,179.2573 260.2652,178.5395 252.8681,177.9888 245.5360,177.5702 238.2842,177.2520 231.1233,177.0044 224.0602,176.8002 217.0987,176.6142 210.2396,176.4239 203.4826,176.2095 196.8261,175.9551 190.2695,175.6485 183.8137,175.2820 177.4625,174.8530 171.2242,174.3645 165.1128,173.8260 159.1499,173.2555 153.3666,172.6814 147.8056,172.1459 142.5240,171.7109 137.5949,171.4632 133.1057,171.5205 129.1470,172.0284 125.7875,173.1367 123.0397,174.9494 120.8436,177.4754 119.0893,180.6256 117.6586,184.2576 116.4536,188.2250 115.4032,192.4029 114.4587,196.6945 113.5880,201.0273 112.7694,205.3476 111.9886,209.6163 111.2355,213.8043 110.5035,217.8903 109.7876,221.8585 109.0846,225.6974 108.3919,229.3983 107.7079,232.9549 107.0313,236.3628 106.3612,239.6185 105.6970,242.7196 105.0383,245.6642 104.3848,248.4509 103.7362,251.0785 103.0923,253.5460 102.4528,255.8523 101.8175,257.9967 101.1862,259.9780 100.5584,261.7954 99.9338,263.4478 99.3119,264.9340 98.6921,266.2532 98.0739,267.4041 97.4567,268.3857 96.8399,269.1969 96.2228,269.8368 95.6048,270.3045 94.9854,270.5990 94.3639,270.7197 93.7399,270.6658 93.1130,270.4370 92.4829,270.0327 91.8493,269.4528 91.2123,268.6973 90.5719,267.7662 89.9283,266.6600 89.2820,265.3793 88.6337,263.9250 87.9844,262.2985 87.3354,260.5013 86.6883,258.5358 86.0454,256.4049 85.4097,254.1121 84.7847,251.6621 84.1752,249.0609 83.5874,246.3159 83.0294,243.4366 82.5116,240.4352 82.0478,237.3270 81.6564,234.1320 81.3621,230.8751 81.1977,227.5882 81.2068,224.3110 81.4466,221.0911 81.9888,217.9829 82.9168,215.0420 84.3155,212.3145 86.2544,209.8247 88.7683,207.5657 91.8494,205.5023 95.4546,203.5822 99.5217,201.7501 103.9845,199.9568 108.7826,198.1630 113.8649,196.3387 119.1909,194.4628 124.7298,192.5208 130.4593,190.5041 136.3646,188.4088 142.4370,186.2353 148.6730,183.9882 155.0736,181.6760 161.6425,179.3117 168.3859,176.9125 175.3108,174.5004 182.4241,172.1022 189.7317,169.7501 197.2370,167.4819 204.9402,165.3417 212.8371,163.3811 220.9174,161.6611 229.1632,160.2543 237.5456,159.2489 246.0195,158.7530 254.5159,158.8977 262.9315,159.8354 271.1200,161.7215 278.8971,164.6737 286.0750,168.7139 292.5153,173.7388 298.1639,179.5514 303.0414,185.9283 307.2107,192.6705 310.7474,199.6203 313.7255,206.6599 316.2109,213.7023 318.2612,220.6832 319.9263,227.5546 321.2495,234.2805 322.2693,240.8337 323.0198,247.1937 323.5319,253.3454 323.8332,259.2780 323.9491,264.9838 323.9022,270.4584 323.7133,275.6993 323.4010,280.7060 322.9817,285.4793 322.4705,290.0214 321.8804,294.3349 321.2229,298.4233 320.5081,302.2904 319.7448,305.9400 318.9406,309.3762 318.1018,312.6029 317.2341,315.6238 316.3422,318.4425 315.4301,321.0626 314.5011,323.4870 313.5582,325.7188 312.6038,327.7605 311.6400,329.6148 310.6684,331.2839 309.6906,332.7698 308.7078,334.0745 307.7211,335.1999 306.7315,336.1477 305.7397,336.9194 304.7465,337.5168 303.7527,337.9413 302.7587,338.1946 301.7652,338.2784 300.7727,338.1944 299.7818,337.9443 298.7931,337.5301 297.8070,336.9539 296.8243,336.2179 295.8456,335.3247 294.8716,334.2769 293.9030,333.0773 292.9406,331.7291 291.9854,330.2354 291.0385,328.5999 290.1009,326.8261 289.1740,324.9175 288.2592,322.8778 287.3580,320.7105 286.4721,318.4185 285.6031,316.0045 284.7530,313.4705 283.9232,310.8172 283.1152,308.0444 282.3299,305.1503 281.5675,302.1314 280.8272,298.9823 280.1066,295.6954 279.4015,292.2614 278.7052,288.6688 278.0082,284.9046 277.2978,280.9550 276.5576,276.8056 275.7676,272.4426 274.9045,267.8541 273.9417,263.0305 272.8503,257.9661 271.6003,252.6596 270.1610,247.1147 268.5029,241.3407 266.5985,235.3523 264.4230,229.1689 261.9554,222.8149 259.1784,216.3186 256.0779,209.7118 252.6430,203.0301 248.8647,196.3133 244.7348,189.6068 240.2442,182.9644 235.3820,176.4530 230.1339,170.1611 224.4818,164.2127 218.4066,158.7899 211.8985,154.1693 204.9888,150.7637 197.8139,149.1100 190.6732,149.6618 183.9376,152.4296 177.8413,156.9552 172.4304,162.6713 167.6557,169.1387 163.4483,176.0660 159.7475,183.2648 156.5060,190.6096 153.6879,198.0121 151.2661,205.4069 149.2194,212.7424 147.5302,219.9761 146.1827,227.0713 145.1612,233.9955 144.4494,240.7202 144.0295,247.2197 143.8815,253.4721 143.9836,259.4591 144.3120,265.1665 144.8413,270.5846 145.5457,275.7079 146.3990,280.5356 147.3760,285.0708 148.4530,289.3205 149.6085,293.2944 150.8234,297.0046 152.0815,300.4646 153.3696,303.6887 154.6772,306.6911 155.9965,309.4855 157.3218,312.0846 158.6497,314.4996 159.9780,316.7407 161.3061,318.8159 162.6339,320.7321 163.9622,322.4943 165.2921,324.1065 166.6247,325.5712 167.9614,326.8900 169.3033,328.0633 170.6515,329.0912 172.0067,329.9729 173.3697,330.7074 174.7407,331.2933 176.1202,331.7291 177.5081,332.0131 178.9044,332.1437 180.3091,332.1195 181.7220,331.9391 183.1430,331.6014 184.5722,331.1057 186.0096,330.4514 187.4558,329.6383 188.9115,328.6669 190.3777,327.5377 191.8560,326.2521 193.3486,324.8116 194.8582,323.2186 196.3885,321.4758 197.9436,319.5865 199.5290,317.5544 201.1506,315.3839 202.8157,313.0794 204.5321,310.6459 206.3084,308.0883 208.1540,305.4114 210.0782,302.6199 212.0905,299.7175 214.1997,296.7076 216.4137,293.5920 218.7389,290.3714 221.1798,287.0451 223.7384,283.6108 226.4143,280.0645 229.2040,276.4011 232.1015,272.6141 235.0980,268.6965 238.1825,264.6405 241.3417,260.4386 244.5603,256.0834 247.8219,251.5683 251.1083,246.8877 254.4002,242.0373 257.6770,237.0143 260.9165,231.8179 264.0945,226.4496 267.1839,220.9138 270.1543,215.2190 272.9696,209.3784 275.5867,203.4132 277.9509,197.3559 279.9917,191.2572 281.6140,185.1987 282.6862,179.3151 283.0264,173.8347 282.4010,169.1394 280.5883,165.7886 277.5654,164.3273 273.6354,164.8697 269.2252,167.0343 264.6399,170.3134 260.0376,174.3120 255.4905,178.7691 251.0303,183.5179 246.6713,188.4508 242.4206,193.4971 238.2834,198.6093 234.2653,203.7551 230.3734,208.9123 226.6168,214.0655 223.0076,219.2036 219.5603,224.3181 216.2922,229.4015 213.2226,234.4462 210.3728,239.4433 207.7648,244.3815 205.4203,249.2469 203.3594,254.0221 201.5989,258.6865 200.1512,263.2164 199.0228,267.5864 198.2135,271.7700 197.7158,275.7412 197.5155,279.4762 197.5922,282.9544 197.9206,286.1599 198.4718,289.0814 199.2153,291.7131 200.1204,294.0544 201.1574,296.1089 202.2989,297.8839 203.5206,299.3897 204.8017,300.6381 206.1253,301.6415 207.4778,302.4121 208.8492,302.9610 210.2325,303.2972 211.6226,303.4272 213.0163,303.3546 214.4108,303.0796 215.8034,302.5991 217.1903,301.9065 218.5658,300.9926 219.9215,299.8451 221.2460,298.4501 222.5235,296.7927 223.7346,294.8576 224.8553,292.6312 225.8578,290.1018 226.7112,287.2615 227.3825,284.1072 227.8380,280.6414 228.0448,276.8725 227.9732,272.8151 227.5982,268.4894 226.9006,263.9203 225.8688,259.1358 224.4983,254.1652 222.7925,249.0383 220.7607,243.7831 218.4178,238.4252 215.7822,232.9873 212.8744,227.4887 209.7154,221.9463 206.3257,216.3748 202.7239,210.7884 198.9265,205.2014 194.9470,199.6308 190.7961,194.0982 186.4818,188.6327 182.0099,183.2758 177.3850,178.0879 172.6140,173.1597 167.7117,168.6309 162.7157,164.7212 157.7193,161.7759 152.9323,160.2949 148.7323,160.8132 145.5407,163.5082 143.5287,167.9691 142.5726,173.5562 142.4511,179.7671 142.9700,186.2895 143.9851,192.9388 145.3932,199.6040 147.1193,206.2160 149.1078,212.7300 151.3164,219.1159 153.7118,225.3529 156.2676,231.4263 158.9622,237.3258 161.7778,243.0436 164.6993,248.5743 167.7141,253.9139 170.8115,259.0594 173.9824,264.0087 177.2191,268.7601 180.5152,273.3123 183.8655,277.6640 187.2658,281.8138 190.7128,285.7602 194.2039,289.5014 197.7374,293.0350 201.3117,296.3585 204.9259,299.4686 208.5789,302.3620 212.2695,305.0349 215.9965,307.4837 219.7584,309.7044 223.5533,311.6933 227.3788,313.4468 231.2325,314.9615 235.1114,316.2340 239.0124,317.2614 242.9319,318.0406 246.8661,318.5688 250.8111,318.8433 254.7626,318.8615 258.7159,318.6206 262.6661,318.1182 266.6080,317.3516 270.5359,316.3183 274.4438,315.0157 278.3249,313.4413 282.1722,311.5929 285.9780,309.4682 289.7337,307.0650 293.4303,304.3817 297.0578,301.4167 300.6054,298.1688 304.0611,294.6375 307.4118,290.8225 310.6434,286.7244 313.7398,282.3447 316.6833,277.6855 319.4541,272.7504 322.0293,267.5445 324.3828,262.0746 326.4839,256.3502 328.2962,250.3846 329.7751,244.1957 330.8661,237.8092 331.5003,231.2620 331.5904,224.6082 331.0262,217.9287 329.6730,211.3438 327.3820,205.0258 324.0264,199.1960 319.5652,194.0821 314.0943,189.8360 307.8212,186.4785 300.9815,183.9224 293.7746,182.0371 286.3464,180.6949 278.7986,179.7888 271.2017,179.2341 263.6060,178.9638 256.0485,178.9238 248.5572,179.0687 241.1530,179.3590 233.8513,179.7592 226.6628,180.2362 219.5935,180.7593 212.6455,181.2997 205.8175,181.8307 199.1055,182.3285 192.5037,182.7722 186.0058,183.1442 179.6060,183.4309 173.3003,183.6224 167.0879,183.7131 160.9722,183.7015 154.9623,183.5910 149.0740,183.3903 143.3317,183.1146 137.7703,182.7876 132.4378,182.4448 127.3987,182.1383 122.7369,181.9436 118.5560,181.9666 114.9713,182.3463 112.0828,183.2392 109.9315,184.7732 108.4666,186.9897 107.5628,189.8232 107.0733,193.1410 106.8714,196.7973 106.8641,200.6650 106.9878,204.6443 107.2000,208.6607 107.4726,212.6588 107.7870,216.5982 108.1302,220.4486 108.4936,224.1879 108.8710,227.7994 109.2582,231.2707 109.6521,234.5925 110.0505,237.7580 110.4518,240.7624 110.8551,243.6021 111.2595,246.2745 111.6646,248.7781 112.0700,251.1119 112.4756,253.2754 112.8813,255.2683 113.2872,257.0908 113.6934,258.7432 114.0999,260.2259 114.5071,261.5396 114.9151,262.6847 115.3241,263.6619 115.7344,264.4721 116.1462,265.1158 116.5597,265.5938 116.9753,265.9070 117.3931,266.0559 117.8134,266.0415 118.2362,265.8643 118.6619,265.5250 119.0904,265.0244 119.5220,264.3629 119.9566,263.5411 120.3942,262.5592 120.8348,261.4177 121.2782,260.1165 121.7243,258.6556 122.1729,257.0347 122.6237,255.2534 123.0764,253.3110 123.5307,251.2068 123.9864,248.9396 124.4432,246.5084 124.9007,243.9120 125.3587,241.1493 125.8172,238.2193 126.2760,235.1212 126.7349,231.8549 127.1942,228.4209 127.6537,224.8208 128.1137,221.0574 128.5743,217.1354 129.0360,213.0620 129.4994,208.8473 129.9655,204.5058 130.4360,200.0574 130.9141,195.5296 131.4052,190.9605 131.9191,186.4030 132.4724,181.9313 133.0947,177.6502 133.8371,173.7058 134.7847,170.2945 136.0677,167.6503 137.8489,165.9830 140.2678,165.3709 143.3695,165.7021 147.0954,166.7440 151.3336,168.2550 155.9693,170.0437 160.9057,171.9746 166.0677,173.9555 171.3989,175.9242 176.8578,177.8387 182.4145,179.6708 188.0483,181.4021 193.7457,183.0218 199.4993,184.5247 205.3064,185.9109 211.1676,187.1847 217.0863,188.3543 223.0667,189.4315 229.1137,190.4309 235.2310,191.3697 241.4205,192.2666 247.6820,193.1413 254.0123,194.0141 260.4049,194.9049 266.8507,195.8329 273.3372,196.8171 279.8489,197.8759 286.3674,199.0279 292.8707,200.2928 299.3324,201.6933 305.7201,203.2562 311.9921,205.0155 318.0930,207.0148 323.9458,209.3105 329.4425,211.9729 334.4327,215.0818 338.7227,218.7095 342.1019,222.8850 344.4102,227.5553 345.6068,232.5835 345.7762,237.7969 345.0710,243.0420 343.6516,248.2069 341.6573,253.2186 339.1987,258.0318 336.3621,262.6190 333.2139,266.9640 329.8066,271.0572 326.1815,274.8937 322.3725,278.4715 318.4074,281.7904 314.3096,284.8519 310.0991,287.6585 305.7932,290.2138 301.4071,292.5222 296.9544,294.5891 292.4474,296.4206 287.8969,298.0240 283.3130,299.4075 278.7048,300.5804 274.0807,301.5535 269.4482,302.3388 264.8141,302.9497 260.1844,303.4014 255.5641,303.7102 250.9575,303.8944 246.3677,303.9733 241.7969,303.9674 237.2459,303.8974 232.7146,303.7844 228.2016,303.6484 223.7044,303.5077 219.2196,303.3781 214.7428,303.2717 210.2693,303.1966 205.7940,303.1560 201.3119,303.1482 196.8182,303.1667 192.3086,303.2005 187.7799,303.2348 183.2295,303.2520 178.6564,303.2324 174.0603,303.1550 169.4425,302.9990 164.8052,302.7434 160.1518,302.3685 155.4868,301.8556 150.8156,301.1877 146.1443,300.3492 141.4801,299.3261 136.8307,298.1059 132.2048,296.6777 127.6119,295.0315 123.0622,293.1591 118.5670,291.0528 114.1390,288.7063 109.7919,286.1142 105.5415,283.2719 101.4056,280.1759 97.4047,276.8236 93.5631,273.2137 89.9096,269.3464 86.4793,265.2242 83.3155,260.8527 80.4731,256.2422 78.0225,251.4108 76.0550,246.3887 74.6885,241.2262 74.0706,236.0040 74.3693,230.8453 75.7363,225.9154 78.2403,221.3915 81.8133,217.4011 86.2720,213.9783 91.3969,211.0776 96.9963,208.6175 102.9260,206.5151 109.0836,204.7000 115.3970,203.1169 121.8138,201.7234 128.2947,200.4868 134.8088,199.3811 141.3308,198.3846 147.8393,197.4781 154.3165,196.6433 160.7475,195.8619 167.1202,195.1152 173.4258,194.3836 179.6584,193.6471 185.8156,192.8851 191.8978,192.0774 197.9078,191.2048 203.8507,190.2497 209.7320,189.1969 215.5574,188.0339 221.3316,186.7519 227.0565,185.3454 232.7309,183.8134 238.3487,182.1593 243.8984,180.3917 249.3613,178.5257 254.7099,176.5847 259.9061,174.6039 264.8977,172.6353 269.6146,170.7561 273.9646,169.0812 277.8326,167.7780 281.0926,167.0733 283.6476,167.2211 285.4925,168.4049 286.7387,170.6291 287.5590,173.7230 288.1103,177.4479 288.5021,181.5854 288.8020,185.9677 289.0494,190.4736 289.2668,195.0172 289.4672,199.5375 289.6580,203.9908 289.8433,208.3453 290.0255,212.5780 290.2061,216.6723 290.3856,220.6159 290.5647,224.4005 290.7434,228.0200 290.9221,231.4708 291.1008,234.7504 291.2796,237.8580 291.4584,240.7933 291.6373,243.5569 291.8162,246.1498 291.9949,248.5731 292.1734,250.8283 292.3513,252.9169 292.5285,254.8402 292.7047,256.5996 292.8797,258.1964 293.0531,259.6317 293.2248,260.9062 293.3944,262.0209 293.5619,262.9762 293.7269,263.7725 293.8894,264.4103 294.0492,264.8895 294.2063,265.2103 294.3607,265.3725 294.5123,265.3759 294.6612,265.2204 294.8075,264.9054 294.9513,264.4305 295.0927,263.7953 295.2318,262.9990 295.3690,262.0411 295.5043,260.9206 295.6380,259.6367 295.7703,258.1885 295.9016,256.5750 296.0320,254.7950 296.1617,252.8475 296.2911,250.7313 296.4202,248.4456 296.5493,245.9892 296.6784,243.3617 296.8076,240.5626 296.9369,237.5922 297.0661,234.4512 297.1951,231.1414 297.3233,227.6657 297.4503,224.0287 297.5751,220.2369 297.6964,216.2994 297.8120,212.2290 297.9189,208.0430 298.0121,203.7651 298.0838,199.4277 298.1219,195.0752 298.1065,190.7693 298.0054,186.5956 297.7661,182.6729 297.3046,179.1612 296.4943,176.2577 295.1711,174.1600 293.1769,172.9833 290.4328,172.6863 286.9731,173.0916 282.9072,173.9803 278.3626,175.1631 273.4520,176.5008 268.2648,177.8974 262.8689,179.2879 257.3147,180.6284 251.6387,181.8895 245.8669,183.0516 240.0167,184.1026 234.0983,185.0365 228.1164,185.8519 222.0710,186.5518 215.9591,187.1435 209.7752,187.6377 203.5130,188.0489 197.1664,188.3943 190.7308,188.6938 184.2036,188.9691 177.5853,189.2430 170.8795,189.5392 164.0939,189.8812 157.2394,190.2930 150.3310,190.7985 143.3874,191.4228 136.4316,192.1928 129.4921,193.1393 122.6048,194.2993 115.8170,195.7194 109.1928,197.4592 102.8228,199.5960 96.8368,202.2250 91.4152,205.4509 86.7833,209.3583 83.1636,213.9591 80.6894,219.1537 79.3485,224.7547 79.0143,230.5603 79.5192,236.4072 80.7057,242.1819 82.4442,247.8111 84.6338,253.2486 87.1965,258.4648 90.0715,263.4411 93.2112,268.1654 96.5772,272.6300 100.1379,276.8303 103.8674,280.7633 107.7433,284.4279 111.7468,287.8237 115.8612,290.9514 120.0719,293.8123 124.3658,296.4086 128.7314,298.7427 133.1580,300.8179 137.6362,302.6380 142.1571,304.2073 146.7130,305.5310 151.2967,306.6148 155.9019,307.4650 160.5228,308.0889 165.1547,308.4944 169.7935,308.6903 174.4361,308.6860 179.0803,308.4915 183.7249,308.1172 188.3695,307.5738 193.0150,306.8716 197.6629,306.0203 202.3155,305.0283 206.9755,303.9024 211.6456,302.6473 216.3285,301.2650 221.0260,299.7551 225.7391,298.1143 230.4674,296.3371 235.2090,294.4162 239.9607,292.3426 244.7176,290.1068 249.4735,287.6986 254.2207,285.1084 258.9506,282.3268 263.6533,279.3456 268.3181,276.1572 272.9329,272.7553 277.4850,269.1347 281.9602,265.2915 286.3427,261.2230 290.6150,256.9277 294.7571,252.4059 298.7459,247.6594 302.5538,242.6926 306.1475,237.5130 309.4856,232.1323 312.5148,226.5693 315.1653,220.8540 317.3426,215.0341 318.9161,209.1890 319.7049,203.4522 319.4702,198.0459 317.9472,193.3088 314.9730,189.6408 310.6547,187.3000 305.3449,186.2405 299.4231,186.2113 293.1627,186.9394 286.7303,188.2109 280.2245,189.8761 273.7056,191.8331 267.2138,194.0127 260.7785,196.3671 254.4238,198.8624 248.1712,201.4733 242.0409,204.1798 236.0522,206.9644 230.2233,209.8101 224.5708,212.6992 219.1084,215.6121 213.8463,218.5270 208.7893,221.4203 203.9362,224.2667 199.2793,227.0405 194.8034,229.7169 190.4870,232.2731 186.3028,234.6898" fill="none" stroke="#1C1C1C" opacity="0.6" stroke-width="0.15" stroke-linejoin="round" stroke-linecap="round" />
    <polyline points="364.5600,303.1901 364.5600,303.1047 364.5592,302.8483 364.5562,302.4210 364.5479,301.8227 364.5306,301.0536 364.4990,300.1135 364.4470,299.0025 364.3674,297.7206 364.2520,296.2677 364.0916,294.6440 363.8763,292.8493 363.5954,290.8838 363.2378,288.7475 362.7923,286.4405 362.2475,283.9629 361.5921,281.3151 360.8154,278.4974 359.9072,275.5104 358.8580,272.3548 357.6590,269.0316 356.3023,265.5421 354.7803,261.8881 353.0864,258.0716 351.2140,254.0954 349.1566,249.9626 346.9078,245.6772 344.4606,241.2440 341.8075,236.6688 338.9401,231.9585 335.8492,227.1218 332.5241,222.1689 328.9533,217.1122 325.1236,211.9668 321.0207,206.7508 316.6291,201.4861 311.9325,196.1991 306.9138,190.9214 301.5557,185.6906 295.8418,180.5517 289.7571,175.5573 283.2899,170.7693 276.4339,166.2584 269.1907,162.1040 261.5734,158.3912 253.6102,155.2060 245.3467,152.6273 236.8460,150.7167 228.1849,149.5097 219.4473,149.0101 210.7153,149.1911 202.0623,150.0025 193.5491,151.3792 185.2224,153.2500 177.1165,155.5439 169.2551,158.1943 161.6537,161.1407 154.3217,164.3296 147.2645,167.7143 140.4843,171.2549 133.9820,174.9177 127.7578,178.6741 121.8118,182.5010 116.1451,186.3793 110.7595,190.2942 105.6585,194.2340 100.8466,198.1899 96.3294,202.1558 92.1130,206.1271 88.2033,210.1005 84.6052,214.0733 81.3210,218.0425 78.3496,222.0044 75.6855,225.9536 73.3183,229.8830 71.2328,233.7836 69.4097,237.6445 67.8268,241.4535 66.4601,245.1979 65.2854,248.8647 64.2789,252.4413 63.4182,255.9159 62.6828,259.2779 62.0540,262.5174 61.5151,265.6262 61.0514,268.5967 60.6499,271.4226 60.2991,274.0984 59.9890,276.6195 59.7108,278.9820 59.4567,281.1825 59.2202,283.2184 58.9954,285.0875 58.7774,286.7879 58.5622,288.3182 58.3462,289.6775 58.1271,290.8648 57.9030,291.8799 57.6728,292.7224 57.4365,293.3924 57.1948,293.8902 56.9494,294.2163 56.7030,294.3711 56.4596,294.3557 56.2243,294.1709 56.0036,293.8179 55.8055,293.2977 55.6393,292.6117 55.5160,291.7610 55.4480,290.7469 55.4492,289.5704 55.5343,288.2322 55.7189,286.7328 56.0186,285.0725 56.4485,283.2509 57.0224,281.2673 57.7527,279.1209 58.6490,276.8103 59.7189,274.3341 60.9670,271.6912 62.3961,268.8803 64.0067,265.9007 65.7982,262.7517 67.7691,259.4335 69.9175,255.9464 72.2417,252.2913 74.7407,248.4699 77.4145,244.4842 80.2641,240.3371 83.2925,236.0321 86.5040,231.5741 89.9050,226.9688 93.5040,222.2238 97.3114,217.3485 101.3398,212.3547 105.6036,207.2573 110.1194,202.0747 114.9051,196.8296 119.9804,191.5504 125.3655,186.2715 131.0815,181.0354 137.1490,175.8937 143.5876,170.9096 150.4137,166.1600 157.6385,161.7374 165.2632,157.7516 173.2738,154.3278 181.6327,151.5986 190.2728,149.6873 199.0969,148.6830 207.9872,148.6175 216.8243,149.4563 225.5052,151.1118 233.9534,153.4668 242.1191,156.3973 249.9741,159.7873 257.5061,163.5344 264.7131,167.5515 271.6000,171.7654 278.1757,176.1151 284.4518,180.5501 290.4411,185.0283 296.1564,189.5152 301.6103,193.9825 306.8143,198.4069 311.7780,202.7700 316.5091,207.0570 321.0131,211.2563 325.2926,215.3592 329.3478,219.3593 333.1759,223.2520 336.7718,227.0349 340.1275,230.7066 343.2337,234.2677 346.0794,237.7195 348.6536,241.0647 350.9465,244.3064 352.9512,247.4480 354.6653,250.4928 356.0925,253.4427 357.2434,256.2986 358.1353,259.0590 358.7910,261.7205 359.2370,264.2779 359.5017,266.7246 359.6130,269.0534 359.5974,271.2566 359.4790,273.3267 359.2790,275.2570 359.0157,277.0409 358.7047,278.6728 358.3591,280.1480 357.9898,281.4620 357.6059,282.6113 357.2147,283.5927 356.8223,284.4038 356.4334,285.0423 356.0520,285.5066 355.6808,285.7952 355.3221,285.9071 354.9773,285.8413 354.6472,285.5976 354.3321,285.1754 354.0319,284.5748 353.7458,283.7959 353.4729,282.8392 353.2116,281.7053 352.9600,280.3950 352.7160,278.9096 352.4769,277.2504 352.2396,275.4192 352.0007,273.4181 351.7562,271.2495 351.5018,268.9164 351.2323,266.4222 350.9420,263.7711 350.6241,260.9679 350.2709,258.0184 349.8732,254.9295 349.4204,251.7095 348.8996,248.3683 348.2956,244.9177 347.5897,241.3719 346.7600,237.7478 345.7802,234.0649 344.6192,230.3459 343.2418,226.6156 341.6092,222.9002 339.6816,219.2254 337.4215,215.6133 334.7982,212.0802 331.7918,208.6343 328.3954,205.2752 324.6144,201.9952 320.4640,198.7821 315.9653,195.6218 311.1414,192.5009 306.0146,189.4081 300.6050,186.3355 294.9290,183.2791 288.9991,180.2388 282.8245,177.2193 276.4110,174.2296 269.7617,171.2837 262.8781,168.4005 255.7606,165.6047 248.4098,162.9271 240.8272,160.4048 233.0167,158.0826 224.9863,156.0133 216.7496,154.2591 208.3282,152.8920 199.7553,151.9945 191.0787,151.6577 182.3651,151.9764 173.7023,153.0383 165.1956,154.9078 156.9588,157.6067 149.0967,161.1027 141.6892,165.3128 134.7832,170.1211 128.3943,175.4002 122.5146,181.0286 117.1216,186.8993 112.1856,192.9223 107.6734,199.0242 103.5514,205.1454 99.7871,211.2383 96.3496,217.2646 93.2098,223.1938 90.3408,229.0018 87.7179,234.6695 85.3184,240.1818 83.1217,245.5271 81.1092,250.6965 79.2641,255.6833 77.5716,260.4823 76.0184,265.0900 74.5926,269.5038 73.2839,273.7219 72.0829,277.7433 70.9815,281.5673 69.9725,285.1937 69.0491,288.6227 68.2055,291.8546 67.4362,294.8900 66.7362,297.7296 66.1009,300.3744 65.5256,302.8253 65.0063,305.0836 64.5387,307.1504 64.1188,309.0271 63.7430,310.7150 63.4074,312.2154 63.1086,313.5298 62.8433,314.6594 62.6083,315.6055 62.4011,316.3692 62.2191,316.9516 62.0603,317.3536 61.9231,317.5758 61.8065,317.6187 61.7099,317.4826 61.6332,317.1677 61.5769,316.6737 61.5423,316.0003 61.5308,315.1470 61.5448,314.1131 61.5869,312.8977 61.6604,311.4996 61.7691,309.9179 61.9170,308.1512 62.1087,306.1983 62.3491,304.0579 62.6434,301.7288 62.9972,299.2098 63.4163,296.4998 63.9069,293.5979 64.4755,290.5032 65.1289,287.2153 65.8744,283.7339 66.7197,280.0591 67.6730,276.1913 68.7433,272.1314 69.9403,267.8810 71.2745,263.4421 72.7575,258.8180 74.4020,254.0125 76.2219,249.0312 78.2325,243.8808 80.4509,238.5702 82.8954,233.1105 85.5862,227.5157 88.5451,221.8033 91.7957,215.9949 95.3631,210.1173 99.2737,204.2030 103.5549,198.2922 108.2340,192.4332 113.3375,186.6839 118.8882,181.1130 124.9032,175.7991 131.3891,170.8297 138.3375,166.2959 145.7208,162.2848 153.4903,158.8691 161.5778,156.0968 169.9028,153.9856 178.3807,152.5232 186.9317,151.6730 195.4855,151.3831 203.9842,151.5945 212.3819,152.2470 220.6428,153.2832 228.7401,154.6505 236.6532,156.3023 244.3667,158.1978 251.8684,160.3026 259.1483,162.5880 266.1973,165.0307 273.0065,167.6132 279.5660,170.3226 285.8650,173.1511 291.8907,176.0948 297.6291,179.1539 303.0650,182.3314 308.1830,185.6320 312.9693,189.0609 317.4134,192.6220 321.5101,196.3154 325.2616,200.1365 328.6776,204.0748 331.7753,208.1137 334.5775,212.2319 337.1106,216.4054 339.4022,220.6085 341.4793,224.8165 343.3670,229.0060 345.0882,233.1557 346.6629,237.2469 348.1087,241.2635 349.4406,245.1913 350.6719,249.0184 351.8137,252.7345 352.8759,256.3307 353.8670,259.7997 354.7943,263.1351 355.6645,266.3312 356.4833,269.3835 357.2556,272.2879 357.9858,275.0411 358.6776,277.6403 359.3339,280.0831 359.9572,282.3675 360.5490,284.4922 361.1102,286.4560 361.6405,288.2581 362.1390,289.8980 362.6035,291.3753 363.0304,292.6899 363.4151,293.8417 363.7514,294.8307 364.0317,295.6567 364.2472,296.3193 364.3877,296.8176 364.4422,297.1505 364.3992,297.3162 364.2473,297.3122 363.9757,297.1358 363.5752,296.7835 363.0382,296.2516 362.3595,295.5362 361.5364,294.6339 360.5685,293.5412 359.4576,292.2553 358.2068,290.7739 356.8211,289.0953 355.3057,287.2186 353.6667,285.1432 351.9099,282.8690 350.0410,280.3964 348.0653,277.7260 345.9874,274.8587 343.8108,271.7955 341.5383,268.5374 339.1712,265.0855 336.7096,261.4410 334.1521,257.6051 331.4954,253.5789 328.7345,249.3640 325.8622,244.9623 322.8693,240.3764 319.7441,235.6099 316.4727,230.6676 313.0388,225.5563 309.4238,220.2855 305.6071,214.8674 301.5663,209.3181 297.2774,203.6585 292.7150,197.9148 287.8531,192.1201 282.6648,186.3156 277.1227,180.5524 271.1994,174.8950 264.8681,169.4249 258.1039,164.2462 250.8873,159.4926 243.2113,155.3345 235.0954,151.9782 226.6036,149.6473 217.8599,148.5303 209.0380,148.7094 200.3195,150.1221 191.8481,152.5950 183.7118,155.9132 175.9523,159.8742 168.5817,164.3083 161.5954,169.0807 154.9804,174.0850 148.7191,179.2375 142.7915,184.4709 137.1761,189.7311 131.8507,194.9740 126.7928,200.1638 121.9804,205.2715 117.3919,210.2738 113.0073,215.1523 108.8082,219.8926 104.7781,224.4835 100.9032,228.9164 97.1722,233.1851 93.5764,237.2846 90.1099,241.2113 86.7696,244.9623 83.5551,248.5354 80.4684,251.9286 77.5143,255.1405 74.7000,258.1697 72.0348,261.0156 69.5306,263.6776 67.2012,266.1561 65.0619,268.4521 63.1296,270.5675 61.4210,272.5057 59.9519,274.2711 58.7354,275.8696 57.7798,277.3079 57.0866,278.5933 56.6497,279.7327 56.4551,280.7317 56.4821,281.5945 56.7054,282.3230 57.0978,282.9172 57.6323,283.3756 58.2840,283.6954 59.0307,283.8733 59.8534,283.9058 60.7365,283.7893 61.6674,283.5207 62.6361,283.0972 63.6348,282.5163 64.6578,281.7762 65.7007,280.8754 66.7606,279.8129 67.8356,278.5882 68.9246,277.2012 70.0272,275.6522 71.1437,273.9416 72.2745,272.0704 73.4206,270.0400 74.5829,267.8517 75.7629,265.5075 76.9618,263.0093 78.1811,260.3593 79.4222,257.5601 80.6866,254.6144 81.9759,251.5251 83.2915,248.2955 84.6350,244.9290 86.0084,241.4298 87.4135,237.8023 88.8527,234.0520 90.3291,230.1853 91.8462,226.2100 93.4086,222.1360 95.0225,217.9754 96.6957,213.7441 98.4389,209.4623 100.2661,205.1561 102.1961,200.8592 104.2541,196.6147 106.4736,192.4767 108.8980,188.5115 111.5813,184.7946 114.5853,181.4042 117.9716,178.4071 121.7887,175.8414 126.0587,173.7052 130.7731,171.9587 135.8986,170.5385 141.3891,169.3750 147.1962,168.4040 153.2759,167.5730 159.5915,166.8419 166.1140,166.1825 172.8213,165.5767 179.6972,165.0153 186.7300,164.4965 193.9113,164.0255 201.2345,163.6133 208.6936,163.2767 216.2821,163.0377 223.9917,162.9232 231.8113,162.9655 239.7253,163.2019 247.7128,163.6757 255.7456,164.4370 263.7854,165.5438 271.7811,167.0629 279.6640,169.0703 287.3437,171.6480 294.7049,174.8754 301.6123,178.8112 307.9278,183.4690 313.5394,188.7995 318.3875,194.6930 322.4714,201.0057 325.8350,207.5916 328.5456,214.3233 330.6769,221.0988 332.2991,227.8402 333.4753,234.4896 334.2607,241.0040 334.7033,247.3514 334.8446,253.5084 334.7207,259.4579 334.3633,265.1875 333.8004,270.6886 333.0564,275.9553 332.1534,280.9842 331.1108,285.7735 329.9457,290.3229 328.6736,294.6333 327.3081,298.7062 325.8613,302.5440 324.3438,306.1494 322.7651,309.5255 321.1336,312.6756 319.4564,315.6031 317.7401,318.3115 315.9902,320.8042 314.2117,323.0846 312.4088,325.1560 310.5852,327.0218 308.7444,328.6851 306.8890,330.1491 305.0217,331.4166 303.1447,332.4909 301.2599,333.3748 299.3690,334.0715 297.4737,334.5841 295.5752,334.9157 293.6747,335.0697 291.7735,335.0499 289.8725,334.8599 287.9725,334.5041 286.0745,333.9871 284.1791,333.3138 282.2870,332.4900 280.3987,331.5216 278.5149,330.4157 276.6361,329.1796 274.7628,327.8217 272.8956,326.3511 271.0351,324.7776 269.1822,323.1120 267.3377,321.3658 265.5031,319.5509 263.6801,317.6801 261.8709,315.7663 260.0784,313.8225 258.3062,311.8615 256.5588,309.8953 254.8415,307.9347 253.1607,305.9889 251.5231,304.0647 249.9364,302.1661 248.4083,300.2939 246.9464,298.4450 245.5574,296.6122 244.2466,294.7843 243.0172,292.9455 241.8691,291.0765 240.7986,289.1543 239.7973,287.1535 238.8517,285.0468 237.9429,282.8070 237.0462,280.4075 236.1320,277.8244 235.1659,275.0380 234.1101,272.0338 232.9254,268.8036 231.5721,265.3467 230.0131,261.6695 228.2153,257.7850 226.1515,253.7127 223.8021,249.4759 221.1552,245.1012 218.2072,240.6158 214.9621,236.0464 211.4301,231.4177 207.6265,226.7518 203.5698,222.0677 199.2804,217.3816 194.7789,212.7077 190.0855,208.0592 185.2188,203.4498 180.1959,198.8956 175.0318,194.4172 169.7407,190.0432 164.3367,185.8147 158.8362,181.7918 153.2630,178.0649 147.6579,174.7720 142.0988,172.1264 136.7397,170.4499 131.8676,170.1743 127.9085,171.6928 125.2359,175.0330 123.9109,179.7679 123.7285,185.3508 124.4277,191.3731 125.7948,197.5837 127.6749,203.8348 129.9571,210.0380 132.5616,216.1387 135.4283,222.1022 138.5112,227.9057 141.7737,233.5343 145.1861,238.9782 148.7233,244.2314 152.3639,249.2905 156.0890,254.1543 159.8821,258.8232 163.7281,263.2990 167.6132,267.5851 171.5252,271.6855 175.4530,275.6053 179.3866,279.3503 183.3177,282.9263 187.2392,286.3396 191.1459,289.5957 195.0342,292.6994 198.9022,295.6546 202.7496,298.4636 206.5776,301.1269 210.3887,303.6436 214.1860,306.0108 217.9732,308.2245 221.7541,310.2791 225.5323,312.1686 229.3109,313.8859 233.0926,315.4239 236.8791,316.7755 240.6718,317.9335 244.4709,318.8913 248.2764,319.6422 252.0873,320.1802 255.9021,320.4995 259.7186,320.5948 263.5342,320.4609 267.3458,320.0930 271.1496,319.4866 274.9416,318.6375 278.7168,317.5415 282.4702,316.1948 286.1957,314.5937 289.8869,312.7347 293.5367,310.6146 297.1371,308.2303 300.6794,305.5792 304.1540,302.6587 307.5503,299.4668 310.8565,296.0020 314.0595,292.2632 317.1448,288.2501 320.0961,283.9630 322.8950,279.4033 325.5206,274.5736 327.9488,269.4782 330.1517,264.1234 332.0961,258.5183 333.7426,252.6760 335.0432,246.6150 335.9385,240.3623 336.3548,233.9573 336.2003,227.4577 335.3629,220.9487 333.7145,214.5530 331.1295,208.4352 327.5254,202.7868 322.9130,197.7796 317.4136,193.5070 311.2179,189.9639 304.5218,187.0760 297.4881,184.7435 290.2384,182.8702 282.8603,181.3737 275.4173,180.1866 267.9560,179.2538 260.5116,178.5293 253.1110,177.9735 245.7748,177.5513 238.5184,177.2305 231.3527,176.9817 224.2847,176.7773 217.3181,176.5921 210.4542,176.4034 203.6922,176.1914 197.0311,175.9401 190.4699,175.6370 184.0095,175.2745 177.6536,174.8495 171.4104,174.3649 165.2937,173.8302 159.3248,173.2629 153.5344,172.6910 147.9648,172.1563 142.6727,171.7199 137.7306,171.4677 133.2254,171.5164 129.2480,172.0109 125.8680,173.1010 123.1003,174.8930 120.8868,177.3990 119.1185,180.5326 117.6774,184.1523 116.4647,188.1113 115.4083,192.2842 114.4593,196.5734 113.5849,200.9055 112.7633,205.2267 111.9798,209.4973 111.2244,213.6880 110.4903,217.7774 109.7725,221.7494 109.0676,225.5923 108.3733,229.2976 107.6876,232.8589 107.0094,236.2716 106.3378,239.5322 105.6721,242.6383 105.0120,245.5880 104.3570,248.3798 103.7070,251.0126 103.0617,253.4854 102.4209,255.7971 101.7843,257.9468 101.1516,259.9335 100.5225,261.7563 99.8966,263.4141 99.2735,264.9058 98.6524,266.2305 98.0330,267.3869 97.4146,268.3740 96.7966,269.1908 96.1783,269.8363 95.5591,270.3096 94.9384,270.6097 94.3158,270.7359 93.6906,270.6877 93.0625,270.4644 92.4312,270.0657 91.7964,269.4914 91.1581,268.7415 90.5165,267.8160 89.8716,266.7153 89.2240,265.4401 88.5744,263.9913 87.9238,262.3702 87.2733,260.5785 86.6249,258.6184 85.9806,256.4928 85.3434,254.2053 84.7169,251.7606 84.1060,249.1645 83.5167,246.4245 82.9571,243.5502 82.4377,240.5535 81.9723,237.4499 81.5793,234.2591 81.2831,231.0061 81.1167,227.7227 81.1236,224.4481 81.3608,221.2301 81.8998,218.1227 82.8237,215.1812 84.2175,212.4517 86.1505,209.9585 88.6578,207.6951 91.7319,205.6264 95.3300,203.7005 99.3902,201.8624 103.8465,200.0630 108.6384,198.2630 113.7151,196.4325 119.0358,194.5503 124.5697,192.6020 130.2945,190.5790 136.1954,188.4773 142.2636,186.2974 148.4958,184.0438 154.8925,181.7251 161.4579,179.3540 168.1979,176.9479 175.1195,174.5287 182.2298,172.1232 189.5346,169.7636 197.0374,167.4875 204.7384,165.3391 212.6336,163.3701 220.7127,161.6413 228.9580,160.2253 237.3406,159.2105 245.8157,158.7047 254.3145,158.8393 262.7339,159.7663 270.9281,161.6415 278.7131,164.5827 285.9010,168.6126 292.3531,173.6282 298.0147,179.4330 302.9061,185.8039 307.0894,192.5415 310.6403,199.4881 313.6325,206.5255 316.1318,213.5666 318.1958,220.5470 319.8743,227.4185 321.2108,234.1450 322.2436,240.6993 323.0069,247.0608 323.5316,253.2143 323.8454,259.1489 323.9735,264.8572 323.9388,270.3344 323.7618,275.5781 323.4613,280.5878 323.0538,285.3643 322.5542,289.9097 321.9757,294.2268 321.3297,298.3189 320.6263,302.1898 319.8743,305.8433 319.0813,309.2835 318.2538,312.5143 317.3972,315.5394 316.5164,318.3624 315.6153,320.9868 314.6973,323.4156 313.7653,325.6518 312.8218,327.6981 311.8687,329.5568 310.9079,331.2304 309.9408,332.7208 308.9687,334.0300 307.9927,335.1599 307.0136,336.1121 306.0324,336.8882 305.0498,337.4899 304.0663,337.9186 303.0828,338.1761 302.0997,338.2639 301.1176,338.1837 300.1370,337.9373 299.1585,337.5265 298.1827,336.9535 297.2103,336.2205 296.2417,335.3298 295.2778,334.2840 294.3192,333.0861 293.3669,331.7390 292.4217,330.2459 291.4847,328.6102 290.5570,326.8354 289.6399,324.9250 288.7348,322.8825 287.8432,320.7112 286.9667,318.4141 286.1070,315.9938 285.2659,313.4519 284.4448,310.7894 283.6451,308.0057 282.8677,305.0991 282.1126,302.0660 281.3789,298.9010 280.6641,295.5965 279.9638,292.1432 279.2714,288.5299 278.5771,284.7436 277.8681,280.7706 277.1281,276.5968 276.3371,272.2088 275.4717,267.5948 274.5054,262.7455 273.4096,257.6555 272.1541,252.3236 270.7087,246.7540 269.0439,240.9559 267.1322,234.9442 264.9491,228.7385 262.4734,222.3632 259.6877,215.8467 256.5778,209.2211 253.1325,202.5223 249.3423,195.7904 245.1984,189.0717 240.6910,182.4210 235.8084,175.9072 230.5352,169.6216 224.8523,163.6928 218.7398,158.3104 212.1889,153.7622 205.2355,150.4747 198.0279,148.9884 190.8768,149.7272 184.1473,152.6498 178.0567,157.2740 172.6411,163.0419 167.8500,169.5308 163.6170,176.4615 159.8840,183.6530 156.6055,190.9838 153.7473,198.3680 151.2831,205.7416 149.1925,213.0536 147.4578,220.2621 146.0633,227.3306 144.9930,234.2270 144.2301,240.9230 143.7563,247.3934 143.5511,253.6168 143.5919,259.5758 143.8545,265.2567 144.3131,270.6508 144.9416,275.7537 145.7138,280.5652 146.6047,285.0895 147.5908,289.3341 148.6509,293.3095 149.7665,297.0281 150.9219,300.5036 152.1044,303.7504 153.3041,306.7827 154.5136,309.6140 155.7277,312.2566 156.9433,314.7217 158.1585,317.0187 159.3729,319.1556 160.5865,321.1388 161.8003,322.9731 163.0155,324.6621 164.2333,326.2082 165.4550,327.6126 166.6819,328.8760 167.9150,329.9982 169.1555,330.9785 170.4039,331.8158 171.6609,332.5090 172.9269,333.0566 174.2022,333.4573 175.4871,333.7097 176.7818,333.8126 178.0864,333.7649 179.4013,333.5660 180.7269,333.2153 182.0637,332.7129 183.4126,332.0591 184.7747,331.2547 186.1516,330.3009 187.5454,329.1997 188.9586,327.9535 190.3944,326.5653 191.8570,325.0389 193.3511,323.3787 194.8824,321.5898 196.4575,319.6780 198.0842,317.6496 199.7710,315.5118 201.5276,313.2719 203.3642,310.9378 205.2919,308.5173 207.3219,306.0184 209.4657,303.4481 211.7341,300.8129 214.1370,298.1182 216.6830,295.3675 219.3788,292.5625 222.2284,289.7027 225.2334,286.7852 228.3921,283.8048 231.7000,280.7539 235.1493,277.6230 238.7294,274.4012 242.4274,271.0764 246.2280,267.6361 250.1144,264.0679 254.0681,260.3597 258.0697,256.5007 262.0987,252.4810 266.1335,248.2924 270.1516,243.9286 274.1288,239.3850 278.0391,234.6597 281.8537,229.7533 285.5396,224.6699 289.0583,219.4186 292.3629,214.0147 295.3942,208.4838 298.0748,202.8672 300.2997,197.2330 301.9228,191.6958 302.7408,186.4513 302.4904,181.8254 300.9129,178.2906 297.9418,176.3077 293.8441,176.0026 289.0481,177.1032 283.8965,179.2108 278.5920,181.9966 273.2426,185.2341 267.9059,188.7746 262.6145,192.5206 257.3889,196.4076 252.2443,200.3922 247.1943,204.4455 242.2522,208.5475 237.4328,212.6848 232.7523,216.8476 228.2290,221.0279 223.8826,225.2182 219.7342,229.4101 215.8051,233.5931 212.1158,237.7539 208.6846,241.8759 205.5261,245.9393 202.6495,249.9213 200.0576,253.7969 197.7455,257.5408 195.7003,261.1284 193.9013,264.5378 192.3208,267.7515 190.9255,270.7577 189.6783,273.5508 188.5400,276.1325 187.4715,278.5111 186.4353,280.7009 185.3973,282.7216 184.3274,284.5969 183.2006,286.3530 181.9976,288.0173 180.7039,289.6172 179.3108,291.1785 177.8136,292.7246 176.2121,294.2759 174.5091,295.8485 172.7099,297.4543 170.8218,299.1008 168.8527,300.7911 166.8113,302.5243 164.7061,304.2954 162.5450,306.0966 160.3356,307.9173 158.0844,309.7450 155.7971,311.5658 153.4786,313.3648 151.1330,315.1269 148.7640,316.8370 146.3743,318.4804 143.9667,320.0429 141.5434,321.5111 139.1064,322.8725 136.6576,324.1156 134.1988,325.2297 131.7319,326.2050 129.2586,327.0327 126.7810,327.7048 124.3008,328.2139 121.8203,328.5534 119.3415,328.7172 116.8667,328.6999 114.3985,328.4963 111.9395,328.1019 109.4926,327.5122 107.0608,326.7233 104.6475,325.7314 102.2565,324.5328 99.8916,323.1241 97.5575,321.5019 95.2590,319.6632 93.0016,317.6048 90.7914,315.3238 88.6352,312.8172 86.5407,310.0825 84.5165,307.1171 82.5722,303.9189 80.7187,300.4858 78.9684,296.8165 77.3351,292.9101 75.8346,288.7665 74.4849,284.3868 73.3063,279.7731 72.3222,274.9295 71.5591,269.8623 71.0473,264.5808 70.8214,259.0982 70.9207,253.4327 71.3890,247.6089 72.2747,241.6598 73.6290,235.6281 75.5028,229.5674 77.9412,223.5418 80.9765,217.6232 84.6199,211.8844 88.8562,206.3912 93.6444,201.1933 98.9236,196.3202 104.6224,191.7816 110.6684,187.5717 116.9941,183.6746 123.5400,180.0690 130.2549,176.7322 137.0960,173.6414 144.0272,170.7755 151.0184,168.1159 158.0443,165.6462 165.0834,163.3537 172.1172,161.2290 179.1296,159.2673 186.1057,157.4690 193.0314,155.8406 199.8926,154.3958 206.6744,153.1568 213.3608,152.1553 219.9341,151.4328 226.3762,151.0399 232.6687,151.0333 238.7963,151.4687 244.7489,152.3910 250.5242,153.8234 256.1284,155.7593 261.5741,158.1638 266.8774,160.9809 272.0545,164.1454 277.1194,167.5921 282.0834,171.2623 286.9543,175.1063 291.7375,179.0839 296.4356,183.1633 301.0490,187.3199 305.5762,191.5350 310.0143,195.7944 314.3583,200.0876 318.6020,204.4067 322.7377,208.7458 326.7561,213.1004 330.6465,217.4672 334.3964,221.8436 337.9916,226.2276 341.4155,230.6172 344.6494,235.0108 347.6719,239.4062 350.4588,243.8006 352.9834,248.1895 355.2173,252.5661 357.1316,256.9203 358.6993,261.2379 359.8986,265.5000 360.7157,269.6837 361.1471,273.7632 361.2001,277.7120 360.8923,281.5047 360.2481,285.1190 359.2966,288.5365 358.0686,291.7429 356.5941,294.7278 354.9016,297.4842 353.0173,300.0077 350.9645,302.2960 348.7641,304.3483 346.4346,306.1654 343.9923,307.7485 341.4517,309.1001 338.8258,310.2229 336.1260,311.1202 333.3628,311.7959 330.5456,312.2542 327.6831,312.4996 324.7833,312.5373 321.8536,312.3728 318.9010,312.0120 315.9323,311.4613 312.9538,310.7277 309.9717,309.8186 306.9921,308.7420 304.0212,307.5065 301.0648,306.1210 298.1291,304.5948 295.2202,302.9376 292.3443,301.1589 289.5078,299.2684 286.7171,297.2750 283.9784,295.1870 281.2980,293.0111 278.6816,290.7525 276.1342,288.4139 273.6594,285.9954 271.2594,283.4937 268.9336,280.9025 266.6785,278.2117 264.4867,275.4084 262.3461,272.4770 260.2397,269.4003 258.1451,266.1609 256.0350,262.7421 253.8773,259.1302 251.6367,255.3156 249.2756,251.2938 246.7566,247.0668 244.0439,242.6433 241.1057,238.0379 237.9154,233.2713 234.4532,228.3681 230.7062,223.3563 226.6686,218.2651 222.3410,213.1243 217.7294,207.9636 212.8437,202.8120 207.6963,197.6987 202.3011,192.6542 196.6725,187.7125 190.8248,182.9145 184.7722,178.3127 178.5308,173.9797 172.1220,170.0200 165.5815,166.5906 158.9792,163.9315 152.4586,162.4008 146.2968,162.4660 140.9105,164.5193 136.6685,168.5358 133.6553,174.0382 131.7176,180.4601 130.6451,187.3839 130.2609,194.5490 130.4347,201.7969 131.0729,209.0283 132.1085,216.1784 133.4924,223.2017 135.1885,230.0650 137.1692,236.7421 139.4137,243.2110 141.9057,249.4526 144.6325,255.4487 147.5834,261.1818 150.7496,266.6345 154.1228,271.7889 157.6954,276.6264 161.4592,281.1280 165.4051,285.2738 169.5229,289.0435 173.8006,292.4167 178.2243,295.3730 182.7777,297.8927 187.4418,299.9573 192.1957,301.5501 197.0156,302.6569 201.8761,303.2665 206.7500,303.3715 211.6094,302.9688 216.4261,302.0593 221.1724,300.6491 225.8221,298.7481 230.3509,296.3707 234.7374,293.5344 238.9631,290.2599 243.0124,286.5693 246.8732,282.4862 250.5360,278.0343 253.9937,273.2372 257.2410,268.1176 260.2738,262.6972 263.0884,256.9965 265.6811,251.0352 268.0471,244.8318 270.1802,238.4046 272.0716,231.7721 273.7091,224.9539 275.0762,217.9720 276.1500,210.8526 276.8994,203.6292 277.2817,196.3472 277.2378,189.0718 276.6853,181.9023 275.5086,174.9976 273.5499,168.6207 270.6178,163.2019 266.5664,159.3532 261.4740,157.6368 255.7105,158.1213 249.6960,160.3640 243.6952,163.8199 237.8308,168.0767 232.1530,172.8647 226.6822,178.0118 221.4282,183.4057 216.3986,188.9706 211.6017,194.6527 207.0477,200.4116 202.7489,206.2148 198.7190,212.0342 194.9727,217.8430 191.5240,223.6147 188.3850,229.3219 185.5646,234.9356 183.0667,240.4261 180.8893,245.7634 179.0232,250.9183 177.4519,255.8645 176.1520,260.5797 175.0940,265.0472 174.2437,269.2570 173.5643,273.2064 173.0184,276.9000 172.5696,280.3490 172.1845,283.5704 171.8338,286.5852 171.4930,289.4176 171.1429,292.0929 170.7696,294.6362 170.3641,297.0717 169.9216,299.4208 169.4409,301.7023 168.9235,303.9316 168.3731,306.1205 167.7946,308.2773 167.1936,310.4068 166.5759,312.5110 165.9471,314.5891 165.3125,316.6381 164.6764,318.6531 164.0427,320.6280 163.4144,322.5555 162.7938,324.4280 162.1824,326.2372 161.5814,327.9749 160.9913,329.6332 160.4122,331.2043 159.8440,332.6809 159.2864,334.0560 158.7389,335.3235 158.2008,336.4775 157.6715,337.5129 157.1504,338.4253 156.6369,339.2105 156.1302,339.8653 155.6299,340.3865 155.1354,340.7720 154.6463,341.0196 154.1622,341.1280 153.6828,341.0960 153.2076,340.9230 152.7365,340.6086 152.2690,340.1528 151.8051,339.5559 151.3443,338.8185 150.8863,337.9414 150.4309,336.9257 149.9774,335.7724 149.5256,334.4829 149.0747,333.0585 148.6240,331.5003 148.1727,329.8094 147.7199,327.9865 147.2645,326.0322 146.8054,323.9460 146.3417,321.7272 145.8722,319.3739 145.3963,316.8832 144.9136,314.2508 144.4244,311.4711 143.9299,308.5371 143.4326,305.4399 142.9364,302.1696 142.4472,298.7143 141.9734,295.0615 141.5257,291.1978 141.1179,287.1097 140.7667,282.7843 140.4915,278.2100 140.3148,273.3771 140.2609,268.2793 140.3561,262.9134 140.6273,257.2808 141.1017,251.3871 141.8056,245.2428 142.7642,238.8628 144.0005,232.2667 145.5357,225.4781 147.3891,218.5248 149.5783,211.4386 152.1206,204.2562 155.0337,197.0200 158.3375,189.7814 162.0560,182.6043 166.2196,175.5735 170.8674,168.8069 176.0481,162.4777 181.8157,156.8488 188.2062,152.3150 195.1773,149.4030 202.5220,148.5972 209.8896,149.9969 216.9698,153.2328 223.6110,157.7767 229.7784,163.1912 235.4853,169.1752 240.7569,175.5286 245.6172,182.1159 250.0860,188.8410 254.1794,195.6317 257.9108,202.4306 261.2927,209.1905 264.3381,215.8703 267.0615,222.4344 269.4799,228.8512 271.6133,235.0935 273.4845,241.1386 275.1192,246.9684 276.5454,252.5699 277.7922,257.9352 278.8889,263.0616 279.8645,267.9509 280.7457,272.6087 281.5572,277.0438 282.3205,281.2674 283.0539,285.2916 283.7723,289.1289 284.4873,292.7914 285.2077,296.2903 285.9396,299.6352 286.6872,302.8341 287.4528,305.8932 288.2375,308.8170 289.0413,311.6083 289.8636,314.2685 290.7035,316.7979 291.5597,319.1956 292.4308,321.4601 293.3153,323.5891 294.2118,325.5800 295.1190,327.4301 296.0356,329.1364 296.9605,330.6959 297.8926,332.1058 298.8309,333.3631 299.7746,334.4651 300.7227,335.4094 301.6746,336.1937 302.6295,336.8156 303.5867,337.2731 304.5457,337.5645 305.5058,337.6878 306.4664,337.6415 307.4269,337.4238 308.3865,337.0334 309.3447,336.4687 310.3007,335.7282 311.2536,334.8103 312.2026,333.7135 313.1467,332.4361 314.0847,330.9765 315.0152,329.3326 315.9367,327.5025 316.8474,325.4841 317.7450,323.2750 318.6272,320.8726 319.4910,318.2742 320.3329,315.4768 321.1489,312.4772 321.9343,309.2722 322.6835,305.8580 323.3901,302.2313 324.0468,298.3882 324.6447,294.3252 325.1742,290.0388 325.6238,285.5260 325.9807,280.7843 326.2304,275.8118 326.3564,270.6080 326.3406,265.1733 326.1626,259.5104 325.7998,253.6238 325.2271,247.5209 324.4169,241.2125 323.3384,234.7137 321.9575,228.0446 320.2355,221.2322 318.1291,214.3124 315.5885,207.3327 312.5568,200.3567 308.9693,193.4700 304.7549,186.7874 299.8424,180.4600 294.1754,174.6754 287.7387,169.6399 280.5863,165.5329 272.8483,162.4495 264.6995,160.3740 256.3133,159.2046 247.8303,158.8022 239.3524,159.0272 230.9494,159.7568 222.6680,160.8882 214.5388,162.3364 206.5815,164.0307 198.8079,165.9117 191.2236,167.9289 183.8302,170.0392 176.6259,172.2059 169.6068,174.3977 162.7682,176.5889 156.1054,178.7588 149.6151,180.8914 143.2963,182.9754 137.1518,185.0041 131.1885,186.9754 125.4196,188.8919 119.8646,190.7616 114.5514,192.5982 109.5167,194.4229 104.8072,196.2651 100.4783,198.1638 96.5909,200.1674 93.2034,202.3298 90.3576,204.7024 88.0645,207.3205 86.2960,210.1917 84.9908,213.2931 84.0705,216.5789 83.4557,219.9930 83.0772,223.4795 82.8784,226.9886 82.8159,230.4789 82.8563,233.9168 82.9749,237.2758 83.1526,240.5348 83.3751,243.6776 83.6317,246.6911 83.9137,249.5651 84.2146,252.2917 84.5292,254.8643 84.8534,257.2778 85.1838,259.5282 85.5178,261.6121 85.8533,263.5268 86.1884,265.2702 86.5217,266.8404 86.8521,268.2362 87.1785,269.4563 87.5003,270.4998 87.8169,271.3662 88.1278,272.0548 88.4328,272.5654 88.7317,272.8979 89.0246,273.0520 89.3116,273.0280 89.5928,272.8261 89.8687,272.4466 90.1396,271.8900 90.4060,271.1567 90.6685,270.2475 90.9278,269.1630 91.1844,267.9042 91.4392,266.4720 91.6929,264.8673 91.9463,263.0914 92.2003,261.1454 92.4558,259.0306 92.7138,256.7487 92.9753,254.3014 93.2415,251.6906 93.5137,248.9188 93.7934,245.9887 94.0826,242.9037 94.3834,239.6684 94.6988,236.2879 95.0324,232.7694 95.3890,229.1218 95.7747,225.3566 96.1978,221.4889 96.6694,217.5385 97.2047,213.5313 97.8247,209.5014 98.5584,205.4935 99.4464,201.5655 100.5441,197.7908 101.9252,194.2572 103.6801,191.0594 105.9052,188.2808 108.6801,185.9673 112.0417,184.1085 115.9743,182.6419 120.4221,181.4776 125.3110,180.5242 130.5675,179.7037 136.1279,178.9552 141.9408,178.2345 147.9667,177.5104 154.1770,176.7623 160.5514,175.9780 167.0768,175.1523 173.7458,174.2859 180.5550,173.3852 187.5039,172.4612 194.5935,171.5300 201.8252,170.6123" fill="none" stroke="#8B0000" opacity="0.5" stroke-width="0.15" stroke-linejoin="round" stroke-linecap="round" />
    <polyline points="364.5600,303.1909 364.5600,303.1054 364.5593,302.8490 364.5562,302.4217 364.5480,301.8235 364.5306,301.0543 364.4990,300.1143 364.4470,299.0033 364.3675,297.7213 364.2521,296.2685 364.0917,294.6447 363.8764,292.8501 363.5955,290.8846 363.2380,288.7483 362.7925,286.4413 362.2477,283.9637 361.5923,281.3159 360.8157,278.4982 359.9075,275.5112 358.8583,272.3555 357.6593,269.0323 356.3026,265.5429 354.7807,261.8888 353.0868,258.0724 351.2143,254.0962 349.1570,249.9634 346.9082,245.6780 344.4610,241.2447 341.8079,236.6695 338.9406,231.9593 335.8496,227.1226 332.5246,222.1696 328.9538,217.1129 325.1240,211.9675 321.0212,206.7514 316.6296,201.4868 311.9331,196.1998 306.9143,190.9220 301.5563,185.6912 295.8424,180.5522 289.7577,175.5578 283.2906,170.7698 276.4345,166.2589 269.1913,162.1044 261.5741,158.3915 253.6109,155.2062 245.3474,152.6274 236.8466,150.7169 228.1855,149.5098 219.4479,149.0101 210.7158,149.1911 202.0628,150.0025 193.5495,151.3791 185.2228,153.2499 177.1169,155.5438 169.2554,158.1942 161.6540,161.1406 154.3220,164.3295 147.2647,167.7142 140.4845,171.2549 133.9822,174.9176 127.7579,178.6741 121.8119,182.5010 116.1451,186.3794 110.7596,190.2943 105.6586,194.2340 100.8466,198.1901 96.3294,202.1560 92.1129,206.1273 88.2033,210.1007 84.6051,214.0735 81.3209,218.0427 78.3495,222.0046 75.6854,225.9538 73.3181,229.8833 71.2326,233.7839 69.4095,237.6448 67.8266,241.4539 66.4600,245.1983 65.2852,248.8651 64.2787,252.4417 63.4181,255.9163 62.6827,259.2783 62.0539,262.5179 61.5150,265.6267 61.0513,268.5972 60.6498,271.4231 60.2991,274.0990 59.9889,276.6201 59.7107,278.9826 59.4567,281.1832 59.2202,283.2191 58.9954,285.0882 58.7774,286.7886 58.5622,288.3189 58.3463,289.6782 58.1271,290.8656 57.9030,291.8807 57.6729,292.7232 57.4366,293.3933 57.1949,293.8911 56.9494,294.2171 56.7031,294.3720 56.4597,294.3566 56.2244,294.1718 56.0037,293.8188 55.8055,293.2987 55.6393,292.6127 55.5160,291.7620 55.4480,290.7479 55.4492,289.5714 55.5343,288.2332 55.7188,286.7339 56.0184,285.0736 56.4482,283.2520 57.0222,281.2684 57.7523,279.1220 58.6486,276.8114 59.7184,274.3353 60.9665,271.6924 62.3955,268.8815 64.0061,265.9018 65.7976,262.7529 67.7684,259.4347 69.9167,255.9476 72.2409,252.2926 74.7399,248.4712 77.4136,244.4855 80.2632,240.3383 83.2915,236.0334 86.5030,231.5753 89.9040,226.9701 93.5029,222.2251 97.3103,217.3498 101.3386,212.3560 105.6024,207.2586 110.1181,202.0760 114.9038,196.8309 119.9790,191.5517 125.3641,186.2728 131.0800,181.0366 137.1475,175.8949 143.5860,170.9107 150.4120,166.1610 157.6367,161.7383 165.2614,157.7524 173.2720,154.3285 181.6308,151.5991 190.2709,149.6876 199.0950,148.6831 207.9853,148.6174 216.8225,149.4561 225.5035,151.1114 233.9517,153.4662 242.1175,156.3967 249.9726,159.7866 257.5047,163.5336 264.7118,167.5507 271.5988,171.7645 278.1746,176.1142 284.4508,180.5492 290.4401,185.0274 296.1555,189.5144 301.6095,193.9816 306.8135,198.4061 311.7772,202.7693 316.5084,207.0563 321.0125,211.2556 325.2921,215.3586 329.3473,219.3587 333.1755,223.2515 336.7714,227.0343 340.1272,230.7061 343.2334,234.2672 346.0791,237.7191 348.6533,241.0643 350.9463,244.3061 352.9510,247.4477 354.6652,250.4925 356.0925,253.4426 357.2434,256.2985 358.1353,259.0589 358.7910,261.7205 359.2370,264.2779 359.5017,266.7247 359.6130,269.0535 359.5975,271.2568 359.4791,273.3270 359.2791,275.2573 359.0158,277.0412 358.7048,278.6733 358.3592,280.1484 357.9899,281.4625 357.6060,282.6118 357.2148,283.5934 356.8224,284.4045 356.4335,285.0431 356.0521,285.5074 355.6809,285.7961 355.3222,285.9080 354.9774,285.8423 354.6473,285.5986 354.3322,285.1765 354.0320,284.5759 353.7459,283.7971 353.4730,282.8404 353.2117,281.7066 352.9602,280.3964 352.7161,278.9110 352.4770,277.2519 352.2397,275.4207 352.0009,273.4197 351.7564,271.2511 351.5020,268.9181 351.2326,266.4239 350.9422,263.7728 350.6244,260.9697 350.2712,258.0202 349.8736,254.9314 349.4208,251.7114 348.9001,248.3702 348.2960,244.9196 347.5903,241.3739 346.7606,237.7497 345.7808,234.0669 344.6200,230.3478 343.2427,226.6175 341.6102,222.9021 339.6827,219.2272 337.4227,215.6151 334.7996,212.0820 331.7933,208.6361 328.3971,205.2769 324.6162,201.9968 320.4660,198.7837 315.9674,195.6234 311.1435,192.5024 306.0169,189.4096 300.6074,186.3370 294.9315,183.2805 289.0017,180.2402 282.8271,177.2207 276.4137,174.2309 269.7644,171.2849 262.8809,168.4017 255.7635,165.6058 248.4128,162.9281 240.8302,160.4057 233.0198,158.0834 224.9895,156.0140 216.7528,154.2596 208.3314,152.8924 199.7585,151.9947 191.0819,151.6577 182.3684,151.9761 173.7054,153.0378 165.1987,154.9070 156.9617,157.6056 149.0994,161.1013 141.6918,165.3112 134.7856,170.1194 128.3964,175.3984 122.5165,181.0267 117.1234,186.8973 112.1872,192.9203 107.6748,199.0222 103.5527,205.1434 99.7883,211.2364 96.3506,217.2627 93.2107,223.1920 90.3417,229.0001 87.7187,234.6678 85.3191,240.1802 83.1223,245.5256 81.1097,250.6951 79.2646,255.6819 77.5720,260.4811 76.0187,265.0889 74.5929,269.5027 73.2841,273.7209 72.0831,277.7424 70.9817,281.5665 69.9726,285.1930 69.0492,288.6220 68.2056,291.8540 67.4363,294.8895 66.7363,297.7292 66.1009,300.3741 65.5257,302.8251 65.0063,305.0834 64.5386,307.1503 64.1188,309.0271 63.7429,310.7150 63.4073,312.2156 63.1085,313.5300 62.8432,314.6597 62.6083,315.6059 62.4010,316.3697 62.2190,316.9522 62.0602,317.3542 61.9230,317.5765 61.8064,317.6195 61.7097,317.4835 61.6330,317.1686 61.5768,316.6747 61.5421,316.0014 61.5306,315.1482 61.5446,314.1144 61.5867,312.8990 61.6602,311.5010 61.7688,309.9194 61.9167,308.1528 62.1084,306.2000 62.3487,304.0597 62.6430,301.7307 62.9968,299.2117 63.4159,296.5018 63.9065,293.6000 64.4750,290.5054 65.1284,287.2176 65.8738,283.7363 66.7191,280.0615 67.6723,276.1938 68.7426,272.1340 69.9395,267.8836 71.2736,263.4449 72.7565,258.8208 74.4009,254.0155 76.2207,249.0342 78.2313,243.8838 80.4496,238.5733 82.8940,233.1136 85.5846,227.5189 88.5434,221.8066 91.7938,215.9982 95.3610,210.1205 99.2715,204.2063 103.5525,198.2954 108.2314,192.4363 113.3347,186.6870 118.8852,181.1159 124.9000,175.8019 131.3856,170.8322 138.3338,166.2981 145.7169,162.2867 153.4862,158.8706 161.5737,156.0980 169.8986,153.9865 178.3765,152.5237 186.9274,151.6732 195.4813,151.3831 203.9801,151.5943 212.3778,152.2466 220.6389,153.2826 228.7363,154.6498 236.6496,156.3014 244.3632,158.1969 251.8650,160.3017 259.1450,162.5869 266.1942,165.0297 273.0035,167.6121 279.5632,170.3215 285.8623,173.1499 291.8881,176.0936 297.6267,179.1527 303.0628,182.3301 308.1810,185.6307 312.9674,189.0596 317.4117,192.6206 321.5086,196.3139 325.2602,200.1350 328.6763,204.0733 331.7742,208.1121 334.5766,212.2304 337.1098,216.4038 339.4015,220.6070 341.4787,224.8150 343.3665,229.0045 345.0877,233.1542 346.6624,237.2455 348.1082,241.2622 349.4402,245.1900 350.6715,249.0172 351.8134,252.7333 352.8756,256.3297 353.8667,259.7988 354.7940,263.1342 355.6642,266.3304 356.4830,269.3828 357.2553,272.2873 357.9855,275.0406 358.6773,277.6398 359.3336,280.0827 359.9569,282.3673 360.5488,284.4920 361.1099,286.4559 361.6403,288.2581 362.1388,289.8980 362.6032,291.3754 363.0302,292.6901 363.4149,293.8421 363.7512,294.8312 364.0316,295.6572 364.2471,296.3199 364.3877,296.8183 364.4422,297.1513 364.3993,297.3170 364.2475,297.3132 363.9760,297.1369 363.5755,296.7846 363.0386,296.2528 362.3601,295.5376 361.5371,294.6353 360.5693,293.5427 359.4584,292.2569 358.2078,290.7756 356.8222,289.0972 355.3069,287.2205 353.6679,285.1452 351.9112,282.8711 350.0424,280.3986 348.0668,277.7283 345.9889,274.8611 343.8124,271.7980 341.5400,268.5400 339.1729,265.0883 336.7114,261.4438 334.1540,257.6080 331.4973,253.5819 328.7365,249.3671 325.8643,244.9655 322.8715,240.3797 319.7464,235.6132 316.4751,230.6710 313.0412,225.5598 309.4264,220.2890 305.6098,214.8710 301.5692,209.3218 297.2804,203.6622 292.7182,197.9185 287.8565,192.1238 282.6684,186.3192 277.1265,180.5560 271.2035,174.8985 264.8724,169.4282 258.1084,164.2492 250.8920,159.4954 243.2164,155.3368 235.1006,151.9799 226.6090,149.6484 217.8653,148.5306 209.0434,148.7089 200.3248,150.1210 191.8532,152.5932 183.7166,155.9110 175.9569,159.8717 168.5860,164.3056 161.5995,169.0777 154.9842,174.0820 148.7227,179.2344 142.7949,184.4678 137.1793,189.7280 131.8536,194.9709 126.7956,200.1608 121.9830,205.2685 117.3944,210.2709 113.0096,215.1495 108.8103,219.8899 104.7802,224.4809 100.9052,228.9139 97.1741,233.1827 93.5782,237.2823 90.1116,241.2091 86.7712,244.9603 83.5566,248.5334 80.4698,251.9268 77.5156,255.1387 74.7012,258.1681 72.0359,261.0141 69.5316,263.6763 67.2021,266.1549 65.0628,268.4509 63.1303,270.5665 61.4216,272.5048 59.9524,274.2703 58.7358,275.8689 57.7801,277.3074 57.0868,278.5929 56.6498,279.7323 56.4551,280.7315 56.4820,281.5944 56.7052,282.3230 57.0976,282.9173 57.6321,283.3758 58.2838,283.6957 59.0304,283.8737 59.8531,283.9063 60.7362,283.7900 61.6671,283.5215 62.6358,283.0980 63.6345,282.5173 64.6575,281.7773 65.7004,280.8766 66.7603,279.8142 67.8353,278.5897 68.9243,277.2028 70.0270,275.6538 71.1434,273.9433 72.2742,272.0723 73.4203,270.0420 74.5826,267.8538 75.7626,265.5097 76.9615,263.0116 78.1808,260.3617 79.4219,257.5627 80.6863,254.6170 81.9755,251.5278 83.2911,248.2983 84.6346,244.9319 86.0079,241.4328 87.4130,237.8054 88.8523,234.0552 90.3286,230.1885 91.8456,226.2133 93.4080,222.1393 95.0218,217.9788 96.6950,213.7475 98.4382,209.4657 100.2653,205.1595 102.1952,200.8625 104.2531,196.6179 106.4723,192.4798 108.8965,188.5144 111.5795,184.7972 114.5832,181.4066 117.9692,178.4090 121.7858,175.8429 126.0554,173.7064 130.7694,171.9597 135.8946,170.5394 141.3848,169.3757 147.1916,168.4047 153.2712,167.5736 159.5866,166.8426 166.1090,166.1832 172.8161,165.5774 179.6919,165.0160 186.7246,164.4973 193.9057,164.0263 201.2288,163.6141 208.6878,163.2775 216.2762,163.0384 223.9857,162.9238 231.8051,162.9660 239.7191,163.2022 247.7066,163.6759 255.7393,164.4370 263.7791,165.5434 271.7748,167.0621 279.6580,169.0690 287.3379,171.6462 294.6994,174.8730 301.6072,178.8081 307.9233,183.4653 313.5356,188.7952 318.3844,194.6883 322.4689,201.0007 325.8330,207.5865 328.5441,214.3181 330.6758,221.0936 332.2983,227.8351 333.4748,234.4847 334.2604,240.9992 334.7032,247.3468 334.8446,253.5040 334.7208,259.4537 334.3635,265.1836 333.8006,270.6849 333.0567,275.9518 332.1537,280.9809 331.1110,285.7704 329.9460,290.3201 328.6738,294.6306 327.3083,298.7038 325.8614,302.5417 324.3438,306.1473 322.7651,309.5236 321.1334,312.6739 319.4562,315.6016 317.7398,318.3101 315.9898,320.8030 314.2111,323.0835 312.4081,325.1552 310.5844,327.0211 308.7434,328.6846 306.8880,330.1486 305.0206,331.4163 303.1434,332.4907 301.2585,333.3748 299.3675,334.0716 297.4720,334.5843 295.5734,334.9160 293.6728,335.0702 291.7715,335.0504 289.8703,334.8606 287.9703,334.5049 286.0721,333.9880 284.1765,333.3148 282.2843,332.4910 280.3959,331.5228 278.5120,330.4169 276.6330,329.1809 274.7596,327.8231 272.8922,326.3526 271.0316,324.7792 269.1785,323.1137 267.3339,321.3675 265.4991,319.5527 263.6759,317.6820 261.8665,315.7683 260.0738,313.8247 258.3014,311.8638 256.5538,309.8978 254.8363,307.9374 253.1552,305.9917 251.5174,304.0678 249.9304,302.1695 248.4020,300.2976 246.9398,298.4491 245.5505,296.6169 244.2395,294.7895 243.0098,292.9514 241.8614,291.0831 240.7907,289.1618 239.7893,287.1619 238.8436,285.0563 237.9348,282.8176 237.0383,280.4194 236.1244,277.8377 235.1586,275.0528 234.1034,272.0500 232.9193,268.8214 231.5669,265.3660 230.0088,261.6902 228.2121,257.8072 226.1495,253.7362 223.8013,249.5008 221.1556,245.1272 218.2089,240.6430 214.9651,236.0746 211.4343,231.4469 207.6319,226.7819 203.5764,222.0986 199.2880,217.4133 194.7876,212.7401 190.0952,208.0922 185.2295,203.4833 180.2075,198.9295 175.0444,194.4513 169.7543,190.0773 164.3512,185.8484 158.8516,181.8245 153.2792,178.0959 147.6746,174.8003 142.1155,172.1500 136.7551,170.4664 131.8796,170.1805 127.9145,171.6867 125.2343,175.0158 123.9024,179.7429 123.7150,185.3210 124.4107,191.3405 125.7755,197.5495 127.6540,203.7997 129.9353,210.0023 132.5391,216.1027 135.4055,222.0660 138.4883,227.8694 141.7508,233.4980 145.1633,238.9420 148.7006,244.1954 152.3413,249.2547 156.0667,254.1186 159.8598,258.7878 163.7058,263.2639 167.5909,267.5504 171.5028,271.6512 175.4303,275.5716 179.3635,279.3172 183.2939,282.8941 187.2147,286.3082 191.1204,289.5654 195.0075,292.6705 198.8740,295.6272 202.7198,298.4379 206.5459,301.1033 210.3549,303.6223 214.1498,305.9922 217.9345,308.2088 221.7126,310.2667 225.4878,312.1597 229.2634,313.8809 233.0419,315.4232 236.8252,316.7792 240.6146,317.9421 244.4105,318.9049 248.2127,319.6612 252.0203,320.2047 255.8319,320.5299 259.6452,320.6312 263.4578,320.5036 267.2664,320.1422 271.0675,319.5425 274.8567,318.7003 278.6295,317.6115 282.3806,316.2721 286.1041,314.6785 289.7935,312.8272 293.4417,310.7149 297.0409,308.3387 300.5824,305.6956 304.0565,302.7834 307.4527,299.5999 310.7593,296.1435 313.9632,292.4132 317.0500,288.4086 320.0035,284.1299 322.8053,279.5787 325.4346,274.7574 327.8675,269.6702 330.0761,264.3234 332.0278,258.7258 333.6832,252.8905 334.9946,246.8357 335.9034,240.5881 336.3364,234.1863 336.2026,227.6874 335.3909,221.1752 333.7737,214.7708 331.2247,208.6372 327.6586,202.9655 323.0820,197.9293 317.6123,193.6262 311.4382,190.0545 304.7567,187.1420 297.7319,184.7892 290.4871,182.8994 283.1112,181.3896 275.6681,180.1919 268.2053,179.2506 260.7582,178.5193 253.3542,177.9584 246.0139,177.5324 238.7529,177.2092 231.5824,176.9591 224.5094,176.7545 217.5379,176.5700 210.6689,176.3829 203.9022,176.1734 197.2363,175.9251 190.6705,175.6257 184.2055,175.2670 177.8449,174.8461 171.5968,174.3656 165.4748,173.8346 159.4999,173.2705 153.7024,172.7009 148.1243,172.1671 142.8217,171.7293 137.8667,171.4727 133.3456,171.5130 129.3494,171.9940 125.9490,173.0661 123.1612,174.8374 120.9301,177.3233 119.1479,180.4401 117.6962,184.0472 116.4757,187.9977 115.4134,192.1655 114.4598,196.4521 113.5818,200.7836 112.7571,205.1056 111.9710,209.3781 111.2133,213.5715 110.4771,217.6641 109.7574,221.6399 109.0508,225.4870 108.3547,229.1967 107.6674,232.7626 106.9877,236.1800 106.3146,239.4455 105.6475,242.5566 104.9859,245.5114 104.3296,248.3084 103.6782,250.9465 103.0315,253.4245 102.3894,255.7415 101.7515,257.8965 101.1176,259.8886 100.4872,261.7168 99.8601,263.3801 99.2357,264.8773 98.6135,266.2075 97.9929,267.3694 97.3733,268.3621 96.7541,269.1845 96.1346,269.8355 95.5143,270.3143 94.8925,270.6200 94.2686,270.7519 93.6423,270.7093 93.0130,270.4916 92.3805,270.0985 91.7446,269.5298 91.1051,268.7854 90.4622,267.8654 89.8161,266.7703 89.1673,265.5006 88.5164,264.0573 87.8644,262.4416 87.2127,260.6554 86.5629,258.7007 85.9172,256.5804 85.2786,254.2982 84.6507,251.8587 84.0383,249.2677 83.4476,246.5328 82.8865,243.6634 82.3655,240.6715 81.8985,237.5724 81.5038,234.3859 81.2058,231.1367 81.0374,227.8566 81.0420,224.5847 81.2764,221.3684 81.8120,218.2617 82.7318,215.3195 84.1204,212.5880 86.0474,210.0914 88.5478,207.8235 91.6147,205.7496 95.2056,203.8180 99.2588,201.9739 103.7085,200.1685 108.4942,198.3623 113.5651,196.5257 118.8804,194.6374 124.4093,192.6831 130.1295,190.6539 136.0259,188.5461 142.0900,186.3599 148.3181,184.1000 154.7111,181.7748 161.2728,179.3972 168.0093,176.9843 174.9277,174.5582 182.0349,172.1455 189.3368,169.7783 196.8370,167.4944 204.5358,165.3380 212.4291,163.3605 220.5070,161.6229 228.7516,160.1978 237.1343,159.1734 245.6105,158.6577 254.1116,158.7818 262.5350,159.6979 270.7349,161.5618 278.5278,164.4916 285.7259,168.5106 292.1901,173.5166 297.8650,179.3135 302.7703,185.6781 306.9679,192.4110 310.5331,199.3542 313.5393,206.3894 316.0526,213.4293 318.1303,220.4091 319.8222,227.2808 321.1719,234.0080 322.2177,240.5634 322.9937,246.9264 323.5309,253.0818 323.8571,259.0186 323.9973,264.7293 323.9746,270.2092 323.8095,275.4558 323.5207,280.4686 323.1248,285.2484 322.6367,289.7972 322.0696,294.1179 321.4349,298.2137 320.7428,302.0884 320.0019,305.7459 319.2200,309.1901 318.4035,312.4250 317.5579,315.4543 316.6879,318.2817 315.7977,320.9104 314.8905,323.3436 313.9692,325.5842 313.0364,327.6349 312.0940,329.4982 311.1438,331.1762 310.1872,332.6712 309.2256,333.9849 308.2600,335.1192 307.2913,336.0758 306.3205,336.8563 305.3482,337.4623 304.3750,337.8953 303.4017,338.1569 302.4288,338.2486 301.4568,338.1723 300.4864,337.9295 299.5180,337.5222 298.5523,336.9524 297.5898,336.2222 296.6312,335.3341 295.6772,334.2905 294.7285,333.0943 293.7860,331.7484 292.8506,330.2558 291.9233,328.6200 291.0053,326.8443 290.0977,324.9322 289.2021,322.8870 288.3199,320.7120 287.4526,318.4101 286.6019,315.9836 285.7696,313.4343 284.9569,310.7627 284.1653,307.9686 283.3955,305.0499 282.6474,302.0031 281.9201,298.8227 281.2108,295.5013 280.5153,292.0295 279.8265,288.3961 279.1348,284.5885 278.4272,280.5930 277.6873,276.3959 276.8953,271.9839 276.0276,267.3454 275.0580,262.4715 273.9579,257.3569 272.6973,252.0009 271.2461,246.4076 269.5748,240.5866 267.6563,234.5526 265.4659,228.3257 262.9826,221.9301 260.1887,215.3944 257.0699,208.7508 253.6146,202.0357 249.8128,195.2895 245.6553,188.5593 241.1316,181.9011 236.2289,175.3856 230.9310,169.1071 225.2178,163.1986 219.0686,157.8572 212.4756,153.3820 205.4799,150.2123 198.2414,148.8895 191.0809,149.8061 184.3565,152.8713 178.2693,157.5841 172.8468,163.3973 168.0380,169.9037 163.7787,176.8354 160.0131,184.0180 156.6977,191.3339 153.7996,198.6992 151.2935,206.0511 149.1593,213.3394 147.3795,220.5225 145.9384,227.5643 144.8195,234.4330 144.0059,241.1004 143.4784,247.5421 143.2160,253.7371 143.1957,259.6685 143.3926,265.3237 143.7807,270.6946 144.3337,275.7777 145.0255,280.5739 145.8310,285.0879 146.7271,289.3279 147.6930,293.3048 148.7107,297.0315 149.7651,300.5218 150.8438,303.7901 151.9375,306.8505 153.0393,309.7161 154.1443,312.3991 155.2496,314.9102 156.3537,317.2585 157.4561,319.4516 158.5574,321.4954 159.6582,323.3945 160.7599,325.1522 161.8638,326.7705 162.9712,328.2507 164.0834,329.5932 165.2014,330.7977 166.3264,331.8635 167.4591,332.7897 168.6001,333.5750 169.7501,334.2182 170.9094,334.7180 172.0785,335.0733 173.2577,335.2831 174.4474,335.3465 175.6481,335.2632 176.8603,335.0330 178.0849,334.6561 179.3229,334.1333 180.5755,333.4658 181.8446,332.6554 183.1323,331.7043 184.4411,330.6156 185.7745,329.3931 187.1362,328.0412 188.5312,326.5651 189.9647,324.9711 191.4434,323.2662 192.9745,321.4584 194.5664,319.5563 196.2283,317.5698 197.9704,315.5094 199.8036,313.3860 201.7396,311.2113 203.7901,308.9971 205.9671,306.7549 208.2825,304.4959 210.7470,302.2302 213.3705,299.9663 216.1612,297.7108 219.1250,295.4677 222.2658,293.2382 225.5844,291.0199 229.0789,288.8075 232.7443,286.5919 236.5730,284.3614 240.5545,282.1012 244.6761,279.7949 248.9231,277.4248 253.2791,274.9724 257.7267,272.4193 262.2474,269.7481 266.8219,266.9422 271.4303,263.9865 276.0522,260.8676 280.6662,257.5740 285.2499,254.0961 289.7795,250.4263 294.2289,246.5592 298.5690,242.4920 302.7661,238.2249 306.7804,233.7618 310.5626,229.1123 314.0504,224.2939 317.1614,219.3373 319.7838,214.2950 321.7628,209.2574 322.8860,204.3794 322.8861,199.9148 321.5086,196.2202 318.6795,193.6389 314.6203,192.2895 309.7131,192.0209 304.2945,192.5719 298.5874,193.7067 292.7250,195.2519 286.7864,197.0884 280.8208,199.1355 274.8612,201.3392 268.9319,203.6627 263.0533,206.0812 257.2437,208.5778 251.5212,211.1403 245.9038,213.7595 240.4101,216.4273 235.0589,219.1348 229.8681,221.8720 224.8544,224.6260 220.0317,227.3813 215.4098,230.1193 210.9933,232.8184 206.7804,235.4556 202.7621,238.0069 198.9219,240.4488 195.2366,242.7604 191.6768,244.9241 188.2085,246.9270 184.7953,248.7614 181.4001,250.4246 177.9870,251.9190 174.5236,253.2506 170.9817,254.4279 167.3390,255.4610 163.5790,256.3597 159.6915,257.1325 155.6719,257.7858 151.5210,258.3234 147.2442,258.7461 142.8506,259.0521 138.3525,259.2367 133.7647,259.2933 129.1038,259.2138 124.3883,258.9889 119.6380,258.6088 114.8744,258.0635 110.1209,257.3435 105.4030,256.4395 100.7496,255.3435 96.1935,254.0488 91.7737,252.5507 87.5374,250.8471 83.5435,248.9405 79.8677,246.8403 76.6087,244.5670 73.8957,242.1597 71.8918,239.6869 70.7830,237.2561 70.7313,235.0115 71.7965,233.0968 73.8865,231.5958 76.8001,230.5046 80.3182,229.7581 84.2609,229.2727 88.4995,228.9721 92.9466,228.7952 97.5434,228.6966 102.2499,228.6433 107.0382,228.6124 111.8880,228.5883 116.7835,228.5609 121.7122,228.5246 126.6629,228.4766 131.6251,228.4164 136.5887,228.3446 141.5433,228.2625 146.4783,228.1712 151.3831,228.0711 156.2469,227.9609 161.0593,227.8375 165.8109,227.6952 170.4940,227.5259 175.1028,227.3184 179.6347,227.0592 184.0901,226.7324 188.4734,226.3205 192.7927,225.8053 197.0596,225.1686 201.2884,224.3930 205.4958,223.4627 209.6993,222.3644 213.9161,221.0871 218.1621,219.6228 222.4505,217.9659 226.7907,216.1137 231.1882,214.0652 235.6436,211.8215 240.1522,209.3853 244.7044,206.7610 249.2853,203.9544 253.8742,200.9736 258.4448,197.8297 262.9638,194.5379 267.3892,191.1195 271.6684,187.6061 275.7332,184.0451 279.4936,180.5095 282.8288,177.1159 285.5777,174.0512 287.5414,171.6058 288.5324,170.1700 288.4967,170.1001 287.6049,171.4795 286.1525,174.0702 284.3927,177.5154 282.4831,181.5068 280.5085,185.8232 278.5120,190.3146 276.5147,194.8792 274.5261,199.4467 272.5498,203.9679 270.5863,208.4072 268.6346,212.7390 266.6927,216.9444 264.7589,221.0099 262.8313,224.9255 260.9084,228.6846 258.9891,232.2828 257.0728,235.7180 255.1596,238.9894 253.2499,242.0979 251.3450,245.0453 249.4467,247.8348 247.5573,250.4700 245.6798,252.9553 243.8179,255.2957 241.9756,257.4962 240.1575,259.5621 238.3684,261.4987 236.6137,263.3108 234.8986,265.0029 233.2285,266.5789 231.6087,268.0419 230.0441,269.3941 228.5391,270.6366 227.0973,271.7696 225.7215,272.7919 224.4133,273.7013 223.1731,274.4945 221.9996,275.1670 220.8900,275.7137 219.8398,276.1284 218.8426,276.4044 217.8900,276.5348 216.9720,276.5123 216.0764,276.3297 215.1895,275.9800 214.2958,275.4569 213.3787,274.7544 212.4203,273.8676 211.4018,272.7925 210.3043,271.5260 209.1090,270.0662 207.7975,268.4122 206.3528,266.5641 204.7597,264.5228 203.0054,262.2899 201.0800,259.8674 198.9768,257.2573 196.6932,254.4616 194.2302,251.4822 191.5929,248.3204 188.7900,244.9770 185.8340,241.4526 182.7406,237.7471 179.5284,233.8607 176.2185,229.7937 172.8344,225.5468 169.4020,221.1221 165.9493,216.5230 162.5073,211.7554 159.1106,206.8288 155.7984,201.7575 152.6171,196.5633 149.6230,191.2793 146.8877,185.9569 144.5050,180.6779 142.6023,175.5766 141.3532,170.8777 140.9769,166.9504 141.6787,164.3244 143.4838,163.5016 146.1252,164.5753 149.2215,167.1763 152.4964,170.8157 155.8055,175.1094 159.0843,179.8012 162.3066,184.7257 165.4632,189.7751 168.5526,194.8773 171.5762,199.9833 174.5361,205.0593 177.4339,210.0817 180.2700,215.0343 183.0438,219.9063 185.7528,224.6908 188.3925,229.3838 190.9570,233.9834 193.4379,238.4890 195.8252,242.9011 198.1069,247.2203 200.2696,251.4467 202.2986,255.5798 204.1787,259.6174 205.8945,263.5561 207.4318,267.3899 208.7778,271.1112 209.9221,274.7101 210.8578,278.1754 211.5814,281.4943 212.0937,284.6538 212.3994,287.6406 212.5071,290.4427 212.4290,293.0489 212.1801,295.4505 211.7778,297.6405 211.2408,299.6149 210.5887,301.3718 209.8413,302.9122 209.0179,304.2394 208.1371,305.3586 207.2160,306.2773 206.2699,307.0044 205.3126,307.5500 204.3554,307.9251 203.4076,308.1411 202.4763,308.2096 201.5660,308.1418 200.6795,307.9481 199.8171,307.6376 198.9774,307.2180 198.1575,306.6947 197.3530,306.0710 196.5592,305.3471 195.7706,304.5203 194.9824,303.5849 194.1907,302.5315 193.3934,301.3478 192.5907,300.0183 191.7861,298.5250 190.9869,296.8477 190.2050,294.9650 189.4570,292.8554 188.7642,290.4979 188.1531,287.8741 187.6540,284.9690 187.3006,281.7722 187.1285,278.2795 187.1734,274.4930 187.4689,270.4217 188.0453,266.0813 188.9271,261.4933 190.1321,256.6835 191.6702,251.6808 193.5440,246.5150 195.7487,241.2157 198.2736,235.8107 201.1031,230.3253 204.2191,224.7820 207.6017,219.2006 211.2312,213.5990 215.0889,207.9942 219.1581,202.4040 223.4245,196.8487 227.8767,191.3537 232.5058,185.9535 237.3047,180.6965 242.2664,175.6536 247.3805,170.9317 252.6241,166.6967 257.9418,163.2104 263.2022,160.8758 268.1300,160.2320 272.2976,161.7278 275.3436,165.3066 277.2202,170.4107 278.1083,176.4296 278.2248,182.9377 277.7439,189.6784 276.7921,196.4992 275.4596,203.3071 273.8122,210.0427 271.8985,216.6664 269.7554,223.1510 267.4115,229.4769 264.8891,235.6293 262.2059,241.5972 259.3762,247.3711 256.4112,252.9435 253.3201,258.3073 250.1101,263.4562 246.7870,268.3838 243.3556,273.0837 239.8196,277.5492 236.1823,281.7735 232.4470,285.7492 228.6168,289.4688 224.6952,292.9250 220.6865,296.1103 216.5955,299.0178 212.4279,301.6412 208.1902,303.9753 203.8896,306.0154 199.5337,307.7584 195.1307,309.2015 190.6888,310.3434 186.2163,311.1830 181.7215,311.7201 177.2127,311.9545 172.6979,311.8865 168.1854,311.5164 163.6833,310.8448 159.1996,309.8719 154.7427,308.5983 150.3211,307.0244 145.9437,305.1508 141.6195,302.9781 137.3583,300.5069 133.1701,297.7383 129.0659,294.6733 125.0572,291.3135 121.1565,287.6607 117.3775,283.7173 113.7351,279.4861 110.2461,274.9708 106.9294,270.1761 103.8063,265.1076 100.9020,259.7730 98.2460,254.1817 95.8744,248.3469 93.8314,242.2863 92.1728,236.0250 90.9705,229.5996 90.3186,223.0651 90.3399,216.5065 91.1914,210.0553 93.0548,203.9086 96.0928,198.3288 100.3599,193.5864 105.7310,189.8450 111.9451,187.0934 118.7249,185.1965 125.8525,183.9865 133.1779,183.3148 140.6018,183.0655 148.0571,183.1513 155.4963,183.5059 162.8844,184.0777 170.1944,184.8243 177.4051,185.7091 184.5006,186.6989 191.4692,187.7624 198.3040,188.8693 205.0026,189.9905 211.5669,191.0979 218.0029,192.1649 224.3200,193.1674 230.5298,194.0836 236.6453,194.8953 242.6792,195.5875 248.6428,196.1488 254.5448,196.5712 260.3901,196.8497 266.1788,196.9826 271.9056,196.9708 277.5586,196.8183 283.1187,196.5325 288.5580,196.1252 293.8380,195.6142 298.9067,195.0260 303.6949,194.4005 308.1111,193.7979 312.0370,193.3077 315.3295,193.0589 317.8414,193.2178 319.4726,193.9557 320.2328,195.3780 320.2520,197.4693 319.7166,200.1123 318.7995,203.1534 317.6297,206.4511 316.2945,209.8929 314.8510,213.3948 313.3360,216.8951 311.7736,220.3486 310.1796,223.7222 308.5646,226.9914 306.9356,230.1378 305.2973,233.1479 303.6530,236.0119 302.0047,238.7224 300.3539,241.2743 298.7014,243.6643 297.0476,245.8904 295.3928,247.9517 293.7371,249.8482 292.0805,251.5807 290.4229,253.1506 288.7642,254.5600 287.1043,255.8113 285.4433,256.9074 283.7810,257.8512 282.1178,258.6463 280.4538,259.2961 278.7895,259.8042 277.1253,260.1744 275.4621,260.4103 273.8008,260.5153 272.1423,260.4927 270.4880,260.3456 268.8393,260.0764 267.1976,259.6871 265.5645,259.1791 263.9416,258.5530 262.3303,257.8085 260.7318,256.9445 259.1473,255.9586 257.5771,254.8476 256.0214,253.6072 254.4795,252.2320 252.9500,250.7158 251.4309,249.0513 249.9190,247.2309 248.4106,245.2462 246.9011,243.0888 245.3854,240.7502 243.8581,238.2226 242.3134,235.4984 240.7460,232.5710 239.1509,229.4352 237.5241,226.0869 235.8627,222.5238 234.1655,218.7452 232.4330,214.7524 230.6680,210.5491 228.8753,206.1412 227.0624,201.5376 225.2396,196.7506 223.4198,191.7967 221.6194,186.6984 219.8586,181.4859 218.1617,176.2011 216.5585,170.9031 215.0849,165.6781 213.7839,160.6559 212.7036,156.0377 211.8871,152.1346 211.3423,149.3954 210.9857,148.3230 210.6242,149.1784 210.0601,151.7464 209.2048,155.5320 208.0666,160.0727 206.6921,165.0427 205.1332,170.2314 203.4359,175.5031 201.6386,180.7681 199.7727,185.9652 197.8641,191.0511 195.9338,195.9948 193.9991,200.7733 192.0738,205.3695 190.1684,209.7708 188.2910,213.9682 186.4466,217.9554 184.6383,221.7287 182.8665,225.2867 181.1300,228.6300 179.4259,231.7609 177.7500,234.6835 176.0971,237.4032 174.4616,239.9267 172.8376,242.2618 171.2194,244.4166 169.6015,246.3998 167.9795,248.2202 166.3492,249.8862 164.7077,251.4060 163.0529,252.7868 161.3835,254.0351 159.6988,255.1564 157.9992,256.1551 156.2853,257.0344 154.5583,257.7966 152.8196,258.4427 151.0709,258.9728 149.3138,259.3862 147.5501,259.6814 145.7813,259.8561 144.0090,259.9076 142.2345,259.8328 140.4588,259.6283 138.6829,259.2903 136.9075,258.8151 135.1331,258.1990 133.3602,257.4382 131.5889,256.5293 129.8193,255.4689 128.0515,254.2539 126.2853,252.8818 124.5207,251.3501 122.7576,249.6573 120.9959,247.8021 119.2358,245.7841 117.4774,243.6039 115.7212,241.2628 113.9680,238.7635 112.2191,236.1104 110.4766,233.3096 108.7436,230.3698 107.0245,227.3026 105.3260,224.1239 103.6580,220.8550 102.0350,217.5246 100.4788,214.1714 99.0224,210.8481 97.7159,207.6260 96.6358,204.6009 95.8953,201.8954 95.6503,199.6497 96.0833,197.9885 97.3478,196.9626 99.4977,196.5113 102.4691,196.4907 106.1285,196.7398 110.3304,197.1248 114.9486,197.5493 119.8826,197.9476 125.0558,198.2761 130.4106,198.5060 135.9038,198.6177 141.5036,198.5986 147.1878,198.4403 152.9417,198.1380 158.7576,197.6900 164.6334,197.0970 170.5725,196.3628 176.5822,195.4941 182.6731,194.5007 188.8579,193.3961 195.1501,192.1974 201.5626,190.9249 208.1064,189.6022 214.7897,188.2555 221.6169,186.9131 228.5880,185.6049 235.6987,184.3625 242.9396,183.2185 250.2969,182.2078 257.7515,181.3688 265.2787,180.7455 272.8458,180.3910 280.4087,180.3725 287.9054,180.7785 295.2435,181.7261 302.2831,183.3674 308.8170,185.8793 314.5724,189.4168 319.2753,194.0195 322.7705,199.5448 325.0841,205.7213 326.3640,212.2704 326.7887,218.9768 326.5163,225.6942 325.6723,232.3275 324.3528,238.8146 322.6317,245.1137 320.5664,251.1962 318.2024,257.0414 315.5765,262.6343 312.7195,267.9633 309.6572,273.0196 306.4118,277.7960 303.0031,282.2870 299.4484,286.4881 295.7636,290.3956 291.9629,294.0065 288.0596,297.3186 284.0661,300.3298 279.9938,303.0388 275.8536,305.4443 271.6557,307.5454 267.4098,309.3413 263.1254,310.8313 258.8115,312.0146 254.4769,312.8906 250.1303,313.4585 245.7804,313.7175 241.4358,313.6666" fill="none" stroke="#2E5090" opacity="0.5" stroke-width="0.15" stroke-linejoin="round" stroke-linecap="round" />
  </g>
  <g id="annotations">
    <line x1="63.0" y1="427.79999999999995" x2="357.0" y2="427.79999999999995" stroke="#8B0000" stroke-width="0.3" opacity="0.5" />
    <g>
      <line x1="63.0" y1="437.79999999999995" x2="155.79838081408468" y2="201.75754204795618" stroke="#8B0000" stroke-width="0.5" marker-end="url(#arrowhead)" />
      <circle cx="63.0" cy="437.79999999999995" r="1.0" fill="#8B0000" />
      <text x="63.0" y="447.79999999999995" font-family="Georgia, 'Times New Roman', serif" fill="#8B0000" font-size="5.0" text-anchor="middle">Energy Conservation</text>
      <text x="63.0" y="454.79999999999995" font-family="Georgia, 'Times New Roman', serif" fill="#1C1C1C" font-size="3.8" text-anchor="middle">
        <tspan x="63.0" dy="0">Total energy — kinetic plus</tspan>
        <tspan x="63.0" dy="5.0">potential — is exactly conserved.</tspan>
        <tspan x="63.0" dy="5.0">The system is Hamiltonian: no</tspan>
        <tspan x="63.0" dy="5.0">friction, no dissipation. Yet the</tspan>
        <tspan x="63.0" dy="5.0">motion is chaotic, filling a</tspan>
        <tspan x="63.0" dy="5.0">bounded region unpredictably.</tspan>
      </text>
    </g>
    <g>
      <line x1="210.0" y1="437.79999999999995" x2="247.71911112893915" y2="163.67554847686839" stroke="#8B0000" stroke-width="0.5" marker-end="url(#arrowhead)" />
      <circle cx="210.0" cy="437.79999999999995" r="1.0" fill="#8B0000" />
      <text x="210.0" y="447.79999999999995" font-family="Georgia, 'Times New Roman', serif" fill="#8B0000" font-size="5.0" text-anchor="middle">Sensitive Dependence</text>
      <text x="210.0" y="454.79999999999995" font-family="Georgia, 'Times New Roman', serif" fill="#1C1C1C" font-size="3.8" text-anchor="middle">
        <tspan x="210.0" dy="0">Three pendulums start almost</tspan>
        <tspan x="210.0" dy="5.0">identically — angles differ by a</tspan>
        <tspan x="210.0" dy="5.0">hundred-thousandth of a radian.</tspan>
        <tspan x="210.0" dy="5.0">Within seconds the trajectories</tspan>
        <tspan x="210.0" dy="5.0">diverge completely. This is the</tspan>
        <tspan x="210.0" dy="5.0">butterfly effect in action.</tspan>
      </text>
    </g>
    <g>
      <line x1="357.0" y1="437.79999999999995" x2="356.8210828689244" y2="289.0953396702376" stroke="#8B0000" stroke-width="0.5" marker-end="url(#arrowhead)" />
      <circle cx="357.0" cy="437.79999999999995" r="1.0" fill="#8B0000" />
      <text x="357.0" y="447.79999999999995" font-family="Georgia, 'Times New Roman', serif" fill="#8B0000" font-size="5.0" text-anchor="middle">Four-Dimensional Phase Space</text>
      <text x="357.0" y="454.79999999999995" font-family="Georgia, 'Times New Roman', serif" fill="#1C1C1C" font-size="3.8" text-anchor="middle">
        <tspan x="357.0" dy="0">The state of the double pendulum</tspan>
        <tspan x="357.0" dy="5.0">lives in a 4-D space: two angles</tspan>
        <tspan x="357.0" dy="5.0">and two angular velocities. The</tspan>
        <tspan x="357.0" dy="5.0">trace you see is a projection of</tspan>
        <tspan x="357.0" dy="5.0">this high-dimensional orbit onto</tspan>
        <tspan x="357.0" dy="5.0">the physical plane.</tspan>
      </text>
    </g>
  </g>
  <g id="educational">
    <line x1="63.0" y1="500.79999999999995" x2="357.0" y2="500.79999999999995" stroke="#8B0000" stroke-width="0.3" opacity="0.35" />
    <g>
      <text x="63.0" y="514.8" font-family="Georgia, 'Times New Roman', serif" fill="#8B0000" font-size="5.0" text-anchor="middle">The Equations</text>
      <text x="63.0" y="521.8" font-family="Georgia, 'Times New Roman', serif" fill="#1C1C1C" font-size="3.8" text-anchor="middle">
        <tspan x="63.0" dy="0">Two coupled second-order ODEs</tspan>
        <tspan x="63.0" dy="5.0">govern the motion of the double</tspan>
        <tspan x="63.0" dy="5.0">pendulum — far too complex for</tspan>
        <tspan x="63.0" dy="5.0">a closed-form solution:</tspan>
      </text>
      <text x="63.0" y="546.8" font-family="Georgia, 'Times New Roman', serif" fill="#1C1C1C" font-size="3.5" font-style="italic" text-anchor="middle">dθ1/dt = ω1</text>
      <text x="63.0" y="551.8" font-family="Georgia, 'Times New Roman', serif" fill="#1C1C1C" font-size="3.5" font-style="italic" text-anchor="middle">dθ2/dt = ω2</text>
      <text x="63.0" y="558.8" font-family="Georgia, 'Times New Roman', serif" fill="#1C1C1C" font-size="3.5" font-style="italic" text-anchor="middle">dω1/dt = f(θ1, θ2, ω1, ω2)</text>
      <text x="63.0" y="563.8" font-family="Georgia, 'Times New Roman', serif" fill="#1C1C1C" font-size="3.5" font-style="italic" text-anchor="middle">dω2/dt = g(θ1, θ2, ω1, ω2)</text>
    </g>
    <g>
      <text x="210.0" y="514.8" font-family="Georgia, 'Times New Roman', serif" fill="#8B0000" font-size="5.0" text-anchor="middle">Chaotic ≠ Random</text>
      <text x="210.0" y="521.8" font-family="Georgia, 'Times New Roman', serif" fill="#1C1C1C" font-size="3.8" text-anchor="middle">
        <tspan x="210.0" dy="0">The double pendulum obeys Newton’s</tspan>
        <tspan x="210.0" dy="5.0">laws exactly — nothing is random.</tspan>
        <tspan x="210.0" dy="5.0">Given perfect initial conditions,</tspan>
        <tspan x="210.0" dy="5.0">the future is fully determined.</tspan>
        <tspan x="210.0" dy="5.0">But in practice, immeasurably tiny</tspan>
        <tspan x="210.0" dy="5.0">errors grow exponentially, making</tspan>
        <tspan x="210.0" dy="5.0">long-term prediction impossible.</tspan>
        <tspan x="210.0" dy="5.0">This is deterministic chaos.</tspan>
      </text>
    </g>
    <g>
      <text x="357.0" y="514.8" font-family="Georgia, 'Times New Roman', serif" fill="#8B0000" font-size="5.0" text-anchor="middle">Chaos in the Real World</text>
      <text x="357.0" y="521.8" font-family="Georgia, 'Times New Roman', serif" fill="#1C1C1C" font-size="3.8" text-anchor="middle">
        <tspan x="357.0" dy="0">The same mathematics governs many</tspan>
        <tspan x="357.0" dy="5.0">systems: weather patterns, the</tspan>
        <tspan x="357.0" dy="5.0">three-body problem in astronomy,</tspan>
        <tspan x="357.0" dy="5.0">turbulent fluid flow, population</tspan>
        <tspan x="357.0" dy="5.0">dynamics, and even the beating of</tspan>
        <tspan x="357.0" dy="5.0">the human heart. Wherever simple</tspan>
        <tspan x="357.0" dy="5.0">rules interact nonlinearly, chaos</tspan>
        <tspan x="357.0" dy="5.0">can emerge.</tspan>
      </text>
    </g>
  </g>
  <text x="210.0" y="576.0" font-family="Georgia, 'Times New Roman', serif" font-size="4.0" fill="#555555" text-anchor="middle">The double pendulum: one of the simplest systems to exhibit deterministic chaos.</text>
  <text x="210.0" y="582.0" font-family="Georgia, 'Times New Roman', serif" font-size="3.5" fill="#777777" text-anchor="middle">Generated with 5,000 integration steps  ·  dt = 0.005  ·  θ1₀ ≈ π/2  ·  Δθ = 10⁻⁵</text>
  <rect x="4" y="4" width="412" height="586" fill="none" stroke="#1C1C1C" stroke-width="0.8" />
  <rect x="7" y="7" width="406" height="580" fill="none" stroke="#1C1C1C" stroke-width="0.2" />
</svg>