<?xml version='1.0' encoding='utf-8'?>
<svg xmlns="http://www.w3.org/2000/svg" version="1.1" width="420mm" height="594mm" viewBox="0 0 420 594">
  <style>@import url('https://fonts.googleapis.com/css2?family=Playfair+Display:ital,wght@0,400;0,700;1,400&amp;family=Inter:wght@300;400;500&amp;display=swap');</style>
  <rect x="0" y="0" width="420" height="594" fill="#FFFEF8" />
  <text x="210.0" y="27.918" font-family="'Playfair Display', Georgia, 'Times New Roman', serif" font-size="16.0" fill="#1C1C1C" text-anchor="middle">Fourier Epicycles</text>
  <text x="210.0" y="38.016" font-family="'Inter', 'Helvetica Neue', Arial, sans-serif, system-ui, -apple-system, 'Segoe UI', Roboto, 'Apple Color Emoji', 'Segoe UI Emoji', 'Segoe UI Symbol'" font-size="6.0" fill="#8B0000" text-anchor="middle">Drawing with circles upon circles</text>
  <line x1="63.0" y1="43.955999999999996" x2="357.0" y2="43.955999999999996" stroke="#8B0000" stroke-width="0.4" />
  <defs>
    <marker id="arrowhead" markerWidth="6" markerHeight="6" refX="3" refY="3" orient="auto">
      <circle cx="3" cy="3" r="2" fill="#8B0000" />
    </marker>
  </defs>
  <g id="epicycles">
    <polyline points="112.9800,239.7300 112.5700,242.1600 111.3800,244.4900 109.4800,246.6200 106.9900,248.4800 104.0600,250.0100 100.8700,251.2200 97.6100,252.1100 94.4400,252.7500 91.5400,253.2300 89.0400,253.6500 87.0300,254.1300 85.5600,254.8000 84.6300,255.7700 84.1900,257.1200 84.1600,258.9000 84.4200,261.1500 84.8400,263.8200 85.2700,266.8600 85.5700,270.1500 85.6100,273.5700 85.3000,276.9300 84.5700,280.0900 83.4000,282.8600 81.7900,285.0900 79.8000,286.6700 77.4900,287.5000 74.9800,287.5600 72.3700,286.8400 69.7800,285.4200 67.3000,283.4000 65.0200,280.9300 63.0000,278.1700 61.2500,275.3300 59.7600,272.5800 58.5000,270.1000 57.3700,268.0300 56.3000,266.4900 55.1700,265.5300 53.8900,265.1800 52.3700,265.4000 50.5200,266.1100 48.3300,267.1800 45.7700,268.4700 42.8900,269.8200 39.7600,271.0600 36.4900,272.0400 33.2000,272.6100 30.0500,272.6800 27.1800,272.1900 24.7500,271.1200 22.8700,269.4900 21.6300,267.3700 21.0800,264.8500 21.2300,262.0500 22.0300,259.1000 23.4000,256.1300 25.2100,253.2500 27.2900,250.5600 29.4800,248.1300 31.5800,245.9800 33.4200,244.1200 34.8600,242.5000 35.7700,241.0700 36.0900,239.7300 35.7700,238.3900 34.8600,236.9600 33.4200,235.3400 31.5800,233.4800 29.4800,231.3300 27.2900,228.9000 25.2100,226.2100 23.4000,223.3300 22.0300,220.3500 21.2300,217.4000 21.0800,214.6000 21.6300,212.0800 22.8700,209.9600 24.7500,208.3400 27.1800,207.2700 30.0500,206.7800 33.2000,206.8500 36.4900,207.4200 39.7600,208.3900 42.8900,209.6300 45.7700,210.9800 48.3300,212.2700 50.5200,213.3500 52.3700,214.0500 53.8900,214.2700 55.1700,213.9200 56.3000,212.9700 57.3700,211.4300 58.5000,209.3600 59.7600,206.8800 61.2500,204.1300 63.0000,201.2800 65.0200,198.5300 67.3000,196.0600 69.7800,194.0400 72.3700,192.6100 74.9800,191.9000 77.4900,191.9500 79.8000,192.7900 81.7900,194.3600 83.4000,196.6000 84.5700,199.3700 85.3000,202.5200 85.6100,205.8900 85.5700,209.3000 85.2700,212.6000 84.8400,215.6300 84.4200,218.3100 84.1600,220.5500 84.1900,222.3400 84.6300,223.6900 85.5600,224.6500 87.0300,225.3200 89.0400,225.8100 91.5400,226.2300 94.4400,226.7000 97.6100,227.3500 100.8700,228.2400 104.0600,229.4400 106.9900,230.9800 109.4800,232.8300 111.3800,234.9600 112.5700,237.2900 112.9800,239.7300" fill="none" stroke="#1C1C1C" stroke-width="0.8" />
    <polyline points="259.9800,239.7300 248.4000,242.0800 259.5700,242.1600 248.0400,246.7000 258.3800,244.4900 247.3400,251.0300 256.4800,246.6200 246.3900,254.9100 253.9900,248.4800 245.2500,258.2000 251.0600,250.0100 244.0500,260.8300 247.8700,251.2200 242.8900,262.7400 244.6100,252.1100 241.8700,263.9400 241.4400,252.7500 241.0800,264.4800 238.5400,253.2300 240.5900,264.4800 236.0400,253.6500 240.4100,264.0500 234.0300,254.1300 240.5500,263.3500 232.5600,254.8000 240.9400,262.5600 231.6300,255.7700 241.5200,261.8300 231.1900,257.1200 242.1600,261.3000 231.1600,258.9000 242.7400,261.1000 231.4200,261.1500 243.1000,261.3000 231.8400,263.8200 243.1000,261.9500 232.2700,266.8600 242.6100,263.0500 232.5700,270.1500 241.5400,264.5400 232.6100,273.5700 239.8200,266.3500 232.3000,276.9300 237.4300,268.3800 231.5700,280.0900 234.3900,270.4900 230.4000,282.8600 230.7800,272.5700 228.7900,285.0900 226.7100,274.4900 226.8000,286.6700 222.3300,276.1400 224.4900,287.5000 217.8200,277.4600 221.9800,287.5600 213.3600,278.3800 219.3700,286.8400 209.1500,278.9000 216.7800,285.4200 205.3500,279.0400 214.3000,283.4000 202.1000,278.8600 212.0200,280.9300 199.5000,278.4400 210.0000,278.1700 197.6100,277.8800 208.2500,275.3300 196.4400,277.2800 206.7600,272.5800 195.9300,276.7300 205.5000,270.1000 196.0000,276.3200 204.3700,268.0300 196.5200,276.1000 203.3000,266.4900 197.3100,276.1100 202.1700,265.5300 198.2100,276.3200 200.8900,265.1800 199.0300,276.7100 199.3700,265.4000 199.6200,277.1800 197.5200,266.1100 199.8200,277.6400 195.3300,267.1800 199.5300,277.9800 192.7700,268.4700 198.6800,278.0700 189.8900,269.8200 197.2700,277.7800 186.7600,271.0600 195.3100,277.0300 183.4900,272.0400 192.8700,275.7300 180.2000,272.6100 190.0800,273.8400 177.0500,272.6800 187.0500,271.3800 174.1800,272.1900 183.9400,268.3800 171.7500,271.1200 180.9000,264.9400 169.8700,269.4900 178.0800,261.1700 168.6300,267.3700 175.5800,257.2400 168.0800,264.8500 173.5100,253.3100 168.2300,262.0500 171.9000,249.5500 169.0300,259.1000 170.7900,246.1300 170.4000,256.1300 170.1300,243.1900 172.2100,253.2500 169.8800,240.8400 174.2900,250.5600 169.9500,239.1400 176.4800,248.1300 170.2300,238.1000 178.5800,245.9800 170.6300,237.7000 180.4200,244.1200 171.0300,237.8400 181.8600,242.5000 171.3500,238.4200 182.7700,241.0700 171.5300,239.2600 183.0900,239.7300 171.5300,240.2000 182.7700,238.3900 171.3500,241.0400 181.8600,236.9600 171.0300,241.6100 180.4200,235.3400 170.6300,241.7600 178.5800,233.4800 170.2300,241.3600 176.4800,231.3300 169.9500,240.3200 174.2900,228.9000 169.8800,238.6200 172.2100,226.2100 170.1300,236.2600 170.4000,223.3300 170.7900,233.3200 169.0300,220.3500 171.9000,229.9000 168.2300,217.4000 173.5100,226.1500 168.0800,214.6000 175.5800,222.2200 168.6300,212.0800 178.0800,218.2800 169.8700,209.9600 180.9000,214.5200 171.7500,208.3400 183.9400,211.0800 174.1800,207.2700 187.0500,208.0800 177.0500,206.7800 190.0800,205.6100 180.2000,206.8500 192.8700,203.7300 183.4900,207.4200 195.3100,202.4300 186.7600,208.3900 197.2700,201.6700 189.8900,209.6300 198.6800,201.3900 192.7700,210.9800 199.5300,201.4700 195.3300,212.2700 199.8200,201.8100 197.5200,213.3500 199.6200,202.2800 199.3700,214.0500 199.0300,202.7500 200.8900,214.2700 198.2100,203.1300 202.1700,213.9200 197.3100,203.3500 203.3000,212.9700 196.5200,203.3500 204.3700,211.4300 196.0000,203.1400 205.5000,209.3600 195.9300,202.7300 206.7600,206.8800 196.4400,202.1800 208.2500,204.1300 197.6100,201.5700 210.0000,201.2800 199.5000,201.0100 212.0200,198.5300 202.1000,200.5900 214.3000,196.0600 205.3500,200.4200 216.7800,194.0400 209.1500,200.5600 219.3700,192.6100 213.3600,201.0800 221.9800,191.9000 217.8200,202.0000 224.4900,191.9500 222.3300,203.3100 226.8000,192.7900 226.7100,204.9700 228.7900,194.3600 230.7800,206.8800 230.4000,196.6000 234.3900,208.9600 231.5700,199.3700 237.4300,211.0800 232.3000,202.5200 239.8200,213.1100 232.6100,205.8900 241.5400,214.9200 232.5700,209.3000 242.6100,216.4100 232.2700,212.6000 243.1000,217.5000 231.8400,215.6300 243.1000,218.1500 231.4200,218.3100 242.7400,218.3600 231.1600,220.5500 242.1600,218.1600 231.1900,222.3400 241.5200,217.6300 231.6300,223.6900 240.9400,216.9000 232.5600,224.6500 240.5500,216.1000 234.0300,225.3200 240.4100,215.4100 236.0400,225.8100 240.5900,214.9800 238.5400,226.2300 241.0800,214.9700 241.4400,226.7000 241.8700,215.5200 244.6100,227.3500 242.8900,216.7200 247.8700,228.2400 244.0500,218.6300 251.0600,229.4400 245.2500,221.2500 253.9900,230.9800 246.3900,224.5500 256.4800,232.8300 247.3400,228.4300 258.3800,234.9600 248.0400,232.7600 259.5700,237.2900 248.4000,237.3700 259.9800,239.7300" fill="none" stroke="#8B0000" stroke-width="0.8" />
    <circle cx="210.0" cy="239.73" r="38.45" fill="none" stroke="#AAAAAA" stroke-width="0.25" opacity="0.4" />
    <circle cx="210.0" cy="239.73" r="0.6" fill="#555555" opacity="0.5" />
    <circle cx="248.45" cy="239.73" r="5.77" fill="none" stroke="#AAAAAA" stroke-width="0.25" opacity="0.4" />
    <circle cx="248.45" cy="239.73" r="0.6" fill="#555555" opacity="0.5" />
    <circle cx="254.21" cy="239.73" r="5.77" fill="none" stroke="#AAAAAA" stroke-width="0.25" opacity="0.4" />
    <circle cx="254.21" cy="239.73" r="0.6" fill="#555555" opacity="0.5" />
    <polyline points="406.9800,239.7300 395.4000,242.0800 406.5700,242.1600 395.0400,246.7000 405.3800,244.4900 394.3400,251.0300 403.4800,246.6200 393.3900,254.9100 400.9900,248.4800 392.2500,258.2000 398.0600,250.0100 391.0500,260.8300 394.8700,251.2200 389.8900,262.7400 391.6100,252.1100 388.8700,263.9400 388.4400,252.7500 388.0800,264.4800 385.5400,253.2300 387.5900,264.4800 383.0400,253.6500 387.4100,264.0500 381.0300,254.1300 387.5500,263.3500 379.5600,254.8000 387.9400,262.5600 378.6300,255.7700 388.5200,261.8300 378.1900,257.1200 389.1600,261.3000 378.1600,258.9000 389.7400,261.1000 378.4200,261.1500 390.1000,261.3000 378.8400,263.8200 390.1000,261.9500 379.2700,266.8600 389.6100,263.0500 379.5700,270.1500 388.5400,264.5400 379.6100,273.5700 386.8200,266.3500 379.3000,276.9300 384.4300,268.3800 378.5700,280.0900 381.3900,270.4900 377.4000,282.8600 377.7800,272.5700 375.7900,285.0900 373.7100,274.4900 373.8000,286.6700 369.3300,276.1400 371.4900,287.5000 364.8200,277.4600 368.9800,287.5600 360.3600,278.3800 366.3700,286.8400 356.1500,278.9000 363.7800,285.4200 352.3500,279.0400 361.3000,283.4000 349.1000,278.8600 359.0200,280.9300 346.5000,278.4400 357.0000,278.1700 344.6100,277.8800 355.2500,275.3300 343.4400,277.2800 353.7600,272.5800 342.9300,276.7300 352.5000,270.1000 343.0000,276.3200 351.3700,268.0300 343.5200,276.1000 350.3000,266.4900 344.3100,276.1100 349.1700,265.5300 345.2100,276.3200 347.8900,265.1800 346.0300,276.7100 346.3700,265.4000 346.6200,277.1800 344.5200,266.1100 346.8200,277.6400 342.3300,267.1800 346.5300,277.9800 339.7700,268.4700 345.6800,278.0700 336.8900,269.8200 344.2700,277.7800 333.7600,271.0600 342.3100,277.0300 330.4900,272.0400 339.8700,275.7300 327.2000,272.6100 337.0800,273.8400 324.0500,272.6800 334.0500,271.3800 321.1800,272.1900 330.9400,268.3800 318.7500,271.1200 327.9000,264.9400 316.8700,269.4900 325.0800,261.1700 315.6300,267.3700 322.5800,257.2400 315.0800,264.8500 320.5100,253.3100 315.2300,262.0500 318.9000,249.5500 316.0300,259.1000 317.7900,246.1300 317.4000,256.1300 317.1300,243.1900 319.2100,253.2500 316.8800,240.8400 321.2900,250.5600 316.9500,239.1400 323.4800,248.1300 317.2300,238.1000 325.5800,245.9800 317.6300,237.7000 327.4200,244.1200 318.0300,237.8400 328.8600,242.5000 318.3500,238.4200 329.7700,241.0700 318.5300,239.2600 330.0900,239.7300 318.5300,240.2000 329.7700,238.3900 318.3500,241.0400 328.8600,236.9600 318.0300,241.6100 327.4200,235.3400 317.6300,241.7600 325.5800,233.4800 317.2300,241.3600 323.4800,231.3300 316.9500,240.3200 321.2900,228.9000 316.8800,238.6200 319.2100,226.2100 317.1300,236.2600 317.4000,223.3300 317.7900,233.3200 316.0300,220.3500 318.9000,229.9000 315.2300,217.4000 320.5100,226.1500 315.0800,214.6000 322.5800,222.2200 315.6300,212.0800 325.0800,218.2800 316.8700,209.9600 327.9000,214.5200 318.7500,208.3400 330.9400,211.0800 321.1800,207.2700 334.0500,208.0800 324.0500,206.7800 337.0800,205.6100 327.2000,206.8500 339.8700,203.7300 330.4900,207.4200 342.3100,202.4300 333.7600,208.3900 344.2700,201.6700 336.8900,209.6300 345.6800,201.3900 339.7700,210.9800 346.5300,201.4700 342.3300,212.2700 346.8200,201.8100 344.5200,213.3500 346.6200,202.2800 346.3700,214.0500 346.0300,202.7500 347.8900,214.2700 345.2100,203.1300 349.1700,213.9200 344.3100,203.3500 350.3000,212.9700 343.5200,203.3500 351.3700,211.4300 343.0000,203.1400 352.5000,209.3600 342.9300,202.7300 353.7600,206.8800 343.4400,202.1800 355.2500,204.1300 344.6100,201.5700 357.0000,201.2800 346.5000,201.0100 359.0200,198.5300 349.1000,200.5900 361.3000,196.0600 352.3500,200.4200 363.7800,194.0400 356.1500,200.5600 366.3700,192.6100 360.3600,201.0800 368.9800,191.9000 364.8200,202.0000 371.4900,191.9500 369.3300,203.3100 373.8000,192.7900 373.7100,204.9700 375.7900,194.3600 377.7800,206.8800 377.4000,196.6000 381.3900,208.9600 378.5700,199.3700 384.4300,211.0800 379.3000,202.5200 386.8200,213.1100 379.6100,205.8900 388.5400,214.9200 379.5700,209.3000 389.6100,216.4100 379.2700,212.6000 390.1000,217.5000 378.8400,215.6300 390.1000,218.1500 378.4200,218.3100 389.7400,218.3600 378.1600,220.5500 389.1600,218.1600 378.1900,222.3400 388.5200,217.6300 378.6300,223.6900 387.9400,216.9000 379.5600,224.6500 387.5500,216.1000 381.0300,225.3200 387.4100,215.4100 383.0400,225.8100 387.5900,214.9800 385.5400,226.2300 388.0800,214.9700 388.4400,226.7000 388.8700,215.5200 391.6100,227.3500 389.8900,216.7200 394.8700,228.2400 391.0500,218.6300 398.0600,229.4400 392.2500,221.2500 400.9900,230.9800 393.3900,224.5500 403.4800,232.8300 394.3400,228.4300 405.3800,234.9600 395.0400,232.7600 406.5700,237.2900 395.4000,237.3700 406.9800,239.7300" fill="none" stroke="#2E5090" stroke-width="0.8" />
  </g>
  <text x="63.0" y="297.70799999999997" font-family="'Playfair Display', Georgia, 'Times New Roman', serif" font-size="5.0" fill="#8B0000" text-anchor="middle">Original Curve</text>
  <text x="210.0" y="297.70799999999997" font-family="'Playfair Display', Georgia, 'Times New Roman', serif" font-size="5.0" fill="#8B0000" text-anchor="middle">Full Reconstruction (20 circles)</text>
  <text x="357.0" y="297.70799999999997" font-family="'Playfair Display', Georgia, 'Times New Roman', serif" font-size="5.0" fill="#8B0000" text-anchor="middle">5 Circles Only</text>
  <g id="annotations">
    <line x1="63.0" y1="427.79999999999995" x2="357.0" y2="427.79999999999995" stroke="#8B0000" stroke-width="0.3" opacity="0.5" />
    <g>
      <line x1="63.0" y1="437.79999999999995" x2="63.0" y2="239.72799999999998" stroke="#8B0000" stroke-width="0.5" stroke-dasharray="2,1.5" marker-end="url(#arrowhead)" />
      <circle cx="63.0" cy="437.79999999999995" r="1.0" fill="#8B0000" />
      <text x="63.0" y="447.79999999999995" font-family="'Inter', 'Helvetica Neue', Arial, sans-serif, system-ui, -apple-system, 'Segoe UI', Roboto, 'Apple Color Emoji', 'Segoe UI Emoji', 'Segoe UI Symbol'" fill="#8B0000" font-size="5.0" text-anchor="middle">Amplitude &amp; Frequency</text>
      <text x="63.0" y="454.79999999999995" font-family="'Inter', 'Helvetica Neue', Arial, sans-serif, system-ui, -apple-system, 'Segoe UI', Roboto, 'Apple Color Emoji', 'Segoe UI Emoji', 'Segoe UI Symbol'" fill="#1C1C1C" font-size="3.8" text-anchor="middle">
        <tspan x="63.0" dy="0">Each circle’s radius equals the</tspan>
        <tspan x="63.0" dy="5.0">amplitude of one Fourier coefficient,</tspan>
        <tspan x="63.0" dy="5.0">while its rotation speed equals the</tspan>
        <tspan x="63.0" dy="5.0">frequency. Large circles dominate the</tspan>
        <tspan x="63.0" dy="5.0">overall shape; small, fast circles</tspan>
        <tspan x="63.0" dy="5.0">add fine detail and sharp corners.</tspan>
      </text>
    </g>
    <g>
      <line x1="210.0" y1="437.79999999999995" x2="210.0" y2="239.72799999999998" stroke="#8B0000" stroke-width="0.5" stroke-dasharray="2,1.5" marker-end="url(#arrowhead)" />
      <circle cx="210.0" cy="437.79999999999995" r="1.0" fill="#8B0000" />
      <text x="210.0" y="447.79999999999995" font-family="'Inter', 'Helvetica Neue', Arial, sans-serif, system-ui, -apple-system, 'Segoe UI', Roboto, 'Apple Color Emoji', 'Segoe UI Emoji', 'Segoe UI Symbol'" fill="#8B0000" font-size="5.0" text-anchor="middle">Phase Alignment</text>
      <text x="210.0" y="454.79999999999995" font-family="'Inter', 'Helvetica Neue', Arial, sans-serif, system-ui, -apple-system, 'Segoe UI', Roboto, 'Apple Color Emoji', 'Segoe UI Emoji', 'Segoe UI Symbol'" fill="#1C1C1C" font-size="3.8" text-anchor="middle">
        <tspan x="210.0" dy="0">The starting angle of each circle</tspan>
        <tspan x="210.0" dy="5.0">— its phase — determines where on</tspan>
        <tspan x="210.0" dy="5.0">the orbit it begins tracing. Shift</tspan>
        <tspan x="210.0" dy="5.0">one phase and the whole shape warps.</tspan>
        <tspan x="210.0" dy="5.0">The DFT captures exactly the right</tspan>
        <tspan x="210.0" dy="5.0">phase for every frequency component.</tspan>
      </text>
    </g>
    <g>
      <line x1="357.0" y1="437.79999999999995" x2="357.0" y2="239.72799999999998" stroke="#8B0000" stroke-width="0.5" stroke-dasharray="2,1.5" marker-end="url(#arrowhead)" />
      <circle cx="357.0" cy="437.79999999999995" r="1.0" fill="#8B0000" />
      <text x="357.0" y="447.79999999999995" font-family="'Inter', 'Helvetica Neue', Arial, sans-serif, system-ui, -apple-system, 'Segoe UI', Roboto, 'Apple Color Emoji', 'Segoe UI Emoji', 'Segoe UI Symbol'" fill="#8B0000" font-size="5.0" text-anchor="middle">Convergence</text>
      <text x="357.0" y="454.79999999999995" font-family="'Inter', 'Helvetica Neue', Arial, sans-serif, system-ui, -apple-system, 'Segoe UI', Roboto, 'Apple Color Emoji', 'Segoe UI Emoji', 'Segoe UI Symbol'" fill="#1C1C1C" font-size="3.8" text-anchor="middle">
        <tspan x="357.0" dy="0">More circles yield a better match,</tspan>
        <tspan x="357.0" dy="5.0">but even a handful capture the basic</tspan>
        <tspan x="357.0" dy="5.0">outline. This is the key insight of</tspan>
        <tspan x="357.0" dy="5.0">Fourier analysis: complex signals</tspan>
        <tspan x="357.0" dy="5.0">converge rapidly when decomposed</tspan>
        <tspan x="357.0" dy="5.0">into their strongest frequencies.</tspan>
      </text>
    </g>
  </g>
  <g id="educational">
    <line x1="63.0" y1="500.79999999999995" x2="357.0" y2="500.79999999999995" stroke="#8B0000" stroke-width="0.3" opacity="0.35" />
    <g>
      <text x="63.0" y="514.8" font-family="'Inter', 'Helvetica Neue', Arial, sans-serif, system-ui, -apple-system, 'Segoe UI', Roboto, 'Apple Color Emoji', 'Segoe UI Emoji', 'Segoe UI Symbol'" fill="#8B0000" font-size="5.0" text-anchor="middle">The Fourier Transform</text>
      <text x="63.0" y="521.8" font-family="'Inter', 'Helvetica Neue', Arial, sans-serif, system-ui, -apple-system, 'Segoe UI', Roboto, 'Apple Color Emoji', 'Segoe UI Emoji', 'Segoe UI Symbol'" fill="#1C1C1C" font-size="3.8" text-anchor="middle">
        <tspan x="63.0" dy="0">Any periodic signal can be broken</tspan>
        <tspan x="63.0" dy="5.0">into a sum of sine and cosine waves</tspan>
        <tspan x="63.0" dy="5.0">of different frequencies. The Fourier</tspan>
        <tspan x="63.0" dy="5.0">Transform finds the amplitude and</tspan>
        <tspan x="63.0" dy="5.0">phase of each wave. In the discrete</tspan>
        <tspan x="63.0" dy="5.0">case (DFT), N samples yield exactly</tspan>
        <tspan x="63.0" dy="5.0">N frequency components — a perfect,</tspan>
        <tspan x="63.0" dy="5.0">lossless representation of the data.</tspan>
      </text>
    </g>
    <g>
      <text x="210.0" y="514.8" font-family="'Inter', 'Helvetica Neue', Arial, sans-serif, system-ui, -apple-system, 'Segoe UI', Roboto, 'Apple Color Emoji', 'Segoe UI Emoji', 'Segoe UI Symbol'" fill="#8B0000" font-size="5.0" text-anchor="middle">Ancient Astronomy</text>
      <text x="210.0" y="521.8" font-family="'Inter', 'Helvetica Neue', Arial, sans-serif, system-ui, -apple-system, 'Segoe UI', Roboto, 'Apple Color Emoji', 'Segoe UI Emoji', 'Segoe UI Symbol'" fill="#1C1C1C" font-size="3.8" text-anchor="middle">
        <tspan x="210.0" dy="0">Two millennia before Fourier, Ptolemy</tspan>
        <tspan x="210.0" dy="5.0">modelled planetary motion as circles</tspan>
        <tspan x="210.0" dy="5.0">riding on circles — epicycles. His</tspan>
        <tspan x="210.0" dy="5.0">system predicted positions remarkably</tspan>
        <tspan x="210.0" dy="5.0">well. In a deep sense, Ptolemy was</tspan>
        <tspan x="210.0" dy="5.0">performing a Fourier decomposition of</tspan>
        <tspan x="210.0" dy="5.0">orbital motion, centuries before the</tspan>
        <tspan x="210.0" dy="5.0">mathematics was formalised.</tspan>
      </text>
    </g>
    <g>
      <text x="357.0" y="514.8" font-family="'Inter', 'Helvetica Neue', Arial, sans-serif, system-ui, -apple-system, 'Segoe UI', Roboto, 'Apple Color Emoji', 'Segoe UI Emoji', 'Segoe UI Symbol'" fill="#8B0000" font-size="5.0" text-anchor="middle">Modern Applications</text>
      <text x="357.0" y="521.8" font-family="'Inter', 'Helvetica Neue', Arial, sans-serif, system-ui, -apple-system, 'Segoe UI', Roboto, 'Apple Color Emoji', 'Segoe UI Emoji', 'Segoe UI Symbol'" fill="#1C1C1C" font-size="3.8" text-anchor="middle">
        <tspan x="357.0" dy="0">JPEG compression discards high-</tspan>
        <tspan x="357.0" dy="5.0">frequency coefficients the eye won’t</tspan>
        <tspan x="357.0" dy="5.0">miss. Music synthesisers build rich</tspan>
        <tspan x="357.0" dy="5.0">timbres from pure tones. MRI scanners</tspan>
        <tspan x="357.0" dy="5.0">reconstruct images from frequency-</tspan>
        <tspan x="357.0" dy="5.0">domain data. Wherever signals meet</tspan>
        <tspan x="357.0" dy="5.0">mathematics, the Fourier Transform</tspan>
        <tspan x="357.0" dy="5.0">is the essential tool.</tspan>
      </text>
    </g>
  </g>
  <text x="210.0" y="576.0" font-family="'Inter', 'Helvetica Neue', Arial, sans-serif, system-ui, -apple-system, 'Segoe UI', Roboto, 'Apple Color Emoji', 'Segoe UI Emoji', 'Segoe UI Symbol'" font-size="4.0" fill="#555555" text-anchor="middle">Joseph Fourier’s insight (1807): any periodic signal is a sum of simple waves.</text>
  <text x="210.0" y="582.0" font-family="'Inter', 'Helvetica Neue', Arial, sans-serif, system-ui, -apple-system, 'Segoe UI', Roboto, 'Apple Color Emoji', 'Segoe UI Emoji', 'Segoe UI Symbol'" font-size="3.5" fill="#777777" text-anchor="middle">Generated with 20 circles  ·  128 sample points  ·  Pure-Python DFT</text>
  <rect x="4" y="4" width="412" height="586" fill="none" stroke="#1C1C1C" stroke-width="0.8" />
  <rect x="7" y="7" width="406" height="580" fill="none" stroke="#1C1C1C" stroke-width="0.2" />
</svg>