<?xml version='1.0' encoding='utf-8'?>
<svg xmlns="http://www.w3.org/2000/svg" version="1.1" width="420mm" height="594mm" viewBox="0 0 420 594">
  <style>@import url('https://fonts.googleapis.com/css2?family=Playfair+Display:ital,wght@0,400;0,700;1,400&amp;family=Inter:wght@300;400;500&amp;display=swap');</style>
  <rect x="0" y="0" width="420" height="594" fill="#FFFEF8" />
  <text x="210.0" y="27.918" font-family="'Playfair Display', Georgia, 'Times New Roman', serif" font-size="16.0" fill="#1C1C1C" text-anchor="middle">The Hat Monotile</text>
  <text x="210.0" y="38.016" font-family="'Inter', 'Helvetica Neue', Arial, sans-serif, system-ui, -apple-system, 'Segoe UI', Roboto, 'Apple Color Emoji', 'Segoe UI Emoji', 'Segoe UI Symbol'" font-size="6.0" fill="#8B0000" text-anchor="middle">A single shape that tiles the plane, but never periodically</text>
  <line x1="63.0" y1="43.955999999999996" x2="357.0" y2="43.955999999999996" stroke="#8B0000" stroke-width="0.4" />
  <defs>
    <marker id="arrowhead" markerWidth="6" markerHeight="6" refX="3" refY="3" orient="auto">
      <circle cx="3" cy="3" r="2" fill="#8B0000" />
    </marker>
  </defs>
  <g id="hat-tiling">
    <polygon points="57.8480,183.9122 57.8480,204.1842 46.1440,204.1842 34.4400,183.9122 40.2920,173.7763 22.7360,163.6403 22.7360,143.3684 34.4400,143.3684 40.2920,153.5043 57.8480,143.3684 75.4040,153.5043 69.5520,163.6403 75.4040,173.7763" fill="#1C1C1C" opacity="0.75" stroke="#1C1C1C" stroke-width="0.15" stroke-opacity="0.3" />
    <polygon points="92.9600,163.6403 92.9600,183.9122 81.2560,183.9122 69.5520,163.6403 75.4040,153.5043 57.8480,143.3684 57.8480,123.0965 69.5520,123.0965 75.4040,133.2324 92.9600,123.0965 110.5160,133.2324 104.6640,143.3684 110.5160,153.5043" fill="#1C1C1C" opacity="0.75" stroke="#1C1C1C" stroke-width="0.15" stroke-opacity="0.3" />
    <polygon points="163.1840,163.6403 163.1840,183.9122 151.4800,183.9122 139.7760,163.6403 145.6280,153.5043 128.0720,143.3684 128.0720,123.0965 139.7760,123.0965 145.6280,133.2324 163.1840,123.0965 180.7400,133.2324 174.8880,143.3684 180.7400,153.5043" fill="#1C1C1C" opacity="0.75" stroke="#1C1C1C" stroke-width="0.15" stroke-opacity="0.3" />
    <polygon points="128.0720,183.9122 145.6280,173.7763 151.4800,183.9122 139.7760,204.1842 128.0720,204.1842 128.0720,224.4561 110.5160,234.5920 104.6640,224.4561 110.5160,214.3201 92.9600,204.1842 92.9600,183.9122 104.6640,183.9122 110.5160,173.7763" fill="#1C1C1C" opacity="0.75" stroke="#1C1C1C" stroke-width="0.15" stroke-opacity="0.3" />
    <polygon points="128.0720,143.3684 128.0720,123.0965 116.3680,123.0965 104.6640,143.3684 110.5160,153.5043 92.9600,163.6403 92.9600,183.9122 104.6640,183.9122 110.5160,173.7763 128.0720,183.9122 145.6280,173.7763 139.7760,163.6403 145.6280,153.5043" fill="#2E5090" opacity="0.75" stroke="#1C1C1C" stroke-width="0.15" stroke-opacity="0.3" />
    <polygon points="92.9600,285.2718 110.5160,275.1359 116.3680,285.2718 104.6640,305.5438 92.9600,305.5438 92.9600,325.8157 75.4040,335.9517 69.5520,325.8157 75.4040,315.6797 57.8480,305.5438 57.8480,285.2718 69.5520,285.2718 75.4040,275.1359" fill="#1C1C1C" opacity="0.75" stroke="#1C1C1C" stroke-width="0.15" stroke-opacity="0.3" />
    <polygon points="57.8480,224.4561 75.4040,214.3201 81.2560,224.4561 69.5520,244.7280 57.8480,244.7280 57.8480,264.9999 40.2920,275.1359 34.4400,264.9999 40.2920,254.8640 22.7360,244.7280 22.7360,224.4561 34.4400,224.4561 40.2920,214.3201" fill="#1C1C1C" opacity="0.75" stroke="#1C1C1C" stroke-width="0.15" stroke-opacity="0.3" />
    <polygon points="92.9600,244.7280 75.4040,234.5920 81.2560,224.4561 104.6640,224.4561 110.5160,234.5920 128.0720,224.4561 145.6280,234.5920 139.7760,244.7280 128.0720,244.7280 128.0720,264.9999 110.5160,275.1359 104.6640,264.9999 92.9600,264.9999" fill="#1C1C1C" opacity="0.75" stroke="#1C1C1C" stroke-width="0.15" stroke-opacity="0.3" />
    <polygon points="57.8480,264.9999 40.2920,275.1359 46.1440,285.2718 69.5520,285.2718 75.4040,275.1359 92.9600,285.2718 110.5160,275.1359 104.6640,264.9999 92.9600,264.9999 92.9600,244.7280 75.4040,234.5920 69.5520,244.7280 57.8480,244.7280" fill="#2E5090" opacity="0.75" stroke="#1C1C1C" stroke-width="0.15" stroke-opacity="0.3" />
    <polygon points="92.9600,204.1842 110.5160,214.3201 104.6640,224.4561 81.2560,224.4561 75.4040,214.3201 57.8480,224.4561 40.2920,214.3201 46.1440,204.1842 57.8480,204.1842 57.8480,183.9122 75.4040,173.7763 81.2560,183.9122 92.9600,183.9122" fill="#1C1C1C" opacity="0.75" stroke="#1C1C1C" stroke-width="0.15" stroke-opacity="0.3" />
    <polygon points="128.0720,102.8245 110.5160,92.6886 116.3680,82.5526 139.7760,82.5526 145.6280,92.6886 163.1840,82.5526 180.7400,92.6886 174.8880,102.8245 163.1840,102.8245 163.1840,123.0965 145.6280,133.2324 139.7760,123.0965 128.0720,123.0965" fill="#1C1C1C" opacity="0.75" stroke="#1C1C1C" stroke-width="0.15" stroke-opacity="0.3" />
    <polygon points="92.9600,123.0965 75.4040,133.2324 69.5520,123.0965 81.2560,102.8245 92.9600,102.8245 92.9600,82.5526 110.5160,72.4167 116.3680,82.5526 110.5160,92.6886 128.0720,102.8245 128.0720,123.0965 116.3680,123.0965 110.5160,133.2324" fill="#1C1C1C" opacity="0.75" stroke="#1C1C1C" stroke-width="0.15" stroke-opacity="0.3" />
    <polygon points="163.1840,204.1842 145.6280,214.3201 139.7760,204.1842 151.4800,183.9122 163.1840,183.9122 163.1840,163.6403 180.7400,153.5043 186.5920,163.6403 180.7400,173.7763 198.2960,183.9122 198.2960,204.1842 186.5920,204.1842 180.7400,214.3201" fill="#1C1C1C" opacity="0.75" stroke="#1C1C1C" stroke-width="0.15" stroke-opacity="0.3" />
    <polygon points="163.1840,244.7280 163.1840,264.9999 151.4800,264.9999 139.7760,244.7280 145.6280,234.5920 128.0720,224.4561 128.0720,204.1842 139.7760,204.1842 145.6280,214.3201 163.1840,204.1842 180.7400,214.3201 174.8880,224.4561 180.7400,234.5920" fill="#1C1C1C" opacity="0.75" stroke="#1C1C1C" stroke-width="0.15" stroke-opacity="0.3" />
    <polygon points="128.0720,305.5438 145.6280,295.4078 151.4800,305.5438 139.7760,325.8157 128.0720,325.8157 128.0720,346.0876 110.5160,356.2236 104.6640,346.0876 110.5160,335.9517 92.9600,325.8157 92.9600,305.5438 104.6640,305.5438 110.5160,295.4078" fill="#1C1C1C" opacity="0.75" stroke="#1C1C1C" stroke-width="0.15" stroke-opacity="0.3" />
    <polygon points="128.0720,264.9999 128.0720,244.7280 139.7760,244.7280 151.4800,264.9999 145.6280,275.1359 163.1840,285.2718 163.1840,305.5438 151.4800,305.5438 145.6280,295.4078 128.0720,305.5438 110.5160,295.4078 116.3680,285.2718 110.5160,275.1359" fill="#1C1C1C" opacity="0.75" stroke="#1C1C1C" stroke-width="0.15" stroke-opacity="0.3" />
    <polygon points="233.4080,123.0965 233.4080,143.3684 221.7040,143.3684 210.0000,123.0965 215.8520,112.9605 198.2960,102.8245 198.2960,82.5526 210.0000,82.5526 215.8520,92.6886 233.4080,82.5526 250.9640,92.6886 245.1120,102.8245 250.9640,112.9605" fill="#1C1C1C" opacity="0.75" stroke="#1C1C1C" stroke-width="0.15" stroke-opacity="0.3" />
    <polygon points="303.6320,123.0965 303.6320,143.3684 291.9280,143.3684 280.2240,123.0965 286.0760,112.9605 268.5200,102.8245 268.5200,82.5526 280.2240,82.5526 286.0760,92.6886 303.6320,82.5526 321.1880,92.6886 315.3360,102.8245 321.1880,112.9605" fill="#1C1C1C" opacity="0.75" stroke="#1C1C1C" stroke-width="0.15" stroke-opacity="0.3" />
    <polygon points="268.5200,143.3684 286.0760,133.2324 291.9280,143.3684 280.2240,163.6403 268.5200,163.6403 268.5200,183.9122 250.9640,194.0482 245.1120,183.9122 250.9640,173.7763 233.4080,163.6403 233.4080,143.3684 245.1120,143.3684 250.9640,133.2324" fill="#1C1C1C" opacity="0.75" stroke="#1C1C1C" stroke-width="0.15" stroke-opacity="0.3" />
    <polygon points="268.5200,102.8245 268.5200,82.5526 256.8160,82.5526 245.1120,102.8245 250.9640,112.9605 233.4080,123.0965 233.4080,143.3684 245.1120,143.3684 250.9640,133.2324 268.5200,143.3684 286.0760,133.2324 280.2240,123.0965 286.0760,112.9605" fill="#2E5090" opacity="0.75" stroke="#1C1C1C" stroke-width="0.15" stroke-opacity="0.3" />
    <polygon points="338.7440,102.8245 338.7440,123.0965 327.0400,123.0965 315.3360,102.8245 321.1880,92.6886 303.6320,82.5526 303.6320,62.2807 315.3360,62.2807 321.1880,72.4167 338.7440,62.2807 356.3000,72.4167 350.4480,82.5526 356.3000,92.6886" fill="#1C1C1C" opacity="0.75" stroke="#1C1C1C" stroke-width="0.15" stroke-opacity="0.3" />
    <polygon points="373.8560,123.0965 391.4120,112.9605 397.2640,123.0965 385.5600,143.3684 373.8560,143.3684 373.8560,163.6403 356.3000,173.7763 350.4480,163.6403 356.3000,153.5043 338.7440,143.3684 338.7440,123.0965 350.4480,123.0965 356.3000,112.9605" fill="#1C1C1C" opacity="0.75" stroke="#1C1C1C" stroke-width="0.15" stroke-opacity="0.3" />
    <polygon points="373.8560,82.5526 373.8560,62.2807 362.1520,62.2807 350.4480,82.5526 356.3000,92.6886 338.7440,102.8245 338.7440,123.0965 350.4480,123.0965 356.3000,112.9605 373.8560,123.0965 391.4120,112.9605 385.5600,102.8245 391.4120,92.6886" fill="#2E5090" opacity="0.75" stroke="#1C1C1C" stroke-width="0.15" stroke-opacity="0.3" />
    <polygon points="338.7440,224.4561 356.3000,214.3201 362.1520,224.4561 350.4480,244.7280 338.7440,244.7280 338.7440,264.9999 321.1880,275.1359 315.3360,264.9999 321.1880,254.8640 303.6320,244.7280 303.6320,224.4561 315.3360,224.4561 321.1880,214.3201" fill="#1C1C1C" opacity="0.75" stroke="#1C1C1C" stroke-width="0.15" stroke-opacity="0.3" />
    <polygon points="303.6320,163.6403 321.1880,153.5043 327.0400,163.6403 315.3360,183.9122 303.6320,183.9122 303.6320,204.1842 286.0760,214.3201 280.2240,204.1842 286.0760,194.0482 268.5200,183.9122 268.5200,163.6403 280.2240,163.6403 286.0760,153.5043" fill="#1C1C1C" opacity="0.75" stroke="#1C1C1C" stroke-width="0.15" stroke-opacity="0.3" />
    <polygon points="338.7440,183.9122 321.1880,173.7763 327.0400,163.6403 350.4480,163.6403 356.3000,173.7763 373.8560,163.6403 391.4120,173.7763 385.5600,183.9122 373.8560,183.9122 373.8560,204.1842 356.3000,214.3201 350.4480,204.1842 338.7440,204.1842" fill="#1C1C1C" opacity="0.75" stroke="#1C1C1C" stroke-width="0.15" stroke-opacity="0.3" />
    <polygon points="303.6320,204.1842 286.0760,214.3201 291.9280,224.4561 315.3360,224.4561 321.1880,214.3201 338.7440,224.4561 356.3000,214.3201 350.4480,204.1842 338.7440,204.1842 338.7440,183.9122 321.1880,173.7763 315.3360,183.9122 303.6320,183.9122" fill="#2E5090" opacity="0.75" stroke="#1C1C1C" stroke-width="0.15" stroke-opacity="0.3" />
    <polygon points="338.7440,143.3684 356.3000,153.5043 350.4480,163.6403 327.0400,163.6403 321.1880,153.5043 303.6320,163.6403 286.0760,153.5043 291.9280,143.3684 303.6320,143.3684 303.6320,123.0965 321.1880,112.9605 327.0400,123.0965 338.7440,123.0965" fill="#1C1C1C" opacity="0.75" stroke="#1C1C1C" stroke-width="0.15" stroke-opacity="0.3" />
    <polygon points="268.5200,224.4561 268.5200,244.7280 256.8160,244.7280 245.1120,224.4561 250.9640,214.3201 233.4080,204.1842 233.4080,183.9122 245.1120,183.9122 250.9640,194.0482 268.5200,183.9122 286.0760,194.0482 280.2240,204.1842 286.0760,214.3201" fill="#1C1C1C" opacity="0.75" stroke="#1C1C1C" stroke-width="0.15" stroke-opacity="0.3" />
    <polygon points="303.6320,244.7280 321.1880,254.8640 315.3360,264.9999 291.9280,264.9999 286.0760,254.8640 268.5200,264.9999 250.9640,254.8640 256.8160,244.7280 268.5200,244.7280 268.5200,224.4561 286.0760,214.3201 291.9280,224.4561 303.6320,224.4561" fill="#1C1C1C" opacity="0.75" stroke="#1C1C1C" stroke-width="0.15" stroke-opacity="0.3" />
    <polygon points="198.2960,143.3684 198.2960,163.6403 186.5920,163.6403 174.8880,143.3684 180.7400,133.2324 163.1840,123.0965 163.1840,102.8245 174.8880,102.8245 180.7400,112.9605 198.2960,102.8245 215.8520,112.9605 210.0000,123.0965 215.8520,133.2324" fill="#1C1C1C" opacity="0.75" stroke="#1C1C1C" stroke-width="0.15" stroke-opacity="0.3" />
    <polygon points="233.4080,163.6403 250.9640,173.7763 245.1120,183.9122 221.7040,183.9122 215.8520,173.7763 198.2960,183.9122 180.7400,173.7763 186.5920,163.6403 198.2960,163.6403 198.2960,143.3684 215.8520,133.2324 221.7040,143.3684 233.4080,143.3684" fill="#1C1C1C" opacity="0.75" stroke="#1C1C1C" stroke-width="0.15" stroke-opacity="0.3" />
    <polygon points="373.8560,244.7280 391.4120,234.5920 397.2640,244.7280 385.5600,264.9999 373.8560,264.9999 373.8560,285.2718 356.3000,295.4078 350.4480,285.2718 356.3000,275.1359 338.7440,264.9999 338.7440,244.7280 350.4480,244.7280 356.3000,234.5920" fill="#1C1C1C" opacity="0.75" stroke="#1C1C1C" stroke-width="0.15" stroke-opacity="0.3" />
    <polygon points="198.2960,386.6315 215.8520,376.4955 221.7040,386.6315 210.0000,406.9034 198.2960,406.9034 198.2960,427.1753 180.7400,437.3113 174.8880,427.1753 180.7400,417.0393 163.1840,406.9034 163.1840,386.6315 174.8880,386.6315 180.7400,376.4955" fill="#1C1C1C" opacity="0.75" stroke="#1C1C1C" stroke-width="0.15" stroke-opacity="0.3" />
    <polygon points="163.1840,325.8157 180.7400,315.6797 186.5920,325.8157 174.8880,346.0876 163.1840,346.0876 163.1840,366.3595 145.6280,376.4955 139.7760,366.3595 145.6280,356.2236 128.0720,346.0876 128.0720,325.8157 139.7760,325.8157 145.6280,315.6797" fill="#1C1C1C" opacity="0.75" stroke="#1C1C1C" stroke-width="0.15" stroke-opacity="0.3" />
    <polygon points="198.2960,346.0876 180.7400,335.9517 186.5920,325.8157 210.0000,325.8157 215.8520,335.9517 233.4080,325.8157 250.9640,335.9517 245.1120,346.0876 233.4080,346.0876 233.4080,366.3595 215.8520,376.4955 210.0000,366.3595 198.2960,366.3595" fill="#1C1C1C" opacity="0.75" stroke="#1C1C1C" stroke-width="0.15" stroke-opacity="0.3" />
    <polygon points="163.1840,366.3595 145.6280,376.4955 151.4800,386.6315 174.8880,386.6315 180.7400,376.4955 198.2960,386.6315 215.8520,376.4955 210.0000,366.3595 198.2960,366.3595 198.2960,346.0876 180.7400,335.9517 174.8880,346.0876 163.1840,346.0876" fill="#2E5090" opacity="0.75" stroke="#1C1C1C" stroke-width="0.15" stroke-opacity="0.3" />
    <polygon points="303.6320,325.8157 286.0760,315.6797 291.9280,305.5438 315.3360,305.5438 321.1880,315.6797 338.7440,305.5438 356.3000,315.6797 350.4480,325.8157 338.7440,325.8157 338.7440,346.0876 321.1880,356.2236 315.3360,346.0876 303.6320,346.0876" fill="#1C1C1C" opacity="0.75" stroke="#1C1C1C" stroke-width="0.15" stroke-opacity="0.3" />
    <polygon points="268.5200,386.6315 250.9640,376.4955 256.8160,366.3595 280.2240,366.3595 286.0760,376.4955 303.6320,366.3595 321.1880,376.4955 315.3360,386.6315 303.6320,386.6315 303.6320,406.9034 286.0760,417.0393 280.2240,406.9034 268.5200,406.9034" fill="#1C1C1C" opacity="0.75" stroke="#1C1C1C" stroke-width="0.15" stroke-opacity="0.3" />
    <polygon points="268.5200,346.0876 268.5200,366.3595 256.8160,366.3595 245.1120,346.0876 250.9640,335.9517 233.4080,325.8157 233.4080,305.5438 245.1120,305.5438 250.9640,315.6797 268.5200,305.5438 286.0760,315.6797 280.2240,325.8157 286.0760,335.9517" fill="#1C1C1C" opacity="0.75" stroke="#1C1C1C" stroke-width="0.15" stroke-opacity="0.3" />
    <polygon points="303.6320,366.3595 321.1880,376.4955 327.0400,366.3595 315.3360,346.0876 303.6320,346.0876 303.6320,325.8157 286.0760,315.6797 280.2240,325.8157 286.0760,335.9517 268.5200,346.0876 268.5200,366.3595 280.2240,366.3595 286.0760,376.4955" fill="#2E5090" opacity="0.75" stroke="#1C1C1C" stroke-width="0.15" stroke-opacity="0.3" />
    <polygon points="233.4080,366.3595 233.4080,346.0876 245.1120,346.0876 256.8160,366.3595 250.9640,376.4955 268.5200,386.6315 268.5200,406.9034 256.8160,406.9034 250.9640,396.7674 233.4080,406.9034 215.8520,396.7674 221.7040,386.6315 215.8520,376.4955" fill="#1C1C1C" opacity="0.75" stroke="#1C1C1C" stroke-width="0.15" stroke-opacity="0.3" />
    <polygon points="338.7440,386.6315 356.3000,376.4955 362.1520,386.6315 350.4480,406.9034 338.7440,406.9034 338.7440,427.1753 321.1880,437.3113 315.3360,427.1753 321.1880,417.0393 303.6320,406.9034 303.6320,386.6315 315.3360,386.6315 321.1880,376.4955" fill="#1C1C1C" opacity="0.75" stroke="#1C1C1C" stroke-width="0.15" stroke-opacity="0.3" />
    <polygon points="338.7440,346.0876 338.7440,325.8157 350.4480,325.8157 362.1520,346.0876 356.3000,356.2236 373.8560,366.3595 373.8560,386.6315 362.1520,386.6315 356.3000,376.4955 338.7440,386.6315 321.1880,376.4955 327.0400,366.3595 321.1880,356.2236" fill="#1C1C1C" opacity="0.75" stroke="#1C1C1C" stroke-width="0.15" stroke-opacity="0.3" />
    <polygon points="128.0720,386.6315 128.0720,406.9034 116.3680,406.9034 104.6640,386.6315 110.5160,376.4955 92.9600,366.3595 92.9600,346.0876 104.6640,346.0876 110.5160,356.2236 128.0720,346.0876 145.6280,356.2236 139.7760,366.3595 145.6280,376.4955" fill="#1C1C1C" opacity="0.75" stroke="#1C1C1C" stroke-width="0.15" stroke-opacity="0.3" />
    <polygon points="163.1840,406.9034 180.7400,417.0393 174.8880,427.1753 151.4800,427.1753 145.6280,417.0393 128.0720,427.1753 110.5160,417.0393 116.3680,406.9034 128.0720,406.9034 128.0720,386.6315 145.6280,376.4955 151.4800,386.6315 163.1840,386.6315" fill="#1C1C1C" opacity="0.75" stroke="#1C1C1C" stroke-width="0.15" stroke-opacity="0.3" />
    <polygon points="198.2960,305.5438 215.8520,315.6797 210.0000,325.8157 186.5920,325.8157 180.7400,315.6797 163.1840,325.8157 145.6280,315.6797 151.4800,305.5438 163.1840,305.5438 163.1840,285.2718 180.7400,275.1359 186.5920,285.2718 198.2960,285.2718" fill="#1C1C1C" opacity="0.75" stroke="#1C1C1C" stroke-width="0.15" stroke-opacity="0.3" />
    <polygon points="233.4080,285.2718 250.9640,275.1359 256.8160,285.2718 245.1120,305.5438 233.4080,305.5438 233.4080,325.8157 215.8520,335.9517 210.0000,325.8157 215.8520,315.6797 198.2960,305.5438 198.2960,285.2718 210.0000,285.2718 215.8520,275.1359" fill="#1C1C1C" opacity="0.75" stroke="#1C1C1C" stroke-width="0.15" stroke-opacity="0.3" />
    <polygon points="303.6320,285.2718 286.0760,275.1359 291.9280,264.9999 315.3360,264.9999 321.1880,275.1359 338.7440,264.9999 356.3000,275.1359 350.4480,285.2718 338.7440,285.2718 338.7440,305.5438 321.1880,315.6797 315.3360,305.5438 303.6320,305.5438" fill="#1C1C1C" opacity="0.75" stroke="#1C1C1C" stroke-width="0.15" stroke-opacity="0.3" />
    <polygon points="268.5200,305.5438 250.9640,315.6797 245.1120,305.5438 256.8160,285.2718 268.5200,285.2718 268.5200,264.9999 286.0760,254.8640 291.9280,264.9999 286.0760,275.1359 303.6320,285.2718 303.6320,305.5438 291.9280,305.5438 286.0760,315.6797" fill="#1C1C1C" opacity="0.75" stroke="#1C1C1C" stroke-width="0.15" stroke-opacity="0.3" />
    <polygon points="198.2960,264.9999 215.8520,275.1359 210.0000,285.2718 186.5920,285.2718 180.7400,275.1359 163.1840,285.2718 145.6280,275.1359 151.4800,264.9999 163.1840,264.9999 163.1840,244.7280 180.7400,234.5920 186.5920,244.7280 198.2960,244.7280" fill="#1C1C1C" opacity="0.75" stroke="#1C1C1C" stroke-width="0.15" stroke-opacity="0.3" />
    <polygon points="233.4080,204.1842 250.9640,214.3201 245.1120,224.4561 221.7040,224.4561 215.8520,214.3201 198.2960,224.4561 180.7400,214.3201 186.5920,204.1842 198.2960,204.1842 198.2960,183.9122 215.8520,173.7763 221.7040,183.9122 233.4080,183.9122" fill="#1C1C1C" opacity="0.75" stroke="#1C1C1C" stroke-width="0.15" stroke-opacity="0.3" />
    <polygon points="233.4080,244.7280 233.4080,224.4561 245.1120,224.4561 256.8160,244.7280 250.9640,254.8640 268.5200,264.9999 268.5200,285.2718 256.8160,285.2718 250.9640,275.1359 233.4080,285.2718 215.8520,275.1359 221.7040,264.9999 215.8520,254.8640" fill="#1C1C1C" opacity="0.75" stroke="#1C1C1C" stroke-width="0.15" stroke-opacity="0.3" />
    <polygon points="198.2960,224.4561 180.7400,214.3201 174.8880,224.4561 186.5920,244.7280 198.2960,244.7280 198.2960,264.9999 215.8520,275.1359 221.7040,264.9999 215.8520,254.8640 233.4080,244.7280 233.4080,224.4561 221.7040,224.4561 215.8520,214.3201" fill="#2E5090" opacity="0.75" stroke="#1C1C1C" stroke-width="0.15" stroke-opacity="0.3" />
    <polygon points="92.9600,406.9034 92.9600,427.1753 81.2560,427.1753 69.5520,406.9034 75.4040,396.7674 57.8480,386.6315 57.8480,366.3595 69.5520,366.3595 75.4040,376.4955 92.9600,366.3595 110.5160,376.4955 104.6640,386.6315 110.5160,396.7674" fill="#1C1C1C" opacity="0.75" stroke="#1C1C1C" stroke-width="0.15" stroke-opacity="0.3" />
    <polygon points="57.8480,386.6315 57.8480,366.3595 46.1440,366.3595 34.4400,386.6315 40.2920,396.7674 22.7360,406.9034 22.7360,427.1753 34.4400,427.1753 40.2920,417.0393 57.8480,427.1753 75.4040,417.0393 69.5520,406.9034 75.4040,396.7674" fill="#2E5090" opacity="0.75" stroke="#1C1C1C" stroke-width="0.15" stroke-opacity="0.3" />
    <polygon points="57.8480,346.0876 40.2920,335.9517 46.1440,325.8157 69.5520,325.8157 75.4040,335.9517 92.9600,325.8157 110.5160,335.9517 104.6640,346.0876 92.9600,346.0876 92.9600,366.3595 75.4040,376.4955 69.5520,366.3595 57.8480,366.3595" fill="#1C1C1C" opacity="0.75" stroke="#1C1C1C" stroke-width="0.15" stroke-opacity="0.3" />
    <polygon points="57.8480,102.8245 40.2920,112.9605 34.4400,102.8245 46.1440,82.5526 57.8480,82.5526 57.8480,62.2807 75.4040,52.1447 81.2560,62.2807 75.4040,72.4167 92.9600,82.5526 92.9600,102.8245 81.2560,102.8245 75.4040,112.9605" fill="#1C1C1C" opacity="0.75" stroke="#1C1C1C" stroke-width="0.15" stroke-opacity="0.3" />
    <polygon points="198.2960,62.2807 215.8520,52.1447 221.7040,62.2807 210.0000,82.5526 198.2960,82.5526 198.2960,102.8245 180.7400,112.9605 174.8880,102.8245 180.7400,92.6886 163.1840,82.5526 163.1840,62.2807 174.8880,62.2807 180.7400,52.1447" fill="#1C1C1C" opacity="0.75" stroke="#1C1C1C" stroke-width="0.15" stroke-opacity="0.3" />
    <polygon points="373.8560,325.8157 373.8560,346.0876 362.1520,346.0876 350.4480,325.8157 356.3000,315.6797 338.7440,305.5438 338.7440,285.2718 350.4480,285.2718 356.3000,295.4078 373.8560,285.2718 391.4120,295.4078 385.5600,305.5438 391.4120,315.6797" fill="#1C1C1C" opacity="0.75" stroke="#1C1C1C" stroke-width="0.15" stroke-opacity="0.3" />
  </g>
  <g id="canonical-hat-legend-inset">
    <g id="canonical-hat-legend">
      <g id="hat-legend-grid">
        <line x1="300.36159999999995" y1="142.1025123475482" x2="313.2192" y2="142.1025123475482" stroke="#1C1C1C" stroke-opacity="0.18" stroke-width="0.22" />
        <line x1="313.2192" y1="142.1025123475482" x2="326.0768" y2="142.1025123475482" stroke="#1C1C1C" stroke-opacity="0.18" stroke-width="0.22" />
        <line x1="326.0768" y1="142.1025123475482" x2="338.9344" y2="142.1025123475482" stroke="#1C1C1C" stroke-opacity="0.18" stroke-width="0.22" />
        <line x1="338.9344" y1="142.1025123475482" x2="351.792" y2="142.1025123475482" stroke="#1C1C1C" stroke-opacity="0.18" stroke-width="0.22" />
        <line x1="351.792" y1="142.1025123475482" x2="364.64959999999996" y2="142.1025123475482" stroke="#1C1C1C" stroke-opacity="0.18" stroke-width="0.22" />
        <line x1="364.64959999999996" y1="142.1025123475482" x2="377.50719999999995" y2="142.1025123475482" stroke="#1C1C1C" stroke-opacity="0.18" stroke-width="0.22" />
        <line x1="377.50719999999995" y1="142.1025123475482" x2="390.36479999999995" y2="142.1025123475482" stroke="#1C1C1C" stroke-opacity="0.18" stroke-width="0.22" />
        <line x1="390.36479999999995" y1="142.1025123475482" x2="403.2224" y2="142.1025123475482" stroke="#1C1C1C" stroke-opacity="0.18" stroke-width="0.22" />
        <line x1="306.7904" y1="130.9675041158494" x2="319.64799999999997" y2="130.9675041158494" stroke="#1C1C1C" stroke-opacity="0.18" stroke-width="0.22" />
        <line x1="319.64799999999997" y1="130.9675041158494" x2="332.50559999999996" y2="130.9675041158494" stroke="#1C1C1C" stroke-opacity="0.18" stroke-width="0.22" />
        <line x1="332.50559999999996" y1="130.9675041158494" x2="345.36319999999995" y2="130.9675041158494" stroke="#1C1C1C" stroke-opacity="0.18" stroke-width="0.22" />
        <line x1="345.36319999999995" y1="130.9675041158494" x2="358.2208" y2="130.9675041158494" stroke="#1C1C1C" stroke-opacity="0.18" stroke-width="0.22" />
        <line x1="358.2208" y1="130.9675041158494" x2="371.0784" y2="130.9675041158494" stroke="#1C1C1C" stroke-opacity="0.18" stroke-width="0.22" />
        <line x1="371.0784" y1="130.9675041158494" x2="383.936" y2="130.9675041158494" stroke="#1C1C1C" stroke-opacity="0.18" stroke-width="0.22" />
        <line x1="383.936" y1="130.9675041158494" x2="396.79359999999997" y2="130.9675041158494" stroke="#1C1C1C" stroke-opacity="0.18" stroke-width="0.22" />
        <line x1="396.79359999999997" y1="130.9675041158494" x2="409.65119999999996" y2="130.9675041158494" stroke="#1C1C1C" stroke-opacity="0.18" stroke-width="0.22" />
        <line x1="313.2192" y1="119.83249588415062" x2="326.0768" y2="119.83249588415062" stroke="#1C1C1C" stroke-opacity="0.18" stroke-width="0.22" />
        <line x1="326.0768" y1="119.83249588415062" x2="338.9344" y2="119.83249588415062" stroke="#1C1C1C" stroke-opacity="0.18" stroke-width="0.22" />
        <line x1="338.9344" y1="119.83249588415062" x2="351.792" y2="119.83249588415062" stroke="#1C1C1C" stroke-opacity="0.18" stroke-width="0.22" />
        <line x1="351.792" y1="119.83249588415062" x2="364.64959999999996" y2="119.83249588415062" stroke="#1C1C1C" stroke-opacity="0.18" stroke-width="0.22" />
        <line x1="364.64959999999996" y1="119.83249588415062" x2="377.50719999999995" y2="119.83249588415062" stroke="#1C1C1C" stroke-opacity="0.18" stroke-width="0.22" />
        <line x1="377.50719999999995" y1="119.83249588415062" x2="390.36479999999995" y2="119.83249588415062" stroke="#1C1C1C" stroke-opacity="0.18" stroke-width="0.22" />
        <line x1="390.36479999999995" y1="119.83249588415062" x2="403.2224" y2="119.83249588415062" stroke="#1C1C1C" stroke-opacity="0.18" stroke-width="0.22" />
        <line x1="403.2224" y1="119.83249588415062" x2="416.08" y2="119.83249588415062" stroke="#1C1C1C" stroke-opacity="0.18" stroke-width="0.22" />
        <line x1="319.64799999999997" y1="108.69748765245183" x2="332.50559999999996" y2="108.69748765245183" stroke="#1C1C1C" stroke-opacity="0.18" stroke-width="0.22" />
        <line x1="332.50559999999996" y1="108.69748765245183" x2="345.36319999999995" y2="108.69748765245183" stroke="#1C1C1C" stroke-opacity="0.18" stroke-width="0.22" />
        <line x1="345.36319999999995" y1="108.69748765245183" x2="358.2208" y2="108.69748765245183" stroke="#1C1C1C" stroke-opacity="0.18" stroke-width="0.22" />
        <line x1="358.2208" y1="108.69748765245183" x2="371.0784" y2="108.69748765245183" stroke="#1C1C1C" stroke-opacity="0.18" stroke-width="0.22" />
        <line x1="371.0784" y1="108.69748765245183" x2="383.936" y2="108.69748765245183" stroke="#1C1C1C" stroke-opacity="0.18" stroke-width="0.22" />
        <line x1="383.936" y1="108.69748765245183" x2="396.79359999999997" y2="108.69748765245183" stroke="#1C1C1C" stroke-opacity="0.18" stroke-width="0.22" />
        <line x1="396.79359999999997" y1="108.69748765245183" x2="409.65119999999996" y2="108.69748765245183" stroke="#1C1C1C" stroke-opacity="0.18" stroke-width="0.22" />
        <line x1="409.65119999999996" y1="108.69748765245183" x2="422.50879999999995" y2="108.69748765245183" stroke="#1C1C1C" stroke-opacity="0.18" stroke-width="0.22" />
        <line x1="326.0768" y1="97.56247942075302" x2="338.9344" y2="97.56247942075302" stroke="#1C1C1C" stroke-opacity="0.18" stroke-width="0.22" />
        <line x1="338.9344" y1="97.56247942075302" x2="351.792" y2="97.56247942075302" stroke="#1C1C1C" stroke-opacity="0.18" stroke-width="0.22" />
        <line x1="351.792" y1="97.56247942075302" x2="364.64959999999996" y2="97.56247942075302" stroke="#1C1C1C" stroke-opacity="0.18" stroke-width="0.22" />
        <line x1="364.64959999999996" y1="97.56247942075302" x2="377.50719999999995" y2="97.56247942075302" stroke="#1C1C1C" stroke-opacity="0.18" stroke-width="0.22" />
        <line x1="377.50719999999995" y1="97.56247942075302" x2="390.36479999999995" y2="97.56247942075302" stroke="#1C1C1C" stroke-opacity="0.18" stroke-width="0.22" />
        <line x1="390.36479999999995" y1="97.56247942075302" x2="403.2224" y2="97.56247942075302" stroke="#1C1C1C" stroke-opacity="0.18" stroke-width="0.22" />
        <line x1="403.2224" y1="97.56247942075302" x2="416.08" y2="97.56247942075302" stroke="#1C1C1C" stroke-opacity="0.18" stroke-width="0.22" />
        <line x1="416.08" y1="97.56247942075302" x2="428.9376" y2="97.56247942075302" stroke="#1C1C1C" stroke-opacity="0.18" stroke-width="0.22" />
        <line x1="332.50559999999996" y1="86.42747118905422" x2="345.36319999999995" y2="86.42747118905422" stroke="#1C1C1C" stroke-opacity="0.18" stroke-width="0.22" />
        <line x1="345.36319999999995" y1="86.42747118905422" x2="358.2208" y2="86.42747118905422" stroke="#1C1C1C" stroke-opacity="0.18" stroke-width="0.22" />
        <line x1="358.2208" y1="86.42747118905422" x2="371.0784" y2="86.42747118905422" stroke="#1C1C1C" stroke-opacity="0.18" stroke-width="0.22" />
        <line x1="371.0784" y1="86.42747118905422" x2="383.936" y2="86.42747118905422" stroke="#1C1C1C" stroke-opacity="0.18" stroke-width="0.22" />
        <line x1="383.936" y1="86.42747118905422" x2="396.79359999999997" y2="86.42747118905422" stroke="#1C1C1C" stroke-opacity="0.18" stroke-width="0.22" />
        <line x1="396.79359999999997" y1="86.42747118905422" x2="409.65119999999996" y2="86.42747118905422" stroke="#1C1C1C" stroke-opacity="0.18" stroke-width="0.22" />
        <line x1="409.65119999999996" y1="86.42747118905422" x2="422.50879999999995" y2="86.42747118905422" stroke="#1C1C1C" stroke-opacity="0.18" stroke-width="0.22" />
        <line x1="422.50879999999995" y1="86.42747118905422" x2="435.3664" y2="86.42747118905422" stroke="#1C1C1C" stroke-opacity="0.18" stroke-width="0.22" />
        <line x1="338.9344" y1="75.29246295735543" x2="351.792" y2="75.29246295735543" stroke="#1C1C1C" stroke-opacity="0.18" stroke-width="0.22" />
        <line x1="351.792" y1="75.29246295735543" x2="364.64959999999996" y2="75.29246295735543" stroke="#1C1C1C" stroke-opacity="0.18" stroke-width="0.22" />
        <line x1="364.64959999999996" y1="75.29246295735543" x2="377.50719999999995" y2="75.29246295735543" stroke="#1C1C1C" stroke-opacity="0.18" stroke-width="0.22" />
        <line x1="377.50719999999995" y1="75.29246295735543" x2="390.36479999999995" y2="75.29246295735543" stroke="#1C1C1C" stroke-opacity="0.18" stroke-width="0.22" />
        <line x1="390.36479999999995" y1="75.29246295735543" x2="403.2224" y2="75.29246295735543" stroke="#1C1C1C" stroke-opacity="0.18" stroke-width="0.22" />
        <line x1="403.2224" y1="75.29246295735543" x2="416.08" y2="75.29246295735543" stroke="#1C1C1C" stroke-opacity="0.18" stroke-width="0.22" />
        <line x1="416.08" y1="75.29246295735543" x2="428.9376" y2="75.29246295735543" stroke="#1C1C1C" stroke-opacity="0.18" stroke-width="0.22" />
        <line x1="428.9376" y1="75.29246295735543" x2="441.79519999999997" y2="75.29246295735543" stroke="#1C1C1C" stroke-opacity="0.18" stroke-width="0.22" />
        <line x1="300.36159999999995" y1="142.1025123475482" x2="306.7904" y2="130.9675041158494" stroke="#1C1C1C" stroke-opacity="0.18" stroke-width="0.22" />
        <line x1="306.7904" y1="130.9675041158494" x2="313.2192" y2="119.83249588415062" stroke="#1C1C1C" stroke-opacity="0.18" stroke-width="0.22" />
        <line x1="313.2192" y1="119.83249588415062" x2="319.64799999999997" y2="108.69748765245183" stroke="#1C1C1C" stroke-opacity="0.18" stroke-width="0.22" />
        <line x1="319.64799999999997" y1="108.69748765245183" x2="326.0768" y2="97.56247942075302" stroke="#1C1C1C" stroke-opacity="0.18" stroke-width="0.22" />
        <line x1="326.0768" y1="97.56247942075302" x2="332.50559999999996" y2="86.42747118905422" stroke="#1C1C1C" stroke-opacity="0.18" stroke-width="0.22" />
        <line x1="332.50559999999996" y1="86.42747118905422" x2="338.9344" y2="75.29246295735543" stroke="#1C1C1C" stroke-opacity="0.18" stroke-width="0.22" />
        <line x1="313.2192" y1="142.1025123475482" x2="319.64799999999997" y2="130.9675041158494" stroke="#1C1C1C" stroke-opacity="0.18" stroke-width="0.22" />
        <line x1="319.64799999999997" y1="130.9675041158494" x2="326.0768" y2="119.83249588415062" stroke="#1C1C1C" stroke-opacity="0.18" stroke-width="0.22" />
        <line x1="326.0768" y1="119.83249588415062" x2="332.50559999999996" y2="108.69748765245183" stroke="#1C1C1C" stroke-opacity="0.18" stroke-width="0.22" />
        <line x1="332.50559999999996" y1="108.69748765245183" x2="338.9344" y2="97.56247942075302" stroke="#1C1C1C" stroke-opacity="0.18" stroke-width="0.22" />
        <line x1="338.9344" y1="97.56247942075302" x2="345.36319999999995" y2="86.42747118905422" stroke="#1C1C1C" stroke-opacity="0.18" stroke-width="0.22" />
        <line x1="345.36319999999995" y1="86.42747118905422" x2="351.792" y2="75.29246295735543" stroke="#1C1C1C" stroke-opacity="0.18" stroke-width="0.22" />
        <line x1="326.0768" y1="142.1025123475482" x2="332.50559999999996" y2="130.9675041158494" stroke="#1C1C1C" stroke-opacity="0.18" stroke-width="0.22" />
        <line x1="332.50559999999996" y1="130.9675041158494" x2="338.9344" y2="119.83249588415062" stroke="#1C1C1C" stroke-opacity="0.18" stroke-width="0.22" />
        <line x1="338.9344" y1="119.83249588415062" x2="345.36319999999995" y2="108.69748765245183" stroke="#1C1C1C" stroke-opacity="0.18" stroke-width="0.22" />
        <line x1="345.36319999999995" y1="108.69748765245183" x2="351.792" y2="97.56247942075302" stroke="#1C1C1C" stroke-opacity="0.18" stroke-width="0.22" />
        <line x1="351.792" y1="97.56247942075302" x2="358.2208" y2="86.42747118905422" stroke="#1C1C1C" stroke-opacity="0.18" stroke-width="0.22" />
        <line x1="358.2208" y1="86.42747118905422" x2="364.64959999999996" y2="75.29246295735543" stroke="#1C1C1C" stroke-opacity="0.18" stroke-width="0.22" />
        <line x1="338.9344" y1="142.1025123475482" x2="345.36319999999995" y2="130.9675041158494" stroke="#1C1C1C" stroke-opacity="0.18" stroke-width="0.22" />
        <line x1="345.36319999999995" y1="130.9675041158494" x2="351.792" y2="119.83249588415062" stroke="#1C1C1C" stroke-opacity="0.18" stroke-width="0.22" />
        <line x1="351.792" y1="119.83249588415062" x2="358.2208" y2="108.69748765245183" stroke="#1C1C1C" stroke-opacity="0.18" stroke-width="0.22" />
        <line x1="358.2208" y1="108.69748765245183" x2="364.64959999999996" y2="97.56247942075302" stroke="#1C1C1C" stroke-opacity="0.18" stroke-width="0.22" />
        <line x1="364.64959999999996" y1="97.56247942075302" x2="371.0784" y2="86.42747118905422" stroke="#1C1C1C" stroke-opacity="0.18" stroke-width="0.22" />
        <line x1="371.0784" y1="86.42747118905422" x2="377.50719999999995" y2="75.29246295735543" stroke="#1C1C1C" stroke-opacity="0.18" stroke-width="0.22" />
        <line x1="351.792" y1="142.1025123475482" x2="358.2208" y2="130.9675041158494" stroke="#1C1C1C" stroke-opacity="0.18" stroke-width="0.22" />
        <line x1="358.2208" y1="130.9675041158494" x2="364.64959999999996" y2="119.83249588415062" stroke="#1C1C1C" stroke-opacity="0.18" stroke-width="0.22" />
        <line x1="364.64959999999996" y1="119.83249588415062" x2="371.0784" y2="108.69748765245183" stroke="#1C1C1C" stroke-opacity="0.18" stroke-width="0.22" />
        <line x1="371.0784" y1="108.69748765245183" x2="377.50719999999995" y2="97.56247942075302" stroke="#1C1C1C" stroke-opacity="0.18" stroke-width="0.22" />
        <line x1="377.50719999999995" y1="97.56247942075302" x2="383.936" y2="86.42747118905422" stroke="#1C1C1C" stroke-opacity="0.18" stroke-width="0.22" />
        <line x1="383.936" y1="86.42747118905422" x2="390.36479999999995" y2="75.29246295735543" stroke="#1C1C1C" stroke-opacity="0.18" stroke-width="0.22" />
        <line x1="364.64959999999996" y1="142.1025123475482" x2="371.0784" y2="130.9675041158494" stroke="#1C1C1C" stroke-opacity="0.18" stroke-width="0.22" />
        <line x1="371.0784" y1="130.9675041158494" x2="377.50719999999995" y2="119.83249588415062" stroke="#1C1C1C" stroke-opacity="0.18" stroke-width="0.22" />
        <line x1="377.50719999999995" y1="119.83249588415062" x2="383.936" y2="108.69748765245183" stroke="#1C1C1C" stroke-opacity="0.18" stroke-width="0.22" />
        <line x1="383.936" y1="108.69748765245183" x2="390.36479999999995" y2="97.56247942075302" stroke="#1C1C1C" stroke-opacity="0.18" stroke-width="0.22" />
        <line x1="390.36479999999995" y1="97.56247942075302" x2="396.79359999999997" y2="86.42747118905422" stroke="#1C1C1C" stroke-opacity="0.18" stroke-width="0.22" />
        <line x1="396.79359999999997" y1="86.42747118905422" x2="403.2224" y2="75.29246295735543" stroke="#1C1C1C" stroke-opacity="0.18" stroke-width="0.22" />
        <line x1="377.50719999999995" y1="142.1025123475482" x2="383.936" y2="130.9675041158494" stroke="#1C1C1C" stroke-opacity="0.18" stroke-width="0.22" />
        <line x1="383.936" y1="130.9675041158494" x2="390.36479999999995" y2="119.83249588415062" stroke="#1C1C1C" stroke-opacity="0.18" stroke-width="0.22" />
        <line x1="390.36479999999995" y1="119.83249588415062" x2="396.79359999999997" y2="108.69748765245183" stroke="#1C1C1C" stroke-opacity="0.18" stroke-width="0.22" />
        <line x1="396.79359999999997" y1="108.69748765245183" x2="403.2224" y2="97.56247942075302" stroke="#1C1C1C" stroke-opacity="0.18" stroke-width="0.22" />
        <line x1="403.2224" y1="97.56247942075302" x2="409.65119999999996" y2="86.42747118905422" stroke="#1C1C1C" stroke-opacity="0.18" stroke-width="0.22" />
        <line x1="409.65119999999996" y1="86.42747118905422" x2="416.08" y2="75.29246295735543" stroke="#1C1C1C" stroke-opacity="0.18" stroke-width="0.22" />
        <line x1="390.36479999999995" y1="142.1025123475482" x2="396.79359999999997" y2="130.9675041158494" stroke="#1C1C1C" stroke-opacity="0.18" stroke-width="0.22" />
        <line x1="396.79359999999997" y1="130.9675041158494" x2="403.2224" y2="119.83249588415062" stroke="#1C1C1C" stroke-opacity="0.18" stroke-width="0.22" />
        <line x1="403.2224" y1="119.83249588415062" x2="409.65119999999996" y2="108.69748765245183" stroke="#1C1C1C" stroke-opacity="0.18" stroke-width="0.22" />
        <line x1="409.65119999999996" y1="108.69748765245183" x2="416.08" y2="97.56247942075302" stroke="#1C1C1C" stroke-opacity="0.18" stroke-width="0.22" />
        <line x1="416.08" y1="97.56247942075302" x2="422.50879999999995" y2="86.42747118905422" stroke="#1C1C1C" stroke-opacity="0.18" stroke-width="0.22" />
        <line x1="422.50879999999995" y1="86.42747118905422" x2="428.9376" y2="75.29246295735543" stroke="#1C1C1C" stroke-opacity="0.18" stroke-width="0.22" />
        <line x1="403.2224" y1="142.1025123475482" x2="409.65119999999996" y2="130.9675041158494" stroke="#1C1C1C" stroke-opacity="0.18" stroke-width="0.22" />
        <line x1="409.65119999999996" y1="130.9675041158494" x2="416.08" y2="119.83249588415062" stroke="#1C1C1C" stroke-opacity="0.18" stroke-width="0.22" />
        <line x1="416.08" y1="119.83249588415062" x2="422.50879999999995" y2="108.69748765245183" stroke="#1C1C1C" stroke-opacity="0.18" stroke-width="0.22" />
        <line x1="422.50879999999995" y1="108.69748765245183" x2="428.9376" y2="97.56247942075302" stroke="#1C1C1C" stroke-opacity="0.18" stroke-width="0.22" />
        <line x1="428.9376" y1="97.56247942075302" x2="435.3664" y2="86.42747118905422" stroke="#1C1C1C" stroke-opacity="0.18" stroke-width="0.22" />
        <line x1="435.3664" y1="86.42747118905422" x2="441.79519999999997" y2="75.29246295735543" stroke="#1C1C1C" stroke-opacity="0.18" stroke-width="0.22" />
        <line x1="306.7904" y1="130.9675041158494" x2="313.2192" y2="142.1025123475482" stroke="#1C1C1C" stroke-opacity="0.18" stroke-width="0.22" />
        <line x1="313.2192" y1="119.83249588415062" x2="319.64799999999997" y2="130.9675041158494" stroke="#1C1C1C" stroke-opacity="0.18" stroke-width="0.22" />
        <line x1="319.64799999999997" y1="130.9675041158494" x2="326.0768" y2="142.1025123475482" stroke="#1C1C1C" stroke-opacity="0.18" stroke-width="0.22" />
        <line x1="319.64799999999997" y1="108.69748765245183" x2="326.0768" y2="119.83249588415062" stroke="#1C1C1C" stroke-opacity="0.18" stroke-width="0.22" />
        <line x1="326.0768" y1="119.83249588415062" x2="332.50559999999996" y2="130.9675041158494" stroke="#1C1C1C" stroke-opacity="0.18" stroke-width="0.22" />
        <line x1="332.50559999999996" y1="130.9675041158494" x2="338.9344" y2="142.1025123475482" stroke="#1C1C1C" stroke-opacity="0.18" stroke-width="0.22" />
        <line x1="326.0768" y1="97.56247942075302" x2="332.50559999999996" y2="108.69748765245183" stroke="#1C1C1C" stroke-opacity="0.18" stroke-width="0.22" />
        <line x1="332.50559999999996" y1="108.69748765245183" x2="338.9344" y2="119.83249588415062" stroke="#1C1C1C" stroke-opacity="0.18" stroke-width="0.22" />
        <line x1="338.9344" y1="119.83249588415062" x2="345.36319999999995" y2="130.9675041158494" stroke="#1C1C1C" stroke-opacity="0.18" stroke-width="0.22" />
        <line x1="345.36319999999995" y1="130.9675041158494" x2="351.792" y2="142.1025123475482" stroke="#1C1C1C" stroke-opacity="0.18" stroke-width="0.22" />
        <line x1="332.50559999999996" y1="86.42747118905422" x2="338.9344" y2="97.56247942075302" stroke="#1C1C1C" stroke-opacity="0.18" stroke-width="0.22" />
        <line x1="338.9344" y1="97.56247942075302" x2="345.36319999999995" y2="108.69748765245183" stroke="#1C1C1C" stroke-opacity="0.18" stroke-width="0.22" />
        <line x1="345.36319999999995" y1="108.69748765245183" x2="351.792" y2="119.83249588415062" stroke="#1C1C1C" stroke-opacity="0.18" stroke-width="0.22" />
        <line x1="351.792" y1="119.83249588415062" x2="358.2208" y2="130.9675041158494" stroke="#1C1C1C" stroke-opacity="0.18" stroke-width="0.22" />
        <line x1="358.2208" y1="130.9675041158494" x2="364.64959999999996" y2="142.1025123475482" stroke="#1C1C1C" stroke-opacity="0.18" stroke-width="0.22" />
        <line x1="338.9344" y1="75.29246295735543" x2="345.36319999999995" y2="86.42747118905422" stroke="#1C1C1C" stroke-opacity="0.18" stroke-width="0.22" />
        <line x1="345.36319999999995" y1="86.42747118905422" x2="351.792" y2="97.56247942075302" stroke="#1C1C1C" stroke-opacity="0.18" stroke-width="0.22" />
        <line x1="351.792" y1="97.56247942075302" x2="358.2208" y2="108.69748765245183" stroke="#1C1C1C" stroke-opacity="0.18" stroke-width="0.22" />
        <line x1="358.2208" y1="108.69748765245183" x2="364.64959999999996" y2="119.83249588415062" stroke="#1C1C1C" stroke-opacity="0.18" stroke-width="0.22" />
        <line x1="364.64959999999996" y1="119.83249588415062" x2="371.0784" y2="130.9675041158494" stroke="#1C1C1C" stroke-opacity="0.18" stroke-width="0.22" />
        <line x1="371.0784" y1="130.9675041158494" x2="377.50719999999995" y2="142.1025123475482" stroke="#1C1C1C" stroke-opacity="0.18" stroke-width="0.22" />
        <line x1="351.792" y1="75.29246295735543" x2="358.2208" y2="86.42747118905422" stroke="#1C1C1C" stroke-opacity="0.18" stroke-width="0.22" />
        <line x1="358.2208" y1="86.42747118905422" x2="364.64959999999996" y2="97.56247942075302" stroke="#1C1C1C" stroke-opacity="0.18" stroke-width="0.22" />
        <line x1="364.64959999999996" y1="97.56247942075302" x2="371.0784" y2="108.69748765245183" stroke="#1C1C1C" stroke-opacity="0.18" stroke-width="0.22" />
        <line x1="371.0784" y1="108.69748765245183" x2="377.50719999999995" y2="119.83249588415062" stroke="#1C1C1C" stroke-opacity="0.18" stroke-width="0.22" />
        <line x1="377.50719999999995" y1="119.83249588415062" x2="383.936" y2="130.9675041158494" stroke="#1C1C1C" stroke-opacity="0.18" stroke-width="0.22" />
        <line x1="383.936" y1="130.9675041158494" x2="390.36479999999995" y2="142.1025123475482" stroke="#1C1C1C" stroke-opacity="0.18" stroke-width="0.22" />
        <line x1="364.64959999999996" y1="75.29246295735543" x2="371.0784" y2="86.42747118905422" stroke="#1C1C1C" stroke-opacity="0.18" stroke-width="0.22" />
        <line x1="371.0784" y1="86.42747118905422" x2="377.50719999999995" y2="97.56247942075302" stroke="#1C1C1C" stroke-opacity="0.18" stroke-width="0.22" />
        <line x1="377.50719999999995" y1="97.56247942075302" x2="383.936" y2="108.69748765245183" stroke="#1C1C1C" stroke-opacity="0.18" stroke-width="0.22" />
        <line x1="383.936" y1="108.69748765245183" x2="390.36479999999995" y2="119.83249588415062" stroke="#1C1C1C" stroke-opacity="0.18" stroke-width="0.22" />
        <line x1="390.36479999999995" y1="119.83249588415062" x2="396.79359999999997" y2="130.9675041158494" stroke="#1C1C1C" stroke-opacity="0.18" stroke-width="0.22" />
        <line x1="396.79359999999997" y1="130.9675041158494" x2="403.2224" y2="142.1025123475482" stroke="#1C1C1C" stroke-opacity="0.18" stroke-width="0.22" />
        <line x1="377.50719999999995" y1="75.29246295735543" x2="383.936" y2="86.42747118905422" stroke="#1C1C1C" stroke-opacity="0.18" stroke-width="0.22" />
        <line x1="383.936" y1="86.42747118905422" x2="390.36479999999995" y2="97.56247942075302" stroke="#1C1C1C" stroke-opacity="0.18" stroke-width="0.22" />
        <line x1="390.36479999999995" y1="97.56247942075302" x2="396.79359999999997" y2="108.69748765245183" stroke="#1C1C1C" stroke-opacity="0.18" stroke-width="0.22" />
        <line x1="396.79359999999997" y1="108.69748765245183" x2="403.2224" y2="119.83249588415062" stroke="#1C1C1C" stroke-opacity="0.18" stroke-width="0.22" />
        <line x1="403.2224" y1="119.83249588415062" x2="409.65119999999996" y2="130.9675041158494" stroke="#1C1C1C" stroke-opacity="0.18" stroke-width="0.22" />
        <line x1="390.36479999999995" y1="75.29246295735543" x2="396.79359999999997" y2="86.42747118905422" stroke="#1C1C1C" stroke-opacity="0.18" stroke-width="0.22" />
        <line x1="396.79359999999997" y1="86.42747118905422" x2="403.2224" y2="97.56247942075302" stroke="#1C1C1C" stroke-opacity="0.18" stroke-width="0.22" />
        <line x1="403.2224" y1="97.56247942075302" x2="409.65119999999996" y2="108.69748765245183" stroke="#1C1C1C" stroke-opacity="0.18" stroke-width="0.22" />
        <line x1="409.65119999999996" y1="108.69748765245183" x2="416.08" y2="119.83249588415062" stroke="#1C1C1C" stroke-opacity="0.18" stroke-width="0.22" />
        <line x1="403.2224" y1="75.29246295735543" x2="409.65119999999996" y2="86.42747118905422" stroke="#1C1C1C" stroke-opacity="0.18" stroke-width="0.22" />
        <line x1="409.65119999999996" y1="86.42747118905422" x2="416.08" y2="97.56247942075302" stroke="#1C1C1C" stroke-opacity="0.18" stroke-width="0.22" />
        <line x1="416.08" y1="97.56247942075302" x2="422.50879999999995" y2="108.69748765245183" stroke="#1C1C1C" stroke-opacity="0.18" stroke-width="0.22" />
        <line x1="416.08" y1="75.29246295735543" x2="422.50879999999995" y2="86.42747118905422" stroke="#1C1C1C" stroke-opacity="0.18" stroke-width="0.22" />
        <line x1="422.50879999999995" y1="86.42747118905422" x2="428.9376" y2="97.56247942075302" stroke="#1C1C1C" stroke-opacity="0.18" stroke-width="0.22" />
        <line x1="428.9376" y1="75.29246295735543" x2="435.3664" y2="86.42747118905422" stroke="#1C1C1C" stroke-opacity="0.18" stroke-width="0.22" />
      </g>
      <polygon points="351.7920,119.8325 332.5056,130.9675 338.9344,142.1025 364.6496,142.1025 371.0784,130.9675 390.3648,142.1025 409.6512,130.9675 403.2224,119.8325 390.3648,119.8325 390.3648,97.5625 371.0784,86.4275 364.6496,97.5625 351.7920,97.5625" fill="#1C1C1C" opacity="0.55" stroke="#1C1C1C" stroke-width="0.35" stroke-opacity="0.85" />
      <circle cx="351.792" cy="119.83249588415062" r="1.69344" fill="#8B0000" stroke="none" />
      <text x="346.6176" y="118.98577588415061" font-family="'Playfair Display', Georgia, 'Times New Roman', serif" font-size="6.12" fill="#1C1C1C" text-anchor="middle">1</text>
      <text x="346.6176" y="125.75953588415061" font-family="'Playfair Display', Georgia, 'Times New Roman', serif" font-size="4.52" fill="#1C1C1C" text-anchor="middle">(0,0)</text>
      <circle cx="332.50559999999996" cy="130.9675041158494" r="1.69344" fill="#8B0000" stroke="none" />
      <text x="327.5293802271318" y="131.53911134611616" font-family="'Playfair Display', Georgia, 'Times New Roman', serif" font-size="6.12" fill="#1C1C1C" text-anchor="middle">2</text>
      <text x="327.5293802271318" y="138.31287134611617" font-family="'Playfair Display', Georgia, 'Times New Roman', serif" font-size="4.52" fill="#1C1C1C" text-anchor="middle">(-1,-1)</text>
      <circle cx="338.9344" cy="142.1025123475482" r="1.69344" fill="#8B0000" stroke="none" />
      <text x="334.66017387392264" y="144.17219533464686" font-family="'Playfair Display', Georgia, 'Times New Roman', serif" font-size="6.12" fill="#1C1C1C" text-anchor="middle">3</text>
      <text x="334.66017387392264" y="150.94595533464687" font-family="'Playfair Display', Georgia, 'Times New Roman', serif" font-size="4.52" fill="#1C1C1C" text-anchor="middle">(0,-2)</text>
      <circle cx="364.64959999999996" cy="142.1025123475482" r="1.69344" fill="#8B0000" stroke="none" />
      <text x="363.11349592079233" y="146.19692578207938" font-family="'Playfair Display', Georgia, 'Times New Roman', serif" font-size="6.12" fill="#1C1C1C" text-anchor="middle">4</text>
      <text x="363.11349592079233" y="152.97068578207939" font-family="'Playfair Display', Georgia, 'Times New Roman', serif" font-size="4.52" fill="#1C1C1C" text-anchor="middle">(2,-2)</text>
      <circle cx="371.0784" cy="130.9675041158494" r="1.69344" fill="#8B0000" stroke="none" />
      <text x="370.84882312388385" y="135.29008869363864" font-family="'Playfair Display', Georgia, 'Times New Roman', serif" font-size="6.12" fill="#1C1C1C" text-anchor="middle">5</text>
      <text x="370.84882312388385" y="142.06384869363865" font-family="'Playfair Display', Georgia, 'Times New Roman', serif" font-size="4.52" fill="#1C1C1C" text-anchor="middle">(2,-1)</text>
      <circle cx="390.36479999999995" cy="142.1025123475482" r="1.69344" fill="#8B0000" stroke="none" />
      <text x="393.7017810207586" y="145.2104064914435" font-family="'Playfair Display', Georgia, 'Times New Roman', serif" font-size="6.12" fill="#1C1C1C" text-anchor="middle">6</text>
      <text x="393.7017810207586" y="151.98416649144352" font-family="'Playfair Display', Georgia, 'Times New Roman', serif" font-size="4.52" fill="#1C1C1C" text-anchor="middle">(4,-2)</text>
      <circle cx="409.65119999999996" cy="130.9675041158494" r="1.69344" fill="#8B0000" stroke="none" />
      <text x="414.617611554996" y="131.57308285453973" font-family="'Playfair Display', Georgia, 'Times New Roman', serif" font-size="6.12" fill="#1C1C1C" text-anchor="middle">7</text>
      <text x="414.617611554996" y="138.34684285453974" font-family="'Playfair Display', Georgia, 'Times New Roman', serif" font-size="4.52" fill="#1C1C1C" text-anchor="middle">(5,-1)</text>
      <circle cx="403.2224" cy="119.83249588415062" r="1.69344" fill="#8B0000" stroke="none" />
      <text x="408.3968" y="118.98577588415061" font-family="'Playfair Display', Georgia, 'Times New Roman', serif" font-size="6.12" fill="#1C1C1C" text-anchor="middle">8</text>
      <text x="408.3968" y="125.75953588415061" font-family="'Playfair Display', Georgia, 'Times New Roman', serif" font-size="4.52" fill="#1C1C1C" text-anchor="middle">(4,0)</text>
      <circle cx="390.36479999999995" cy="119.83249588415062" r="1.69344" fill="#8B0000" stroke="none" />
      <text x="395.53919999999994" y="118.98577588415061" font-family="'Playfair Display', Georgia, 'Times New Roman', serif" font-size="6.12" fill="#1C1C1C" text-anchor="middle">9</text>
      <text x="395.53919999999994" y="125.75953588415061" font-family="'Playfair Display', Georgia, 'Times New Roman', serif" font-size="4.52" fill="#1C1C1C" text-anchor="middle">(3,0)</text>
      <circle cx="390.36479999999995" cy="97.56247942075302" r="1.69344" fill="#8B0000" stroke="none" />
      <text x="393.7017810207586" y="92.76114527685772" font-family="'Playfair Display', Georgia, 'Times New Roman', serif" font-size="6.12" fill="#1C1C1C" text-anchor="middle">10</text>
      <text x="393.7017810207586" y="99.53490527685771" font-family="'Playfair Display', Georgia, 'Times New Roman', serif" font-size="4.52" fill="#1C1C1C" text-anchor="middle">(2,2)</text>
      <circle cx="371.0784" cy="86.42747118905422" r="1.69344" fill="#8B0000" stroke="none" />
      <text x="371.00180733508347" y="80.40691809127448" font-family="'Playfair Display', Georgia, 'Times New Roman', serif" font-size="6.12" fill="#1C1C1C" text-anchor="middle">11</text>
      <text x="371.00180733508347" y="87.18067809127447" font-family="'Playfair Display', Georgia, 'Times New Roman', serif" font-size="4.52" fill="#1C1C1C" text-anchor="middle">(0,3)</text>
      <circle cx="364.64959999999996" cy="97.56247942075302" r="1.69344" fill="#8B0000" stroke="none" />
      <text x="363.11349592079233" y="91.77462598622185" font-family="'Playfair Display', Georgia, 'Times New Roman', serif" font-size="6.12" fill="#1C1C1C" text-anchor="middle">12</text>
      <text x="363.11349592079233" y="98.54838598622185" font-family="'Playfair Display', Georgia, 'Times New Roman', serif" font-size="4.52" fill="#1C1C1C" text-anchor="middle">(0,2)</text>
      <circle cx="351.792" cy="97.56247942075302" r="1.69344" fill="#8B0000" stroke="none" />
      <text x="348.3557373600756" y="92.84710145842813" font-family="'Playfair Display', Georgia, 'Times New Roman', serif" font-size="6.12" fill="#1C1C1C" text-anchor="middle">13</text>
      <text x="348.3557373600756" y="99.62086145842812" font-family="'Playfair Display', Georgia, 'Times New Roman', serif" font-size="4.52" fill="#1C1C1C" text-anchor="middle">(-1,2)</text>
      <text x="371.0784" y="75.13787118905421" font-family="'Playfair Display', Georgia, 'Times New Roman', serif" font-size="7.06" fill="#8B0000" text-anchor="middle">Canonical 13-Vertex Hat Construction</text>
      <rect x="339.0912" y="148.45291234754822" width="11.289600000000002" height="6.115200000000001" fill="#1C1C1C" opacity="0.75" stroke="#1C1C1C" stroke-width="0.25" />
      <text x="354.33216" y="151.51051234754823" font-family="'Playfair Display', Georgia, 'Times New Roman', serif" font-size="5.64" fill="#1C1C1C" dominant-baseline="middle">Unreflected</text>
      <rect x="374.8416" y="148.45291234754822" width="11.289600000000002" height="6.115200000000001" fill="#2E5090" opacity="0.75" stroke="#1C1C1C" stroke-width="0.25" />
      <text x="390.08256" y="151.51051234754823" font-family="'Playfair Display', Georgia, 'Times New Roman', serif" font-size="5.64" fill="#1C1C1C" dominant-baseline="middle">Reflected</text>
    </g>
  </g>
  <g id="annotations">
    <line x1="63.0" y1="427.79999999999995" x2="357.0" y2="427.79999999999995" stroke="#8B0000" stroke-width="0.3" opacity="0.5" />
    <g>
      <circle cx="63.0" cy="437.79999999999995" r="1.0" fill="#8B0000" />
      <text x="63.0" y="447.79999999999995" font-family="'Inter', 'Helvetica Neue', Arial, sans-serif, system-ui, -apple-system, 'Segoe UI', Roboto, 'Apple Color Emoji', 'Segoe UI Emoji', 'Segoe UI Symbol'" fill="#8B0000" font-size="5.0" text-anchor="middle">The Einstein Tile</text>
      <text x="63.0" y="454.79999999999995" font-family="'Inter', 'Helvetica Neue', Arial, sans-serif, system-ui, -apple-system, 'Segoe UI', Roboto, 'Apple Color Emoji', 'Segoe UI Emoji', 'Segoe UI Symbol'" fill="#1C1C1C" font-size="3.8" text-anchor="middle">
        <tspan x="63.0" dy="0">‘Ein Stein’ — German for ‘one</tspan>
        <tspan x="63.0" dy="5.0">stone’ — names the dream of a single</tspan>
        <tspan x="63.0" dy="5.0">shape that tiles the entire plane</tspan>
        <tspan x="63.0" dy="5.0">yet can never do so periodically.</tspan>
        <tspan x="63.0" dy="5.0">The Hat is the first monotile proven</tspan>
        <tspan x="63.0" dy="5.0">to be aperiodic (with reflected copies).</tspan>
      </text>
    </g>
    <g>
      <circle cx="210.0" cy="437.79999999999995" r="1.0" fill="#8B0000" />
      <text x="210.0" y="447.79999999999995" font-family="'Inter', 'Helvetica Neue', Arial, sans-serif, system-ui, -apple-system, 'Segoe UI', Roboto, 'Apple Color Emoji', 'Segoe UI Emoji', 'Segoe UI Symbol'" fill="#8B0000" font-size="5.0" text-anchor="middle">Aperiodic Order</text>
      <text x="210.0" y="454.79999999999995" font-family="'Inter', 'Helvetica Neue', Arial, sans-serif, system-ui, -apple-system, 'Segoe UI', Roboto, 'Apple Color Emoji', 'Segoe UI Emoji', 'Segoe UI Symbol'" fill="#1C1C1C" font-size="3.8" text-anchor="middle">
        <tspan x="210.0" dy="0">The Hat fills the plane edge to</tspan>
        <tspan x="210.0" dy="5.0">edge with no gaps or overlaps, yet</tspan>
        <tspan x="210.0" dy="5.0">no translation can map the tiling</tspan>
        <tspan x="210.0" dy="5.0">onto itself. Every finite patch</tspan>
        <tspan x="210.0" dy="5.0">recurs infinitely often, but the</tspan>
        <tspan x="210.0" dy="5.0">whole pattern never repeats.</tspan>
      </text>
    </g>
    <g>
      <circle cx="357.0" cy="437.79999999999995" r="1.0" fill="#8B0000" />
      <text x="357.0" y="447.79999999999995" font-family="'Inter', 'Helvetica Neue', Arial, sans-serif, system-ui, -apple-system, 'Segoe UI', Roboto, 'Apple Color Emoji', 'Segoe UI Emoji', 'Segoe UI Symbol'" fill="#8B0000" font-size="5.0" text-anchor="middle">A Simple Shape</text>
      <text x="357.0" y="454.79999999999995" font-family="'Inter', 'Helvetica Neue', Arial, sans-serif, system-ui, -apple-system, 'Segoe UI', Roboto, 'Apple Color Emoji', 'Segoe UI Emoji', 'Segoe UI Symbol'" fill="#1C1C1C" font-size="3.8" text-anchor="middle">
        <tspan x="357.0" dy="0">Just 13 sides and 8 kite shapes</tspan>
        <tspan x="357.0" dy="5.0">compose the Hat — a polykite on the</tspan>
        <tspan x="357.0" dy="5.0">triangular grid. Its outline is so</tspan>
        <tspan x="357.0" dy="5.0">simple it can be drawn by hand, yet</tspan>
        <tspan x="357.0" dy="5.0">its tiling behaviour is profoundly</tspan>
        <tspan x="357.0" dy="5.0">complex and inherently non-periodic.</tspan>
      </text>
    </g>
  </g>
  <g id="educational">
    <line x1="63.0" y1="500.79999999999995" x2="357.0" y2="500.79999999999995" stroke="#8B0000" stroke-width="0.3" opacity="0.35" />
    <g>
      <text x="63.0" y="514.8" font-family="'Inter', 'Helvetica Neue', Arial, sans-serif, system-ui, -apple-system, 'Segoe UI', Roboto, 'Apple Color Emoji', 'Segoe UI Emoji', 'Segoe UI Symbol'" fill="#8B0000" font-size="5.0" text-anchor="middle">How the Hat Tiles</text>
      <text x="63.0" y="521.8" font-family="'Inter', 'Helvetica Neue', Arial, sans-serif, system-ui, -apple-system, 'Segoe UI', Roboto, 'Apple Color Emoji', 'Segoe UI Emoji', 'Segoe UI Symbol'" fill="#1C1C1C" font-size="3.8" text-anchor="middle">
        <tspan x="63.0" dy="0">The Hat tiles through a hierarchical</tspan>
        <tspan x="63.0" dy="5.0">substitution system. Small clusters</tspan>
        <tspan x="63.0" dy="5.0">of Hats combine into four metatile</tspan>
        <tspan x="63.0" dy="5.0">types (H, T, P, F) that themselves</tspan>
        <tspan x="63.0" dy="5.0">tile by substitution. About one in</tspan>
        <tspan x="63.0" dy="5.0">every seven Hats is a reflected copy;</tspan>
        <tspan x="63.0" dy="5.0">the rest are unreflected, ensuring</tspan>
        <tspan x="63.0" dy="5.0">the pattern never repeats.</tspan>
      </text>
    </g>
    <g>
      <text x="210.0" y="514.8" font-family="'Inter', 'Helvetica Neue', Arial, sans-serif, system-ui, -apple-system, 'Segoe UI', Roboto, 'Apple Color Emoji', 'Segoe UI Emoji', 'Segoe UI Symbol'" fill="#8B0000" font-size="5.0" text-anchor="middle">The Discovery</text>
      <text x="210.0" y="521.8" font-family="'Inter', 'Helvetica Neue', Arial, sans-serif, system-ui, -apple-system, 'Segoe UI', Roboto, 'Apple Color Emoji', 'Segoe UI Emoji', 'Segoe UI Symbol'" fill="#1C1C1C" font-size="3.8" text-anchor="middle">
        <tspan x="210.0" dy="0">In late 2022, hobbyist David Smith</tspan>
        <tspan x="210.0" dy="5.0">noticed a curious shape while playing</tspan>
        <tspan x="210.0" dy="5.0">with paper cut-outs. Teaming with</tspan>
        <tspan x="210.0" dy="5.0">mathematicians Myers, Kaplan, and</tspan>
        <tspan x="210.0" dy="5.0">Goodman-Strauss, they proved it was</tspan>
        <tspan x="210.0" dy="5.0">a true aperiodic monotile — solving</tspan>
        <tspan x="210.0" dy="5.0">a problem open for over 60 years.</tspan>
        <tspan x="210.0" dy="5.0">Their paper appeared in March 2023.</tspan>
      </text>
    </g>
    <g>
      <text x="357.0" y="514.8" font-family="'Inter', 'Helvetica Neue', Arial, sans-serif, system-ui, -apple-system, 'Segoe UI', Roboto, 'Apple Color Emoji', 'Segoe UI Emoji', 'Segoe UI Symbol'" fill="#8B0000" font-size="5.0" text-anchor="middle">Mathematical Significance</text>
      <text x="357.0" y="521.8" font-family="'Inter', 'Helvetica Neue', Arial, sans-serif, system-ui, -apple-system, 'Segoe UI', Roboto, 'Apple Color Emoji', 'Segoe UI Emoji', 'Segoe UI Symbol'" fill="#1C1C1C" font-size="3.8" text-anchor="middle">
        <tspan x="357.0" dy="0">The Hat requires reflections: some</tspan>
        <tspan x="357.0" dy="5.0">tiles are mirrored copies. In May</tspan>
        <tspan x="357.0" dy="5.0">2023 the same team unveiled the</tspan>
        <tspan x="357.0" dy="5.0">‘Spectre’ — a modified monotile that</tspan>
        <tspan x="357.0" dy="5.0">tiles aperiodically without any</tspan>
        <tspan x="357.0" dy="5.0">reflections at all. Together these</tspan>
        <tspan x="357.0" dy="5.0">discoveries reshape our fundamental</tspan>
        <tspan x="357.0" dy="5.0">understanding of geometric order.</tspan>
      </text>
    </g>
  </g>
  <text x="210.0" y="576.0" font-family="'Inter', 'Helvetica Neue', Arial, sans-serif, system-ui, -apple-system, 'Segoe UI', Roboto, 'Apple Color Emoji', 'Segoe UI Emoji', 'Segoe UI Symbol'" font-size="4.0" fill="#555555" text-anchor="middle">The Hat monotile — discovered by Smith, Myers, Kaplan &amp; Goodman-Strauss, 2023.</text>
  <text x="210.0" y="582.0" font-family="'Inter', 'Helvetica Neue', Arial, sans-serif, system-ui, -apple-system, 'Segoe UI', Roboto, 'Apple Color Emoji', 'Segoe UI Emoji', 'Segoe UI Symbol'" font-size="3.5" fill="#777777" text-anchor="middle">Generated with 2 iterations  ·  60 tiles rendered  ·  13 vertices · 8 kites</text>
  <rect x="4" y="4" width="412" height="586" fill="none" stroke="#1C1C1C" stroke-width="0.8" />
  <rect x="7" y="7" width="406" height="580" fill="none" stroke="#1C1C1C" stroke-width="0.2" />
</svg>