<?xml version='1.0' encoding='utf-8'?>
<svg xmlns="http://www.w3.org/2000/svg" version="1.1" width="420mm" height="594mm" viewBox="0 0 420 594">
  <style>@import url('https://fonts.googleapis.com/css2?family=Playfair+Display:ital,wght@0,400;0,700;1,400&amp;family=Inter:wght@300;400;500&amp;display=swap');</style>
  <rect x="0" y="0" width="420" height="594" fill="#FFFEF8" />
  <text x="210.0" y="27.918" font-family="'Playfair Display', Georgia, 'Times New Roman', serif" font-size="16.0" fill="#1C1C1C" text-anchor="middle">The Hat Monotile</text>
  <text x="210.0" y="38.016" font-family="'Inter', 'Helvetica Neue', Arial, sans-serif, system-ui, -apple-system, 'Segoe UI', Roboto, 'Apple Color Emoji', 'Segoe UI Emoji', 'Segoe UI Symbol'" font-size="6.0" fill="#8B0000" text-anchor="middle">A single shape that tiles the plane, but never periodically</text>
  <line x1="63.0" y1="43.955999999999996" x2="357.0" y2="43.955999999999996" stroke="#8B0000" stroke-width="0.4" />
  <defs>
    <marker id="arrowhead" markerWidth="6" markerHeight="6" refX="3" refY="3" orient="auto">
      <circle cx="3" cy="3" r="2" fill="#8B0000" />
    </marker>
  </defs>
  <g id="hat-tiling">
    <polygon points="133.8740,227.4190 131.9635,224.1099 130.0530,220.8008 128.1425,217.4917 130.0530,214.1827 131.9635,217.4917 133.8740,214.1827 135.7845,217.4917 137.6950,214.1827 139.6055,217.4917 137.6950,220.8008 139.6055,224.1099 137.6950,227.4190" fill="#1C1C1C" opacity="0.75" stroke="#1C1C1C" stroke-width="0.15" stroke-opacity="0.3" />
    <polygon points="156.8000,227.4190 154.8895,224.1099 152.9790,220.8008 151.0685,217.4917 152.9790,214.1827 154.8895,217.4917 156.8000,214.1827 158.7105,217.4917 160.6210,214.1827 162.5315,217.4917 160.6210,220.8008 162.5315,224.1099 160.6210,227.4190" fill="#1C1C1C" opacity="0.75" stroke="#1C1C1C" stroke-width="0.15" stroke-opacity="0.3" />
    <polygon points="152.8320,233.2735 150.9215,236.5826 149.0110,239.8917 147.1006,243.2007 143.2796,243.2007 145.1901,239.8917 141.3691,239.8917 143.2796,236.5826 139.4586,236.5826 141.3691,233.2735 145.1901,233.2735 147.1006,229.9644 150.9215,229.9644" fill="#1C1C1C" opacity="0.75" stroke="#1C1C1C" stroke-width="0.15" stroke-opacity="0.3" />
    <polygon points="145.3370,215.7099 143.4265,219.0190 141.5160,222.3281 139.6055,225.6372 141.5160,228.9462 143.4265,225.6372 145.3370,228.9462 147.2475,225.6372 149.1580,228.9462 151.0685,225.6372 149.1580,222.3281 151.0685,219.0190 149.1580,215.7099" fill="#2E5090" opacity="0.75" stroke="#1C1C1C" stroke-width="0.15" stroke-opacity="0.3" />
    <polygon points="168.2630,220.8008 166.3525,217.4917 164.4420,214.1827 162.5315,210.8736 164.4420,207.5645 166.3525,210.8736 168.2630,207.5645 170.1735,210.8736 172.0840,207.5645 173.9945,210.8736 172.0840,214.1827 173.9945,217.4917 172.0840,220.8008" fill="#1C1C1C" opacity="0.75" stroke="#1C1C1C" stroke-width="0.15" stroke-opacity="0.3" />
    <polygon points="191.1890,220.8008 189.2785,217.4917 187.3680,214.1827 185.4575,210.8736 187.3680,207.5645 189.2785,210.8736 191.1890,207.5645 193.0994,210.8736 195.0099,207.5645 196.9204,210.8736 195.0099,214.1827 196.9204,217.4917 195.0099,220.8008" fill="#1C1C1C" opacity="0.75" stroke="#1C1C1C" stroke-width="0.15" stroke-opacity="0.3" />
    <polygon points="187.2210,226.6553 185.3105,229.9644 183.4000,233.2735 181.4895,236.5826 177.6685,236.5826 179.5790,233.2735 175.7580,233.2735 177.6685,229.9644 173.8475,229.9644 175.7580,226.6553 179.5790,226.6553 181.4895,223.3463 185.3105,223.3463" fill="#1C1C1C" opacity="0.75" stroke="#1C1C1C" stroke-width="0.15" stroke-opacity="0.3" />
    <polygon points="179.7260,209.0918 177.8155,212.4009 175.9050,215.7099 173.9945,219.0190 175.9050,222.3281 177.8155,219.0190 179.7260,222.3281 181.6365,219.0190 183.5470,222.3281 185.4575,219.0190 183.5470,215.7099 185.4575,212.4009 183.5470,209.0918" fill="#2E5090" opacity="0.75" stroke="#1C1C1C" stroke-width="0.15" stroke-opacity="0.3" />
    <polygon points="175.7580,259.7461 173.8475,263.0552 171.9370,266.3643 170.0265,269.6734 166.2055,269.6734 168.1160,266.3643 164.2950,266.3643 166.2055,263.0552 162.3845,263.0552 164.2950,259.7461 168.1160,259.7461 170.0265,256.4370 173.8475,256.4370" fill="#1C1C1C" opacity="0.75" stroke="#1C1C1C" stroke-width="0.15" stroke-opacity="0.3" />
    <polygon points="164.2950,239.8917 162.3845,243.2007 160.4740,246.5098 158.5635,249.8189 154.7425,249.8189 156.6530,246.5098 152.8320,246.5098 154.7425,243.2007 150.9215,243.2007 152.8320,239.8917 156.6530,239.8917 158.5635,236.5826 162.3845,236.5826" fill="#1C1C1C" opacity="0.75" stroke="#1C1C1C" stroke-width="0.15" stroke-opacity="0.3" />
    <polygon points="171.3492,240.4007 175.1702,240.4007 178.9912,240.4007 182.8122,240.4007 184.7227,243.7098 180.9017,243.7098 182.8122,247.0189 178.9912,247.0189 180.9017,250.3280 177.0807,250.3280 175.1702,247.0189 171.3492,247.0189 169.4387,243.7098" fill="#1C1C1C" opacity="0.75" stroke="#1C1C1C" stroke-width="0.15" stroke-opacity="0.3" />
    <polygon points="159.8862,255.6734 163.7072,255.6734 167.5282,255.6734 171.3492,255.6734 173.2597,252.3643 169.4387,252.3643 171.3492,249.0553 167.5282,249.0553 169.4387,245.7462 165.6177,245.7462 163.7072,249.0553 159.8862,249.0553 157.9757,252.3643" fill="#2E5090" opacity="0.75" stroke="#1C1C1C" stroke-width="0.15" stroke-opacity="0.3" />
    <polygon points="172.2309,235.8189 168.4099,235.8189 164.5890,235.8189 160.7680,235.8189 158.8575,232.5099 162.6785,232.5099 160.7680,229.2008 164.5890,229.2008 162.6785,225.8917 166.4994,225.8917 168.4099,229.2008 172.2309,229.2008 174.1414,232.5099" fill="#1C1C1C" opacity="0.75" stroke="#1C1C1C" stroke-width="0.15" stroke-opacity="0.3" />
    <polygon points="145.3370,260.5098 143.4265,257.2007 141.5160,253.8916 139.6055,250.5825 141.5160,247.2734 143.4265,250.5825 145.3370,247.2734 147.2475,250.5825 149.1580,247.2734 151.0685,250.5825 149.1580,253.8916 151.0685,257.2007 149.1580,260.5098" fill="#1C1C1C" opacity="0.75" stroke="#1C1C1C" stroke-width="0.15" stroke-opacity="0.3" />
    <polygon points="160.7680,268.9097 156.9470,268.9097 153.1260,268.9097 149.3050,268.9097 147.3945,265.6006 151.2155,265.6006 149.3050,262.2916 153.1260,262.2916 151.2155,258.9825 155.0365,258.9825 156.9470,262.2916 160.7680,262.2916 162.6785,265.6006" fill="#1C1C1C" opacity="0.75" stroke="#1C1C1C" stroke-width="0.15" stroke-opacity="0.3" />
    <polygon points="122.4110,234.0371 120.5006,230.7281 118.5901,227.4190 116.6796,224.1099 118.5901,220.8008 120.5006,224.1099 122.4110,220.8008 124.3215,224.1099 126.2320,220.8008 128.1425,224.1099 126.2320,227.4190 128.1425,230.7281 126.2320,234.0371" fill="#1C1C1C" opacity="0.75" stroke="#1C1C1C" stroke-width="0.15" stroke-opacity="0.3" />
    <polygon points="137.8420,242.4371 134.0210,242.4371 130.2000,242.4371 126.3790,242.4371 124.4685,239.1280 128.2895,239.1280 126.3790,235.8189 130.2000,235.8189 128.2895,232.5099 132.1105,232.5099 134.0210,235.8189 137.8420,235.8189 139.7525,239.1280" fill="#1C1C1C" opacity="0.75" stroke="#1C1C1C" stroke-width="0.15" stroke-opacity="0.3" />
    <polygon points="148.4232,200.6918 152.2442,200.6918 156.0652,200.6918 159.8862,200.6918 161.7967,204.0009 157.9757,204.0009 159.8862,207.3100 156.0652,207.3100 157.9757,210.6190 154.1547,210.6190 152.2442,207.3100 148.4232,207.3100 146.5127,204.0009" fill="#1C1C1C" opacity="0.75" stroke="#1C1C1C" stroke-width="0.15" stroke-opacity="0.3" />
    <polygon points="133.4331,209.8554 135.3436,206.5463 137.2541,203.2372 139.1646,199.9282 142.9856,199.9282 141.0751,203.2372 144.8961,203.2372 142.9856,206.5463 146.8066,206.5463 144.8961,209.8554 141.0751,209.8554 139.1646,213.1645 135.3436,213.1645" fill="#1C1C1C" opacity="0.75" stroke="#1C1C1C" stroke-width="0.15" stroke-opacity="0.3" />
    <polygon points="182.8122,194.0736 186.6331,194.0736 190.4541,194.0736 194.2751,194.0736 196.1856,197.3827 192.3646,197.3827 194.2751,200.6918 190.4541,200.6918 192.3646,204.0009 188.5436,204.0009 186.6331,200.6918 182.8122,200.6918 180.9017,197.3827" fill="#1C1C1C" opacity="0.75" stroke="#1C1C1C" stroke-width="0.15" stroke-opacity="0.3" />
    <polygon points="167.8221,203.2372 169.7326,199.9282 171.6431,196.6191 173.5536,193.3100 177.3746,193.3100 175.4641,196.6191 179.2851,196.6191 177.3746,199.9282 181.1956,199.9282 179.2851,203.2372 175.4641,203.2372 173.5536,206.5463 169.7326,206.5463" fill="#1C1C1C" opacity="0.75" stroke="#1C1C1C" stroke-width="0.15" stroke-opacity="0.3" />
    <polygon points="190.7481,229.7099 192.6586,226.4008 194.5691,223.0917 196.4796,219.7826 200.3006,219.7826 198.3901,223.0917 202.2110,223.0917 200.3006,226.4008 204.1215,226.4008 202.2110,229.7099 198.3901,229.7099 196.4796,233.0190 192.6586,233.0190" fill="#1C1C1C" opacity="0.75" stroke="#1C1C1C" stroke-width="0.15" stroke-opacity="0.3" />
    <polygon points="191.1890,247.2734 189.2785,243.9644 187.3680,240.6553 185.4575,237.3462 187.3680,234.0371 189.2785,237.3462 191.1890,234.0371 193.0994,237.3462 195.0099,234.0371 196.9204,237.3462 195.0099,240.6553 196.9204,243.9644 195.0099,247.2734" fill="#1C1C1C" opacity="0.75" stroke="#1C1C1C" stroke-width="0.15" stroke-opacity="0.3" />
    <polygon points="187.2210,266.3643 185.3105,269.6734 183.4000,272.9824 181.4895,276.2915 177.6685,276.2915 179.5790,272.9824 175.7580,272.9824 177.6685,269.6734 173.8475,269.6734 175.7580,266.3643 179.5790,266.3643 181.4895,263.0552 185.3105,263.0552" fill="#1C1C1C" opacity="0.75" stroke="#1C1C1C" stroke-width="0.15" stroke-opacity="0.3" />
    <polygon points="186.7801,248.8007 188.6906,252.1098 190.6011,255.4189 192.5116,258.7279 190.6011,262.0370 188.6906,258.7279 186.7801,262.0370 184.8696,258.7279 182.9591,262.0370 181.0486,258.7279 182.9591,255.4189 181.0486,252.1098 182.9591,248.8007" fill="#1C1C1C" opacity="0.75" stroke="#1C1C1C" stroke-width="0.15" stroke-opacity="0.3" />
    <polygon points="214.1149,207.5645 212.2044,204.2554 210.2939,200.9463 208.3834,197.6373 210.2939,194.3282 212.2044,197.6373 214.1149,194.3282 216.0254,197.6373 217.9359,194.3282 219.8464,197.6373 217.9359,200.9463 219.8464,204.2554 217.9359,207.5645" fill="#1C1C1C" opacity="0.75" stroke="#1C1C1C" stroke-width="0.15" stroke-opacity="0.3" />
    <polygon points="237.0409,207.5645 235.1304,204.2554 233.2199,200.9463 231.3094,197.6373 233.2199,194.3282 235.1304,197.6373 237.0409,194.3282 238.9514,197.6373 240.8619,194.3282 242.7724,197.6373 240.8619,200.9463 242.7724,204.2554 240.8619,207.5645" fill="#1C1C1C" opacity="0.75" stroke="#1C1C1C" stroke-width="0.15" stroke-opacity="0.3" />
    <polygon points="233.0729,213.4190 231.1624,216.7281 229.2519,220.0372 227.3414,223.3463 223.5204,223.3463 225.4309,220.0372 221.6099,220.0372 223.5204,216.7281 219.6994,216.7281 221.6099,213.4190 225.4309,213.4190 227.3414,210.1100 231.1624,210.1100" fill="#1C1C1C" opacity="0.75" stroke="#1C1C1C" stroke-width="0.15" stroke-opacity="0.3" />
    <polygon points="225.5779,195.8555 223.6674,199.1645 221.7569,202.4736 219.8464,205.7827 221.7569,209.0918 223.6674,205.7827 225.5779,209.0918 227.4884,205.7827 229.3989,209.0918 231.3094,205.7827 229.3989,202.4736 231.3094,199.1645 229.3989,195.8555" fill="#2E5090" opacity="0.75" stroke="#1C1C1C" stroke-width="0.15" stroke-opacity="0.3" />
    <polygon points="248.5039,200.9463 246.5934,197.6373 244.6829,194.3282 242.7724,191.0191 244.6829,187.7100 246.5934,191.0191 248.5039,187.7100 250.4144,191.0191 252.3249,187.7100 254.2354,191.0191 252.3249,194.3282 254.2354,197.6373 252.3249,200.9463" fill="#1C1C1C" opacity="0.75" stroke="#1C1C1C" stroke-width="0.15" stroke-opacity="0.3" />
    <polygon points="271.4298,200.9463 269.5193,197.6373 267.6088,194.3282 265.6983,191.0191 267.6088,187.7100 269.5193,191.0191 271.4298,187.7100 273.3403,191.0191 275.2508,187.7100 277.1613,191.0191 275.2508,194.3282 277.1613,197.6373 275.2508,200.9463" fill="#1C1C1C" opacity="0.75" stroke="#1C1C1C" stroke-width="0.15" stroke-opacity="0.3" />
    <polygon points="267.4619,206.8009 265.5514,210.1100 263.6409,213.4190 261.7304,216.7281 257.9094,216.7281 259.8199,213.4190 255.9989,213.4190 257.9094,210.1100 254.0884,210.1100 255.9989,206.8009 259.8199,206.8009 261.7304,203.4918 265.5514,203.4918" fill="#1C1C1C" opacity="0.75" stroke="#1C1C1C" stroke-width="0.15" stroke-opacity="0.3" />
    <polygon points="259.9669,189.2373 258.0564,192.5464 256.1459,195.8555 254.2354,199.1645 256.1459,202.4736 258.0564,199.1645 259.9669,202.4736 261.8773,199.1645 263.7878,202.4736 265.6983,199.1645 263.7878,195.8555 265.6983,192.5464 263.7878,189.2373" fill="#2E5090" opacity="0.75" stroke="#1C1C1C" stroke-width="0.15" stroke-opacity="0.3" />
    <polygon points="255.9989,239.8917 254.0884,243.2007 252.1779,246.5098 250.2674,249.8189 246.4464,249.8189 248.3569,246.5098 244.5359,246.5098 246.4464,243.2007 242.6254,243.2007 244.5359,239.8917 248.3569,239.8917 250.2674,236.5826 254.0884,236.5826" fill="#1C1C1C" opacity="0.75" stroke="#1C1C1C" stroke-width="0.15" stroke-opacity="0.3" />
    <polygon points="244.5359,220.0372 242.6254,223.3463 240.7149,226.6553 238.8044,229.9644 234.9834,229.9644 236.8939,226.6553 233.0729,226.6553 234.9834,223.3463 231.1624,223.3463 233.0729,220.0372 236.8939,220.0372 238.8044,216.7281 242.6254,216.7281" fill="#1C1C1C" opacity="0.75" stroke="#1C1C1C" stroke-width="0.15" stroke-opacity="0.3" />
    <polygon points="251.5901,220.5463 255.4110,220.5463 259.2320,220.5463 263.0530,220.5463 264.9635,223.8554 261.1425,223.8554 263.0530,227.1644 259.2320,227.1644 261.1425,230.4735 257.3215,230.4735 255.4110,227.1644 251.5901,227.1644 249.6796,223.8554" fill="#1C1C1C" opacity="0.75" stroke="#1C1C1C" stroke-width="0.15" stroke-opacity="0.3" />
    <polygon points="240.1271,235.8189 243.9481,235.8189 247.7691,235.8189 251.5901,235.8189 253.5006,232.5099 249.6796,232.5099 251.5901,229.2008 247.7691,229.2008 249.6796,225.8917 245.8586,225.8917 243.9481,229.2008 240.1271,229.2008 238.2166,232.5099" fill="#2E5090" opacity="0.75" stroke="#1C1C1C" stroke-width="0.15" stroke-opacity="0.3" />
    <polygon points="252.4718,215.9645 248.6508,215.9645 244.8298,215.9645 241.0088,215.9645 239.0983,212.6554 242.9193,212.6554 241.0088,209.3463 244.8298,209.3463 242.9193,206.0372 246.7403,206.0372 248.6508,209.3463 252.4718,209.3463 254.3823,212.6554" fill="#1C1C1C" opacity="0.75" stroke="#1C1C1C" stroke-width="0.15" stroke-opacity="0.3" />
    <polygon points="225.5779,240.6553 223.6674,237.3462 221.7569,234.0371 219.8464,230.7281 221.7569,227.4190 223.6674,230.7281 225.5779,227.4190 227.4884,230.7281 229.3989,227.4190 231.3094,230.7281 229.3989,234.0371 231.3094,237.3462 229.3989,240.6553" fill="#1C1C1C" opacity="0.75" stroke="#1C1C1C" stroke-width="0.15" stroke-opacity="0.3" />
    <polygon points="241.0088,249.0553 237.1878,249.0553 233.3669,249.0553 229.5459,249.0553 227.6354,245.7462 231.4564,245.7462 229.5459,242.4371 233.3669,242.4371 231.4564,239.1280 235.2773,239.1280 237.1878,242.4371 241.0088,242.4371 242.9193,245.7462" fill="#1C1C1C" opacity="0.75" stroke="#1C1C1C" stroke-width="0.15" stroke-opacity="0.3" />
    <polygon points="202.6519,214.1827 200.7414,210.8736 198.8309,207.5645 196.9204,204.2554 198.8309,200.9463 200.7414,204.2554 202.6519,200.9463 204.5624,204.2554 206.4729,200.9463 208.3834,204.2554 206.4729,207.5645 208.3834,210.8736 206.4729,214.1827" fill="#1C1C1C" opacity="0.75" stroke="#1C1C1C" stroke-width="0.15" stroke-opacity="0.3" />
    <polygon points="218.0829,222.5826 214.2619,222.5826 210.4409,222.5826 206.6199,222.5826 204.7094,219.2736 208.5304,219.2736 206.6199,215.9645 210.4409,215.9645 208.5304,212.6554 212.3514,212.6554 214.2619,215.9645 218.0829,215.9645 219.9934,219.2736" fill="#1C1C1C" opacity="0.75" stroke="#1C1C1C" stroke-width="0.15" stroke-opacity="0.3" />
    <polygon points="228.6641,180.8373 232.4851,180.8373 236.3061,180.8373 240.1271,180.8373 242.0376,184.1464 238.2166,184.1464 240.1271,187.4555 236.3061,187.4555 238.2166,190.7646 234.3956,190.7646 232.4851,187.4555 228.6641,187.4555 226.7536,184.1464" fill="#1C1C1C" opacity="0.75" stroke="#1C1C1C" stroke-width="0.15" stroke-opacity="0.3" />
    <polygon points="213.6740,190.0009 215.5845,186.6919 217.4950,183.3828 219.4055,180.0737 223.2265,180.0737 221.3160,183.3828 225.1370,183.3828 223.2265,186.6919 227.0475,186.6919 225.1370,190.0009 221.3160,190.0009 219.4055,193.3100 215.5845,193.3100" fill="#1C1C1C" opacity="0.75" stroke="#1C1C1C" stroke-width="0.15" stroke-opacity="0.3" />
    <polygon points="263.0530,174.2192 266.8740,174.2192 270.6950,174.2192 274.5160,174.2192 276.4265,177.5283 272.6055,177.5283 274.5160,180.8373 270.6950,180.8373 272.6055,184.1464 268.7845,184.1464 266.8740,180.8373 263.0530,180.8373 261.1425,177.5283" fill="#1C1C1C" opacity="0.75" stroke="#1C1C1C" stroke-width="0.15" stroke-opacity="0.3" />
    <polygon points="248.0630,183.3828 249.9735,180.0737 251.8840,176.7646 253.7945,173.4555 257.6155,173.4555 255.7050,176.7646 259.5260,176.7646 257.6155,180.0737 261.4365,180.0737 259.5260,183.3828 255.7050,183.3828 253.7945,186.6919 249.9735,186.6919" fill="#1C1C1C" opacity="0.75" stroke="#1C1C1C" stroke-width="0.15" stroke-opacity="0.3" />
    <polygon points="270.9890,209.8554 272.8994,206.5463 274.8099,203.2372 276.7204,199.9282 280.5414,199.9282 278.6309,203.2372 282.4519,203.2372 280.5414,206.5463 284.3624,206.5463 282.4519,209.8554 278.6309,209.8554 276.7204,213.1645 272.8994,213.1645" fill="#1C1C1C" opacity="0.75" stroke="#1C1C1C" stroke-width="0.15" stroke-opacity="0.3" />
    <polygon points="271.4298,227.4190 269.5193,224.1099 267.6088,220.8008 265.6983,217.4917 267.6088,214.1827 269.5193,217.4917 271.4298,214.1827 273.3403,217.4917 275.2508,214.1827 277.1613,217.4917 275.2508,220.8008 277.1613,224.1099 275.2508,227.4190" fill="#1C1C1C" opacity="0.75" stroke="#1C1C1C" stroke-width="0.15" stroke-opacity="0.3" />
    <polygon points="267.4619,246.5098 265.5514,249.8189 263.6409,253.1280 261.7304,256.4370 257.9094,256.4370 259.8199,253.1280 255.9989,253.1280 257.9094,249.8189 254.0884,249.8189 255.9989,246.5098 259.8199,246.5098 261.7304,243.2007 265.5514,243.2007" fill="#1C1C1C" opacity="0.75" stroke="#1C1C1C" stroke-width="0.15" stroke-opacity="0.3" />
    <polygon points="267.0210,228.9462 268.9315,232.2553 270.8420,235.5644 272.7525,238.8735 270.8420,242.1826 268.9315,238.8735 267.0210,242.1826 265.1105,238.8735 263.2000,242.1826 261.2895,238.8735 263.2000,235.5644 261.2895,232.2553 263.2000,228.9462" fill="#1C1C1C" opacity="0.75" stroke="#1C1C1C" stroke-width="0.15" stroke-opacity="0.3" />
    <polygon points="233.0729,319.3095 231.1624,322.6186 229.2519,325.9277 227.3414,329.2368 223.5204,329.2368 225.4309,325.9277 221.6099,325.9277 223.5204,322.6186 219.6994,322.6186 221.6099,319.3095 225.4309,319.3095 227.3414,316.0005 231.1624,316.0005" fill="#1C1C1C" opacity="0.75" stroke="#1C1C1C" stroke-width="0.15" stroke-opacity="0.3" />
    <polygon points="221.6099,299.4551 219.6994,302.7641 217.7890,306.0732 215.8785,309.3823 212.0575,309.3823 213.9680,306.0732 210.1470,306.0732 212.0575,302.7641 208.2365,302.7641 210.1470,299.4551 213.9680,299.4551 215.8785,296.1460 219.6994,296.1460" fill="#1C1C1C" opacity="0.75" stroke="#1C1C1C" stroke-width="0.15" stroke-opacity="0.3" />
    <polygon points="228.6641,299.9642 232.4851,299.9642 236.3061,299.9642 240.1271,299.9642 242.0376,303.2732 238.2166,303.2732 240.1271,306.5823 236.3061,306.5823 238.2166,309.8914 234.3956,309.8914 232.4851,306.5823 228.6641,306.5823 226.7536,303.2732" fill="#1C1C1C" opacity="0.75" stroke="#1C1C1C" stroke-width="0.15" stroke-opacity="0.3" />
    <polygon points="217.2011,315.2368 221.0221,315.2368 224.8431,315.2368 228.6641,315.2368 230.5746,311.9277 226.7536,311.9277 228.6641,308.6187 224.8431,308.6187 226.7536,305.3096 222.9326,305.3096 221.0221,308.6187 217.2011,308.6187 215.2906,311.9277" fill="#2E5090" opacity="0.75" stroke="#1C1C1C" stroke-width="0.15" stroke-opacity="0.3" />
    <polygon points="210.1470,292.8369 208.2365,296.1460 206.3260,299.4551 204.4155,302.7641 200.5945,302.7641 202.5050,299.4551 198.6840,299.4551 200.5945,296.1460 196.7735,296.1460 198.6840,292.8369 202.5050,292.8369 204.4155,289.5278 208.2365,289.5278" fill="#1C1C1C" opacity="0.75" stroke="#1C1C1C" stroke-width="0.15" stroke-opacity="0.3" />
    <polygon points="198.6840,272.9824 196.7735,276.2915 194.8630,279.6006 192.9525,282.9097 189.1315,282.9097 191.0420,279.6006 187.2210,279.6006 189.1315,276.2915 185.3105,276.2915 187.2210,272.9824 191.0420,272.9824 192.9525,269.6734 196.7735,269.6734" fill="#1C1C1C" opacity="0.75" stroke="#1C1C1C" stroke-width="0.15" stroke-opacity="0.3" />
    <polygon points="205.7381,273.4915 209.5591,273.4915 213.3801,273.4915 217.2011,273.4915 219.1116,276.8006 215.2906,276.8006 217.2011,280.1097 213.3801,280.1097 215.2906,283.4188 211.4696,283.4188 209.5591,280.1097 205.7381,280.1097 203.8276,276.8006" fill="#1C1C1C" opacity="0.75" stroke="#1C1C1C" stroke-width="0.15" stroke-opacity="0.3" />
    <polygon points="194.2751,288.7642 198.0961,288.7642 201.9171,288.7642 205.7381,288.7642 207.6486,285.4551 203.8276,285.4551 205.7381,282.1460 201.9171,282.1460 203.8276,278.8370 200.0066,278.8370 198.0961,282.1460 194.2751,282.1460 192.3646,285.4551" fill="#2E5090" opacity="0.75" stroke="#1C1C1C" stroke-width="0.15" stroke-opacity="0.3" />
    <polygon points="240.1271,266.8734 243.9481,266.8734 247.7691,266.8734 251.5901,266.8734 253.5006,270.1824 249.6796,270.1824 251.5901,273.4915 247.7691,273.4915 249.6796,276.8006 245.8586,276.8006 243.9481,273.4915 240.1271,273.4915 238.2166,270.1824" fill="#1C1C1C" opacity="0.75" stroke="#1C1C1C" stroke-width="0.15" stroke-opacity="0.3" />
    <polygon points="228.6641,286.7278 232.4851,286.7278 236.3061,286.7278 240.1271,286.7278 242.0376,290.0369 238.2166,290.0369 240.1271,293.3460 236.3061,293.3460 238.2166,296.6551 234.3956,296.6551 232.4851,293.3460 228.6641,293.3460 226.7536,290.0369" fill="#1C1C1C" opacity="0.75" stroke="#1C1C1C" stroke-width="0.15" stroke-opacity="0.3" />
    <polygon points="225.5779,280.3642 223.6674,277.0551 221.7569,273.7461 219.8464,270.4370 221.7569,267.1279 223.6674,270.4370 225.5779,267.1279 227.4884,270.4370 229.3989,267.1279 231.3094,270.4370 229.3989,273.7461 231.3094,277.0551 229.3989,280.3642" fill="#1C1C1C" opacity="0.75" stroke="#1C1C1C" stroke-width="0.15" stroke-opacity="0.3" />
    <polygon points="244.5359,282.6551 242.6254,279.3460 240.7149,276.0370 238.8044,272.7279 234.9834,272.7279 236.8939,276.0370 233.0729,276.0370 234.9834,279.3460 231.1624,279.3460 233.0729,282.6551 236.8939,282.6551 238.8044,285.9642 242.6254,285.9642" fill="#2E5090" opacity="0.75" stroke="#1C1C1C" stroke-width="0.15" stroke-opacity="0.3" />
    <polygon points="221.1691,281.8915 223.0796,285.2006 224.9901,288.5097 226.9006,291.8187 224.9901,295.1278 223.0796,291.8187 221.1691,295.1278 219.2586,291.8187 217.3481,295.1278 215.4376,291.8187 217.3481,288.5097 215.4376,285.2006 217.3481,281.8915" fill="#1C1C1C" opacity="0.75" stroke="#1C1C1C" stroke-width="0.15" stroke-opacity="0.3" />
    <polygon points="255.9989,292.8369 254.0884,296.1460 252.1779,299.4551 250.2674,302.7641 246.4464,302.7641 248.3569,299.4551 244.5359,299.4551 246.4464,296.1460 242.6254,296.1460 244.5359,292.8369 248.3569,292.8369 250.2674,289.5278 254.0884,289.5278" fill="#1C1C1C" opacity="0.75" stroke="#1C1C1C" stroke-width="0.15" stroke-opacity="0.3" />
    <polygon points="255.5580,275.2733 257.4685,278.5824 259.3790,281.8915 261.2895,285.2006 259.3790,288.5097 257.4685,285.2006 255.5580,288.5097 253.6475,285.2006 251.7370,288.5097 249.8265,285.2006 251.7370,281.8915 249.8265,278.5824 251.7370,275.2733" fill="#1C1C1C" opacity="0.75" stroke="#1C1C1C" stroke-width="0.15" stroke-opacity="0.3" />
    <polygon points="244.5359,325.9277 242.6254,329.2368 240.7149,332.5458 238.8044,335.8549 234.9834,335.8549 236.8939,332.5458 233.0729,332.5458 234.9834,329.2368 231.1624,329.2368 233.0729,325.9277 236.8939,325.9277 238.8044,322.6186 242.6254,322.6186" fill="#1C1C1C" opacity="0.75" stroke="#1C1C1C" stroke-width="0.15" stroke-opacity="0.3" />
    <polygon points="244.0950,308.3641 246.0055,311.6732 247.9160,314.9823 249.8265,318.2914 247.9160,321.6004 246.0055,318.2914 244.0950,321.6004 242.1845,318.2914 240.2740,321.6004 238.3635,318.2914 240.2740,314.9823 238.3635,311.6732 240.2740,308.3641" fill="#1C1C1C" opacity="0.75" stroke="#1C1C1C" stroke-width="0.15" stroke-opacity="0.3" />
    <polygon points="202.6519,320.0732 200.7414,316.7641 198.8309,313.4550 196.9204,310.1459 198.8309,306.8369 200.7414,310.1459 202.6519,306.8369 204.5624,310.1459 206.4729,306.8369 208.3834,310.1459 206.4729,313.4550 208.3834,316.7641 206.4729,320.0732" fill="#1C1C1C" opacity="0.75" stroke="#1C1C1C" stroke-width="0.15" stroke-opacity="0.3" />
    <polygon points="218.0829,328.4731 214.2619,328.4731 210.4409,328.4731 206.6199,328.4731 204.7094,325.1641 208.5304,325.1641 206.6199,321.8550 210.4409,321.8550 208.5304,318.5459 212.3514,318.5459 214.2619,321.8550 218.0829,321.8550 219.9934,325.1641" fill="#1C1C1C" opacity="0.75" stroke="#1C1C1C" stroke-width="0.15" stroke-opacity="0.3" />
    <polygon points="179.7260,293.6005 177.8155,290.2915 175.9050,286.9824 173.9945,283.6733 175.9050,280.3642 177.8155,283.6733 179.7260,280.3642 181.6365,283.6733 183.5470,280.3642 185.4575,283.6733 183.5470,286.9824 185.4575,290.2915 183.5470,293.6005" fill="#1C1C1C" opacity="0.75" stroke="#1C1C1C" stroke-width="0.15" stroke-opacity="0.3" />
    <polygon points="195.1569,302.0005 191.3359,302.0005 187.5149,302.0005 183.6939,302.0005 181.7834,298.6914 185.6044,298.6914 183.6939,295.3824 187.5149,295.3824 185.6044,292.0733 189.4254,292.0733 191.3359,295.3824 195.1569,295.3824 197.0674,298.6914" fill="#1C1C1C" opacity="0.75" stroke="#1C1C1C" stroke-width="0.15" stroke-opacity="0.3" />
    <polygon points="206.6199,268.9097 202.7989,268.9097 198.9779,268.9097 195.1569,268.9097 193.2464,265.6006 197.0674,265.6006 195.1569,262.2916 198.9779,262.2916 197.0674,258.9825 200.8884,258.9825 202.7989,262.2916 206.6199,262.2916 208.5304,265.6006" fill="#1C1C1C" opacity="0.75" stroke="#1C1C1C" stroke-width="0.15" stroke-opacity="0.3" />
    <polygon points="221.6099,259.7461 219.6994,263.0552 217.7890,266.3643 215.8785,269.6734 212.0575,269.6734 213.9680,266.3643 210.1470,266.3643 212.0575,263.0552 208.2365,263.0552 210.1470,259.7461 213.9680,259.7461 215.8785,256.4370 219.6994,256.4370" fill="#1C1C1C" opacity="0.75" stroke="#1C1C1C" stroke-width="0.15" stroke-opacity="0.3" />
    <polygon points="240.1271,253.6371 243.9481,253.6371 247.7691,253.6371 251.5901,253.6371 253.5006,256.9461 249.6796,256.9461 251.5901,260.2552 247.7691,260.2552 249.6796,263.5643 245.8586,263.5643 243.9481,260.2552 240.1271,260.2552 238.2166,256.9461" fill="#1C1C1C" opacity="0.75" stroke="#1C1C1C" stroke-width="0.15" stroke-opacity="0.3" />
    <polygon points="225.1370,262.8007 227.0475,259.4916 228.9580,256.1825 230.8685,252.8734 234.6895,252.8734 232.7790,256.1825 236.6000,256.1825 234.6895,259.4916 238.5105,259.4916 236.6000,262.8007 232.7790,262.8007 230.8685,266.1097 227.0475,266.1097" fill="#1C1C1C" opacity="0.75" stroke="#1C1C1C" stroke-width="0.15" stroke-opacity="0.3" />
    <polygon points="206.6199,255.6734 202.7989,255.6734 198.9779,255.6734 195.1569,255.6734 193.2464,252.3643 197.0674,252.3643 195.1569,249.0553 198.9779,249.0553 197.0674,245.7462 200.8884,245.7462 202.7989,249.0553 206.6199,249.0553 208.5304,252.3643" fill="#1C1C1C" opacity="0.75" stroke="#1C1C1C" stroke-width="0.15" stroke-opacity="0.3" />
    <polygon points="218.0829,235.8189 214.2619,235.8189 210.4409,235.8189 206.6199,235.8189 204.7094,232.5099 208.5304,232.5099 206.6199,229.2008 210.4409,229.2008 208.5304,225.8917 212.3514,225.8917 214.2619,229.2008 218.0829,229.2008 219.9934,232.5099" fill="#1C1C1C" opacity="0.75" stroke="#1C1C1C" stroke-width="0.15" stroke-opacity="0.3" />
    <polygon points="221.1691,242.1826 223.0796,245.4916 224.9901,248.8007 226.9006,252.1098 224.9901,255.4189 223.0796,252.1098 221.1691,255.4189 219.2586,252.1098 217.3481,255.4189 215.4376,252.1098 217.3481,248.8007 215.4376,245.4916 217.3481,242.1826" fill="#1C1C1C" opacity="0.75" stroke="#1C1C1C" stroke-width="0.15" stroke-opacity="0.3" />
    <polygon points="202.2110,239.8917 204.1215,243.2007 206.0320,246.5098 207.9425,249.8189 211.7635,249.8189 209.8530,246.5098 213.6740,246.5098 211.7635,243.2007 215.5845,243.2007 213.6740,239.8917 209.8530,239.8917 207.9425,236.5826 204.1215,236.5826" fill="#2E5090" opacity="0.75" stroke="#1C1C1C" stroke-width="0.15" stroke-opacity="0.3" />
    <polygon points="183.6939,348.3276 179.8729,348.3276 176.0519,348.3276 172.2309,348.3276 170.3204,345.0185 174.1414,345.0185 172.2309,341.7094 176.0519,341.7094 174.1414,338.4004 177.9624,338.4004 179.8729,341.7094 183.6939,341.7094 185.6044,345.0185" fill="#1C1C1C" opacity="0.75" stroke="#1C1C1C" stroke-width="0.15" stroke-opacity="0.3" />
    <polygon points="198.6840,339.1640 196.7735,342.4731 194.8630,345.7822 192.9525,349.0912 189.1315,349.0912 191.0420,345.7822 187.2210,345.7822 189.1315,342.4731 185.3105,342.4731 187.2210,339.1640 191.0420,339.1640 192.9525,335.8549 196.7735,335.8549" fill="#1C1C1C" opacity="0.75" stroke="#1C1C1C" stroke-width="0.15" stroke-opacity="0.3" />
    <polygon points="183.6939,335.0913 179.8729,335.0913 176.0519,335.0913 172.2309,335.0913 170.3204,331.7822 174.1414,331.7822 172.2309,328.4731 176.0519,328.4731 174.1414,325.1641 177.9624,325.1641 179.8729,328.4731 183.6939,328.4731 185.6044,331.7822" fill="#1C1C1C" opacity="0.75" stroke="#1C1C1C" stroke-width="0.15" stroke-opacity="0.3" />
    <polygon points="195.1569,315.2368 191.3359,315.2368 187.5149,315.2368 183.6939,315.2368 181.7834,311.9277 185.6044,311.9277 183.6939,308.6187 187.5149,308.6187 185.6044,305.3096 189.4254,305.3096 191.3359,308.6187 195.1569,308.6187 197.0674,311.9277" fill="#1C1C1C" opacity="0.75" stroke="#1C1C1C" stroke-width="0.15" stroke-opacity="0.3" />
    <polygon points="198.2431,321.6004 200.1536,324.9095 202.0641,328.2186 203.9746,331.5277 202.0641,334.8367 200.1536,331.5277 198.2431,334.8367 196.3326,331.5277 194.4221,334.8367 192.5116,331.5277 194.4221,328.2186 192.5116,324.9095 194.4221,321.6004" fill="#1C1C1C" opacity="0.75" stroke="#1C1C1C" stroke-width="0.15" stroke-opacity="0.3" />
    <polygon points="179.2851,319.3095 181.1956,322.6186 183.1061,325.9277 185.0166,329.2368 188.8376,329.2368 186.9271,325.9277 190.7481,325.9277 188.8376,322.6186 192.6586,322.6186 190.7481,319.3095 186.9271,319.3095 185.0166,316.0005 181.1956,316.0005" fill="#2E5090" opacity="0.75" stroke="#1C1C1C" stroke-width="0.15" stroke-opacity="0.3" />
    <polygon points="167.8221,309.1278 169.7326,305.8187 171.6431,302.5096 173.5536,299.2005 177.3746,299.2005 175.4641,302.5096 179.2851,302.5096 177.3746,305.8187 181.1956,305.8187 179.2851,309.1278 175.4641,309.1278 173.5536,312.4368 169.7326,312.4368" fill="#1C1C1C" opacity="0.75" stroke="#1C1C1C" stroke-width="0.15" stroke-opacity="0.3" />
    <polygon points="168.2630,326.6913 166.3525,323.3822 164.4420,320.0732 162.5315,316.7641 164.4420,313.4550 166.3525,316.7641 168.2630,313.4550 170.1735,316.7641 172.0840,313.4550 173.9945,316.7641 172.0840,320.0732 173.9945,323.3822 172.0840,326.6913" fill="#1C1C1C" opacity="0.75" stroke="#1C1C1C" stroke-width="0.15" stroke-opacity="0.3" />
    <polygon points="145.3370,300.2187 143.4265,296.9096 141.5160,293.6005 139.6055,290.2915 141.5160,286.9824 143.4265,290.2915 145.3370,286.9824 147.2475,290.2915 149.1580,286.9824 151.0685,290.2915 149.1580,293.6005 151.0685,296.9096 149.1580,300.2187" fill="#1C1C1C" opacity="0.75" stroke="#1C1C1C" stroke-width="0.15" stroke-opacity="0.3" />
    <polygon points="168.2630,300.2187 166.3525,296.9096 164.4420,293.6005 162.5315,290.2915 164.4420,286.9824 166.3525,290.2915 168.2630,286.9824 170.1735,290.2915 172.0840,286.9824 173.9945,290.2915 172.0840,293.6005 173.9945,296.9096 172.0840,300.2187" fill="#1C1C1C" opacity="0.75" stroke="#1C1C1C" stroke-width="0.15" stroke-opacity="0.3" />
    <polygon points="164.2950,306.0732 162.3845,309.3823 160.4740,312.6914 158.5635,316.0005 154.7425,316.0005 156.6530,312.6914 152.8320,312.6914 154.7425,309.3823 150.9215,309.3823 152.8320,306.0732 156.6530,306.0732 158.5635,302.7641 162.3845,302.7641" fill="#1C1C1C" opacity="0.75" stroke="#1C1C1C" stroke-width="0.15" stroke-opacity="0.3" />
    <polygon points="156.8000,288.5097 154.8895,291.8187 152.9790,295.1278 151.0685,298.4369 152.9790,301.7460 154.8895,298.4369 156.8000,301.7460 158.7105,298.4369 160.6210,301.7460 162.5315,298.4369 160.6210,295.1278 162.5315,291.8187 160.6210,288.5097" fill="#2E5090" opacity="0.75" stroke="#1C1C1C" stroke-width="0.15" stroke-opacity="0.3" />
    <polygon points="159.8862,273.4915 163.7072,273.4915 167.5282,273.4915 171.3492,273.4915 173.2597,276.8006 169.4387,276.8006 171.3492,280.1097 167.5282,280.1097 169.4387,283.4188 165.6177,283.4188 163.7072,280.1097 159.8862,280.1097 157.9757,276.8006" fill="#1C1C1C" opacity="0.75" stroke="#1C1C1C" stroke-width="0.15" stroke-opacity="0.3" />
    <polygon points="144.8961,282.6551 146.8066,279.3460 148.7171,276.0370 150.6276,272.7279 154.4486,272.7279 152.5381,276.0370 156.3591,276.0370 154.4486,279.3460 158.2696,279.3460 156.3591,282.6551 152.5381,282.6551 150.6276,285.9642 146.8066,285.9642" fill="#1C1C1C" opacity="0.75" stroke="#1C1C1C" stroke-width="0.15" stroke-opacity="0.3" />
    <polygon points="126.3790,288.7642 122.5580,288.7642 118.7370,288.7642 114.9160,288.7642 113.0055,285.4551 116.8265,285.4551 114.9160,282.1460 118.7370,282.1460 116.8265,278.8370 120.6475,278.8370 122.5580,282.1460 126.3790,282.1460 128.2895,285.4551" fill="#1C1C1C" opacity="0.75" stroke="#1C1C1C" stroke-width="0.15" stroke-opacity="0.3" />
    <polygon points="141.3691,279.6006 139.4586,282.9097 137.5481,286.2188 135.6376,289.5278 131.8166,289.5278 133.7271,286.2188 129.9061,286.2188 131.8166,282.9097 127.9956,282.9097 129.9061,279.6006 133.7271,279.6006 135.6376,276.2915 139.4586,276.2915" fill="#1C1C1C" opacity="0.75" stroke="#1C1C1C" stroke-width="0.15" stroke-opacity="0.3" />
    <polygon points="126.3790,275.5279 122.5580,275.5279 118.7370,275.5279 114.9160,275.5279 113.0055,272.2188 116.8265,272.2188 114.9160,268.9097 118.7370,268.9097 116.8265,265.6006 120.6475,265.6006 122.5580,268.9097 126.3790,268.9097 128.2895,272.2188" fill="#1C1C1C" opacity="0.75" stroke="#1C1C1C" stroke-width="0.15" stroke-opacity="0.3" />
    <polygon points="137.8420,255.6734 134.0210,255.6734 130.2000,255.6734 126.3790,255.6734 124.4685,252.3643 128.2895,252.3643 126.3790,249.0553 130.2000,249.0553 128.2895,245.7462 132.1105,245.7462 134.0210,249.0553 137.8420,249.0553 139.7525,252.3643" fill="#1C1C1C" opacity="0.75" stroke="#1C1C1C" stroke-width="0.15" stroke-opacity="0.3" />
    <polygon points="140.9282,262.0370 142.8387,265.3461 144.7492,268.6552 146.6597,271.9643 144.7492,275.2733 142.8387,271.9643 140.9282,275.2733 139.0177,271.9643 137.1072,275.2733 135.1967,271.9643 137.1072,268.6552 135.1967,265.3461 137.1072,262.0370" fill="#1C1C1C" opacity="0.75" stroke="#1C1C1C" stroke-width="0.15" stroke-opacity="0.3" />
    <polygon points="121.9702,259.7461 123.8807,263.0552 125.7912,266.3643 127.7017,269.6734 131.5227,269.6734 129.6122,266.3643 133.4331,266.3643 131.5227,263.0552 135.3436,263.0552 133.4331,259.7461 129.6122,259.7461 127.7017,256.4370 123.8807,256.4370" fill="#2E5090" opacity="0.75" stroke="#1C1C1C" stroke-width="0.15" stroke-opacity="0.3" />
    <polygon points="110.5072,249.5643 112.4177,246.2553 114.3282,242.9462 116.2387,239.6371 120.0597,239.6371 118.1492,242.9462 121.9702,242.9462 120.0597,246.2553 123.8807,246.2553 121.9702,249.5643 118.1492,249.5643 116.2387,252.8734 112.4177,252.8734" fill="#1C1C1C" opacity="0.75" stroke="#1C1C1C" stroke-width="0.15" stroke-opacity="0.3" />
    <polygon points="110.9481,267.1279 109.0376,263.8188 107.1271,260.5098 105.2166,257.2007 107.1271,253.8916 109.0376,257.2007 110.9481,253.8916 112.8586,257.2007 114.7691,253.8916 116.6796,257.2007 114.7691,260.5098 116.6796,263.8188 114.7691,267.1279" fill="#1C1C1C" opacity="0.75" stroke="#1C1C1C" stroke-width="0.15" stroke-opacity="0.3" />
    <polygon points="88.0221,240.6553 86.1116,237.3462 84.2011,234.0371 82.2906,230.7281 84.2011,227.4190 86.1116,230.7281 88.0221,227.4190 89.9326,230.7281 91.8431,227.4190 93.7536,230.7281 91.8431,234.0371 93.7536,237.3462 91.8431,240.6553" fill="#1C1C1C" opacity="0.75" stroke="#1C1C1C" stroke-width="0.15" stroke-opacity="0.3" />
    <polygon points="110.9481,240.6553 109.0376,237.3462 107.1271,234.0371 105.2166,230.7281 107.1271,227.4190 109.0376,230.7281 110.9481,227.4190 112.8586,230.7281 114.7691,227.4190 116.6796,230.7281 114.7691,234.0371 116.6796,237.3462 114.7691,240.6553" fill="#1C1C1C" opacity="0.75" stroke="#1C1C1C" stroke-width="0.15" stroke-opacity="0.3" />
    <polygon points="106.9801,246.5098 105.0696,249.8189 103.1591,253.1280 101.2486,256.4370 97.4276,256.4370 99.3381,253.1280 95.5171,253.1280 97.4276,249.8189 93.6066,249.8189 95.5171,246.5098 99.3381,246.5098 101.2486,243.2007 105.0696,243.2007" fill="#1C1C1C" opacity="0.75" stroke="#1C1C1C" stroke-width="0.15" stroke-opacity="0.3" />
    <polygon points="99.4851,228.9462 97.5746,232.2553 95.6641,235.5644 93.7536,238.8735 95.6641,242.1826 97.5746,238.8735 99.4851,242.1826 101.3956,238.8735 103.3061,242.1826 105.2166,238.8735 103.3061,235.5644 105.2166,232.2553 103.3061,228.9462" fill="#2E5090" opacity="0.75" stroke="#1C1C1C" stroke-width="0.15" stroke-opacity="0.3" />
    <polygon points="76.5591,247.2734 74.6486,243.9644 72.7381,240.6553 70.8276,237.3462 72.7381,234.0371 74.6486,237.3462 76.5591,234.0371 78.4696,237.3462 80.3801,234.0371 82.2906,237.3462 80.3801,240.6553 82.2906,243.9644 80.3801,247.2734" fill="#1C1C1C" opacity="0.75" stroke="#1C1C1C" stroke-width="0.15" stroke-opacity="0.3" />
    <polygon points="91.9901,255.6734 88.1691,255.6734 84.3481,255.6734 80.5271,255.6734 78.6166,252.3643 82.4376,252.3643 80.5271,249.0553 84.3481,249.0553 82.4376,245.7462 86.2586,245.7462 88.1691,249.0553 91.9901,249.0553 93.9006,252.3643" fill="#1C1C1C" opacity="0.75" stroke="#1C1C1C" stroke-width="0.15" stroke-opacity="0.3" />
    <polygon points="102.5713,213.9281 106.3923,213.9281 110.2133,213.9281 114.0343,213.9281 115.9448,217.2372 112.1238,217.2372 114.0343,220.5463 110.2133,220.5463 112.1238,223.8554 108.3028,223.8554 106.3923,220.5463 102.5713,220.5463 100.6608,217.2372" fill="#1C1C1C" opacity="0.75" stroke="#1C1C1C" stroke-width="0.15" stroke-opacity="0.3" />
    <polygon points="87.5812,223.0917 89.4917,219.7826 91.4022,216.4736 93.3127,213.1645 97.1337,213.1645 95.2232,216.4736 99.0442,216.4736 97.1337,219.7826 100.9547,219.7826 99.0442,223.0917 95.2232,223.0917 93.3127,226.4008 89.4917,226.4008" fill="#1C1C1C" opacity="0.75" stroke="#1C1C1C" stroke-width="0.15" stroke-opacity="0.3" />
    <polygon points="133.4331,170.1465 135.3436,166.8374 137.2541,163.5283 139.1646,160.2192 142.9856,160.2192 141.0751,163.5283 144.8961,163.5283 142.9856,166.8374 146.8066,166.8374 144.8961,170.1465 141.0751,170.1465 139.1646,173.4555 135.3436,173.4555" fill="#1C1C1C" opacity="0.75" stroke="#1C1C1C" stroke-width="0.15" stroke-opacity="0.3" />
    <polygon points="133.8740,187.7100 131.9635,184.4010 130.0530,181.0919 128.1425,177.7828 130.0530,174.4737 131.9635,177.7828 133.8740,174.4737 135.7845,177.7828 137.6950,174.4737 139.6055,177.7828 137.6950,181.0919 139.6055,184.4010 137.6950,187.7100" fill="#1C1C1C" opacity="0.75" stroke="#1C1C1C" stroke-width="0.15" stroke-opacity="0.3" />
    <polygon points="144.8961,176.7646 146.8066,173.4555 148.7171,170.1465 150.6276,166.8374 154.4486,166.8374 152.5381,170.1465 156.3591,170.1465 154.4486,173.4555 158.2696,173.4555 156.3591,176.7646 152.5381,176.7646 150.6276,180.0737 146.8066,180.0737" fill="#1C1C1C" opacity="0.75" stroke="#1C1C1C" stroke-width="0.15" stroke-opacity="0.3" />
    <polygon points="156.3591,196.6191 158.2696,193.3100 160.1801,190.0009 162.0906,186.6919 165.9116,186.6919 164.0011,190.0009 167.8221,190.0009 165.9116,193.3100 169.7326,193.3100 167.8221,196.6191 164.0011,196.6191 162.0906,199.9282 158.2696,199.9282" fill="#1C1C1C" opacity="0.75" stroke="#1C1C1C" stroke-width="0.15" stroke-opacity="0.3" />
    <polygon points="149.3050,196.1100 145.4840,196.1100 141.6630,196.1100 137.8420,196.1100 135.9315,192.8009 139.7525,192.8009 137.8420,189.4918 141.6630,189.4918 139.7525,186.1828 143.5735,186.1828 145.4840,189.4918 149.3050,189.4918 151.2155,192.8009" fill="#1C1C1C" opacity="0.75" stroke="#1C1C1C" stroke-width="0.15" stroke-opacity="0.3" />
    <polygon points="160.7680,180.8373 156.9470,180.8373 153.1260,180.8373 149.3050,180.8373 147.3945,184.1464 151.2155,184.1464 149.3050,187.4555 153.1260,187.4555 151.2155,190.7646 155.0365,190.7646 156.9470,187.4555 160.7680,187.4555 162.6785,184.1464" fill="#2E5090" opacity="0.75" stroke="#1C1C1C" stroke-width="0.15" stroke-opacity="0.3" />
    <polygon points="175.3171,176.0010 177.2276,179.3101 179.1381,182.6191 181.0486,185.9282 179.1381,189.2373 177.2276,185.9282 175.3171,189.2373 173.4066,185.9282 171.4961,189.2373 169.5856,185.9282 171.4961,182.6191 169.5856,179.3101 171.4961,176.0010" fill="#1C1C1C" opacity="0.75" stroke="#1C1C1C" stroke-width="0.15" stroke-opacity="0.3" />
    <polygon points="159.8862,167.6010 163.7072,167.6010 167.5282,167.6010 171.3492,167.6010 173.2597,170.9101 169.4387,170.9101 171.3492,174.2192 167.5282,174.2192 169.4387,177.5283 165.6177,177.5283 163.7072,174.2192 159.8862,174.2192 157.9757,170.9101" fill="#1C1C1C" opacity="0.75" stroke="#1C1C1C" stroke-width="0.15" stroke-opacity="0.3" />
    <polygon points="194.2751,160.9829 198.0961,160.9829 201.9171,160.9829 205.7381,160.9829 207.6486,164.2919 203.8276,164.2919 205.7381,167.6010 201.9171,167.6010 203.8276,170.9101 200.0066,170.9101 198.0961,167.6010 194.2751,167.6010 192.3646,164.2919" fill="#1C1C1C" opacity="0.75" stroke="#1C1C1C" stroke-width="0.15" stroke-opacity="0.3" />
    <polygon points="182.8122,180.8373 186.6331,180.8373 190.4541,180.8373 194.2751,180.8373 196.1856,184.1464 192.3646,184.1464 194.2751,187.4555 190.4541,187.4555 192.3646,190.7646 188.5436,190.7646 186.6331,187.4555 182.8122,187.4555 180.9017,184.1464" fill="#1C1C1C" opacity="0.75" stroke="#1C1C1C" stroke-width="0.15" stroke-opacity="0.3" />
    <polygon points="179.7260,174.4737 177.8155,171.1646 175.9050,167.8556 173.9945,164.5465 175.9050,161.2374 177.8155,164.5465 179.7260,161.2374 181.6365,164.5465 183.5470,161.2374 185.4575,164.5465 183.5470,167.8556 185.4575,171.1646 183.5470,174.4737" fill="#1C1C1C" opacity="0.75" stroke="#1C1C1C" stroke-width="0.15" stroke-opacity="0.3" />
    <polygon points="198.6840,176.7646 196.7735,173.4555 194.8630,170.1465 192.9525,166.8374 189.1315,166.8374 191.0420,170.1465 187.2210,170.1465 189.1315,173.4555 185.3105,173.4555 187.2210,176.7646 191.0420,176.7646 192.9525,180.0737 196.7735,180.0737" fill="#2E5090" opacity="0.75" stroke="#1C1C1C" stroke-width="0.15" stroke-opacity="0.3" />
    <polygon points="210.1470,186.9464 208.2365,190.2555 206.3260,193.5646 204.4155,196.8736 200.5945,196.8736 202.5050,193.5646 198.6840,193.5646 200.5945,190.2555 196.7735,190.2555 198.6840,186.9464 202.5050,186.9464 204.4155,183.6373 208.2365,183.6373" fill="#1C1C1C" opacity="0.75" stroke="#1C1C1C" stroke-width="0.15" stroke-opacity="0.3" />
    <polygon points="209.7061,169.3828 211.6166,172.6919 213.5271,176.0010 215.4376,179.3101 213.5271,182.6191 211.6166,179.3101 209.7061,182.6191 207.7956,179.3101 205.8851,182.6191 203.9746,179.3101 205.8851,176.0010 203.9746,172.6919 205.8851,169.3828" fill="#1C1C1C" opacity="0.75" stroke="#1C1C1C" stroke-width="0.15" stroke-opacity="0.3" />
    <polygon points="213.6740,150.2920 215.5845,146.9829 217.4950,143.6738 219.4055,140.3648 223.2265,140.3648 221.3160,143.6738 225.1370,143.6738 223.2265,146.9829 227.0475,146.9829 225.1370,150.2920 221.3160,150.2920 219.4055,153.6011 215.5845,153.6011" fill="#1C1C1C" opacity="0.75" stroke="#1C1C1C" stroke-width="0.15" stroke-opacity="0.3" />
    <polygon points="214.1149,167.8556 212.2044,164.5465 210.2939,161.2374 208.3834,157.9283 210.2939,154.6193 212.2044,157.9283 214.1149,154.6193 216.0254,157.9283 217.9359,154.6193 219.8464,157.9283 217.9359,161.2374 219.8464,164.5465 217.9359,167.8556" fill="#1C1C1C" opacity="0.75" stroke="#1C1C1C" stroke-width="0.15" stroke-opacity="0.3" />
    <polygon points="225.1370,156.9102 227.0475,153.6011 228.9580,150.2920 230.8685,146.9829 234.6895,146.9829 232.7790,150.2920 236.6000,150.2920 234.6895,153.6011 238.5105,153.6011 236.6000,156.9102 232.7790,156.9102 230.8685,160.2192 227.0475,160.2192" fill="#1C1C1C" opacity="0.75" stroke="#1C1C1C" stroke-width="0.15" stroke-opacity="0.3" />
    <polygon points="236.6000,176.7646 238.5105,173.4555 240.4210,170.1465 242.3315,166.8374 246.1525,166.8374 244.2420,170.1465 248.0630,170.1465 246.1525,173.4555 249.9735,173.4555 248.0630,176.7646 244.2420,176.7646 242.3315,180.0737 238.5105,180.0737" fill="#1C1C1C" opacity="0.75" stroke="#1C1C1C" stroke-width="0.15" stroke-opacity="0.3" />
    <polygon points="229.5459,176.2555 225.7249,176.2555 221.9039,176.2555 218.0829,176.2555 216.1724,172.9465 219.9934,172.9465 218.0829,169.6374 221.9039,169.6374 219.9934,166.3283 223.8144,166.3283 225.7249,169.6374 229.5459,169.6374 231.4564,172.9465" fill="#1C1C1C" opacity="0.75" stroke="#1C1C1C" stroke-width="0.15" stroke-opacity="0.3" />
    <polygon points="241.0088,160.9829 237.1878,160.9829 233.3669,160.9829 229.5459,160.9829 227.6354,164.2919 231.4564,164.2919 229.5459,167.6010 233.3669,167.6010 231.4564,170.9101 235.2773,170.9101 237.1878,167.6010 241.0088,167.6010 242.9193,164.2919" fill="#2E5090" opacity="0.75" stroke="#1C1C1C" stroke-width="0.15" stroke-opacity="0.3" />
    <polygon points="255.5580,156.1465 257.4685,159.4556 259.3790,162.7647 261.2895,166.0738 259.3790,169.3828 257.4685,166.0738 255.5580,169.3828 253.6475,166.0738 251.7370,169.3828 249.8265,166.0738 251.7370,162.7647 249.8265,159.4556 251.7370,156.1465" fill="#1C1C1C" opacity="0.75" stroke="#1C1C1C" stroke-width="0.15" stroke-opacity="0.3" />
    <polygon points="240.1271,147.7466 243.9481,147.7466 247.7691,147.7466 251.5901,147.7466 253.5006,151.0556 249.6796,151.0556 251.5901,154.3647 247.7691,154.3647 249.6796,157.6738 245.8586,157.6738 243.9481,154.3647 240.1271,154.3647 238.2166,151.0556" fill="#1C1C1C" opacity="0.75" stroke="#1C1C1C" stroke-width="0.15" stroke-opacity="0.3" />
    <polygon points="274.5160,141.1284 278.3370,141.1284 282.1580,141.1284 285.9790,141.1284 287.8895,144.4375 284.0685,144.4375 285.9790,147.7466 282.1580,147.7466 284.0685,151.0556 280.2475,151.0556 278.3370,147.7466 274.5160,147.7466 272.6055,144.4375" fill="#1C1C1C" opacity="0.75" stroke="#1C1C1C" stroke-width="0.15" stroke-opacity="0.3" />
    <polygon points="263.0530,160.9829 266.8740,160.9829 270.6950,160.9829 274.5160,160.9829 276.4265,164.2919 272.6055,164.2919 274.5160,167.6010 270.6950,167.6010 272.6055,170.9101 268.7845,170.9101 266.8740,167.6010 263.0530,167.6010 261.1425,164.2919" fill="#1C1C1C" opacity="0.75" stroke="#1C1C1C" stroke-width="0.15" stroke-opacity="0.3" />
    <polygon points="259.9669,154.6193 258.0564,151.3102 256.1459,148.0011 254.2354,144.6920 256.1459,141.3829 258.0564,144.6920 259.9669,141.3829 261.8773,144.6920 263.7878,141.3829 265.6983,144.6920 263.7878,148.0011 265.6983,151.3102 263.7878,154.6193" fill="#1C1C1C" opacity="0.75" stroke="#1C1C1C" stroke-width="0.15" stroke-opacity="0.3" />
    <polygon points="278.9249,156.9102 277.0144,153.6011 275.1039,150.2920 273.1934,146.9829 269.3724,146.9829 271.2829,150.2920 267.4619,150.2920 269.3724,153.6011 265.5514,153.6011 267.4619,156.9102 271.2829,156.9102 273.1934,160.2192 277.0144,160.2192" fill="#2E5090" opacity="0.75" stroke="#1C1C1C" stroke-width="0.15" stroke-opacity="0.3" />
    <polygon points="274.5160,127.8921 278.3370,127.8921 282.1580,127.8921 285.9790,127.8921 287.8895,131.2012 284.0685,131.2012 285.9790,134.5102 282.1580,134.5102 284.0685,137.8193 280.2475,137.8193 278.3370,134.5102 274.5160,134.5102 272.6055,131.2012" fill="#1C1C1C" opacity="0.75" stroke="#1C1C1C" stroke-width="0.15" stroke-opacity="0.3" />
    <polygon points="259.5260,137.0557 261.4365,133.7466 263.3470,130.4375 265.2575,127.1284 269.0785,127.1284 267.1680,130.4375 270.9890,130.4375 269.0785,133.7466 272.8994,133.7466 270.9890,137.0557 267.1680,137.0557 265.2575,140.3648 261.4365,140.3648" fill="#1C1C1C" opacity="0.75" stroke="#1C1C1C" stroke-width="0.15" stroke-opacity="0.3" />
    <polygon points="290.3878,167.0919 288.4773,170.4010 286.5669,173.7101 284.6564,177.0192 280.8354,177.0192 282.7459,173.7101 278.9249,173.7101 280.8354,170.4010 277.0144,170.4010 278.9249,167.0919 282.7459,167.0919 284.6564,163.7829 288.4773,163.7829" fill="#1C1C1C" opacity="0.75" stroke="#1C1C1C" stroke-width="0.15" stroke-opacity="0.3" />
    <polygon points="289.9470,149.5284 291.8575,152.8374 293.7680,156.1465 295.6785,159.4556 293.7680,162.7647 291.8575,159.4556 289.9470,162.7647 288.0365,159.4556 286.1260,162.7647 284.2155,159.4556 286.1260,156.1465 284.2155,152.8374 286.1260,149.5284" fill="#1C1C1C" opacity="0.75" stroke="#1C1C1C" stroke-width="0.15" stroke-opacity="0.3" />
    <polygon points="259.9669,273.7461 258.0564,270.4370 256.1459,267.1279 254.2354,263.8188 256.1459,260.5098 258.0564,263.8188 259.9669,260.5098 261.8773,263.8188 263.7878,260.5098 265.6983,263.8188 263.7878,267.1279 265.6983,270.4370 263.7878,273.7461" fill="#1C1C1C" opacity="0.75" stroke="#1C1C1C" stroke-width="0.15" stroke-opacity="0.3" />
    <polygon points="275.3978,282.1460 271.5768,282.1460 267.7558,282.1460 263.9348,282.1460 262.0243,278.8370 265.8453,278.8370 263.9348,275.5279 267.7558,275.5279 265.8453,272.2188 269.6663,272.2188 271.5768,275.5279 275.3978,275.5279 277.3083,278.8370" fill="#1C1C1C" opacity="0.75" stroke="#1C1C1C" stroke-width="0.15" stroke-opacity="0.3" />
    <polygon points="271.4298,267.1279 269.5193,263.8188 267.6088,260.5098 265.6983,257.2007 267.6088,253.8916 269.5193,257.2007 271.4298,253.8916 273.3403,257.2007 275.2508,253.8916 277.1613,257.2007 275.2508,260.5098 277.1613,263.8188 275.2508,267.1279" fill="#1C1C1C" opacity="0.75" stroke="#1C1C1C" stroke-width="0.15" stroke-opacity="0.3" />
    <polygon points="294.3558,267.1279 292.4453,263.8188 290.5348,260.5098 288.6243,257.2007 290.5348,253.8916 292.4453,257.2007 294.3558,253.8916 296.2663,257.2007 298.1768,253.8916 300.0873,257.2007 298.1768,260.5098 300.0873,263.8188 298.1768,267.1279" fill="#1C1C1C" opacity="0.75" stroke="#1C1C1C" stroke-width="0.15" stroke-opacity="0.3" />
    <polygon points="290.3878,272.9824 288.4773,276.2915 286.5669,279.6006 284.6564,282.9097 280.8354,282.9097 282.7459,279.6006 278.9249,279.6006 280.8354,276.2915 277.0144,276.2915 278.9249,272.9824 282.7459,272.9824 284.6564,269.6734 288.4773,269.6734" fill="#1C1C1C" opacity="0.75" stroke="#1C1C1C" stroke-width="0.15" stroke-opacity="0.3" />
    <polygon points="282.8928,255.4189 280.9823,258.7279 279.0718,262.0370 277.1613,265.3461 279.0718,268.6552 280.9823,265.3461 282.8928,268.6552 284.8033,265.3461 286.7138,268.6552 288.6243,265.3461 286.7138,262.0370 288.6243,258.7279 286.7138,255.4189" fill="#2E5090" opacity="0.75" stroke="#1C1C1C" stroke-width="0.15" stroke-opacity="0.3" />
    <polygon points="285.9790,240.4007 289.8000,240.4007 293.6210,240.4007 297.4420,240.4007 299.3525,243.7098 295.5315,243.7098 297.4420,247.0189 293.6210,247.0189 295.5315,250.3280 291.7105,250.3280 289.8000,247.0189 285.9790,247.0189 284.0685,243.7098" fill="#1C1C1C" opacity="0.75" stroke="#1C1C1C" stroke-width="0.15" stroke-opacity="0.3" />
    <polygon points="270.9890,249.5643 272.8994,246.2553 274.8099,242.9462 276.7204,239.6371 280.5414,239.6371 278.6309,242.9462 282.4519,242.9462 280.5414,246.2553 284.3624,246.2553 282.4519,249.5643 278.6309,249.5643 276.7204,252.8734 272.8994,252.8734" fill="#1C1C1C" opacity="0.75" stroke="#1C1C1C" stroke-width="0.15" stroke-opacity="0.3" />
    <polygon points="282.4519,216.4736 284.3624,213.1645 286.2729,209.8554 288.1834,206.5463 292.0044,206.5463 290.0939,209.8554 293.9149,209.8554 292.0044,213.1645 295.8254,213.1645 293.9149,216.4736 290.0939,216.4736 288.1834,219.7826 284.3624,219.7826" fill="#1C1C1C" opacity="0.75" stroke="#1C1C1C" stroke-width="0.15" stroke-opacity="0.3" />
    <polygon points="293.9149,236.3280 295.8254,233.0190 297.7359,229.7099 299.6464,226.4008 303.4674,226.4008 301.5569,229.7099 305.3779,229.7099 303.4674,233.0190 307.2884,233.0190 305.3779,236.3280 301.5569,236.3280 299.6464,239.6371 295.8254,239.6371" fill="#1C1C1C" opacity="0.75" stroke="#1C1C1C" stroke-width="0.15" stroke-opacity="0.3" />
    <polygon points="286.8608,235.8189 283.0398,235.8189 279.2188,235.8189 275.3978,235.8189 273.4873,232.5099 277.3083,232.5099 275.3978,229.2008 279.2188,229.2008 277.3083,225.8917 281.1293,225.8917 283.0398,229.2008 286.8608,229.2008 288.7713,232.5099" fill="#1C1C1C" opacity="0.75" stroke="#1C1C1C" stroke-width="0.15" stroke-opacity="0.3" />
    <polygon points="298.3238,220.5463 294.5028,220.5463 290.6818,220.5463 286.8608,220.5463 284.9503,223.8554 288.7713,223.8554 286.8608,227.1644 290.6818,227.1644 288.7713,230.4735 292.5923,230.4735 294.5028,227.1644 298.3238,227.1644 300.2343,223.8554" fill="#2E5090" opacity="0.75" stroke="#1C1C1C" stroke-width="0.15" stroke-opacity="0.3" />
    <polygon points="312.8729,215.7099 314.7834,219.0190 316.6939,222.3281 318.6044,225.6372 316.6939,228.9462 314.7834,225.6372 312.8729,228.9462 310.9624,225.6372 309.0519,228.9462 307.1414,225.6372 309.0519,222.3281 307.1414,219.0190 309.0519,215.7099" fill="#1C1C1C" opacity="0.75" stroke="#1C1C1C" stroke-width="0.15" stroke-opacity="0.3" />
    <polygon points="297.4420,207.3100 301.2630,207.3100 305.0840,207.3100 308.9050,207.3100 310.8155,210.6190 306.9945,210.6190 308.9050,213.9281 305.0840,213.9281 306.9945,217.2372 303.1735,217.2372 301.2630,213.9281 297.4420,213.9281 295.5315,210.6190" fill="#1C1C1C" opacity="0.75" stroke="#1C1C1C" stroke-width="0.15" stroke-opacity="0.3" />
    <polygon points="289.9470,295.1278 291.8575,298.4369 293.7680,301.7460 295.6785,305.0550 293.7680,308.3641 291.8575,305.0550 289.9470,308.3641 288.0365,305.0550 286.1260,308.3641 284.2155,305.0550 286.1260,301.7460 284.2155,298.4369 286.1260,295.1278" fill="#1C1C1C" opacity="0.75" stroke="#1C1C1C" stroke-width="0.15" stroke-opacity="0.3" />
    <polygon points="274.5160,286.7278 278.3370,286.7278 282.1580,286.7278 285.9790,286.7278 287.8895,290.0369 284.0685,290.0369 285.9790,293.3460 282.1580,293.3460 284.0685,296.6551 280.2475,296.6551 278.3370,293.3460 274.5160,293.3460 272.6055,290.0369" fill="#1C1C1C" opacity="0.75" stroke="#1C1C1C" stroke-width="0.15" stroke-opacity="0.3" />
    <polygon points="278.4840,301.7460 280.3945,305.0550 282.3050,308.3641 284.2155,311.6732 282.3050,314.9823 280.3945,311.6732 278.4840,314.9823 276.5735,311.6732 274.6630,314.9823 272.7525,311.6732 274.6630,308.3641 272.7525,305.0550 274.6630,301.7460" fill="#1C1C1C" opacity="0.75" stroke="#1C1C1C" stroke-width="0.15" stroke-opacity="0.3" />
    <polygon points="255.5580,301.7460 257.4685,305.0550 259.3790,308.3641 261.2895,311.6732 259.3790,314.9823 257.4685,311.6732 255.5580,314.9823 253.6475,311.6732 251.7370,314.9823 249.8265,311.6732 251.7370,308.3641 249.8265,305.0550 251.7370,301.7460" fill="#1C1C1C" opacity="0.75" stroke="#1C1C1C" stroke-width="0.15" stroke-opacity="0.3" />
    <polygon points="259.5260,295.8914 261.4365,292.5824 263.3470,289.2733 265.2575,285.9642 269.0785,285.9642 267.1680,289.2733 270.9890,289.2733 269.0785,292.5824 272.8994,292.5824 270.9890,295.8914 267.1680,295.8914 265.2575,299.2005 261.4365,299.2005" fill="#1C1C1C" opacity="0.75" stroke="#1C1C1C" stroke-width="0.15" stroke-opacity="0.3" />
    <polygon points="267.0210,313.4550 268.9315,310.1459 270.8420,306.8369 272.7525,303.5278 270.8420,300.2187 268.9315,303.5278 267.0210,300.2187 265.1105,303.5278 263.2000,300.2187 261.2895,303.5278 263.2000,306.8369 261.2895,310.1459 263.2000,313.4550" fill="#2E5090" opacity="0.75" stroke="#1C1C1C" stroke-width="0.15" stroke-opacity="0.3" />
    <polygon points="263.9348,328.4731 260.1138,328.4731 256.2928,328.4731 252.4718,328.4731 250.5613,325.1641 254.3823,325.1641 252.4718,321.8550 256.2928,321.8550 254.3823,318.5459 258.2033,318.5459 260.1138,321.8550 263.9348,321.8550 265.8453,325.1641" fill="#1C1C1C" opacity="0.75" stroke="#1C1C1C" stroke-width="0.15" stroke-opacity="0.3" />
    <polygon points="278.9249,319.3095 277.0144,322.6186 275.1039,325.9277 273.1934,329.2368 269.3724,329.2368 271.2829,325.9277 267.4619,325.9277 269.3724,322.6186 265.5514,322.6186 267.4619,319.3095 271.2829,319.3095 273.1934,316.0005 277.0144,316.0005" fill="#1C1C1C" opacity="0.75" stroke="#1C1C1C" stroke-width="0.15" stroke-opacity="0.3" />
    <polygon points="267.4619,352.4003 265.5514,355.7094 263.6409,359.0185 261.7304,362.3276 257.9094,362.3276 259.8199,359.0185 255.9989,359.0185 257.9094,355.7094 254.0884,355.7094 255.9989,352.4003 259.8199,352.4003 261.7304,349.0912 265.5514,349.0912" fill="#1C1C1C" opacity="0.75" stroke="#1C1C1C" stroke-width="0.15" stroke-opacity="0.3" />
    <polygon points="255.9989,332.5458 254.0884,335.8549 252.1779,339.1640 250.2674,342.4731 246.4464,342.4731 248.3569,339.1640 244.5359,339.1640 246.4464,335.8549 242.6254,335.8549 244.5359,332.5458 248.3569,332.5458 250.2674,329.2368 254.0884,329.2368" fill="#1C1C1C" opacity="0.75" stroke="#1C1C1C" stroke-width="0.15" stroke-opacity="0.3" />
    <polygon points="263.0530,333.0549 266.8740,333.0549 270.6950,333.0549 274.5160,333.0549 276.4265,336.3640 272.6055,336.3640 274.5160,339.6731 270.6950,339.6731 272.6055,342.9822 268.7845,342.9822 266.8740,339.6731 263.0530,339.6731 261.1425,336.3640" fill="#1C1C1C" opacity="0.75" stroke="#1C1C1C" stroke-width="0.15" stroke-opacity="0.3" />
    <polygon points="251.5901,348.3276 255.4110,348.3276 259.2320,348.3276 263.0530,348.3276 264.9635,345.0185 261.1425,345.0185 263.0530,341.7094 259.2320,341.7094 261.1425,338.4004 257.3215,338.4004 255.4110,341.7094 251.5901,341.7094 249.6796,345.0185" fill="#2E5090" opacity="0.75" stroke="#1C1C1C" stroke-width="0.15" stroke-opacity="0.3" />
    <polygon points="278.9249,359.0185 277.0144,362.3276 275.1039,365.6366 273.1934,368.9457 269.3724,368.9457 271.2829,365.6366 267.4619,365.6366 269.3724,362.3276 265.5514,362.3276 267.4619,359.0185 271.2829,359.0185 273.1934,355.7094 277.0144,355.7094" fill="#1C1C1C" opacity="0.75" stroke="#1C1C1C" stroke-width="0.15" stroke-opacity="0.3" />
    <polygon points="278.4840,341.4549 280.3945,344.7640 282.3050,348.0731 284.2155,351.3821 282.3050,354.6912 280.3945,351.3821 278.4840,354.6912 276.5735,351.3821 274.6630,354.6912 272.7525,351.3821 274.6630,348.0731 272.7525,344.7640 274.6630,341.4549" fill="#1C1C1C" opacity="0.75" stroke="#1C1C1C" stroke-width="0.15" stroke-opacity="0.3" />
    <polygon points="237.0409,353.1639 235.1304,349.8549 233.2199,346.5458 231.3094,343.2367 233.2199,339.9276 235.1304,343.2367 237.0409,339.9276 238.9514,343.2367 240.8619,339.9276 242.7724,343.2367 240.8619,346.5458 242.7724,349.8549 240.8619,353.1639" fill="#1C1C1C" opacity="0.75" stroke="#1C1C1C" stroke-width="0.15" stroke-opacity="0.3" />
    <polygon points="252.4718,361.5639 248.6508,361.5639 244.8298,361.5639 241.0088,361.5639 239.0983,358.2548 242.9193,358.2548 241.0088,354.9458 244.8298,354.9458 242.9193,351.6367 246.7403,351.6367 248.6508,354.9458 252.4718,354.9458 254.3823,358.2548" fill="#1C1C1C" opacity="0.75" stroke="#1C1C1C" stroke-width="0.15" stroke-opacity="0.3" />
  </g>
  <g id="canonical-hat-legend-inset">
    <g id="canonical-hat-legend">
      <g id="hat-legend-grid">
        <line x1="265.0032" y1="133.75125617377412" x2="284.2896" y2="133.75125617377412" stroke="#1C1C1C" stroke-opacity="0.18" stroke-width="0.22" />
        <line x1="284.2896" y1="133.75125617377412" x2="303.576" y2="133.75125617377412" stroke="#1C1C1C" stroke-opacity="0.18" stroke-width="0.22" />
        <line x1="303.576" y1="133.75125617377412" x2="322.8624" y2="133.75125617377412" stroke="#1C1C1C" stroke-opacity="0.18" stroke-width="0.22" />
        <line x1="322.8624" y1="133.75125617377412" x2="342.1488" y2="133.75125617377412" stroke="#1C1C1C" stroke-opacity="0.18" stroke-width="0.22" />
        <line x1="342.1488" y1="133.75125617377412" x2="361.4352" y2="133.75125617377412" stroke="#1C1C1C" stroke-opacity="0.18" stroke-width="0.22" />
        <line x1="361.4352" y1="133.75125617377412" x2="380.72159999999997" y2="133.75125617377412" stroke="#1C1C1C" stroke-opacity="0.18" stroke-width="0.22" />
        <line x1="380.72159999999997" y1="133.75125617377412" x2="400.008" y2="133.75125617377412" stroke="#1C1C1C" stroke-opacity="0.18" stroke-width="0.22" />
        <line x1="400.008" y1="133.75125617377412" x2="419.2944" y2="133.75125617377412" stroke="#1C1C1C" stroke-opacity="0.18" stroke-width="0.22" />
        <line x1="274.64639999999997" y1="117.04874382622592" x2="293.9328" y2="117.04874382622592" stroke="#1C1C1C" stroke-opacity="0.18" stroke-width="0.22" />
        <line x1="293.9328" y1="117.04874382622592" x2="313.2192" y2="117.04874382622592" stroke="#1C1C1C" stroke-opacity="0.18" stroke-width="0.22" />
        <line x1="313.2192" y1="117.04874382622592" x2="332.5056" y2="117.04874382622592" stroke="#1C1C1C" stroke-opacity="0.18" stroke-width="0.22" />
        <line x1="332.5056" y1="117.04874382622592" x2="351.792" y2="117.04874382622592" stroke="#1C1C1C" stroke-opacity="0.18" stroke-width="0.22" />
        <line x1="351.792" y1="117.04874382622592" x2="371.0784" y2="117.04874382622592" stroke="#1C1C1C" stroke-opacity="0.18" stroke-width="0.22" />
        <line x1="371.0784" y1="117.04874382622592" x2="390.3648" y2="117.04874382622592" stroke="#1C1C1C" stroke-opacity="0.18" stroke-width="0.22" />
        <line x1="390.3648" y1="117.04874382622592" x2="409.6512" y2="117.04874382622592" stroke="#1C1C1C" stroke-opacity="0.18" stroke-width="0.22" />
        <line x1="409.6512" y1="117.04874382622592" x2="428.9376" y2="117.04874382622592" stroke="#1C1C1C" stroke-opacity="0.18" stroke-width="0.22" />
        <line x1="284.2896" y1="100.34623147867772" x2="303.576" y2="100.34623147867772" stroke="#1C1C1C" stroke-opacity="0.18" stroke-width="0.22" />
        <line x1="303.576" y1="100.34623147867772" x2="322.8624" y2="100.34623147867772" stroke="#1C1C1C" stroke-opacity="0.18" stroke-width="0.22" />
        <line x1="322.8624" y1="100.34623147867772" x2="342.1488" y2="100.34623147867772" stroke="#1C1C1C" stroke-opacity="0.18" stroke-width="0.22" />
        <line x1="342.1488" y1="100.34623147867772" x2="361.4352" y2="100.34623147867772" stroke="#1C1C1C" stroke-opacity="0.18" stroke-width="0.22" />
        <line x1="361.4352" y1="100.34623147867772" x2="380.72159999999997" y2="100.34623147867772" stroke="#1C1C1C" stroke-opacity="0.18" stroke-width="0.22" />
        <line x1="380.72159999999997" y1="100.34623147867772" x2="400.008" y2="100.34623147867772" stroke="#1C1C1C" stroke-opacity="0.18" stroke-width="0.22" />
        <line x1="400.008" y1="100.34623147867772" x2="419.2944" y2="100.34623147867772" stroke="#1C1C1C" stroke-opacity="0.18" stroke-width="0.22" />
        <line x1="419.2944" y1="100.34623147867772" x2="438.5808" y2="100.34623147867772" stroke="#1C1C1C" stroke-opacity="0.18" stroke-width="0.22" />
        <line x1="293.9328" y1="83.64371913112953" x2="313.2192" y2="83.64371913112953" stroke="#1C1C1C" stroke-opacity="0.18" stroke-width="0.22" />
        <line x1="313.2192" y1="83.64371913112953" x2="332.5056" y2="83.64371913112953" stroke="#1C1C1C" stroke-opacity="0.18" stroke-width="0.22" />
        <line x1="332.5056" y1="83.64371913112953" x2="351.792" y2="83.64371913112953" stroke="#1C1C1C" stroke-opacity="0.18" stroke-width="0.22" />
        <line x1="351.792" y1="83.64371913112953" x2="371.0784" y2="83.64371913112953" stroke="#1C1C1C" stroke-opacity="0.18" stroke-width="0.22" />
        <line x1="371.0784" y1="83.64371913112953" x2="390.3648" y2="83.64371913112953" stroke="#1C1C1C" stroke-opacity="0.18" stroke-width="0.22" />
        <line x1="390.3648" y1="83.64371913112953" x2="409.6512" y2="83.64371913112953" stroke="#1C1C1C" stroke-opacity="0.18" stroke-width="0.22" />
        <line x1="409.6512" y1="83.64371913112953" x2="428.9376" y2="83.64371913112953" stroke="#1C1C1C" stroke-opacity="0.18" stroke-width="0.22" />
        <line x1="428.9376" y1="83.64371913112953" x2="448.224" y2="83.64371913112953" stroke="#1C1C1C" stroke-opacity="0.18" stroke-width="0.22" />
        <line x1="303.576" y1="66.94120678358132" x2="322.8624" y2="66.94120678358132" stroke="#1C1C1C" stroke-opacity="0.18" stroke-width="0.22" />
        <line x1="322.8624" y1="66.94120678358132" x2="342.1488" y2="66.94120678358132" stroke="#1C1C1C" stroke-opacity="0.18" stroke-width="0.22" />
        <line x1="342.1488" y1="66.94120678358132" x2="361.4352" y2="66.94120678358132" stroke="#1C1C1C" stroke-opacity="0.18" stroke-width="0.22" />
        <line x1="361.4352" y1="66.94120678358132" x2="380.72159999999997" y2="66.94120678358132" stroke="#1C1C1C" stroke-opacity="0.18" stroke-width="0.22" />
        <line x1="380.72159999999997" y1="66.94120678358132" x2="400.008" y2="66.94120678358132" stroke="#1C1C1C" stroke-opacity="0.18" stroke-width="0.22" />
        <line x1="400.008" y1="66.94120678358132" x2="419.2944" y2="66.94120678358132" stroke="#1C1C1C" stroke-opacity="0.18" stroke-width="0.22" />
        <line x1="419.2944" y1="66.94120678358132" x2="438.5808" y2="66.94120678358132" stroke="#1C1C1C" stroke-opacity="0.18" stroke-width="0.22" />
        <line x1="438.5808" y1="66.94120678358132" x2="457.8672" y2="66.94120678358132" stroke="#1C1C1C" stroke-opacity="0.18" stroke-width="0.22" />
        <line x1="313.2192" y1="50.23869443603313" x2="332.5056" y2="50.23869443603313" stroke="#1C1C1C" stroke-opacity="0.18" stroke-width="0.22" />
        <line x1="332.5056" y1="50.23869443603313" x2="351.792" y2="50.23869443603313" stroke="#1C1C1C" stroke-opacity="0.18" stroke-width="0.22" />
        <line x1="351.792" y1="50.23869443603313" x2="371.0784" y2="50.23869443603313" stroke="#1C1C1C" stroke-opacity="0.18" stroke-width="0.22" />
        <line x1="371.0784" y1="50.23869443603313" x2="390.3648" y2="50.23869443603313" stroke="#1C1C1C" stroke-opacity="0.18" stroke-width="0.22" />
        <line x1="390.3648" y1="50.23869443603313" x2="409.6512" y2="50.23869443603313" stroke="#1C1C1C" stroke-opacity="0.18" stroke-width="0.22" />
        <line x1="409.6512" y1="50.23869443603313" x2="428.9376" y2="50.23869443603313" stroke="#1C1C1C" stroke-opacity="0.18" stroke-width="0.22" />
        <line x1="428.9376" y1="50.23869443603313" x2="448.224" y2="50.23869443603313" stroke="#1C1C1C" stroke-opacity="0.18" stroke-width="0.22" />
        <line x1="448.224" y1="50.23869443603313" x2="467.5104" y2="50.23869443603313" stroke="#1C1C1C" stroke-opacity="0.18" stroke-width="0.22" />
        <line x1="322.8624" y1="33.536182088484935" x2="342.1488" y2="33.536182088484935" stroke="#1C1C1C" stroke-opacity="0.18" stroke-width="0.22" />
        <line x1="342.1488" y1="33.536182088484935" x2="361.4352" y2="33.536182088484935" stroke="#1C1C1C" stroke-opacity="0.18" stroke-width="0.22" />
        <line x1="361.4352" y1="33.536182088484935" x2="380.72159999999997" y2="33.536182088484935" stroke="#1C1C1C" stroke-opacity="0.18" stroke-width="0.22" />
        <line x1="380.72159999999997" y1="33.536182088484935" x2="400.008" y2="33.536182088484935" stroke="#1C1C1C" stroke-opacity="0.18" stroke-width="0.22" />
        <line x1="400.008" y1="33.536182088484935" x2="419.2944" y2="33.536182088484935" stroke="#1C1C1C" stroke-opacity="0.18" stroke-width="0.22" />
        <line x1="419.2944" y1="33.536182088484935" x2="438.5808" y2="33.536182088484935" stroke="#1C1C1C" stroke-opacity="0.18" stroke-width="0.22" />
        <line x1="438.5808" y1="33.536182088484935" x2="457.8672" y2="33.536182088484935" stroke="#1C1C1C" stroke-opacity="0.18" stroke-width="0.22" />
        <line x1="457.8672" y1="33.536182088484935" x2="477.1536" y2="33.536182088484935" stroke="#1C1C1C" stroke-opacity="0.18" stroke-width="0.22" />
        <line x1="265.0032" y1="133.75125617377412" x2="274.64639999999997" y2="117.04874382622592" stroke="#1C1C1C" stroke-opacity="0.18" stroke-width="0.22" />
        <line x1="274.64639999999997" y1="117.04874382622592" x2="284.2896" y2="100.34623147867772" stroke="#1C1C1C" stroke-opacity="0.18" stroke-width="0.22" />
        <line x1="284.2896" y1="100.34623147867772" x2="293.9328" y2="83.64371913112953" stroke="#1C1C1C" stroke-opacity="0.18" stroke-width="0.22" />
        <line x1="293.9328" y1="83.64371913112953" x2="303.576" y2="66.94120678358132" stroke="#1C1C1C" stroke-opacity="0.18" stroke-width="0.22" />
        <line x1="303.576" y1="66.94120678358132" x2="313.2192" y2="50.23869443603313" stroke="#1C1C1C" stroke-opacity="0.18" stroke-width="0.22" />
        <line x1="313.2192" y1="50.23869443603313" x2="322.8624" y2="33.536182088484935" stroke="#1C1C1C" stroke-opacity="0.18" stroke-width="0.22" />
        <line x1="284.2896" y1="133.75125617377412" x2="293.9328" y2="117.04874382622592" stroke="#1C1C1C" stroke-opacity="0.18" stroke-width="0.22" />
        <line x1="293.9328" y1="117.04874382622592" x2="303.576" y2="100.34623147867772" stroke="#1C1C1C" stroke-opacity="0.18" stroke-width="0.22" />
        <line x1="303.576" y1="100.34623147867772" x2="313.2192" y2="83.64371913112953" stroke="#1C1C1C" stroke-opacity="0.18" stroke-width="0.22" />
        <line x1="313.2192" y1="83.64371913112953" x2="322.8624" y2="66.94120678358132" stroke="#1C1C1C" stroke-opacity="0.18" stroke-width="0.22" />
        <line x1="322.8624" y1="66.94120678358132" x2="332.5056" y2="50.23869443603313" stroke="#1C1C1C" stroke-opacity="0.18" stroke-width="0.22" />
        <line x1="332.5056" y1="50.23869443603313" x2="342.1488" y2="33.536182088484935" stroke="#1C1C1C" stroke-opacity="0.18" stroke-width="0.22" />
        <line x1="303.576" y1="133.75125617377412" x2="313.2192" y2="117.04874382622592" stroke="#1C1C1C" stroke-opacity="0.18" stroke-width="0.22" />
        <line x1="313.2192" y1="117.04874382622592" x2="322.8624" y2="100.34623147867772" stroke="#1C1C1C" stroke-opacity="0.18" stroke-width="0.22" />
        <line x1="322.8624" y1="100.34623147867772" x2="332.5056" y2="83.64371913112953" stroke="#1C1C1C" stroke-opacity="0.18" stroke-width="0.22" />
        <line x1="332.5056" y1="83.64371913112953" x2="342.1488" y2="66.94120678358132" stroke="#1C1C1C" stroke-opacity="0.18" stroke-width="0.22" />
        <line x1="342.1488" y1="66.94120678358132" x2="351.792" y2="50.23869443603313" stroke="#1C1C1C" stroke-opacity="0.18" stroke-width="0.22" />
        <line x1="351.792" y1="50.23869443603313" x2="361.4352" y2="33.536182088484935" stroke="#1C1C1C" stroke-opacity="0.18" stroke-width="0.22" />
        <line x1="322.8624" y1="133.75125617377412" x2="332.5056" y2="117.04874382622592" stroke="#1C1C1C" stroke-opacity="0.18" stroke-width="0.22" />
        <line x1="332.5056" y1="117.04874382622592" x2="342.1488" y2="100.34623147867772" stroke="#1C1C1C" stroke-opacity="0.18" stroke-width="0.22" />
        <line x1="342.1488" y1="100.34623147867772" x2="351.792" y2="83.64371913112953" stroke="#1C1C1C" stroke-opacity="0.18" stroke-width="0.22" />
        <line x1="351.792" y1="83.64371913112953" x2="361.4352" y2="66.94120678358132" stroke="#1C1C1C" stroke-opacity="0.18" stroke-width="0.22" />
        <line x1="361.4352" y1="66.94120678358132" x2="371.0784" y2="50.23869443603313" stroke="#1C1C1C" stroke-opacity="0.18" stroke-width="0.22" />
        <line x1="371.0784" y1="50.23869443603313" x2="380.72159999999997" y2="33.536182088484935" stroke="#1C1C1C" stroke-opacity="0.18" stroke-width="0.22" />
        <line x1="342.1488" y1="133.75125617377412" x2="351.792" y2="117.04874382622592" stroke="#1C1C1C" stroke-opacity="0.18" stroke-width="0.22" />
        <line x1="351.792" y1="117.04874382622592" x2="361.4352" y2="100.34623147867772" stroke="#1C1C1C" stroke-opacity="0.18" stroke-width="0.22" />
        <line x1="361.4352" y1="100.34623147867772" x2="371.0784" y2="83.64371913112953" stroke="#1C1C1C" stroke-opacity="0.18" stroke-width="0.22" />
        <line x1="371.0784" y1="83.64371913112953" x2="380.72159999999997" y2="66.94120678358132" stroke="#1C1C1C" stroke-opacity="0.18" stroke-width="0.22" />
        <line x1="380.72159999999997" y1="66.94120678358132" x2="390.3648" y2="50.23869443603313" stroke="#1C1C1C" stroke-opacity="0.18" stroke-width="0.22" />
        <line x1="390.3648" y1="50.23869443603313" x2="400.008" y2="33.536182088484935" stroke="#1C1C1C" stroke-opacity="0.18" stroke-width="0.22" />
        <line x1="361.4352" y1="133.75125617377412" x2="371.0784" y2="117.04874382622592" stroke="#1C1C1C" stroke-opacity="0.18" stroke-width="0.22" />
        <line x1="371.0784" y1="117.04874382622592" x2="380.72159999999997" y2="100.34623147867772" stroke="#1C1C1C" stroke-opacity="0.18" stroke-width="0.22" />
        <line x1="380.72159999999997" y1="100.34623147867772" x2="390.3648" y2="83.64371913112953" stroke="#1C1C1C" stroke-opacity="0.18" stroke-width="0.22" />
        <line x1="390.3648" y1="83.64371913112953" x2="400.008" y2="66.94120678358132" stroke="#1C1C1C" stroke-opacity="0.18" stroke-width="0.22" />
        <line x1="400.008" y1="66.94120678358132" x2="409.6512" y2="50.23869443603313" stroke="#1C1C1C" stroke-opacity="0.18" stroke-width="0.22" />
        <line x1="409.6512" y1="50.23869443603313" x2="419.2944" y2="33.536182088484935" stroke="#1C1C1C" stroke-opacity="0.18" stroke-width="0.22" />
        <line x1="380.72159999999997" y1="133.75125617377412" x2="390.3648" y2="117.04874382622592" stroke="#1C1C1C" stroke-opacity="0.18" stroke-width="0.22" />
        <line x1="390.3648" y1="117.04874382622592" x2="400.008" y2="100.34623147867772" stroke="#1C1C1C" stroke-opacity="0.18" stroke-width="0.22" />
        <line x1="400.008" y1="100.34623147867772" x2="409.6512" y2="83.64371913112953" stroke="#1C1C1C" stroke-opacity="0.18" stroke-width="0.22" />
        <line x1="409.6512" y1="83.64371913112953" x2="419.2944" y2="66.94120678358132" stroke="#1C1C1C" stroke-opacity="0.18" stroke-width="0.22" />
        <line x1="419.2944" y1="66.94120678358132" x2="428.9376" y2="50.23869443603313" stroke="#1C1C1C" stroke-opacity="0.18" stroke-width="0.22" />
        <line x1="428.9376" y1="50.23869443603313" x2="438.5808" y2="33.536182088484935" stroke="#1C1C1C" stroke-opacity="0.18" stroke-width="0.22" />
        <line x1="400.008" y1="133.75125617377412" x2="409.6512" y2="117.04874382622592" stroke="#1C1C1C" stroke-opacity="0.18" stroke-width="0.22" />
        <line x1="409.6512" y1="117.04874382622592" x2="419.2944" y2="100.34623147867772" stroke="#1C1C1C" stroke-opacity="0.18" stroke-width="0.22" />
        <line x1="419.2944" y1="100.34623147867772" x2="428.9376" y2="83.64371913112953" stroke="#1C1C1C" stroke-opacity="0.18" stroke-width="0.22" />
        <line x1="428.9376" y1="83.64371913112953" x2="438.5808" y2="66.94120678358132" stroke="#1C1C1C" stroke-opacity="0.18" stroke-width="0.22" />
        <line x1="438.5808" y1="66.94120678358132" x2="448.224" y2="50.23869443603313" stroke="#1C1C1C" stroke-opacity="0.18" stroke-width="0.22" />
        <line x1="448.224" y1="50.23869443603313" x2="457.8672" y2="33.536182088484935" stroke="#1C1C1C" stroke-opacity="0.18" stroke-width="0.22" />
        <line x1="419.2944" y1="133.75125617377412" x2="428.9376" y2="117.04874382622592" stroke="#1C1C1C" stroke-opacity="0.18" stroke-width="0.22" />
        <line x1="428.9376" y1="117.04874382622592" x2="438.5808" y2="100.34623147867772" stroke="#1C1C1C" stroke-opacity="0.18" stroke-width="0.22" />
        <line x1="438.5808" y1="100.34623147867772" x2="448.224" y2="83.64371913112953" stroke="#1C1C1C" stroke-opacity="0.18" stroke-width="0.22" />
        <line x1="448.224" y1="83.64371913112953" x2="457.8672" y2="66.94120678358132" stroke="#1C1C1C" stroke-opacity="0.18" stroke-width="0.22" />
        <line x1="457.8672" y1="66.94120678358132" x2="467.5104" y2="50.23869443603313" stroke="#1C1C1C" stroke-opacity="0.18" stroke-width="0.22" />
        <line x1="467.5104" y1="50.23869443603313" x2="477.1536" y2="33.536182088484935" stroke="#1C1C1C" stroke-opacity="0.18" stroke-width="0.22" />
        <line x1="274.64639999999997" y1="117.04874382622592" x2="284.2896" y2="133.75125617377412" stroke="#1C1C1C" stroke-opacity="0.18" stroke-width="0.22" />
        <line x1="284.2896" y1="100.34623147867772" x2="293.9328" y2="117.04874382622592" stroke="#1C1C1C" stroke-opacity="0.18" stroke-width="0.22" />
        <line x1="293.9328" y1="117.04874382622592" x2="303.576" y2="133.75125617377412" stroke="#1C1C1C" stroke-opacity="0.18" stroke-width="0.22" />
        <line x1="293.9328" y1="83.64371913112953" x2="303.576" y2="100.34623147867772" stroke="#1C1C1C" stroke-opacity="0.18" stroke-width="0.22" />
        <line x1="303.576" y1="100.34623147867772" x2="313.2192" y2="117.04874382622592" stroke="#1C1C1C" stroke-opacity="0.18" stroke-width="0.22" />
        <line x1="313.2192" y1="117.04874382622592" x2="322.8624" y2="133.75125617377412" stroke="#1C1C1C" stroke-opacity="0.18" stroke-width="0.22" />
        <line x1="303.576" y1="66.94120678358132" x2="313.2192" y2="83.64371913112953" stroke="#1C1C1C" stroke-opacity="0.18" stroke-width="0.22" />
        <line x1="313.2192" y1="83.64371913112953" x2="322.8624" y2="100.34623147867772" stroke="#1C1C1C" stroke-opacity="0.18" stroke-width="0.22" />
        <line x1="322.8624" y1="100.34623147867772" x2="332.5056" y2="117.04874382622592" stroke="#1C1C1C" stroke-opacity="0.18" stroke-width="0.22" />
        <line x1="332.5056" y1="117.04874382622592" x2="342.1488" y2="133.75125617377412" stroke="#1C1C1C" stroke-opacity="0.18" stroke-width="0.22" />
        <line x1="313.2192" y1="50.23869443603313" x2="322.8624" y2="66.94120678358132" stroke="#1C1C1C" stroke-opacity="0.18" stroke-width="0.22" />
        <line x1="322.8624" y1="66.94120678358132" x2="332.5056" y2="83.64371913112953" stroke="#1C1C1C" stroke-opacity="0.18" stroke-width="0.22" />
        <line x1="332.5056" y1="83.64371913112953" x2="342.1488" y2="100.34623147867772" stroke="#1C1C1C" stroke-opacity="0.18" stroke-width="0.22" />
        <line x1="342.1488" y1="100.34623147867772" x2="351.792" y2="117.04874382622592" stroke="#1C1C1C" stroke-opacity="0.18" stroke-width="0.22" />
        <line x1="351.792" y1="117.04874382622592" x2="361.4352" y2="133.75125617377412" stroke="#1C1C1C" stroke-opacity="0.18" stroke-width="0.22" />
        <line x1="322.8624" y1="33.536182088484935" x2="332.5056" y2="50.23869443603313" stroke="#1C1C1C" stroke-opacity="0.18" stroke-width="0.22" />
        <line x1="332.5056" y1="50.23869443603313" x2="342.1488" y2="66.94120678358132" stroke="#1C1C1C" stroke-opacity="0.18" stroke-width="0.22" />
        <line x1="342.1488" y1="66.94120678358132" x2="351.792" y2="83.64371913112953" stroke="#1C1C1C" stroke-opacity="0.18" stroke-width="0.22" />
        <line x1="351.792" y1="83.64371913112953" x2="361.4352" y2="100.34623147867772" stroke="#1C1C1C" stroke-opacity="0.18" stroke-width="0.22" />
        <line x1="361.4352" y1="100.34623147867772" x2="371.0784" y2="117.04874382622592" stroke="#1C1C1C" stroke-opacity="0.18" stroke-width="0.22" />
        <line x1="371.0784" y1="117.04874382622592" x2="380.72159999999997" y2="133.75125617377412" stroke="#1C1C1C" stroke-opacity="0.18" stroke-width="0.22" />
        <line x1="342.1488" y1="33.536182088484935" x2="351.792" y2="50.23869443603313" stroke="#1C1C1C" stroke-opacity="0.18" stroke-width="0.22" />
        <line x1="351.792" y1="50.23869443603313" x2="361.4352" y2="66.94120678358132" stroke="#1C1C1C" stroke-opacity="0.18" stroke-width="0.22" />
        <line x1="361.4352" y1="66.94120678358132" x2="371.0784" y2="83.64371913112953" stroke="#1C1C1C" stroke-opacity="0.18" stroke-width="0.22" />
        <line x1="371.0784" y1="83.64371913112953" x2="380.72159999999997" y2="100.34623147867772" stroke="#1C1C1C" stroke-opacity="0.18" stroke-width="0.22" />
        <line x1="380.72159999999997" y1="100.34623147867772" x2="390.3648" y2="117.04874382622592" stroke="#1C1C1C" stroke-opacity="0.18" stroke-width="0.22" />
        <line x1="390.3648" y1="117.04874382622592" x2="400.008" y2="133.75125617377412" stroke="#1C1C1C" stroke-opacity="0.18" stroke-width="0.22" />
        <line x1="361.4352" y1="33.536182088484935" x2="371.0784" y2="50.23869443603313" stroke="#1C1C1C" stroke-opacity="0.18" stroke-width="0.22" />
        <line x1="371.0784" y1="50.23869443603313" x2="380.72159999999997" y2="66.94120678358132" stroke="#1C1C1C" stroke-opacity="0.18" stroke-width="0.22" />
        <line x1="380.72159999999997" y1="66.94120678358132" x2="390.3648" y2="83.64371913112953" stroke="#1C1C1C" stroke-opacity="0.18" stroke-width="0.22" />
        <line x1="390.3648" y1="83.64371913112953" x2="400.008" y2="100.34623147867772" stroke="#1C1C1C" stroke-opacity="0.18" stroke-width="0.22" />
        <line x1="400.008" y1="100.34623147867772" x2="409.6512" y2="117.04874382622592" stroke="#1C1C1C" stroke-opacity="0.18" stroke-width="0.22" />
        <line x1="409.6512" y1="117.04874382622592" x2="419.2944" y2="133.75125617377412" stroke="#1C1C1C" stroke-opacity="0.18" stroke-width="0.22" />
        <line x1="380.72159999999997" y1="33.536182088484935" x2="390.3648" y2="50.23869443603313" stroke="#1C1C1C" stroke-opacity="0.18" stroke-width="0.22" />
        <line x1="390.3648" y1="50.23869443603313" x2="400.008" y2="66.94120678358132" stroke="#1C1C1C" stroke-opacity="0.18" stroke-width="0.22" />
        <line x1="400.008" y1="66.94120678358132" x2="409.6512" y2="83.64371913112953" stroke="#1C1C1C" stroke-opacity="0.18" stroke-width="0.22" />
        <line x1="409.6512" y1="83.64371913112953" x2="419.2944" y2="100.34623147867772" stroke="#1C1C1C" stroke-opacity="0.18" stroke-width="0.22" />
        <line x1="419.2944" y1="100.34623147867772" x2="428.9376" y2="117.04874382622592" stroke="#1C1C1C" stroke-opacity="0.18" stroke-width="0.22" />
        <line x1="400.008" y1="33.536182088484935" x2="409.6512" y2="50.23869443603313" stroke="#1C1C1C" stroke-opacity="0.18" stroke-width="0.22" />
        <line x1="409.6512" y1="50.23869443603313" x2="419.2944" y2="66.94120678358132" stroke="#1C1C1C" stroke-opacity="0.18" stroke-width="0.22" />
        <line x1="419.2944" y1="66.94120678358132" x2="428.9376" y2="83.64371913112953" stroke="#1C1C1C" stroke-opacity="0.18" stroke-width="0.22" />
        <line x1="428.9376" y1="83.64371913112953" x2="438.5808" y2="100.34623147867772" stroke="#1C1C1C" stroke-opacity="0.18" stroke-width="0.22" />
        <line x1="419.2944" y1="33.536182088484935" x2="428.9376" y2="50.23869443603313" stroke="#1C1C1C" stroke-opacity="0.18" stroke-width="0.22" />
        <line x1="428.9376" y1="50.23869443603313" x2="438.5808" y2="66.94120678358132" stroke="#1C1C1C" stroke-opacity="0.18" stroke-width="0.22" />
        <line x1="438.5808" y1="66.94120678358132" x2="448.224" y2="83.64371913112953" stroke="#1C1C1C" stroke-opacity="0.18" stroke-width="0.22" />
        <line x1="438.5808" y1="33.536182088484935" x2="448.224" y2="50.23869443603313" stroke="#1C1C1C" stroke-opacity="0.18" stroke-width="0.22" />
        <line x1="448.224" y1="50.23869443603313" x2="457.8672" y2="66.94120678358132" stroke="#1C1C1C" stroke-opacity="0.18" stroke-width="0.22" />
        <line x1="457.8672" y1="33.536182088484935" x2="467.5104" y2="50.23869443603313" stroke="#1C1C1C" stroke-opacity="0.18" stroke-width="0.22" />
      </g>
      <polygon points="342.1488,100.3462 361.4352,100.3462 380.7216,100.3462 400.0080,100.3462 409.6512,83.6437 390.3648,83.6437 400.0080,66.9412 380.7216,66.9412 390.3648,50.2387 371.0784,50.2387 361.4352,66.9412 342.1488,66.9412 332.5056,83.6437" fill="#1C1C1C" opacity="0.55" stroke="#1C1C1C" stroke-width="0.35" stroke-opacity="0.85" />
      <circle cx="342.1488" cy="100.34623147867772" r="1.69344" fill="#8B0000" stroke="none" />
      <text x="337.8794321928194" y="102.42302202030577" font-family="'Playfair Display', Georgia, 'Times New Roman', serif" font-size="6.12" fill="#1C1C1C" text-anchor="middle">1</text>
      <text x="337.8794321928194" y="109.19678202030576" font-family="'Playfair Display', Georgia, 'Times New Roman', serif" font-size="4.52" fill="#1C1C1C" text-anchor="middle">(0,0)</text>
      <circle cx="361.4352" cy="100.34623147867772" r="1.69344" fill="#8B0000" stroke="none" />
      <text x="358.848" y="103.98067332801992" font-family="'Playfair Display', Georgia, 'Times New Roman', serif" font-size="6.12" fill="#1C1C1C" text-anchor="middle">2</text>
      <text x="358.848" y="110.75443332801991" font-family="'Playfair Display', Georgia, 'Times New Roman', serif" font-size="4.52" fill="#1C1C1C" text-anchor="middle">(1,0)</text>
      <circle cx="380.72159999999997" cy="100.34623147867772" r="1.69344" fill="#8B0000" stroke="none" />
      <text x="382.2341102936358" y="104.44791808804659" font-family="'Playfair Display', Georgia, 'Times New Roman', serif" font-size="6.12" fill="#1C1C1C" text-anchor="middle">3</text>
      <text x="382.2341102936358" y="111.22167808804659" font-family="'Playfair Display', Georgia, 'Times New Roman', serif" font-size="4.52" fill="#1C1C1C" text-anchor="middle">(2,0)</text>
      <circle cx="400.008" cy="100.34623147867772" r="1.69344" fill="#8B0000" stroke="none" />
      <text x="403.96756249973305" y="102.83061942810048" font-family="'Playfair Display', Georgia, 'Times New Roman', serif" font-size="6.12" fill="#1C1C1C" text-anchor="middle">4</text>
      <text x="403.96756249973305" y="109.60437942810047" font-family="'Playfair Display', Georgia, 'Times New Roman', serif" font-size="4.52" fill="#1C1C1C" text-anchor="middle">(3,0)</text>
      <circle cx="409.6512" cy="83.64371913112953" r="1.69344" fill="#8B0000" stroke="none" />
      <text x="414.77252782781966" y="83.53619913112952" font-family="'Playfair Display', Georgia, 'Times New Roman', serif" font-size="6.12" fill="#1C1C1C" text-anchor="middle">5</text>
      <text x="414.77252782781966" y="90.30995913112952" font-family="'Playfair Display', Georgia, 'Times New Roman', serif" font-size="4.52" fill="#1C1C1C" text-anchor="middle">(3,1)</text>
      <circle cx="390.3648" cy="83.64371913112953" r="1.69344" fill="#8B0000" stroke="none" />
      <text x="395.3002512089362" y="84.35126317697583" font-family="'Playfair Display', Georgia, 'Times New Roman', serif" font-size="6.12" fill="#1C1C1C" text-anchor="middle">6</text>
      <text x="395.3002512089362" y="91.12502317697583" font-family="'Playfair Display', Georgia, 'Times New Roman', serif" font-size="4.52" fill="#1C1C1C" text-anchor="middle">(2,1)</text>
      <circle cx="400.008" cy="66.94120678358132" r="1.69344" fill="#8B0000" stroke="none" />
      <text x="404.73477592420056" y="63.989254083284784" font-family="'Playfair Display', Georgia, 'Times New Roman', serif" font-size="6.12" fill="#1C1C1C" text-anchor="middle">7</text>
      <text x="404.73477592420056" y="70.76301408328479" font-family="'Playfair Display', Georgia, 'Times New Roman', serif" font-size="4.52" fill="#1C1C1C" text-anchor="middle">(2,2)</text>
      <circle cx="380.72159999999997" cy="66.94120678358132" r="1.69344" fill="#8B0000" stroke="none" />
      <text x="383.30879999999996" y="61.61332493423912" font-family="'Playfair Display', Georgia, 'Times New Roman', serif" font-size="6.12" fill="#1C1C1C" text-anchor="middle">8</text>
      <text x="383.30879999999996" y="68.38708493423911" font-family="'Playfair Display', Georgia, 'Times New Roman', serif" font-size="4.52" fill="#1C1C1C" text-anchor="middle">(1,2)</text>
      <circle cx="390.3648" cy="50.23869443603313" r="1.69344" fill="#8B0000" stroke="none" />
      <text x="392.952" y="44.91081258669093" font-family="'Playfair Display', Georgia, 'Times New Roman', serif" font-size="6.12" fill="#1C1C1C" text-anchor="middle">9</text>
      <text x="392.952" y="51.68457258669093" font-family="'Playfair Display', Georgia, 'Times New Roman', serif" font-size="4.52" fill="#1C1C1C" text-anchor="middle">(1,3)</text>
      <circle cx="371.0784" cy="50.23869443603313" r="1.69344" fill="#8B0000" stroke="none" />
      <text x="370.5381970372342" y="44.245850057530504" font-family="'Playfair Display', Georgia, 'Times New Roman', serif" font-size="6.12" fill="#1C1C1C" text-anchor="middle">10</text>
      <text x="370.5381970372342" y="51.01961005753051" font-family="'Playfair Display', Georgia, 'Times New Roman', serif" font-size="4.52" fill="#1C1C1C" text-anchor="middle">(0,3)</text>
      <circle cx="361.4352" cy="66.94120678358132" r="1.69344" fill="#8B0000" stroke="none" />
      <text x="357.62144224764023" y="62.597392680427134" font-family="'Playfair Display', Georgia, 'Times New Roman', serif" font-size="6.12" fill="#1C1C1C" text-anchor="middle">11</text>
      <text x="357.62144224764023" y="69.37115268042713" font-family="'Playfair Display', Georgia, 'Times New Roman', serif" font-size="4.52" fill="#1C1C1C" text-anchor="middle">(0,2)</text>
      <circle cx="342.1488" cy="66.94120678358132" r="1.69344" fill="#8B0000" stroke="none" />
      <text x="337.28419464318506" y="64.33095904565162" font-family="'Playfair Display', Georgia, 'Times New Roman', serif" font-size="6.12" fill="#1C1C1C" text-anchor="middle">12</text>
      <text x="337.28419464318506" y="71.10471904565162" font-family="'Playfair Display', Georgia, 'Times New Roman', serif" font-size="4.52" fill="#1C1C1C" text-anchor="middle">(-1,2)</text>
      <circle cx="332.5056" cy="83.64371913112953" r="1.69344" fill="#8B0000" stroke="none" />
      <text x="327.3703511299268" y="83.43232141344934" font-family="'Playfair Display', Georgia, 'Times New Roman', serif" font-size="6.12" fill="#1C1C1C" text-anchor="middle">13</text>
      <text x="327.3703511299268" y="90.20608141344934" font-family="'Playfair Display', Georgia, 'Times New Roman', serif" font-size="4.52" fill="#1C1C1C" text-anchor="middle">(-1,1)</text>
      <text x="371.0784" y="38.94909443603313" font-family="'Playfair Display', Georgia, 'Times New Roman', serif" font-size="7.06" fill="#8B0000" text-anchor="middle">Canonical 13-Vertex Hat Construction</text>
      <rect x="339.0912" y="106.69663147867773" width="11.289600000000002" height="6.115200000000001" fill="#1C1C1C" opacity="0.75" stroke="#1C1C1C" stroke-width="0.25" />
      <text x="354.33216" y="109.75423147867772" font-family="'Playfair Display', Georgia, 'Times New Roman', serif" font-size="5.64" fill="#1C1C1C" dominant-baseline="middle">Unreflected</text>
      <rect x="374.8416" y="106.69663147867773" width="11.289600000000002" height="6.115200000000001" fill="#2E5090" opacity="0.75" stroke="#1C1C1C" stroke-width="0.25" />
      <text x="390.08256" y="109.75423147867772" font-family="'Playfair Display', Georgia, 'Times New Roman', serif" font-size="5.64" fill="#1C1C1C" dominant-baseline="middle">Reflected</text>
    </g>
  </g>
  <g id="annotations">
    <line x1="63.0" y1="427.79999999999995" x2="357.0" y2="427.79999999999995" stroke="#8B0000" stroke-width="0.3" opacity="0.5" />
    <g>
      <circle cx="63.0" cy="437.79999999999995" r="1.0" fill="#8B0000" />
      <text x="63.0" y="447.79999999999995" font-family="'Inter', 'Helvetica Neue', Arial, sans-serif, system-ui, -apple-system, 'Segoe UI', Roboto, 'Apple Color Emoji', 'Segoe UI Emoji', 'Segoe UI Symbol'" fill="#8B0000" font-size="5.0" text-anchor="middle">The Einstein Tile</text>
      <text x="63.0" y="454.79999999999995" font-family="'Inter', 'Helvetica Neue', Arial, sans-serif, system-ui, -apple-system, 'Segoe UI', Roboto, 'Apple Color Emoji', 'Segoe UI Emoji', 'Segoe UI Symbol'" fill="#1C1C1C" font-size="3.8" text-anchor="middle">
        <tspan x="63.0" dy="0">‘Ein Stein’ — German for ‘one</tspan>
        <tspan x="63.0" dy="5.0">stone’ — names the dream of a single</tspan>
        <tspan x="63.0" dy="5.0">shape that tiles the entire plane</tspan>
        <tspan x="63.0" dy="5.0">yet can never do so periodically.</tspan>
        <tspan x="63.0" dy="5.0">The Hat is the first monotile proven</tspan>
        <tspan x="63.0" dy="5.0">to be aperiodic (with reflected copies).</tspan>
      </text>
    </g>
    <g>
      <circle cx="210.0" cy="437.79999999999995" r="1.0" fill="#8B0000" />
      <text x="210.0" y="447.79999999999995" font-family="'Inter', 'Helvetica Neue', Arial, sans-serif, system-ui, -apple-system, 'Segoe UI', Roboto, 'Apple Color Emoji', 'Segoe UI Emoji', 'Segoe UI Symbol'" fill="#8B0000" font-size="5.0" text-anchor="middle">Aperiodic Order</text>
      <text x="210.0" y="454.79999999999995" font-family="'Inter', 'Helvetica Neue', Arial, sans-serif, system-ui, -apple-system, 'Segoe UI', Roboto, 'Apple Color Emoji', 'Segoe UI Emoji', 'Segoe UI Symbol'" fill="#1C1C1C" font-size="3.8" text-anchor="middle">
        <tspan x="210.0" dy="0">The Hat fills the plane edge to</tspan>
        <tspan x="210.0" dy="5.0">edge with no gaps or overlaps, yet</tspan>
        <tspan x="210.0" dy="5.0">no translation can map the tiling</tspan>
        <tspan x="210.0" dy="5.0">onto itself. Every finite patch</tspan>
        <tspan x="210.0" dy="5.0">recurs infinitely often, but the</tspan>
        <tspan x="210.0" dy="5.0">whole pattern never repeats.</tspan>
      </text>
    </g>
    <g>
      <circle cx="357.0" cy="437.79999999999995" r="1.0" fill="#8B0000" />
      <text x="357.0" y="447.79999999999995" font-family="'Inter', 'Helvetica Neue', Arial, sans-serif, system-ui, -apple-system, 'Segoe UI', Roboto, 'Apple Color Emoji', 'Segoe UI Emoji', 'Segoe UI Symbol'" fill="#8B0000" font-size="5.0" text-anchor="middle">A Simple Shape</text>
      <text x="357.0" y="454.79999999999995" font-family="'Inter', 'Helvetica Neue', Arial, sans-serif, system-ui, -apple-system, 'Segoe UI', Roboto, 'Apple Color Emoji', 'Segoe UI Emoji', 'Segoe UI Symbol'" fill="#1C1C1C" font-size="3.8" text-anchor="middle">
        <tspan x="357.0" dy="0">Just 13 sides and 8 kite shapes</tspan>
        <tspan x="357.0" dy="5.0">compose the Hat — a polykite on the</tspan>
        <tspan x="357.0" dy="5.0">triangular grid. Its outline is so</tspan>
        <tspan x="357.0" dy="5.0">simple it can be drawn by hand, yet</tspan>
        <tspan x="357.0" dy="5.0">its tiling behaviour is profoundly</tspan>
        <tspan x="357.0" dy="5.0">complex and inherently non-periodic.</tspan>
      </text>
    </g>
  </g>
  <g id="educational">
    <line x1="63.0" y1="500.79999999999995" x2="357.0" y2="500.79999999999995" stroke="#8B0000" stroke-width="0.3" opacity="0.35" />
    <g>
      <text x="63.0" y="514.8" font-family="'Inter', 'Helvetica Neue', Arial, sans-serif, system-ui, -apple-system, 'Segoe UI', Roboto, 'Apple Color Emoji', 'Segoe UI Emoji', 'Segoe UI Symbol'" fill="#8B0000" font-size="5.0" text-anchor="middle">How the Hat Tiles</text>
      <text x="63.0" y="521.8" font-family="'Inter', 'Helvetica Neue', Arial, sans-serif, system-ui, -apple-system, 'Segoe UI', Roboto, 'Apple Color Emoji', 'Segoe UI Emoji', 'Segoe UI Symbol'" fill="#1C1C1C" font-size="3.8" text-anchor="middle">
        <tspan x="63.0" dy="0">The Hat tiles through a hierarchical</tspan>
        <tspan x="63.0" dy="5.0">substitution system. Small clusters</tspan>
        <tspan x="63.0" dy="5.0">of Hats combine into four metatile</tspan>
        <tspan x="63.0" dy="5.0">types (H, T, P, F) that themselves</tspan>
        <tspan x="63.0" dy="5.0">tile by substitution. About one in</tspan>
        <tspan x="63.0" dy="5.0">every seven Hats is a reflected copy;</tspan>
        <tspan x="63.0" dy="5.0">the rest are unreflected, ensuring</tspan>
        <tspan x="63.0" dy="5.0">the pattern never repeats.</tspan>
      </text>
    </g>
    <g>
      <text x="210.0" y="514.8" font-family="'Inter', 'Helvetica Neue', Arial, sans-serif, system-ui, -apple-system, 'Segoe UI', Roboto, 'Apple Color Emoji', 'Segoe UI Emoji', 'Segoe UI Symbol'" fill="#8B0000" font-size="5.0" text-anchor="middle">The Discovery</text>
      <text x="210.0" y="521.8" font-family="'Inter', 'Helvetica Neue', Arial, sans-serif, system-ui, -apple-system, 'Segoe UI', Roboto, 'Apple Color Emoji', 'Segoe UI Emoji', 'Segoe UI Symbol'" fill="#1C1C1C" font-size="3.8" text-anchor="middle">
        <tspan x="210.0" dy="0">In late 2022, hobbyist David Smith</tspan>
        <tspan x="210.0" dy="5.0">noticed a curious shape while playing</tspan>
        <tspan x="210.0" dy="5.0">with paper cut-outs. Teaming with</tspan>
        <tspan x="210.0" dy="5.0">mathematicians Myers, Kaplan, and</tspan>
        <tspan x="210.0" dy="5.0">Goodman-Strauss, they proved it was</tspan>
        <tspan x="210.0" dy="5.0">a true aperiodic monotile — solving</tspan>
        <tspan x="210.0" dy="5.0">a problem open for over 60 years.</tspan>
        <tspan x="210.0" dy="5.0">Their paper appeared in March 2023.</tspan>
      </text>
    </g>
    <g>
      <text x="357.0" y="514.8" font-family="'Inter', 'Helvetica Neue', Arial, sans-serif, system-ui, -apple-system, 'Segoe UI', Roboto, 'Apple Color Emoji', 'Segoe UI Emoji', 'Segoe UI Symbol'" fill="#8B0000" font-size="5.0" text-anchor="middle">Mathematical Significance</text>
      <text x="357.0" y="521.8" font-family="'Inter', 'Helvetica Neue', Arial, sans-serif, system-ui, -apple-system, 'Segoe UI', Roboto, 'Apple Color Emoji', 'Segoe UI Emoji', 'Segoe UI Symbol'" fill="#1C1C1C" font-size="3.8" text-anchor="middle">
        <tspan x="357.0" dy="0">The Hat requires reflections: some</tspan>
        <tspan x="357.0" dy="5.0">tiles are mirrored copies. In May</tspan>
        <tspan x="357.0" dy="5.0">2023 the same team unveiled the</tspan>
        <tspan x="357.0" dy="5.0">‘Spectre’ — a modified monotile that</tspan>
        <tspan x="357.0" dy="5.0">tiles aperiodically without any</tspan>
        <tspan x="357.0" dy="5.0">reflections at all. Together these</tspan>
        <tspan x="357.0" dy="5.0">discoveries reshape our fundamental</tspan>
        <tspan x="357.0" dy="5.0">understanding of geometric order.</tspan>
      </text>
    </g>
  </g>
  <text x="210.0" y="576.0" font-family="'Inter', 'Helvetica Neue', Arial, sans-serif, system-ui, -apple-system, 'Segoe UI', Roboto, 'Apple Color Emoji', 'Segoe UI Emoji', 'Segoe UI Symbol'" font-size="4.0" fill="#555555" text-anchor="middle">The Hat monotile — discovered by Smith, Myers, Kaplan &amp; Goodman-Strauss, 2023.</text>
  <text x="210.0" y="582.0" font-family="'Inter', 'Helvetica Neue', Arial, sans-serif, system-ui, -apple-system, 'Segoe UI', Roboto, 'Apple Color Emoji', 'Segoe UI Emoji', 'Segoe UI Symbol'" font-size="3.5" fill="#777777" text-anchor="middle">Generated with 2 iterations  ·  169 tiles rendered  ·  13 vertices · 8 kites</text>
  <rect x="4" y="4" width="412" height="586" fill="none" stroke="#1C1C1C" stroke-width="0.8" />
  <rect x="7" y="7" width="406" height="580" fill="none" stroke="#1C1C1C" stroke-width="0.2" />
</svg>