<?xml version='1.0' encoding='utf-8'?>
<svg xmlns="http://www.w3.org/2000/svg" version="1.1" width="420mm" height="594mm" viewBox="0 0 420 594">
  <style>@import url('https://fonts.googleapis.com/css2?family=Playfair+Display:ital,wght@0,400;0,700;1,400&amp;family=Inter:wght@300;400;500&amp;display=swap');</style>
  <rect x="0" y="0" width="420" height="594" fill="#FFFEF8" />
  <text x="210.0" y="27.918" font-family="'Playfair Display', Georgia, 'Times New Roman', serif" font-size="16.0" fill="#1C1C1C" text-anchor="middle">The Hat Monotile</text>
  <text x="210.0" y="38.016" font-family="'Inter', 'Helvetica Neue', Arial, sans-serif, system-ui, -apple-system, 'Segoe UI', Roboto, 'Apple Color Emoji', 'Segoe UI Emoji', 'Segoe UI Symbol'" font-size="6.0" fill="#8B0000" text-anchor="middle">A single shape that tiles the plane, but never periodically</text>
  <line x1="63.0" y1="43.955999999999996" x2="357.0" y2="43.955999999999996" stroke="#8B0000" stroke-width="0.4" />
  <defs>
    <marker id="arrowhead" markerWidth="6" markerHeight="6" refX="3" refY="3" orient="auto">
      <circle cx="3" cy="3" r="2" fill="#8B0000" />
    </marker>
  </defs>
  <g id="hat-tiling">
    <polygon points="210.0000,244.7280 225.0480,244.7280 240.0960,244.7280 262.6680,257.7600 255.1440,270.7919 262.6680,283.8239 247.6200,283.8239 232.5720,283.8239 225.0480,270.7919 210.0000,270.7919 202.4760,257.7600 217.5240,257.7600 232.5720,257.7600" fill="#1C1C1C" opacity="0.75" stroke="#1C1C1C" stroke-width="0.15" stroke-opacity="0.3" />
    <polygon points="247.6200,257.7600 262.6680,257.7600 277.7160,257.7600 300.2880,244.7280 292.7640,231.6960 300.2880,218.6641 285.2400,218.6641 270.1920,218.6641 262.6680,231.6960 247.6200,231.6960 240.0960,244.7280 255.1440,244.7280 270.1920,244.7280" fill="#2E5090" opacity="0.75" stroke="#1C1C1C" stroke-width="0.15" stroke-opacity="0.3" />
    <polygon points="225.0480,296.8558 232.5720,309.8878 240.0960,322.9197 240.0960,348.9836 225.0480,348.9836 217.5240,362.0156 210.0000,348.9836 202.4760,335.9517 210.0000,322.9197 202.4760,309.8878 210.0000,296.8558 217.5240,309.8878 225.0480,322.9197" fill="#1C1C1C" opacity="0.75" stroke="#1C1C1C" stroke-width="0.15" stroke-opacity="0.3" />
    <polygon points="187.4280,283.8239 179.9040,296.8558 172.3800,309.8878 172.3800,335.9517 187.4280,335.9517 194.9520,348.9836 202.4760,335.9517 210.0000,322.9197 202.4760,309.8878 210.0000,296.8558 202.4760,283.8239 194.9520,296.8558 187.4280,309.8878" fill="#2E5090" opacity="0.75" stroke="#1C1C1C" stroke-width="0.15" stroke-opacity="0.3" />
    <polygon points="172.3800,231.6960 157.3320,231.6960 142.2840,231.6960 119.7120,218.6641 127.2360,205.6321 119.7120,192.6002 134.7600,192.6002 149.8080,192.6002 157.3320,205.6321 172.3800,205.6321 179.9040,218.6641 164.8560,218.6641 149.8080,218.6641" fill="#1C1C1C" opacity="0.75" stroke="#1C1C1C" stroke-width="0.15" stroke-opacity="0.3" />
    <polygon points="194.9520,192.6002 202.4760,205.6321 210.0000,218.6641 232.5720,231.6960 240.0960,218.6641 255.1440,218.6641 247.6200,205.6321 240.0960,192.6002 225.0480,192.6002 217.5240,179.5682 202.4760,179.5682 210.0000,192.6002 217.5240,205.6321" fill="#2E5090" opacity="0.75" stroke="#1C1C1C" stroke-width="0.15" stroke-opacity="0.3" />
    <polygon points="232.5720,205.6321 247.6200,205.6321 262.6680,205.6321 285.2400,218.6641 277.7160,231.6960 285.2400,244.7280 270.1920,244.7280 255.1440,244.7280 247.6200,231.6960 232.5720,231.6960 225.0480,218.6641 240.0960,218.6641 255.1440,218.6641" fill="#1C1C1C" opacity="0.75" stroke="#1C1C1C" stroke-width="0.15" stroke-opacity="0.3" />
    <polygon points="268.6438,278.5860 283.6918,278.5860 298.7398,278.5860 321.3118,291.6180 313.7878,304.6499 321.3118,317.6819 306.2638,317.6819 291.2158,317.6819 283.6918,304.6499 268.6438,304.6499 261.1198,291.6180 276.1678,291.6180 291.2158,291.6180" fill="#1C1C1C" opacity="0.75" stroke="#1C1C1C" stroke-width="0.15" stroke-opacity="0.3" />
    <polygon points="306.2638,291.6180 321.3118,291.6180 336.3598,291.6180 358.9318,278.5860 351.4078,265.5540 358.9318,252.5221 343.8838,252.5221 328.8358,252.5221 321.3118,265.5540 306.2638,265.5540 298.7398,278.5860 313.7878,278.5860 328.8358,278.5860" fill="#2E5090" opacity="0.75" stroke="#1C1C1C" stroke-width="0.15" stroke-opacity="0.3" />
    <polygon points="283.6918,330.7138 291.2158,343.7458 298.7398,356.7777 298.7398,382.8416 283.6918,382.8416 276.1678,395.8736 268.6438,382.8416 261.1198,369.8097 268.6438,356.7777 261.1198,343.7458 268.6438,330.7138 276.1678,343.7458 283.6918,356.7777" fill="#1C1C1C" opacity="0.75" stroke="#1C1C1C" stroke-width="0.15" stroke-opacity="0.3" />
    <polygon points="246.0718,317.6819 238.5478,330.7138 231.0238,343.7458 231.0238,369.8097 246.0718,369.8097 253.5958,382.8416 261.1198,369.8097 268.6438,356.7777 261.1198,343.7458 268.6438,330.7138 261.1198,317.6819 253.5958,330.7138 246.0718,343.7458" fill="#2E5090" opacity="0.75" stroke="#1C1C1C" stroke-width="0.15" stroke-opacity="0.3" />
    <polygon points="231.0238,265.5540 215.9758,265.5540 200.9278,265.5540 178.3558,252.5221 185.8798,239.4901 178.3558,226.4582 193.4038,226.4582 208.4518,226.4582 215.9758,239.4901 231.0238,239.4901 238.5478,252.5221 223.4998,252.5221 208.4518,252.5221" fill="#1C1C1C" opacity="0.75" stroke="#1C1C1C" stroke-width="0.15" stroke-opacity="0.3" />
    <polygon points="253.5958,226.4582 261.1198,239.4901 268.6438,252.5221 291.2158,265.5540 298.7398,252.5221 313.7878,252.5221 306.2638,239.4901 298.7398,226.4582 283.6918,226.4582 276.1678,213.4262 261.1198,213.4262 268.6438,226.4582 276.1678,239.4901" fill="#2E5090" opacity="0.75" stroke="#1C1C1C" stroke-width="0.15" stroke-opacity="0.3" />
    <polygon points="291.2158,239.4901 306.2638,239.4901 321.3118,239.4901 343.8838,252.5221 336.3598,265.5540 343.8838,278.5860 328.8358,278.5860 313.7878,278.5860 306.2638,265.5540 291.2158,265.5540 283.6918,252.5221 298.7398,252.5221 313.7878,252.5221" fill="#1C1C1C" opacity="0.75" stroke="#1C1C1C" stroke-width="0.15" stroke-opacity="0.3" />
    <polygon points="210.0000,312.4440 217.5240,325.4760 225.0480,338.5079 225.0480,364.5718 210.0000,364.5718 202.4760,377.6038 194.9520,364.5718 187.4280,351.5399 194.9520,338.5079 187.4280,325.4760 194.9520,312.4440 202.4760,325.4760 210.0000,338.5079" fill="#1C1C1C" opacity="0.75" stroke="#1C1C1C" stroke-width="0.15" stroke-opacity="0.3" />
    <polygon points="217.5240,351.5399 225.0480,364.5718 232.5720,377.6038 255.1440,390.6357 262.6680,377.6038 277.7160,377.6038 270.1920,364.5718 262.6680,351.5399 247.6200,351.5399 240.0960,338.5079 225.0480,338.5079 232.5720,351.5399 240.0960,364.5718" fill="#2E5090" opacity="0.75" stroke="#1C1C1C" stroke-width="0.15" stroke-opacity="0.3" />
    <polygon points="172.3800,351.5399 164.8560,364.5718 157.3320,377.6038 134.7600,390.6357 127.2360,377.6038 112.1880,377.6038 119.7120,364.5718 127.2360,351.5399 142.2840,351.5399 149.8080,338.5079 164.8560,338.5079 157.3320,351.5399 149.8080,364.5718" fill="#1C1C1C" opacity="0.75" stroke="#1C1C1C" stroke-width="0.15" stroke-opacity="0.3" />
    <polygon points="164.8560,312.4440 149.8080,312.4440 134.7600,312.4440 112.1880,325.4760 119.7120,338.5079 112.1880,351.5399 127.2360,351.5399 142.2840,351.5399 149.8080,338.5079 164.8560,338.5079 172.3800,325.4760 157.3320,325.4760 142.2840,325.4760" fill="#2E5090" opacity="0.75" stroke="#1C1C1C" stroke-width="0.15" stroke-opacity="0.3" />
    <polygon points="202.4760,273.3481 194.9520,260.3162 187.4280,247.2842 187.4280,221.2203 202.4760,221.2203 210.0000,208.1884 217.5240,221.2203 225.0480,234.2523 217.5240,247.2842 225.0480,260.3162 217.5240,273.3481 210.0000,260.3162 202.4760,247.2842" fill="#1C1C1C" opacity="0.75" stroke="#1C1C1C" stroke-width="0.15" stroke-opacity="0.3" />
    <polygon points="247.6200,273.3481 240.0960,286.3801 232.5720,299.4120 232.5720,325.4760 247.6200,325.4760 255.1440,338.5079 262.6680,325.4760 270.1920,312.4440 262.6680,299.4120 270.1920,286.3801 262.6680,273.3481 255.1440,286.3801 247.6200,299.4120" fill="#2E5090" opacity="0.75" stroke="#1C1C1C" stroke-width="0.15" stroke-opacity="0.3" />
    <polygon points="255.1440,312.4440 262.6680,325.4760 270.1920,338.5079 270.1920,364.5718 255.1440,364.5718 247.6200,377.6038 240.0960,364.5718 232.5720,351.5399 240.0960,338.5079 232.5720,325.4760 240.0960,312.4440 247.6200,325.4760 255.1440,338.5079" fill="#1C1C1C" opacity="0.75" stroke="#1C1C1C" stroke-width="0.15" stroke-opacity="0.3" />
    <polygon points="151.3562,278.5860 143.8322,291.6180 136.3082,304.6499 113.7362,317.6819 106.2122,304.6499 91.1642,304.6499 98.6882,291.6180 106.2122,278.5860 121.2602,278.5860 128.7842,265.5540 143.8322,265.5540 136.3082,278.5860 128.7842,291.6180" fill="#1C1C1C" opacity="0.75" stroke="#1C1C1C" stroke-width="0.15" stroke-opacity="0.3" />
    <polygon points="121.2602,304.6499 113.7362,317.6819 106.2122,330.7138 106.2122,356.7777 121.2602,356.7777 128.7842,369.8097 136.3082,356.7777 143.8322,343.7458 136.3082,330.7138 143.8322,317.6819 136.3082,304.6499 128.7842,317.6819 121.2602,330.7138" fill="#2E5090" opacity="0.75" stroke="#1C1C1C" stroke-width="0.15" stroke-opacity="0.3" />
    <polygon points="98.6882,265.5540 83.6402,265.5540 68.5922,265.5540 46.0202,252.5221 53.5442,239.4901 46.0202,226.4582 61.0682,226.4582 76.1162,226.4582 83.6402,239.4901 98.6882,239.4901 106.2122,252.5221 91.1642,252.5221 76.1162,252.5221" fill="#1C1C1C" opacity="0.75" stroke="#1C1C1C" stroke-width="0.15" stroke-opacity="0.3" />
    <polygon points="128.7842,239.4901 121.2602,226.4582 113.7362,213.4262 91.1642,200.3943 83.6402,213.4262 68.5922,213.4262 76.1162,226.4582 83.6402,239.4901 98.6882,239.4901 106.2122,252.5221 121.2602,252.5221 113.7362,239.4901 106.2122,226.4582" fill="#2E5090" opacity="0.75" stroke="#1C1C1C" stroke-width="0.15" stroke-opacity="0.3" />
    <polygon points="181.4522,252.5221 188.9762,239.4901 196.5002,226.4582 219.0722,213.4262 226.5962,226.4582 241.6442,226.4582 234.1202,239.4901 226.5962,252.5221 211.5482,252.5221 204.0242,265.5540 188.9762,265.5540 196.5002,252.5221 204.0242,239.4901" fill="#1C1C1C" opacity="0.75" stroke="#1C1C1C" stroke-width="0.15" stroke-opacity="0.3" />
    <polygon points="204.0242,291.6180 188.9762,291.6180 173.9282,291.6180 151.3562,304.6499 158.8802,317.6819 151.3562,330.7138 166.4042,330.7138 181.4522,330.7138 188.9762,317.6819 204.0242,317.6819 211.5482,304.6499 196.5002,304.6499 181.4522,304.6499" fill="#2E5090" opacity="0.75" stroke="#1C1C1C" stroke-width="0.15" stroke-opacity="0.3" />
    <polygon points="173.9282,317.6819 166.4042,330.7138 158.8802,343.7458 136.3082,356.7777 128.7842,343.7458 113.7362,343.7458 121.2602,330.7138 128.7842,317.6819 143.8322,317.6819 151.3562,304.6499 166.4042,304.6499 158.8802,317.6819 151.3562,330.7138" fill="#1C1C1C" opacity="0.75" stroke="#1C1C1C" stroke-width="0.15" stroke-opacity="0.3" />
    <polygon points="151.3562,210.8700 136.3082,210.8700 121.2602,210.8700 98.6882,197.8380 106.2122,184.8061 98.6882,171.7741 113.7362,171.7741 128.7842,171.7741 136.3082,184.8061 151.3562,184.8061 158.8802,197.8380 143.8322,197.8380 128.7842,197.8380" fill="#1C1C1C" opacity="0.75" stroke="#1C1C1C" stroke-width="0.15" stroke-opacity="0.3" />
    <polygon points="113.7362,197.8380 98.6882,197.8380 83.6402,197.8380 61.0682,210.8700 68.5922,223.9020 61.0682,236.9339 76.1162,236.9339 91.1642,236.9339 98.6882,223.9020 113.7362,223.9020 121.2602,210.8700 106.2122,210.8700 91.1642,210.8700" fill="#2E5090" opacity="0.75" stroke="#1C1C1C" stroke-width="0.15" stroke-opacity="0.3" />
    <polygon points="136.3082,158.7422 128.7842,145.7102 121.2602,132.6783 121.2602,106.6144 136.3082,106.6144 143.8322,93.5824 151.3562,106.6144 158.8802,119.6463 151.3562,132.6783 158.8802,145.7102 151.3562,158.7422 143.8322,145.7102 136.3082,132.6783" fill="#1C1C1C" opacity="0.75" stroke="#1C1C1C" stroke-width="0.15" stroke-opacity="0.3" />
    <polygon points="173.9282,171.7741 181.4522,158.7422 188.9762,145.7102 188.9762,119.6463 173.9282,119.6463 166.4042,106.6144 158.8802,119.6463 151.3562,132.6783 158.8802,145.7102 151.3562,158.7422 158.8802,171.7741 166.4042,158.7422 173.9282,145.7102" fill="#2E5090" opacity="0.75" stroke="#1C1C1C" stroke-width="0.15" stroke-opacity="0.3" />
    <polygon points="188.9762,223.9020 204.0242,223.9020 219.0722,223.9020 241.6442,236.9339 234.1202,249.9659 241.6442,262.9978 226.5962,262.9978 211.5482,262.9978 204.0242,249.9659 188.9762,249.9659 181.4522,236.9339 196.5002,236.9339 211.5482,236.9339" fill="#1C1C1C" opacity="0.75" stroke="#1C1C1C" stroke-width="0.15" stroke-opacity="0.3" />
    <polygon points="166.4042,262.9978 158.8802,249.9659 151.3562,236.9339 128.7842,223.9020 121.2602,236.9339 106.2122,236.9339 113.7362,249.9659 121.2602,262.9978 136.3082,262.9978 143.8322,276.0298 158.8802,276.0298 151.3562,262.9978 143.8322,249.9659" fill="#2E5090" opacity="0.75" stroke="#1C1C1C" stroke-width="0.15" stroke-opacity="0.3" />
    <polygon points="128.7842,249.9659 113.7362,249.9659 98.6882,249.9659 76.1162,236.9339 83.6402,223.9020 76.1162,210.8700 91.1642,210.8700 106.2122,210.8700 113.7362,223.9020 128.7842,223.9020 136.3082,236.9339 121.2602,236.9339 106.2122,236.9339" fill="#1C1C1C" opacity="0.75" stroke="#1C1C1C" stroke-width="0.15" stroke-opacity="0.3" />
    <polygon points="210.0000,177.0120 202.4760,163.9800 194.9520,150.9481 194.9520,124.8842 210.0000,124.8842 217.5240,111.8522 225.0480,124.8842 232.5720,137.9161 225.0480,150.9481 232.5720,163.9800 225.0480,177.0120 217.5240,163.9800 210.0000,150.9481" fill="#1C1C1C" opacity="0.75" stroke="#1C1C1C" stroke-width="0.15" stroke-opacity="0.3" />
    <polygon points="202.4760,137.9161 194.9520,124.8842 187.4280,111.8522 164.8560,98.8203 157.3320,111.8522 142.2840,111.8522 149.8080,124.8842 157.3320,137.9161 172.3800,137.9161 179.9040,150.9481 194.9520,150.9481 187.4280,137.9161 179.9040,124.8842" fill="#2E5090" opacity="0.75" stroke="#1C1C1C" stroke-width="0.15" stroke-opacity="0.3" />
    <polygon points="247.6200,137.9161 255.1440,124.8842 262.6680,111.8522 285.2400,98.8203 292.7640,111.8522 307.8120,111.8522 300.2880,124.8842 292.7640,137.9161 277.7160,137.9161 270.1920,150.9481 255.1440,150.9481 262.6680,137.9161 270.1920,124.8842" fill="#1C1C1C" opacity="0.75" stroke="#1C1C1C" stroke-width="0.15" stroke-opacity="0.3" />
    <polygon points="255.1440,177.0120 270.1920,177.0120 285.2400,177.0120 307.8120,163.9800 300.2880,150.9481 307.8120,137.9161 292.7640,137.9161 277.7160,137.9161 270.1920,150.9481 255.1440,150.9481 247.6200,163.9800 262.6680,163.9800 277.7160,163.9800" fill="#2E5090" opacity="0.75" stroke="#1C1C1C" stroke-width="0.15" stroke-opacity="0.3" />
    <polygon points="217.5240,216.1079 225.0480,229.1398 232.5720,242.1718 232.5720,268.2357 217.5240,268.2357 210.0000,281.2676 202.4760,268.2357 194.9520,255.2037 202.4760,242.1718 194.9520,229.1398 202.4760,216.1079 210.0000,229.1398 217.5240,242.1718" fill="#1C1C1C" opacity="0.75" stroke="#1C1C1C" stroke-width="0.15" stroke-opacity="0.3" />
    <polygon points="172.3800,216.1079 179.9040,203.0759 187.4280,190.0440 187.4280,163.9800 172.3800,163.9800 164.8560,150.9481 157.3320,163.9800 149.8080,177.0120 157.3320,190.0440 149.8080,203.0759 157.3320,216.1079 164.8560,203.0759 172.3800,190.0440" fill="#2E5090" opacity="0.75" stroke="#1C1C1C" stroke-width="0.15" stroke-opacity="0.3" />
    <polygon points="164.8560,177.0120 157.3320,163.9800 149.8080,150.9481 149.8080,124.8842 164.8560,124.8842 172.3800,111.8522 179.9040,124.8842 187.4280,137.9161 179.9040,150.9481 187.4280,163.9800 179.9040,177.0120 172.3800,163.9800 164.8560,150.9481" fill="#1C1C1C" opacity="0.75" stroke="#1C1C1C" stroke-width="0.15" stroke-opacity="0.3" />
    <polygon points="268.6438,210.8700 276.1678,197.8380 283.6918,184.8061 306.2638,171.7741 313.7878,184.8061 328.8358,184.8061 321.3118,197.8380 313.7878,210.8700 298.7398,210.8700 291.2158,223.9020 276.1678,223.9020 283.6918,210.8700 291.2158,197.8380" fill="#1C1C1C" opacity="0.75" stroke="#1C1C1C" stroke-width="0.15" stroke-opacity="0.3" />
    <polygon points="298.7398,184.8061 306.2638,171.7741 313.7878,158.7422 313.7878,132.6783 298.7398,132.6783 291.2158,119.6463 283.6918,132.6783 276.1678,145.7102 283.6918,158.7422 276.1678,171.7741 283.6918,184.8061 291.2158,171.7741 298.7398,158.7422" fill="#2E5090" opacity="0.75" stroke="#1C1C1C" stroke-width="0.15" stroke-opacity="0.3" />
    <polygon points="321.3118,223.9020 336.3598,223.9020 351.4078,223.9020 373.9798,236.9339 366.4558,249.9659 373.9798,262.9978 358.9318,262.9978 343.8838,262.9978 336.3598,249.9659 321.3118,249.9659 313.7878,236.9339 328.8358,236.9339 343.8838,236.9339" fill="#1C1C1C" opacity="0.75" stroke="#1C1C1C" stroke-width="0.15" stroke-opacity="0.3" />
    <polygon points="291.2158,249.9659 298.7398,262.9978 306.2638,276.0298 328.8358,289.0617 336.3598,276.0298 351.4078,276.0298 343.8838,262.9978 336.3598,249.9659 321.3118,249.9659 313.7878,236.9339 298.7398,236.9339 306.2638,249.9659 313.7878,262.9978" fill="#2E5090" opacity="0.75" stroke="#1C1C1C" stroke-width="0.15" stroke-opacity="0.3" />
    <polygon points="238.5478,236.9339 231.0238,249.9659 223.4998,262.9978 200.9278,276.0298 193.4038,262.9978 178.3558,262.9978 185.8798,249.9659 193.4038,236.9339 208.4518,236.9339 215.9758,223.9020 231.0238,223.9020 223.4998,236.9339 215.9758,249.9659" fill="#1C1C1C" opacity="0.75" stroke="#1C1C1C" stroke-width="0.15" stroke-opacity="0.3" />
    <polygon points="215.9758,197.8380 231.0238,197.8380 246.0718,197.8380 268.6438,184.8061 261.1198,171.7741 268.6438,158.7422 253.5958,158.7422 238.5478,158.7422 231.0238,171.7741 215.9758,171.7741 208.4518,184.8061 223.4998,184.8061 238.5478,184.8061" fill="#2E5090" opacity="0.75" stroke="#1C1C1C" stroke-width="0.15" stroke-opacity="0.3" />
    <polygon points="246.0718,171.7741 253.5958,158.7422 261.1198,145.7102 283.6918,132.6783 291.2158,145.7102 306.2638,145.7102 298.7398,158.7422 291.2158,171.7741 276.1678,171.7741 268.6438,184.8061 253.5958,184.8061 261.1198,171.7741 268.6438,158.7422" fill="#1C1C1C" opacity="0.75" stroke="#1C1C1C" stroke-width="0.15" stroke-opacity="0.3" />
    <polygon points="327.2876,312.4440 342.3356,312.4440 357.3836,312.4440 379.9556,325.4760 372.4316,338.5079 379.9556,351.5399 364.9076,351.5399 349.8596,351.5399 342.3356,338.5079 327.2876,338.5079 319.7636,325.4760 334.8116,325.4760 349.8596,325.4760" fill="#1C1C1C" opacity="0.75" stroke="#1C1C1C" stroke-width="0.15" stroke-opacity="0.3" />
    <polygon points="342.3356,364.5718 349.8596,377.6038 357.3836,390.6357 357.3836,416.6996 342.3356,416.6996 334.8116,429.7316 327.2876,416.6996 319.7636,403.6677 327.2876,390.6357 319.7636,377.6038 327.2876,364.5718 334.8116,377.6038 342.3356,390.6357" fill="#1C1C1C" opacity="0.75" stroke="#1C1C1C" stroke-width="0.15" stroke-opacity="0.3" />
    <polygon points="304.7156,351.5399 297.1916,364.5718 289.6676,377.6038 289.6676,403.6677 304.7156,403.6677 312.2396,416.6996 319.7636,403.6677 327.2876,390.6357 319.7636,377.6038 327.2876,364.5718 319.7636,351.5399 312.2396,364.5718 304.7156,377.6038" fill="#2E5090" opacity="0.75" stroke="#1C1C1C" stroke-width="0.15" stroke-opacity="0.3" />
    <polygon points="289.6676,299.4120 274.6196,299.4120 259.5716,299.4120 236.9996,286.3801 244.5236,273.3481 236.9996,260.3162 252.0476,260.3162 267.0956,260.3162 274.6196,273.3481 289.6676,273.3481 297.1916,286.3801 282.1436,286.3801 267.0956,286.3801" fill="#1C1C1C" opacity="0.75" stroke="#1C1C1C" stroke-width="0.15" stroke-opacity="0.3" />
    <polygon points="312.2396,260.3162 319.7636,273.3481 327.2876,286.3801 349.8596,299.4120 357.3836,286.3801 372.4316,286.3801 364.9076,273.3481 357.3836,260.3162 342.3356,260.3162 334.8116,247.2842 319.7636,247.2842 327.2876,260.3162 334.8116,273.3481" fill="#2E5090" opacity="0.75" stroke="#1C1C1C" stroke-width="0.15" stroke-opacity="0.3" />
    <polygon points="349.8596,273.3481 364.9076,273.3481 379.9556,273.3481 402.5276,286.3801 395.0036,299.4120 402.5276,312.4440 387.4796,312.4440 372.4316,312.4440 364.9076,299.4120 349.8596,299.4120 342.3356,286.3801 357.3836,286.3801 372.4316,286.3801" fill="#1C1C1C" opacity="0.75" stroke="#1C1C1C" stroke-width="0.15" stroke-opacity="0.3" />
    <polygon points="363.3593,385.3979 355.8353,398.4298 348.3113,411.4618 348.3113,437.5257 363.3593,437.5257 370.8833,450.5576 378.4073,437.5257 385.9313,424.4937 378.4073,411.4618 385.9313,398.4298 378.4073,385.3979 370.8833,398.4298 363.3593,411.4618" fill="#2E5090" opacity="0.75" stroke="#1C1C1C" stroke-width="0.15" stroke-opacity="0.3" />
    <polygon points="348.3113,333.2700 333.2633,333.2700 318.2153,333.2700 295.6433,320.2381 303.1673,307.2061 295.6433,294.1742 310.6913,294.1742 325.7393,294.1742 333.2633,307.2061 348.3113,307.2061 355.8353,320.2381 340.7873,320.2381 325.7393,320.2381" fill="#1C1C1C" opacity="0.75" stroke="#1C1C1C" stroke-width="0.15" stroke-opacity="0.3" />
    <polygon points="327.2876,380.1600 334.8116,393.1920 342.3356,406.2239 342.3356,432.2878 327.2876,432.2878 319.7636,445.3198 312.2396,432.2878 304.7156,419.2559 312.2396,406.2239 304.7156,393.1920 312.2396,380.1600 319.7636,393.1920 327.2876,406.2239" fill="#1C1C1C" opacity="0.75" stroke="#1C1C1C" stroke-width="0.15" stroke-opacity="0.3" />
    <polygon points="282.1436,380.1600 267.0956,380.1600 252.0476,380.1600 229.4756,393.1920 236.9996,406.2239 229.4756,419.2559 244.5236,419.2559 259.5716,419.2559 267.0956,406.2239 282.1436,406.2239 289.6676,393.1920 274.6196,393.1920 259.5716,393.1920" fill="#2E5090" opacity="0.75" stroke="#1C1C1C" stroke-width="0.15" stroke-opacity="0.3" />
    <polygon points="319.7636,341.0641 312.2396,328.0322 304.7156,315.0002 304.7156,288.9363 319.7636,288.9363 327.2876,275.9044 334.8116,288.9363 342.3356,301.9683 334.8116,315.0002 342.3356,328.0322 334.8116,341.0641 327.2876,328.0322 319.7636,315.0002" fill="#1C1C1C" opacity="0.75" stroke="#1C1C1C" stroke-width="0.15" stroke-opacity="0.3" />
    <polygon points="364.9076,341.0641 357.3836,354.0961 349.8596,367.1280 349.8596,393.1920 364.9076,393.1920 372.4316,406.2239 379.9556,393.1920 387.4796,380.1600 379.9556,367.1280 387.4796,354.0961 379.9556,341.0641 372.4316,354.0961 364.9076,367.1280" fill="#2E5090" opacity="0.75" stroke="#1C1C1C" stroke-width="0.15" stroke-opacity="0.3" />
    <polygon points="372.4316,380.1600 379.9556,393.1920 387.4796,406.2239 387.4796,432.2878 372.4316,432.2878 364.9076,445.3198 357.3836,432.2878 349.8596,419.2559 357.3836,406.2239 349.8596,393.1920 357.3836,380.1600 364.9076,393.1920 372.4316,406.2239" fill="#1C1C1C" opacity="0.75" stroke="#1C1C1C" stroke-width="0.15" stroke-opacity="0.3" />
    <polygon points="268.6438,346.3020 261.1198,359.3340 253.5958,372.3659 231.0238,385.3979 223.4998,372.3659 208.4518,372.3659 215.9758,359.3340 223.4998,346.3020 238.5478,346.3020 246.0718,333.2700 261.1198,333.2700 253.5958,346.3020 246.0718,359.3340" fill="#1C1C1C" opacity="0.75" stroke="#1C1C1C" stroke-width="0.15" stroke-opacity="0.3" />
    <polygon points="238.5478,372.3659 231.0238,385.3979 223.4998,398.4298 223.4998,424.4937 238.5478,424.4937 246.0718,437.5257 253.5958,424.4937 261.1198,411.4618 253.5958,398.4298 261.1198,385.3979 253.5958,372.3659 246.0718,385.3979 238.5478,398.4298" fill="#2E5090" opacity="0.75" stroke="#1C1C1C" stroke-width="0.15" stroke-opacity="0.3" />
    <polygon points="215.9758,333.2700 200.9278,333.2700 185.8798,333.2700 163.3078,320.2381 170.8318,307.2061 163.3078,294.1742 178.3558,294.1742 193.4038,294.1742 200.9278,307.2061 215.9758,307.2061 223.4998,320.2381 208.4518,320.2381 193.4038,320.2381" fill="#1C1C1C" opacity="0.75" stroke="#1C1C1C" stroke-width="0.15" stroke-opacity="0.3" />
    <polygon points="246.0718,307.2061 238.5478,294.1742 231.0238,281.1422 208.4518,268.1103 200.9278,281.1422 185.8798,281.1422 193.4038,294.1742 200.9278,307.2061 215.9758,307.2061 223.4998,320.2381 238.5478,320.2381 231.0238,307.2061 223.4998,294.1742" fill="#2E5090" opacity="0.75" stroke="#1C1C1C" stroke-width="0.15" stroke-opacity="0.3" />
    <polygon points="298.7398,320.2381 306.2638,307.2061 313.7878,294.1742 336.3598,281.1422 343.8838,294.1742 358.9318,294.1742 351.4078,307.2061 343.8838,320.2381 328.8358,320.2381 321.3118,333.2700 306.2638,333.2700 313.7878,320.2381 321.3118,307.2061" fill="#1C1C1C" opacity="0.75" stroke="#1C1C1C" stroke-width="0.15" stroke-opacity="0.3" />
    <polygon points="321.3118,359.3340 306.2638,359.3340 291.2158,359.3340 268.6438,372.3659 276.1678,385.3979 268.6438,398.4298 283.6918,398.4298 298.7398,398.4298 306.2638,385.3979 321.3118,385.3979 328.8358,372.3659 313.7878,372.3659 298.7398,372.3659" fill="#2E5090" opacity="0.75" stroke="#1C1C1C" stroke-width="0.15" stroke-opacity="0.3" />
    <polygon points="291.2158,385.3979 283.6918,398.4298 276.1678,411.4618 253.5958,424.4937 246.0718,411.4618 231.0238,411.4618 238.5478,398.4298 246.0718,385.3979 261.1198,385.3979 268.6438,372.3659 283.6918,372.3659 276.1678,385.3979 268.6438,398.4298" fill="#1C1C1C" opacity="0.75" stroke="#1C1C1C" stroke-width="0.15" stroke-opacity="0.3" />
    <polygon points="268.6438,278.5860 253.5958,278.5860 238.5478,278.5860 215.9758,265.5540 223.4998,252.5221 215.9758,239.4901 231.0238,239.4901 246.0718,239.4901 253.5958,252.5221 268.6438,252.5221 276.1678,265.5540 261.1198,265.5540 246.0718,265.5540" fill="#1C1C1C" opacity="0.75" stroke="#1C1C1C" stroke-width="0.15" stroke-opacity="0.3" />
    <polygon points="231.0238,265.5540 215.9758,265.5540 200.9278,265.5540 178.3558,278.5860 185.8798,291.6180 178.3558,304.6499 193.4038,304.6499 208.4518,304.6499 215.9758,291.6180 231.0238,291.6180 238.5478,278.5860 223.4998,278.5860 208.4518,278.5860" fill="#2E5090" opacity="0.75" stroke="#1C1C1C" stroke-width="0.15" stroke-opacity="0.3" />
    <polygon points="253.5958,226.4582 246.0718,213.4262 238.5478,200.3943 238.5478,174.3304 253.5958,174.3304 261.1198,161.2984 268.6438,174.3304 276.1678,187.3623 268.6438,200.3943 276.1678,213.4262 268.6438,226.4582 261.1198,213.4262 253.5958,200.3943" fill="#1C1C1C" opacity="0.75" stroke="#1C1C1C" stroke-width="0.15" stroke-opacity="0.3" />
    <polygon points="291.2158,239.4901 298.7398,226.4582 306.2638,213.4262 306.2638,187.3623 291.2158,187.3623 283.6918,174.3304 276.1678,187.3623 268.6438,200.3943 276.1678,213.4262 268.6438,226.4582 276.1678,239.4901 283.6918,226.4582 291.2158,213.4262" fill="#2E5090" opacity="0.75" stroke="#1C1C1C" stroke-width="0.15" stroke-opacity="0.3" />
    <polygon points="306.2638,291.6180 321.3118,291.6180 336.3598,291.6180 358.9318,304.6499 351.4078,317.6819 358.9318,330.7138 343.8838,330.7138 328.8358,330.7138 321.3118,317.6819 306.2638,317.6819 298.7398,304.6499 313.7878,304.6499 328.8358,304.6499" fill="#1C1C1C" opacity="0.75" stroke="#1C1C1C" stroke-width="0.15" stroke-opacity="0.3" />
    <polygon points="283.6918,330.7138 276.1678,317.6819 268.6438,304.6499 246.0718,291.6180 238.5478,304.6499 223.4998,304.6499 231.0238,317.6819 238.5478,330.7138 253.5958,330.7138 261.1198,343.7458 276.1678,343.7458 268.6438,330.7138 261.1198,317.6819" fill="#2E5090" opacity="0.75" stroke="#1C1C1C" stroke-width="0.15" stroke-opacity="0.3" />
    <polygon points="246.0718,317.6819 231.0238,317.6819 215.9758,317.6819 193.4038,304.6499 200.9278,291.6180 193.4038,278.5860 208.4518,278.5860 223.4998,278.5860 231.0238,291.6180 246.0718,291.6180 253.5958,304.6499 238.5478,304.6499 223.4998,304.6499" fill="#1C1C1C" opacity="0.75" stroke="#1C1C1C" stroke-width="0.15" stroke-opacity="0.3" />
    <polygon points="327.2876,244.7280 319.7636,231.6960 312.2396,218.6641 312.2396,192.6002 327.2876,192.6002 334.8116,179.5682 342.3356,192.6002 349.8596,205.6321 342.3356,218.6641 349.8596,231.6960 342.3356,244.7280 334.8116,231.6960 327.2876,218.6641" fill="#1C1C1C" opacity="0.75" stroke="#1C1C1C" stroke-width="0.15" stroke-opacity="0.3" />
    <polygon points="319.7636,205.6321 312.2396,192.6002 304.7156,179.5682 282.1436,166.5363 274.6196,179.5682 259.5716,179.5682 267.0956,192.6002 274.6196,205.6321 289.6676,205.6321 297.1916,218.6641 312.2396,218.6641 304.7156,205.6321 297.1916,192.6002" fill="#2E5090" opacity="0.75" stroke="#1C1C1C" stroke-width="0.15" stroke-opacity="0.3" />
    <polygon points="334.8116,283.8239 342.3356,296.8558 349.8596,309.8878 349.8596,335.9517 334.8116,335.9517 327.2876,348.9836 319.7636,335.9517 312.2396,322.9197 319.7636,309.8878 312.2396,296.8558 319.7636,283.8239 327.2876,296.8558 334.8116,309.8878" fill="#1C1C1C" opacity="0.75" stroke="#1C1C1C" stroke-width="0.15" stroke-opacity="0.3" />
    <polygon points="289.6676,283.8239 297.1916,270.7919 304.7156,257.7600 304.7156,231.6960 289.6676,231.6960 282.1436,218.6641 274.6196,231.6960 267.0956,244.7280 274.6196,257.7600 267.0956,270.7919 274.6196,283.8239 282.1436,270.7919 289.6676,257.7600" fill="#2E5090" opacity="0.75" stroke="#1C1C1C" stroke-width="0.15" stroke-opacity="0.3" />
    <polygon points="282.1436,244.7280 274.6196,231.6960 267.0956,218.6641 267.0956,192.6002 282.1436,192.6002 289.6676,179.5682 297.1916,192.6002 304.7156,205.6321 297.1916,218.6641 304.7156,231.6960 297.1916,244.7280 289.6676,231.6960 282.1436,218.6641" fill="#1C1C1C" opacity="0.75" stroke="#1C1C1C" stroke-width="0.15" stroke-opacity="0.3" />
    <polygon points="355.8353,304.6499 348.3113,317.6819 340.7873,330.7138 318.2153,343.7458 310.6913,330.7138 295.6433,330.7138 303.1673,317.6819 310.6913,304.6499 325.7393,304.6499 333.2633,291.6180 348.3113,291.6180 340.7873,304.6499 333.2633,317.6819" fill="#1C1C1C" opacity="0.75" stroke="#1C1C1C" stroke-width="0.15" stroke-opacity="0.3" />
    <polygon points="333.2633,265.5540 348.3113,265.5540 363.3593,265.5540 385.9313,252.5221 378.4073,239.4901 385.9313,226.4582 370.8833,226.4582 355.8353,226.4582 348.3113,239.4901 333.2633,239.4901 325.7393,252.5221 340.7873,252.5221 355.8353,252.5221" fill="#2E5090" opacity="0.75" stroke="#1C1C1C" stroke-width="0.15" stroke-opacity="0.3" />
    <polygon points="210.0000,380.1600 217.5240,393.1920 225.0480,406.2239 225.0480,432.2878 210.0000,432.2878 202.4760,445.3198 194.9520,432.2878 187.4280,419.2559 194.9520,406.2239 187.4280,393.1920 194.9520,380.1600 202.4760,393.1920 210.0000,406.2239" fill="#1C1C1C" opacity="0.75" stroke="#1C1C1C" stroke-width="0.15" stroke-opacity="0.3" />
    <polygon points="164.8560,380.1600 149.8080,380.1600 134.7600,380.1600 112.1880,393.1920 119.7120,406.2239 112.1880,419.2559 127.2360,419.2559 142.2840,419.2559 149.8080,406.2239 164.8560,406.2239 172.3800,393.1920 157.3320,393.1920 142.2840,393.1920" fill="#2E5090" opacity="0.75" stroke="#1C1C1C" stroke-width="0.15" stroke-opacity="0.3" />
    <polygon points="202.4760,341.0641 194.9520,328.0322 187.4280,315.0002 187.4280,288.9363 202.4760,288.9363 210.0000,275.9044 217.5240,288.9363 225.0480,301.9683 217.5240,315.0002 225.0480,328.0322 217.5240,341.0641 210.0000,328.0322 202.4760,315.0002" fill="#1C1C1C" opacity="0.75" stroke="#1C1C1C" stroke-width="0.15" stroke-opacity="0.3" />
    <polygon points="247.6200,341.0641 240.0960,354.0961 232.5720,367.1280 232.5720,393.1920 247.6200,393.1920 255.1440,406.2239 262.6680,393.1920 270.1920,380.1600 262.6680,367.1280 270.1920,354.0961 262.6680,341.0641 255.1440,354.0961 247.6200,367.1280" fill="#2E5090" opacity="0.75" stroke="#1C1C1C" stroke-width="0.15" stroke-opacity="0.3" />
    <polygon points="255.1440,380.1600 262.6680,393.1920 270.1920,406.2239 270.1920,432.2878 255.1440,432.2878 247.6200,445.3198 240.0960,432.2878 232.5720,419.2559 240.0960,406.2239 232.5720,393.1920 240.0960,380.1600 247.6200,393.1920 255.1440,406.2239" fill="#1C1C1C" opacity="0.75" stroke="#1C1C1C" stroke-width="0.15" stroke-opacity="0.3" />
    <polygon points="202.4760,408.7801 194.9520,395.7482 187.4280,382.7162 187.4280,356.6523 202.4760,356.6523 210.0000,343.6204 217.5240,356.6523 225.0480,369.6843 217.5240,382.7162 225.0480,395.7482 217.5240,408.7801 210.0000,395.7482 202.4760,382.7162" fill="#1C1C1C" opacity="0.75" stroke="#1C1C1C" stroke-width="0.15" stroke-opacity="0.3" />
    <polygon points="98.6882,400.9860 83.6402,400.9860 68.5922,400.9860 46.0202,387.9541 53.5442,374.9221 46.0202,361.8902 61.0682,361.8902 76.1162,361.8902 83.6402,374.9221 98.6882,374.9221 106.2122,387.9541 91.1642,387.9541 76.1162,387.9541" fill="#1C1C1C" opacity="0.75" stroke="#1C1C1C" stroke-width="0.15" stroke-opacity="0.3" />
    <polygon points="128.7842,374.9221 121.2602,361.8902 113.7362,348.8582 91.1642,335.8263 83.6402,348.8582 68.5922,348.8582 76.1162,361.8902 83.6402,374.9221 98.6882,374.9221 106.2122,387.9541 121.2602,387.9541 113.7362,374.9221 106.2122,361.8902" fill="#2E5090" opacity="0.75" stroke="#1C1C1C" stroke-width="0.15" stroke-opacity="0.3" />
    <polygon points="181.4522,387.9541 188.9762,374.9221 196.5002,361.8902 219.0722,348.8582 226.5962,361.8902 241.6442,361.8902 234.1202,374.9221 226.5962,387.9541 211.5482,387.9541 204.0242,400.9860 188.9762,400.9860 196.5002,387.9541 204.0242,374.9221" fill="#1C1C1C" opacity="0.75" stroke="#1C1C1C" stroke-width="0.15" stroke-opacity="0.3" />
    <polygon points="151.3562,346.3020 136.3082,346.3020 121.2602,346.3020 98.6882,333.2700 106.2122,320.2381 98.6882,307.2061 113.7362,307.2061 128.7842,307.2061 136.3082,320.2381 151.3562,320.2381 158.8802,333.2700 143.8322,333.2700 128.7842,333.2700" fill="#1C1C1C" opacity="0.75" stroke="#1C1C1C" stroke-width="0.15" stroke-opacity="0.3" />
    <polygon points="113.7362,333.2700 98.6882,333.2700 83.6402,333.2700 61.0682,346.3020 68.5922,359.3340 61.0682,372.3659 76.1162,372.3659 91.1642,372.3659 98.6882,359.3340 113.7362,359.3340 121.2602,346.3020 106.2122,346.3020 91.1642,346.3020" fill="#2E5090" opacity="0.75" stroke="#1C1C1C" stroke-width="0.15" stroke-opacity="0.3" />
    <polygon points="136.3082,294.1742 128.7842,281.1422 121.2602,268.1103 121.2602,242.0464 136.3082,242.0464 143.8322,229.0144 151.3562,242.0464 158.8802,255.0783 151.3562,268.1103 158.8802,281.1422 151.3562,294.1742 143.8322,281.1422 136.3082,268.1103" fill="#1C1C1C" opacity="0.75" stroke="#1C1C1C" stroke-width="0.15" stroke-opacity="0.3" />
    <polygon points="173.9282,307.2061 181.4522,294.1742 188.9762,281.1422 188.9762,255.0783 173.9282,255.0783 166.4042,242.0464 158.8802,255.0783 151.3562,268.1103 158.8802,281.1422 151.3562,294.1742 158.8802,307.2061 166.4042,294.1742 173.9282,281.1422" fill="#2E5090" opacity="0.75" stroke="#1C1C1C" stroke-width="0.15" stroke-opacity="0.3" />
    <polygon points="188.9762,359.3340 204.0242,359.3340 219.0722,359.3340 241.6442,372.3659 234.1202,385.3979 241.6442,398.4298 226.5962,398.4298 211.5482,398.4298 204.0242,385.3979 188.9762,385.3979 181.4522,372.3659 196.5002,372.3659 211.5482,372.3659" fill="#1C1C1C" opacity="0.75" stroke="#1C1C1C" stroke-width="0.15" stroke-opacity="0.3" />
    <polygon points="166.4042,398.4298 158.8802,385.3979 151.3562,372.3659 128.7842,359.3340 121.2602,372.3659 106.2122,372.3659 113.7362,385.3979 121.2602,398.4298 136.3082,398.4298 143.8322,411.4618 158.8802,411.4618 151.3562,398.4298 143.8322,385.3979" fill="#2E5090" opacity="0.75" stroke="#1C1C1C" stroke-width="0.15" stroke-opacity="0.3" />
    <polygon points="128.7842,385.3979 113.7362,385.3979 98.6882,385.3979 76.1162,372.3659 83.6402,359.3340 76.1162,346.3020 91.1642,346.3020 106.2122,346.3020 113.7362,359.3340 128.7842,359.3340 136.3082,372.3659 121.2602,372.3659 106.2122,372.3659" fill="#1C1C1C" opacity="0.75" stroke="#1C1C1C" stroke-width="0.15" stroke-opacity="0.3" />
    <polygon points="210.0000,312.4440 202.4760,299.4120 194.9520,286.3801 194.9520,260.3162 210.0000,260.3162 217.5240,247.2842 225.0480,260.3162 232.5720,273.3481 225.0480,286.3801 232.5720,299.4120 225.0480,312.4440 217.5240,299.4120 210.0000,286.3801" fill="#1C1C1C" opacity="0.75" stroke="#1C1C1C" stroke-width="0.15" stroke-opacity="0.3" />
    <polygon points="202.4760,273.3481 194.9520,260.3162 187.4280,247.2842 164.8560,234.2523 157.3320,247.2842 142.2840,247.2842 149.8080,260.3162 157.3320,273.3481 172.3800,273.3481 179.9040,286.3801 194.9520,286.3801 187.4280,273.3481 179.9040,260.3162" fill="#2E5090" opacity="0.75" stroke="#1C1C1C" stroke-width="0.15" stroke-opacity="0.3" />
    <polygon points="247.6200,273.3481 255.1440,260.3162 262.6680,247.2842 285.2400,234.2523 292.7640,247.2842 307.8120,247.2842 300.2880,260.3162 292.7640,273.3481 277.7160,273.3481 270.1920,286.3801 255.1440,286.3801 262.6680,273.3481 270.1920,260.3162" fill="#1C1C1C" opacity="0.75" stroke="#1C1C1C" stroke-width="0.15" stroke-opacity="0.3" />
    <polygon points="255.1440,312.4440 270.1920,312.4440 285.2400,312.4440 307.8120,299.4120 300.2880,286.3801 307.8120,273.3481 292.7640,273.3481 277.7160,273.3481 270.1920,286.3801 255.1440,286.3801 247.6200,299.4120 262.6680,299.4120 277.7160,299.4120" fill="#2E5090" opacity="0.75" stroke="#1C1C1C" stroke-width="0.15" stroke-opacity="0.3" />
    <polygon points="217.5240,351.5399 225.0480,364.5718 232.5720,377.6038 232.5720,403.6677 217.5240,403.6677 210.0000,416.6996 202.4760,403.6677 194.9520,390.6357 202.4760,377.6038 194.9520,364.5718 202.4760,351.5399 210.0000,364.5718 217.5240,377.6038" fill="#1C1C1C" opacity="0.75" stroke="#1C1C1C" stroke-width="0.15" stroke-opacity="0.3" />
    <polygon points="172.3800,351.5399 179.9040,338.5079 187.4280,325.4760 187.4280,299.4120 172.3800,299.4120 164.8560,286.3801 157.3320,299.4120 149.8080,312.4440 157.3320,325.4760 149.8080,338.5079 157.3320,351.5399 164.8560,338.5079 172.3800,325.4760" fill="#2E5090" opacity="0.75" stroke="#1C1C1C" stroke-width="0.15" stroke-opacity="0.3" />
    <polygon points="164.8560,312.4440 157.3320,299.4120 149.8080,286.3801 149.8080,260.3162 164.8560,260.3162 172.3800,247.2842 179.9040,260.3162 187.4280,273.3481 179.9040,286.3801 187.4280,299.4120 179.9040,312.4440 172.3800,299.4120 164.8560,286.3801" fill="#1C1C1C" opacity="0.75" stroke="#1C1C1C" stroke-width="0.15" stroke-opacity="0.3" />
    <polygon points="268.6438,346.3020 276.1678,333.2700 283.6918,320.2381 306.2638,307.2061 313.7878,320.2381 328.8358,320.2381 321.3118,333.2700 313.7878,346.3020 298.7398,346.3020 291.2158,359.3340 276.1678,359.3340 283.6918,346.3020 291.2158,333.2700" fill="#1C1C1C" opacity="0.75" stroke="#1C1C1C" stroke-width="0.15" stroke-opacity="0.3" />
    <polygon points="298.7398,320.2381 306.2638,307.2061 313.7878,294.1742 313.7878,268.1103 298.7398,268.1103 291.2158,255.0783 283.6918,268.1103 276.1678,281.1422 283.6918,294.1742 276.1678,307.2061 283.6918,320.2381 291.2158,307.2061 298.7398,294.1742" fill="#2E5090" opacity="0.75" stroke="#1C1C1C" stroke-width="0.15" stroke-opacity="0.3" />
    <polygon points="321.3118,359.3340 336.3598,359.3340 351.4078,359.3340 373.9798,372.3659 366.4558,385.3979 373.9798,398.4298 358.9318,398.4298 343.8838,398.4298 336.3598,385.3979 321.3118,385.3979 313.7878,372.3659 328.8358,372.3659 343.8838,372.3659" fill="#1C1C1C" opacity="0.75" stroke="#1C1C1C" stroke-width="0.15" stroke-opacity="0.3" />
    <polygon points="291.2158,385.3979 298.7398,398.4298 306.2638,411.4618 328.8358,424.4937 336.3598,411.4618 351.4078,411.4618 343.8838,398.4298 336.3598,385.3979 321.3118,385.3979 313.7878,372.3659 298.7398,372.3659 306.2638,385.3979 313.7878,398.4298" fill="#2E5090" opacity="0.75" stroke="#1C1C1C" stroke-width="0.15" stroke-opacity="0.3" />
    <polygon points="238.5478,372.3659 231.0238,385.3979 223.4998,398.4298 200.9278,411.4618 193.4038,398.4298 178.3558,398.4298 185.8798,385.3979 193.4038,372.3659 208.4518,372.3659 215.9758,359.3340 231.0238,359.3340 223.4998,372.3659 215.9758,385.3979" fill="#1C1C1C" opacity="0.75" stroke="#1C1C1C" stroke-width="0.15" stroke-opacity="0.3" />
    <polygon points="215.9758,333.2700 231.0238,333.2700 246.0718,333.2700 268.6438,320.2381 261.1198,307.2061 268.6438,294.1742 253.5958,294.1742 238.5478,294.1742 231.0238,307.2061 215.9758,307.2061 208.4518,320.2381 223.4998,320.2381 238.5478,320.2381" fill="#2E5090" opacity="0.75" stroke="#1C1C1C" stroke-width="0.15" stroke-opacity="0.3" />
    <polygon points="246.0718,307.2061 253.5958,294.1742 261.1198,281.1422 283.6918,268.1103 291.2158,281.1422 306.2638,281.1422 298.7398,294.1742 291.2158,307.2061 276.1678,307.2061 268.6438,320.2381 253.5958,320.2381 261.1198,307.2061 268.6438,294.1742" fill="#1C1C1C" opacity="0.75" stroke="#1C1C1C" stroke-width="0.15" stroke-opacity="0.3" />
    <polygon points="306.2638,427.0500 321.3118,427.0500 336.3598,427.0500 358.9318,414.0180 351.4078,400.9860 358.9318,387.9541 343.8838,387.9541 328.8358,387.9541 321.3118,400.9860 306.2638,400.9860 298.7398,414.0180 313.7878,414.0180 328.8358,414.0180" fill="#2E5090" opacity="0.75" stroke="#1C1C1C" stroke-width="0.15" stroke-opacity="0.3" />
    <polygon points="231.0238,400.9860 215.9758,400.9860 200.9278,400.9860 178.3558,387.9541 185.8798,374.9221 178.3558,361.8902 193.4038,361.8902 208.4518,361.8902 215.9758,374.9221 231.0238,374.9221 238.5478,387.9541 223.4998,387.9541 208.4518,387.9541" fill="#1C1C1C" opacity="0.75" stroke="#1C1C1C" stroke-width="0.15" stroke-opacity="0.3" />
    <polygon points="253.5958,361.8902 261.1198,374.9221 268.6438,387.9541 291.2158,400.9860 298.7398,387.9541 313.7878,387.9541 306.2638,374.9221 298.7398,361.8902 283.6918,361.8902 276.1678,348.8582 261.1198,348.8582 268.6438,361.8902 276.1678,374.9221" fill="#2E5090" opacity="0.75" stroke="#1C1C1C" stroke-width="0.15" stroke-opacity="0.3" />
    <polygon points="291.2158,374.9221 306.2638,374.9221 321.3118,374.9221 343.8838,387.9541 336.3598,400.9860 343.8838,414.0180 328.8358,414.0180 313.7878,414.0180 306.2638,400.9860 291.2158,400.9860 283.6918,387.9541 298.7398,387.9541 313.7878,387.9541" fill="#1C1C1C" opacity="0.75" stroke="#1C1C1C" stroke-width="0.15" stroke-opacity="0.3" />
    <polygon points="92.7124,312.4440 85.1884,325.4760 77.6644,338.5079 55.0924,351.5399 47.5684,338.5079 32.5204,338.5079 40.0444,325.4760 47.5684,312.4440 62.6164,312.4440 70.1404,299.4120 85.1884,299.4120 77.6644,312.4440 70.1404,325.4760" fill="#1C1C1C" opacity="0.75" stroke="#1C1C1C" stroke-width="0.15" stroke-opacity="0.3" />
    <polygon points="62.6164,338.5079 55.0924,351.5399 47.5684,364.5718 47.5684,390.6357 62.6164,390.6357 70.1404,403.6677 77.6644,390.6357 85.1884,377.6038 77.6644,364.5718 85.1884,351.5399 77.6644,338.5079 70.1404,351.5399 62.6164,364.5718" fill="#2E5090" opacity="0.75" stroke="#1C1C1C" stroke-width="0.15" stroke-opacity="0.3" />
    <polygon points="70.1404,273.3481 62.6164,260.3162 55.0924,247.2842 32.5204,234.2523 24.9964,247.2842 9.9484,247.2842 17.4724,260.3162 24.9964,273.3481 40.0444,273.3481 47.5684,286.3801 62.6164,286.3801 55.0924,273.3481 47.5684,260.3162" fill="#2E5090" opacity="0.75" stroke="#1C1C1C" stroke-width="0.15" stroke-opacity="0.3" />
    <polygon points="122.8084,286.3801 130.3324,273.3481 137.8564,260.3162 160.4284,247.2842 167.9524,260.3162 183.0004,260.3162 175.4764,273.3481 167.9524,286.3801 152.9044,286.3801 145.3804,299.4120 130.3324,299.4120 137.8564,286.3801 145.3804,273.3481" fill="#1C1C1C" opacity="0.75" stroke="#1C1C1C" stroke-width="0.15" stroke-opacity="0.3" />
    <polygon points="145.3804,325.4760 130.3324,325.4760 115.2844,325.4760 92.7124,338.5079 100.2364,351.5399 92.7124,364.5718 107.7604,364.5718 122.8084,364.5718 130.3324,351.5399 145.3804,351.5399 152.9044,338.5079 137.8564,338.5079 122.8084,338.5079" fill="#2E5090" opacity="0.75" stroke="#1C1C1C" stroke-width="0.15" stroke-opacity="0.3" />
    <polygon points="115.2844,351.5399 107.7604,364.5718 100.2364,377.6038 77.6644,390.6357 70.1404,377.6038 55.0924,377.6038 62.6164,364.5718 70.1404,351.5399 85.1884,351.5399 92.7124,338.5079 107.7604,338.5079 100.2364,351.5399 92.7124,364.5718" fill="#1C1C1C" opacity="0.75" stroke="#1C1C1C" stroke-width="0.15" stroke-opacity="0.3" />
    <polygon points="64.1647,320.2381 71.6887,307.2061 79.2127,294.1742 101.7847,281.1422 109.3087,294.1742 124.3567,294.1742 116.8327,307.2061 109.3087,320.2381 94.2607,320.2381 86.7367,333.2700 71.6887,333.2700 79.2127,320.2381 86.7367,307.2061" fill="#1C1C1C" opacity="0.75" stroke="#1C1C1C" stroke-width="0.15" stroke-opacity="0.3" />
    <polygon points="86.7367,359.3340 71.6887,359.3340 56.6407,359.3340 34.0687,372.3659 41.5927,385.3979 34.0687,398.4298 49.1167,398.4298 64.1647,398.4298 71.6887,385.3979 86.7367,385.3979 94.2607,372.3659 79.2127,372.3659 64.1647,372.3659" fill="#2E5090" opacity="0.75" stroke="#1C1C1C" stroke-width="0.15" stroke-opacity="0.3" />
    <polygon points="56.6407,239.4901 64.1647,226.4582 71.6887,213.4262 71.6887,187.3623 56.6407,187.3623 49.1167,174.3304 41.5927,187.3623 34.0687,200.3943 41.5927,213.4262 34.0687,226.4582 41.5927,239.4901 49.1167,226.4582 56.6407,213.4262" fill="#2E5090" opacity="0.75" stroke="#1C1C1C" stroke-width="0.15" stroke-opacity="0.3" />
    <polygon points="71.6887,291.6180 86.7367,291.6180 101.7847,291.6180 124.3567,304.6499 116.8327,317.6819 124.3567,330.7138 109.3087,330.7138 94.2607,330.7138 86.7367,317.6819 71.6887,317.6819 64.1647,304.6499 79.2127,304.6499 94.2607,304.6499" fill="#1C1C1C" opacity="0.75" stroke="#1C1C1C" stroke-width="0.15" stroke-opacity="0.3" />
    <polygon points="92.7124,244.7280 85.1884,231.6960 77.6644,218.6641 77.6644,192.6002 92.7124,192.6002 100.2364,179.5682 107.7604,192.6002 115.2844,205.6321 107.7604,218.6641 115.2844,231.6960 107.7604,244.7280 100.2364,231.6960 92.7124,218.6641" fill="#1C1C1C" opacity="0.75" stroke="#1C1C1C" stroke-width="0.15" stroke-opacity="0.3" />
    <polygon points="85.1884,205.6321 77.6644,192.6002 70.1404,179.5682 47.5684,166.5363 40.0444,179.5682 24.9964,179.5682 32.5204,192.6002 40.0444,205.6321 55.0924,205.6321 62.6164,218.6641 77.6644,218.6641 70.1404,205.6321 62.6164,192.6002" fill="#2E5090" opacity="0.75" stroke="#1C1C1C" stroke-width="0.15" stroke-opacity="0.3" />
    <polygon points="130.3324,205.6321 137.8564,192.6002 145.3804,179.5682 167.9524,166.5363 175.4764,179.5682 190.5244,179.5682 183.0004,192.6002 175.4764,205.6321 160.4284,205.6321 152.9044,218.6641 137.8564,218.6641 145.3804,205.6321 152.9044,192.6002" fill="#1C1C1C" opacity="0.75" stroke="#1C1C1C" stroke-width="0.15" stroke-opacity="0.3" />
    <polygon points="137.8564,244.7280 152.9044,244.7280 167.9524,244.7280 190.5244,231.6960 183.0004,218.6641 190.5244,205.6321 175.4764,205.6321 160.4284,205.6321 152.9044,218.6641 137.8564,218.6641 130.3324,231.6960 145.3804,231.6960 160.4284,231.6960" fill="#2E5090" opacity="0.75" stroke="#1C1C1C" stroke-width="0.15" stroke-opacity="0.3" />
    <polygon points="100.2364,283.8239 107.7604,296.8558 115.2844,309.8878 115.2844,335.9517 100.2364,335.9517 92.7124,348.9836 85.1884,335.9517 77.6644,322.9197 85.1884,309.8878 77.6644,296.8558 85.1884,283.8239 92.7124,296.8558 100.2364,309.8878" fill="#1C1C1C" opacity="0.75" stroke="#1C1C1C" stroke-width="0.15" stroke-opacity="0.3" />
    <polygon points="55.0924,283.8239 62.6164,270.7919 70.1404,257.7600 70.1404,231.6960 55.0924,231.6960 47.5684,218.6641 40.0444,231.6960 32.5204,244.7280 40.0444,257.7600 32.5204,270.7919 40.0444,283.8239 47.5684,270.7919 55.0924,257.7600" fill="#2E5090" opacity="0.75" stroke="#1C1C1C" stroke-width="0.15" stroke-opacity="0.3" />
    <polygon points="47.5684,244.7280 40.0444,231.6960 32.5204,218.6641 32.5204,192.6002 47.5684,192.6002 55.0924,179.5682 62.6164,192.6002 70.1404,205.6321 62.6164,218.6641 70.1404,231.6960 62.6164,244.7280 55.0924,231.6960 47.5684,218.6641" fill="#1C1C1C" opacity="0.75" stroke="#1C1C1C" stroke-width="0.15" stroke-opacity="0.3" />
    <polygon points="151.3562,278.5860 158.8802,265.5540 166.4042,252.5221 188.9762,239.4901 196.5002,252.5221 211.5482,252.5221 204.0242,265.5540 196.5002,278.5860 181.4522,278.5860 173.9282,291.6180 158.8802,291.6180 166.4042,278.5860 173.9282,265.5540" fill="#1C1C1C" opacity="0.75" stroke="#1C1C1C" stroke-width="0.15" stroke-opacity="0.3" />
    <polygon points="181.4522,252.5221 188.9762,239.4901 196.5002,226.4582 196.5002,200.3943 181.4522,200.3943 173.9282,187.3623 166.4042,200.3943 158.8802,213.4262 166.4042,226.4582 158.8802,239.4901 166.4042,252.5221 173.9282,239.4901 181.4522,226.4582" fill="#2E5090" opacity="0.75" stroke="#1C1C1C" stroke-width="0.15" stroke-opacity="0.3" />
    <polygon points="204.0242,291.6180 219.0722,291.6180 234.1202,291.6180 256.6922,304.6499 249.1682,317.6819 256.6922,330.7138 241.6442,330.7138 226.5962,330.7138 219.0722,317.6819 204.0242,317.6819 196.5002,304.6499 211.5482,304.6499 226.5962,304.6499" fill="#1C1C1C" opacity="0.75" stroke="#1C1C1C" stroke-width="0.15" stroke-opacity="0.3" />
    <polygon points="173.9282,317.6819 181.4522,330.7138 188.9762,343.7458 211.5482,356.7777 219.0722,343.7458 234.1202,343.7458 226.5962,330.7138 219.0722,317.6819 204.0242,317.6819 196.5002,304.6499 181.4522,304.6499 188.9762,317.6819 196.5002,330.7138" fill="#2E5090" opacity="0.75" stroke="#1C1C1C" stroke-width="0.15" stroke-opacity="0.3" />
    <polygon points="121.2602,304.6499 113.7362,317.6819 106.2122,330.7138 83.6402,343.7458 76.1162,330.7138 61.0682,330.7138 68.5922,317.6819 76.1162,304.6499 91.1642,304.6499 98.6882,291.6180 113.7362,291.6180 106.2122,304.6499 98.6882,317.6819" fill="#1C1C1C" opacity="0.75" stroke="#1C1C1C" stroke-width="0.15" stroke-opacity="0.3" />
    <polygon points="98.6882,265.5540 113.7362,265.5540 128.7842,265.5540 151.3562,252.5221 143.8322,239.4901 151.3562,226.4582 136.3082,226.4582 121.2602,226.4582 113.7362,239.4901 98.6882,239.4901 91.1642,252.5221 106.2122,252.5221 121.2602,252.5221" fill="#2E5090" opacity="0.75" stroke="#1C1C1C" stroke-width="0.15" stroke-opacity="0.3" />
    <polygon points="128.7842,239.4901 136.3082,226.4582 143.8322,213.4262 166.4042,200.3943 173.9282,213.4262 188.9762,213.4262 181.4522,226.4582 173.9282,239.4901 158.8802,239.4901 151.3562,252.5221 136.3082,252.5221 143.8322,239.4901 151.3562,226.4582" fill="#1C1C1C" opacity="0.75" stroke="#1C1C1C" stroke-width="0.15" stroke-opacity="0.3" />
    <polygon points="151.3562,346.3020 166.4042,346.3020 181.4522,346.3020 204.0242,359.3340 196.5002,372.3659 204.0242,385.3979 188.9762,385.3979 173.9282,385.3979 166.4042,372.3659 151.3562,372.3659 143.8322,359.3340 158.8802,359.3340 173.9282,359.3340" fill="#1C1C1C" opacity="0.75" stroke="#1C1C1C" stroke-width="0.15" stroke-opacity="0.3" />
    <polygon points="188.9762,359.3340 204.0242,359.3340 219.0722,359.3340 241.6442,346.3020 234.1202,333.2700 241.6442,320.2381 226.5962,320.2381 211.5482,320.2381 204.0242,333.2700 188.9762,333.2700 181.4522,346.3020 196.5002,346.3020 211.5482,346.3020" fill="#2E5090" opacity="0.75" stroke="#1C1C1C" stroke-width="0.15" stroke-opacity="0.3" />
    <polygon points="128.7842,385.3979 121.2602,398.4298 113.7362,411.4618 113.7362,437.5257 128.7842,437.5257 136.3082,450.5576 143.8322,437.5257 151.3562,424.4937 143.8322,411.4618 151.3562,398.4298 143.8322,385.3979 136.3082,398.4298 128.7842,411.4618" fill="#2E5090" opacity="0.75" stroke="#1C1C1C" stroke-width="0.15" stroke-opacity="0.3" />
    <polygon points="113.7362,333.2700 98.6882,333.2700 83.6402,333.2700 61.0682,320.2381 68.5922,307.2061 61.0682,294.1742 76.1162,294.1742 91.1642,294.1742 98.6882,307.2061 113.7362,307.2061 121.2602,320.2381 106.2122,320.2381 91.1642,320.2381" fill="#1C1C1C" opacity="0.75" stroke="#1C1C1C" stroke-width="0.15" stroke-opacity="0.3" />
    <polygon points="136.3082,294.1742 143.8322,307.2061 151.3562,320.2381 173.9282,333.2700 181.4522,320.2381 196.5002,320.2381 188.9762,307.2061 181.4522,294.1742 166.4042,294.1742 158.8802,281.1422 143.8322,281.1422 151.3562,294.1742 158.8802,307.2061" fill="#2E5090" opacity="0.75" stroke="#1C1C1C" stroke-width="0.15" stroke-opacity="0.3" />
    <polygon points="173.9282,307.2061 188.9762,307.2061 204.0242,307.2061 226.5962,320.2381 219.0722,333.2700 226.5962,346.3020 211.5482,346.3020 196.5002,346.3020 188.9762,333.2700 173.9282,333.2700 166.4042,320.2381 181.4522,320.2381 196.5002,320.2381" fill="#1C1C1C" opacity="0.75" stroke="#1C1C1C" stroke-width="0.15" stroke-opacity="0.3" />
    <polygon points="92.7124,380.1600 100.2364,393.1920 107.7604,406.2239 107.7604,432.2878 92.7124,432.2878 85.1884,445.3198 77.6644,432.2878 70.1404,419.2559 77.6644,406.2239 70.1404,393.1920 77.6644,380.1600 85.1884,393.1920 92.7124,406.2239" fill="#1C1C1C" opacity="0.75" stroke="#1C1C1C" stroke-width="0.15" stroke-opacity="0.3" />
    <polygon points="85.1884,341.0641 77.6644,328.0322 70.1404,315.0002 70.1404,288.9363 85.1884,288.9363 92.7124,275.9044 100.2364,288.9363 107.7604,301.9683 100.2364,315.0002 107.7604,328.0322 100.2364,341.0641 92.7124,328.0322 85.1884,315.0002" fill="#1C1C1C" opacity="0.75" stroke="#1C1C1C" stroke-width="0.15" stroke-opacity="0.3" />
    <polygon points="130.3324,341.0641 122.8084,354.0961 115.2844,367.1280 115.2844,393.1920 130.3324,393.1920 137.8564,406.2239 145.3804,393.1920 152.9044,380.1600 145.3804,367.1280 152.9044,354.0961 145.3804,341.0641 137.8564,354.0961 130.3324,367.1280" fill="#2E5090" opacity="0.75" stroke="#1C1C1C" stroke-width="0.15" stroke-opacity="0.3" />
    <polygon points="137.8564,380.1600 145.3804,393.1920 152.9044,406.2239 152.9044,432.2878 137.8564,432.2878 130.3324,445.3198 122.8084,432.2878 115.2844,419.2559 122.8084,406.2239 115.2844,393.1920 122.8084,380.1600 130.3324,393.1920 137.8564,406.2239" fill="#1C1C1C" opacity="0.75" stroke="#1C1C1C" stroke-width="0.15" stroke-opacity="0.3" />
    <polygon points="92.7124,177.0120 77.6644,177.0120 62.6164,177.0120 40.0444,163.9800 47.5684,150.9481 40.0444,137.9161 55.0924,137.9161 70.1404,137.9161 77.6644,150.9481 92.7124,150.9481 100.2364,163.9800 85.1884,163.9800 70.1404,163.9800" fill="#1C1C1C" opacity="0.75" stroke="#1C1C1C" stroke-width="0.15" stroke-opacity="0.3" />
    <polygon points="77.6644,124.8842 70.1404,111.8522 62.6164,98.8203 62.6164,72.7564 77.6644,72.7564 85.1884,59.7244 92.7124,72.7564 100.2364,85.7883 92.7124,98.8203 100.2364,111.8522 92.7124,124.8842 85.1884,111.8522 77.6644,98.8203" fill="#1C1C1C" opacity="0.75" stroke="#1C1C1C" stroke-width="0.15" stroke-opacity="0.3" />
    <polygon points="115.2844,137.9161 122.8084,124.8842 130.3324,111.8522 130.3324,85.7883 115.2844,85.7883 107.7604,72.7564 100.2364,85.7883 92.7124,98.8203 100.2364,111.8522 92.7124,124.8842 100.2364,137.9161 107.7604,124.8842 115.2844,111.8522" fill="#2E5090" opacity="0.75" stroke="#1C1C1C" stroke-width="0.15" stroke-opacity="0.3" />
    <polygon points="130.3324,190.0440 145.3804,190.0440 160.4284,190.0440 183.0004,203.0759 175.4764,216.1079 183.0004,229.1398 167.9524,229.1398 152.9044,229.1398 145.3804,216.1079 130.3324,216.1079 122.8084,203.0759 137.8564,203.0759 152.9044,203.0759" fill="#1C1C1C" opacity="0.75" stroke="#1C1C1C" stroke-width="0.15" stroke-opacity="0.3" />
    <polygon points="107.7604,229.1398 100.2364,216.1079 92.7124,203.0759 70.1404,190.0440 62.6164,203.0759 47.5684,203.0759 55.0924,216.1079 62.6164,229.1398 77.6644,229.1398 85.1884,242.1718 100.2364,242.1718 92.7124,229.1398 85.1884,216.1079" fill="#2E5090" opacity="0.75" stroke="#1C1C1C" stroke-width="0.15" stroke-opacity="0.3" />
    <polygon points="70.1404,216.1079 55.0924,216.1079 40.0444,216.1079 17.4724,203.0759 24.9964,190.0440 17.4724,177.0120 32.5204,177.0120 47.5684,177.0120 55.0924,190.0440 70.1404,190.0440 77.6644,203.0759 62.6164,203.0759 47.5684,203.0759" fill="#1C1C1C" opacity="0.75" stroke="#1C1C1C" stroke-width="0.15" stroke-opacity="0.3" />
    <polygon points="56.6407,104.0581 64.1647,91.0262 71.6887,77.9942 71.6887,51.9303 56.6407,51.9303 49.1167,38.8984 41.5927,51.9303 34.0687,64.9623 41.5927,77.9942 34.0687,91.0262 41.5927,104.0581 49.1167,91.0262 56.6407,77.9942" fill="#2E5090" opacity="0.75" stroke="#1C1C1C" stroke-width="0.15" stroke-opacity="0.3" />
    <polygon points="71.6887,156.1860 86.7367,156.1860 101.7847,156.1860 124.3567,169.2179 116.8327,182.2499 124.3567,195.2818 109.3087,195.2818 94.2607,195.2818 86.7367,182.2499 71.6887,182.2499 64.1647,169.2179 79.2127,169.2179 94.2607,169.2179" fill="#1C1C1C" opacity="0.75" stroke="#1C1C1C" stroke-width="0.15" stroke-opacity="0.3" />
    <polygon points="92.7124,109.2960 85.1884,96.2640 77.6644,83.2321 77.6644,57.1682 92.7124,57.1682 100.2364,44.1362 107.7604,57.1682 115.2844,70.2001 107.7604,83.2321 115.2844,96.2640 107.7604,109.2960 100.2364,96.2640 92.7124,83.2321" fill="#1C1C1C" opacity="0.75" stroke="#1C1C1C" stroke-width="0.15" stroke-opacity="0.3" />
    <polygon points="137.8564,109.2960 152.9044,109.2960 167.9524,109.2960 190.5244,96.2640 183.0004,83.2321 190.5244,70.2001 175.4764,70.2001 160.4284,70.2001 152.9044,83.2321 137.8564,83.2321 130.3324,96.2640 145.3804,96.2640 160.4284,96.2640" fill="#2E5090" opacity="0.75" stroke="#1C1C1C" stroke-width="0.15" stroke-opacity="0.3" />
    <polygon points="100.2364,148.3919 107.7604,161.4238 115.2844,174.4558 115.2844,200.5197 100.2364,200.5197 92.7124,213.5516 85.1884,200.5197 77.6644,187.4877 85.1884,174.4558 77.6644,161.4238 85.1884,148.3919 92.7124,161.4238 100.2364,174.4558" fill="#1C1C1C" opacity="0.75" stroke="#1C1C1C" stroke-width="0.15" stroke-opacity="0.3" />
    <polygon points="55.0924,148.3919 62.6164,135.3599 70.1404,122.3280 70.1404,96.2640 55.0924,96.2640 47.5684,83.2321 40.0444,96.2640 32.5204,109.2960 40.0444,122.3280 32.5204,135.3599 40.0444,148.3919 47.5684,135.3599 55.0924,122.3280" fill="#2E5090" opacity="0.75" stroke="#1C1C1C" stroke-width="0.15" stroke-opacity="0.3" />
    <polygon points="47.5684,109.2960 40.0444,96.2640 32.5204,83.2321 32.5204,57.1682 47.5684,57.1682 55.0924,44.1362 62.6164,57.1682 70.1404,70.2001 62.6164,83.2321 70.1404,96.2640 62.6164,109.2960 55.0924,96.2640 47.5684,83.2321" fill="#1C1C1C" opacity="0.75" stroke="#1C1C1C" stroke-width="0.15" stroke-opacity="0.3" />
    <polygon points="151.3562,143.1540 158.8802,130.1220 166.4042,117.0901 188.9762,104.0581 196.5002,117.0901 211.5482,117.0901 204.0242,130.1220 196.5002,143.1540 181.4522,143.1540 173.9282,156.1860 158.8802,156.1860 166.4042,143.1540 173.9282,130.1220" fill="#1C1C1C" opacity="0.75" stroke="#1C1C1C" stroke-width="0.15" stroke-opacity="0.3" />
    <polygon points="181.4522,117.0901 188.9762,104.0581 196.5002,91.0262 196.5002,64.9623 181.4522,64.9623 173.9282,51.9303 166.4042,64.9623 158.8802,77.9942 166.4042,91.0262 158.8802,104.0581 166.4042,117.0901 173.9282,104.0581 181.4522,91.0262" fill="#2E5090" opacity="0.75" stroke="#1C1C1C" stroke-width="0.15" stroke-opacity="0.3" />
    <polygon points="204.0242,156.1860 219.0722,156.1860 234.1202,156.1860 256.6922,169.2179 249.1682,182.2499 256.6922,195.2818 241.6442,195.2818 226.5962,195.2818 219.0722,182.2499 204.0242,182.2499 196.5002,169.2179 211.5482,169.2179 226.5962,169.2179" fill="#1C1C1C" opacity="0.75" stroke="#1C1C1C" stroke-width="0.15" stroke-opacity="0.3" />
    <polygon points="173.9282,182.2499 181.4522,195.2818 188.9762,208.3138 211.5482,221.3457 219.0722,208.3138 234.1202,208.3138 226.5962,195.2818 219.0722,182.2499 204.0242,182.2499 196.5002,169.2179 181.4522,169.2179 188.9762,182.2499 196.5002,195.2818" fill="#2E5090" opacity="0.75" stroke="#1C1C1C" stroke-width="0.15" stroke-opacity="0.3" />
    <polygon points="121.2602,169.2179 113.7362,182.2499 106.2122,195.2818 83.6402,208.3138 76.1162,195.2818 61.0682,195.2818 68.5922,182.2499 76.1162,169.2179 91.1642,169.2179 98.6882,156.1860 113.7362,156.1860 106.2122,169.2179 98.6882,182.2499" fill="#1C1C1C" opacity="0.75" stroke="#1C1C1C" stroke-width="0.15" stroke-opacity="0.3" />
    <polygon points="98.6882,130.1220 113.7362,130.1220 128.7842,130.1220 151.3562,117.0901 143.8322,104.0581 151.3562,91.0262 136.3082,91.0262 121.2602,91.0262 113.7362,104.0581 98.6882,104.0581 91.1642,117.0901 106.2122,117.0901 121.2602,117.0901" fill="#2E5090" opacity="0.75" stroke="#1C1C1C" stroke-width="0.15" stroke-opacity="0.3" />
    <polygon points="128.7842,104.0581 136.3082,91.0262 143.8322,77.9942 166.4042,64.9623 173.9282,77.9942 188.9762,77.9942 181.4522,91.0262 173.9282,104.0581 158.8802,104.0581 151.3562,117.0901 136.3082,117.0901 143.8322,104.0581 151.3562,91.0262" fill="#1C1C1C" opacity="0.75" stroke="#1C1C1C" stroke-width="0.15" stroke-opacity="0.3" />
    <polygon points="151.3562,210.8700 166.4042,210.8700 181.4522,210.8700 204.0242,223.9020 196.5002,236.9339 204.0242,249.9659 188.9762,249.9659 173.9282,249.9659 166.4042,236.9339 151.3562,236.9339 143.8322,223.9020 158.8802,223.9020 173.9282,223.9020" fill="#1C1C1C" opacity="0.75" stroke="#1C1C1C" stroke-width="0.15" stroke-opacity="0.3" />
    <polygon points="188.9762,223.9020 204.0242,223.9020 219.0722,223.9020 241.6442,210.8700 234.1202,197.8380 241.6442,184.8061 226.5962,184.8061 211.5482,184.8061 204.0242,197.8380 188.9762,197.8380 181.4522,210.8700 196.5002,210.8700 211.5482,210.8700" fill="#2E5090" opacity="0.75" stroke="#1C1C1C" stroke-width="0.15" stroke-opacity="0.3" />
    <polygon points="166.4042,262.9978 173.9282,276.0298 181.4522,289.0617 181.4522,315.1256 166.4042,315.1256 158.8802,328.1576 151.3562,315.1256 143.8322,302.0937 151.3562,289.0617 143.8322,276.0298 151.3562,262.9978 158.8802,276.0298 166.4042,289.0617" fill="#1C1C1C" opacity="0.75" stroke="#1C1C1C" stroke-width="0.15" stroke-opacity="0.3" />
    <polygon points="128.7842,249.9659 121.2602,262.9978 113.7362,276.0298 113.7362,302.0937 128.7842,302.0937 136.3082,315.1256 143.8322,302.0937 151.3562,289.0617 143.8322,276.0298 151.3562,262.9978 143.8322,249.9659 136.3082,262.9978 128.7842,276.0298" fill="#2E5090" opacity="0.75" stroke="#1C1C1C" stroke-width="0.15" stroke-opacity="0.3" />
    <polygon points="113.7362,197.8380 98.6882,197.8380 83.6402,197.8380 61.0682,184.8061 68.5922,171.7741 61.0682,158.7422 76.1162,158.7422 91.1642,158.7422 98.6882,171.7741 113.7362,171.7741 121.2602,184.8061 106.2122,184.8061 91.1642,184.8061" fill="#1C1C1C" opacity="0.75" stroke="#1C1C1C" stroke-width="0.15" stroke-opacity="0.3" />
    <polygon points="136.3082,158.7422 143.8322,171.7741 151.3562,184.8061 173.9282,197.8380 181.4522,184.8061 196.5002,184.8061 188.9762,171.7741 181.4522,158.7422 166.4042,158.7422 158.8802,145.7102 143.8322,145.7102 151.3562,158.7422 158.8802,171.7741" fill="#2E5090" opacity="0.75" stroke="#1C1C1C" stroke-width="0.15" stroke-opacity="0.3" />
    <polygon points="173.9282,171.7741 188.9762,171.7741 204.0242,171.7741 226.5962,184.8061 219.0722,197.8380 226.5962,210.8700 211.5482,210.8700 196.5002,210.8700 188.9762,197.8380 173.9282,197.8380 166.4042,184.8061 181.4522,184.8061 196.5002,184.8061" fill="#1C1C1C" opacity="0.75" stroke="#1C1C1C" stroke-width="0.15" stroke-opacity="0.3" />
    <polygon points="92.7124,244.7280 100.2364,257.7600 107.7604,270.7919 107.7604,296.8558 92.7124,296.8558 85.1884,309.8878 77.6644,296.8558 70.1404,283.8239 77.6644,270.7919 70.1404,257.7600 77.6644,244.7280 85.1884,257.7600 92.7124,270.7919" fill="#1C1C1C" opacity="0.75" stroke="#1C1C1C" stroke-width="0.15" stroke-opacity="0.3" />
    <polygon points="100.2364,283.8239 107.7604,296.8558 115.2844,309.8878 137.8564,322.9197 145.3804,309.8878 160.4284,309.8878 152.9044,296.8558 145.3804,283.8239 130.3324,283.8239 122.8084,270.7919 107.7604,270.7919 115.2844,283.8239 122.8084,296.8558" fill="#2E5090" opacity="0.75" stroke="#1C1C1C" stroke-width="0.15" stroke-opacity="0.3" />
    <polygon points="85.1884,205.6321 77.6644,192.6002 70.1404,179.5682 70.1404,153.5043 85.1884,153.5043 92.7124,140.4724 100.2364,153.5043 107.7604,166.5363 100.2364,179.5682 107.7604,192.6002 100.2364,205.6321 92.7124,192.6002 85.1884,179.5682" fill="#1C1C1C" opacity="0.75" stroke="#1C1C1C" stroke-width="0.15" stroke-opacity="0.3" />
    <polygon points="130.3324,205.6321 122.8084,218.6641 115.2844,231.6960 115.2844,257.7600 130.3324,257.7600 137.8564,270.7919 145.3804,257.7600 152.9044,244.7280 145.3804,231.6960 152.9044,218.6641 145.3804,205.6321 137.8564,218.6641 130.3324,231.6960" fill="#2E5090" opacity="0.75" stroke="#1C1C1C" stroke-width="0.15" stroke-opacity="0.3" />
    <polygon points="137.8564,244.7280 145.3804,257.7600 152.9044,270.7919 152.9044,296.8558 137.8564,296.8558 130.3324,309.8878 122.8084,296.8558 115.2844,283.8239 122.8084,270.7919 115.2844,257.7600 122.8084,244.7280 130.3324,257.7600 137.8564,270.7919" fill="#1C1C1C" opacity="0.75" stroke="#1C1C1C" stroke-width="0.15" stroke-opacity="0.3" />
    <polygon points="64.1647,184.8061 71.6887,171.7741 79.2127,158.7422 101.7847,145.7102 109.3087,158.7422 124.3567,158.7422 116.8327,171.7741 109.3087,184.8061 94.2607,184.8061 86.7367,197.8380 71.6887,197.8380 79.2127,184.8061 86.7367,171.7741" fill="#1C1C1C" opacity="0.75" stroke="#1C1C1C" stroke-width="0.15" stroke-opacity="0.3" />
    <polygon points="86.7367,223.9020 71.6887,223.9020 56.6407,223.9020 34.0687,236.9339 41.5927,249.9659 34.0687,262.9978 49.1167,262.9978 64.1647,262.9978 71.6887,249.9659 86.7367,249.9659 94.2607,236.9339 79.2127,236.9339 64.1647,236.9339" fill="#2E5090" opacity="0.75" stroke="#1C1C1C" stroke-width="0.15" stroke-opacity="0.3" />
    <polygon points="210.0000,109.2960 202.4760,96.2640 194.9520,83.2321 194.9520,57.1682 210.0000,57.1682 217.5240,44.1362 225.0480,57.1682 232.5720,70.2001 225.0480,83.2321 232.5720,96.2640 225.0480,109.2960 217.5240,96.2640 210.0000,83.2321" fill="#1C1C1C" opacity="0.75" stroke="#1C1C1C" stroke-width="0.15" stroke-opacity="0.3" />
    <polygon points="255.1440,109.2960 270.1920,109.2960 285.2400,109.2960 307.8120,96.2640 300.2880,83.2321 307.8120,70.2001 292.7640,70.2001 277.7160,70.2001 270.1920,83.2321 255.1440,83.2321 247.6200,96.2640 262.6680,96.2640 277.7160,96.2640" fill="#2E5090" opacity="0.75" stroke="#1C1C1C" stroke-width="0.15" stroke-opacity="0.3" />
    <polygon points="217.5240,148.3919 225.0480,161.4238 232.5720,174.4558 232.5720,200.5197 217.5240,200.5197 210.0000,213.5516 202.4760,200.5197 194.9520,187.4877 202.4760,174.4558 194.9520,161.4238 202.4760,148.3919 210.0000,161.4238 217.5240,174.4558" fill="#1C1C1C" opacity="0.75" stroke="#1C1C1C" stroke-width="0.15" stroke-opacity="0.3" />
    <polygon points="172.3800,148.3919 179.9040,135.3599 187.4280,122.3280 187.4280,96.2640 172.3800,96.2640 164.8560,83.2321 157.3320,96.2640 149.8080,109.2960 157.3320,122.3280 149.8080,135.3599 157.3320,148.3919 164.8560,135.3599 172.3800,122.3280" fill="#2E5090" opacity="0.75" stroke="#1C1C1C" stroke-width="0.15" stroke-opacity="0.3" />
    <polygon points="164.8560,109.2960 157.3320,96.2640 149.8080,83.2321 149.8080,57.1682 164.8560,57.1682 172.3800,44.1362 179.9040,57.1682 187.4280,70.2001 179.9040,83.2321 187.4280,96.2640 179.9040,109.2960 172.3800,96.2640 164.8560,83.2321" fill="#1C1C1C" opacity="0.75" stroke="#1C1C1C" stroke-width="0.15" stroke-opacity="0.3" />
    <polygon points="217.5240,80.6759 225.0480,93.7078 232.5720,106.7398 232.5720,132.8037 217.5240,132.8037 210.0000,145.8356 202.4760,132.8037 194.9520,119.7717 202.4760,106.7398 194.9520,93.7078 202.4760,80.6759 210.0000,93.7078 217.5240,106.7398" fill="#1C1C1C" opacity="0.75" stroke="#1C1C1C" stroke-width="0.15" stroke-opacity="0.3" />
    <polygon points="321.3118,88.4700 336.3598,88.4700 351.4078,88.4700 373.9798,101.5019 366.4558,114.5339 373.9798,127.5658 358.9318,127.5658 343.8838,127.5658 336.3598,114.5339 321.3118,114.5339 313.7878,101.5019 328.8358,101.5019 343.8838,101.5019" fill="#1C1C1C" opacity="0.75" stroke="#1C1C1C" stroke-width="0.15" stroke-opacity="0.3" />
    <polygon points="291.2158,114.5339 298.7398,127.5658 306.2638,140.5978 328.8358,153.6297 336.3598,140.5978 351.4078,140.5978 343.8838,127.5658 336.3598,114.5339 321.3118,114.5339 313.7878,101.5019 298.7398,101.5019 306.2638,114.5339 313.7878,127.5658" fill="#2E5090" opacity="0.75" stroke="#1C1C1C" stroke-width="0.15" stroke-opacity="0.3" />
    <polygon points="238.5478,101.5019 231.0238,114.5339 223.4998,127.5658 200.9278,140.5978 193.4038,127.5658 178.3558,127.5658 185.8798,114.5339 193.4038,101.5019 208.4518,101.5019 215.9758,88.4700 231.0238,88.4700 223.4998,101.5019 215.9758,114.5339" fill="#1C1C1C" opacity="0.75" stroke="#1C1C1C" stroke-width="0.15" stroke-opacity="0.3" />
    <polygon points="268.6438,143.1540 283.6918,143.1540 298.7398,143.1540 321.3118,156.1860 313.7878,169.2179 321.3118,182.2499 306.2638,182.2499 291.2158,182.2499 283.6918,169.2179 268.6438,169.2179 261.1198,156.1860 276.1678,156.1860 291.2158,156.1860" fill="#1C1C1C" opacity="0.75" stroke="#1C1C1C" stroke-width="0.15" stroke-opacity="0.3" />
    <polygon points="306.2638,156.1860 321.3118,156.1860 336.3598,156.1860 358.9318,143.1540 351.4078,130.1220 358.9318,117.0901 343.8838,117.0901 328.8358,117.0901 321.3118,130.1220 306.2638,130.1220 298.7398,143.1540 313.7878,143.1540 328.8358,143.1540" fill="#2E5090" opacity="0.75" stroke="#1C1C1C" stroke-width="0.15" stroke-opacity="0.3" />
    <polygon points="283.6918,195.2818 291.2158,208.3138 298.7398,221.3457 298.7398,247.4096 283.6918,247.4096 276.1678,260.4416 268.6438,247.4096 261.1198,234.3777 268.6438,221.3457 261.1198,208.3138 268.6438,195.2818 276.1678,208.3138 283.6918,221.3457" fill="#1C1C1C" opacity="0.75" stroke="#1C1C1C" stroke-width="0.15" stroke-opacity="0.3" />
    <polygon points="246.0718,182.2499 238.5478,195.2818 231.0238,208.3138 231.0238,234.3777 246.0718,234.3777 253.5958,247.4096 261.1198,234.3777 268.6438,221.3457 261.1198,208.3138 268.6438,195.2818 261.1198,182.2499 253.5958,195.2818 246.0718,208.3138" fill="#2E5090" opacity="0.75" stroke="#1C1C1C" stroke-width="0.15" stroke-opacity="0.3" />
    <polygon points="231.0238,130.1220 215.9758,130.1220 200.9278,130.1220 178.3558,117.0901 185.8798,104.0581 178.3558,91.0262 193.4038,91.0262 208.4518,91.0262 215.9758,104.0581 231.0238,104.0581 238.5478,117.0901 223.4998,117.0901 208.4518,117.0901" fill="#1C1C1C" opacity="0.75" stroke="#1C1C1C" stroke-width="0.15" stroke-opacity="0.3" />
    <polygon points="253.5958,91.0262 261.1198,104.0581 268.6438,117.0901 291.2158,130.1220 298.7398,117.0901 313.7878,117.0901 306.2638,104.0581 298.7398,91.0262 283.6918,91.0262 276.1678,77.9942 261.1198,77.9942 268.6438,91.0262 276.1678,104.0581" fill="#2E5090" opacity="0.75" stroke="#1C1C1C" stroke-width="0.15" stroke-opacity="0.3" />
    <polygon points="291.2158,104.0581 306.2638,104.0581 321.3118,104.0581 343.8838,117.0901 336.3598,130.1220 343.8838,143.1540 328.8358,143.1540 313.7878,143.1540 306.2638,130.1220 291.2158,130.1220 283.6918,117.0901 298.7398,117.0901 313.7878,117.0901" fill="#1C1C1C" opacity="0.75" stroke="#1C1C1C" stroke-width="0.15" stroke-opacity="0.3" />
    <polygon points="210.0000,177.0120 217.5240,190.0440 225.0480,203.0759 225.0480,229.1398 210.0000,229.1398 202.4760,242.1718 194.9520,229.1398 187.4280,216.1079 194.9520,203.0759 187.4280,190.0440 194.9520,177.0120 202.4760,190.0440 210.0000,203.0759" fill="#1C1C1C" opacity="0.75" stroke="#1C1C1C" stroke-width="0.15" stroke-opacity="0.3" />
    <polygon points="217.5240,216.1079 225.0480,229.1398 232.5720,242.1718 255.1440,255.2037 262.6680,242.1718 277.7160,242.1718 270.1920,229.1398 262.6680,216.1079 247.6200,216.1079 240.0960,203.0759 225.0480,203.0759 232.5720,216.1079 240.0960,229.1398" fill="#2E5090" opacity="0.75" stroke="#1C1C1C" stroke-width="0.15" stroke-opacity="0.3" />
    <polygon points="172.3800,216.1079 164.8560,229.1398 157.3320,242.1718 134.7600,255.2037 127.2360,242.1718 112.1880,242.1718 119.7120,229.1398 127.2360,216.1079 142.2840,216.1079 149.8080,203.0759 164.8560,203.0759 157.3320,216.1079 149.8080,229.1398" fill="#1C1C1C" opacity="0.75" stroke="#1C1C1C" stroke-width="0.15" stroke-opacity="0.3" />
    <polygon points="164.8560,177.0120 149.8080,177.0120 134.7600,177.0120 112.1880,190.0440 119.7120,203.0759 112.1880,216.1079 127.2360,216.1079 142.2840,216.1079 149.8080,203.0759 164.8560,203.0759 172.3800,190.0440 157.3320,190.0440 142.2840,190.0440" fill="#2E5090" opacity="0.75" stroke="#1C1C1C" stroke-width="0.15" stroke-opacity="0.3" />
    <polygon points="202.4760,137.9161 194.9520,124.8842 187.4280,111.8522 187.4280,85.7883 202.4760,85.7883 210.0000,72.7564 217.5240,85.7883 225.0480,98.8203 217.5240,111.8522 225.0480,124.8842 217.5240,137.9161 210.0000,124.8842 202.4760,111.8522" fill="#1C1C1C" opacity="0.75" stroke="#1C1C1C" stroke-width="0.15" stroke-opacity="0.3" />
    <polygon points="247.6200,137.9161 240.0960,150.9481 232.5720,163.9800 232.5720,190.0440 247.6200,190.0440 255.1440,203.0759 262.6680,190.0440 270.1920,177.0120 262.6680,163.9800 270.1920,150.9481 262.6680,137.9161 255.1440,150.9481 247.6200,163.9800" fill="#2E5090" opacity="0.75" stroke="#1C1C1C" stroke-width="0.15" stroke-opacity="0.3" />
    <polygon points="255.1440,177.0120 262.6680,190.0440 270.1920,203.0759 270.1920,229.1398 255.1440,229.1398 247.6200,242.1718 240.0960,229.1398 232.5720,216.1079 240.0960,203.0759 232.5720,190.0440 240.0960,177.0120 247.6200,190.0440 255.1440,203.0759" fill="#1C1C1C" opacity="0.75" stroke="#1C1C1C" stroke-width="0.15" stroke-opacity="0.3" />
    <polygon points="151.3562,143.1540 143.8322,156.1860 136.3082,169.2179 113.7362,182.2499 106.2122,169.2179 91.1642,169.2179 98.6882,156.1860 106.2122,143.1540 121.2602,143.1540 128.7842,130.1220 143.8322,130.1220 136.3082,143.1540 128.7842,156.1860" fill="#1C1C1C" opacity="0.75" stroke="#1C1C1C" stroke-width="0.15" stroke-opacity="0.3" />
    <polygon points="121.2602,169.2179 113.7362,182.2499 106.2122,195.2818 106.2122,221.3457 121.2602,221.3457 128.7842,234.3777 136.3082,221.3457 143.8322,208.3138 136.3082,195.2818 143.8322,182.2499 136.3082,169.2179 128.7842,182.2499 121.2602,195.2818" fill="#2E5090" opacity="0.75" stroke="#1C1C1C" stroke-width="0.15" stroke-opacity="0.3" />
    <polygon points="98.6882,130.1220 83.6402,130.1220 68.5922,130.1220 46.0202,117.0901 53.5442,104.0581 46.0202,91.0262 61.0682,91.0262 76.1162,91.0262 83.6402,104.0581 98.6882,104.0581 106.2122,117.0901 91.1642,117.0901 76.1162,117.0901" fill="#1C1C1C" opacity="0.75" stroke="#1C1C1C" stroke-width="0.15" stroke-opacity="0.3" />
    <polygon points="128.7842,104.0581 121.2602,91.0262 113.7362,77.9942 91.1642,64.9623 83.6402,77.9942 68.5922,77.9942 76.1162,91.0262 83.6402,104.0581 98.6882,104.0581 106.2122,117.0901 121.2602,117.0901 113.7362,104.0581 106.2122,91.0262" fill="#2E5090" opacity="0.75" stroke="#1C1C1C" stroke-width="0.15" stroke-opacity="0.3" />
    <polygon points="181.4522,117.0901 188.9762,104.0581 196.5002,91.0262 219.0722,77.9942 226.5962,91.0262 241.6442,91.0262 234.1202,104.0581 226.5962,117.0901 211.5482,117.0901 204.0242,130.1220 188.9762,130.1220 196.5002,117.0901 204.0242,104.0581" fill="#1C1C1C" opacity="0.75" stroke="#1C1C1C" stroke-width="0.15" stroke-opacity="0.3" />
    <polygon points="204.0242,156.1860 188.9762,156.1860 173.9282,156.1860 151.3562,169.2179 158.8802,182.2499 151.3562,195.2818 166.4042,195.2818 181.4522,195.2818 188.9762,182.2499 204.0242,182.2499 211.5482,169.2179 196.5002,169.2179 181.4522,169.2179" fill="#2E5090" opacity="0.75" stroke="#1C1C1C" stroke-width="0.15" stroke-opacity="0.3" />
    <polygon points="173.9282,182.2499 166.4042,195.2818 158.8802,208.3138 136.3082,221.3457 128.7842,208.3138 113.7362,208.3138 121.2602,195.2818 128.7842,182.2499 143.8322,182.2499 151.3562,169.2179 166.4042,169.2179 158.8802,182.2499 151.3562,195.2818" fill="#1C1C1C" opacity="0.75" stroke="#1C1C1C" stroke-width="0.15" stroke-opacity="0.3" />
    <polygon points="113.7362,62.4060 98.6882,62.4060 83.6402,62.4060 61.0682,75.4380 68.5922,88.4700 61.0682,101.5019 76.1162,101.5019 91.1642,101.5019 98.6882,88.4700 113.7362,88.4700 121.2602,75.4380 106.2122,75.4380 91.1642,75.4380" fill="#2E5090" opacity="0.75" stroke="#1C1C1C" stroke-width="0.15" stroke-opacity="0.3" />
    <polygon points="188.9762,88.4700 204.0242,88.4700 219.0722,88.4700 241.6442,101.5019 234.1202,114.5339 241.6442,127.5658 226.5962,127.5658 211.5482,127.5658 204.0242,114.5339 188.9762,114.5339 181.4522,101.5019 196.5002,101.5019 211.5482,101.5019" fill="#1C1C1C" opacity="0.75" stroke="#1C1C1C" stroke-width="0.15" stroke-opacity="0.3" />
    <polygon points="166.4042,127.5658 158.8802,114.5339 151.3562,101.5019 128.7842,88.4700 121.2602,101.5019 106.2122,101.5019 113.7362,114.5339 121.2602,127.5658 136.3082,127.5658 143.8322,140.5978 158.8802,140.5978 151.3562,127.5658 143.8322,114.5339" fill="#2E5090" opacity="0.75" stroke="#1C1C1C" stroke-width="0.15" stroke-opacity="0.3" />
    <polygon points="128.7842,114.5339 113.7362,114.5339 98.6882,114.5339 76.1162,101.5019 83.6402,88.4700 76.1162,75.4380 91.1642,75.4380 106.2122,75.4380 113.7362,88.4700 128.7842,88.4700 136.3082,101.5019 121.2602,101.5019 106.2122,101.5019" fill="#1C1C1C" opacity="0.75" stroke="#1C1C1C" stroke-width="0.15" stroke-opacity="0.3" />
    <polygon points="327.2876,177.0120 334.8116,163.9800 342.3356,150.9481 364.9076,137.9161 372.4316,150.9481 387.4796,150.9481 379.9556,163.9800 372.4316,177.0120 357.3836,177.0120 349.8596,190.0440 334.8116,190.0440 342.3356,177.0120 349.8596,163.9800" fill="#1C1C1C" opacity="0.75" stroke="#1C1C1C" stroke-width="0.15" stroke-opacity="0.3" />
    <polygon points="357.3836,150.9481 364.9076,137.9161 372.4316,124.8842 372.4316,98.8203 357.3836,98.8203 349.8596,85.7883 342.3356,98.8203 334.8116,111.8522 342.3356,124.8842 334.8116,137.9161 342.3356,150.9481 349.8596,137.9161 357.3836,124.8842" fill="#2E5090" opacity="0.75" stroke="#1C1C1C" stroke-width="0.15" stroke-opacity="0.3" />
    <polygon points="349.8596,216.1079 357.3836,229.1398 364.9076,242.1718 387.4796,255.2037 395.0036,242.1718 410.0516,242.1718 402.5276,229.1398 395.0036,216.1079 379.9556,216.1079 372.4316,203.0759 357.3836,203.0759 364.9076,216.1079 372.4316,229.1398" fill="#2E5090" opacity="0.75" stroke="#1C1C1C" stroke-width="0.15" stroke-opacity="0.3" />
    <polygon points="297.1916,203.0759 289.6676,216.1079 282.1436,229.1398 259.5716,242.1718 252.0476,229.1398 236.9996,229.1398 244.5236,216.1079 252.0476,203.0759 267.0956,203.0759 274.6196,190.0440 289.6676,190.0440 282.1436,203.0759 274.6196,216.1079" fill="#1C1C1C" opacity="0.75" stroke="#1C1C1C" stroke-width="0.15" stroke-opacity="0.3" />
    <polygon points="274.6196,163.9800 289.6676,163.9800 304.7156,163.9800 327.2876,150.9481 319.7636,137.9161 327.2876,124.8842 312.2396,124.8842 297.1916,124.8842 289.6676,137.9161 274.6196,137.9161 267.0956,150.9481 282.1436,150.9481 297.1916,150.9481" fill="#2E5090" opacity="0.75" stroke="#1C1C1C" stroke-width="0.15" stroke-opacity="0.3" />
    <polygon points="304.7156,137.9161 312.2396,124.8842 319.7636,111.8522 342.3356,98.8203 349.8596,111.8522 364.9076,111.8522 357.3836,124.8842 349.8596,137.9161 334.8116,137.9161 327.2876,150.9481 312.2396,150.9481 319.7636,137.9161 327.2876,124.8842" fill="#1C1C1C" opacity="0.75" stroke="#1C1C1C" stroke-width="0.15" stroke-opacity="0.3" />
    <polygon points="355.8353,169.2179 348.3113,182.2499 340.7873,195.2818 318.2153,208.3138 310.6913,195.2818 295.6433,195.2818 303.1673,182.2499 310.6913,169.2179 325.7393,169.2179 333.2633,156.1860 348.3113,156.1860 340.7873,169.2179 333.2633,182.2499" fill="#1C1C1C" opacity="0.75" stroke="#1C1C1C" stroke-width="0.15" stroke-opacity="0.3" />
    <polygon points="333.2633,130.1220 348.3113,130.1220 363.3593,130.1220 385.9313,117.0901 378.4073,104.0581 385.9313,91.0262 370.8833,91.0262 355.8353,91.0262 348.3113,104.0581 333.2633,104.0581 325.7393,117.0901 340.7873,117.0901 355.8353,117.0901" fill="#2E5090" opacity="0.75" stroke="#1C1C1C" stroke-width="0.15" stroke-opacity="0.3" />
    <polygon points="363.3593,249.9659 355.8353,262.9978 348.3113,276.0298 348.3113,302.0937 363.3593,302.0937 370.8833,315.1256 378.4073,302.0937 385.9313,289.0617 378.4073,276.0298 385.9313,262.9978 378.4073,249.9659 370.8833,262.9978 363.3593,276.0298" fill="#2E5090" opacity="0.75" stroke="#1C1C1C" stroke-width="0.15" stroke-opacity="0.3" />
    <polygon points="348.3113,197.8380 333.2633,197.8380 318.2153,197.8380 295.6433,184.8061 303.1673,171.7741 295.6433,158.7422 310.6913,158.7422 325.7393,158.7422 333.2633,171.7741 348.3113,171.7741 355.8353,184.8061 340.7873,184.8061 325.7393,184.8061" fill="#1C1C1C" opacity="0.75" stroke="#1C1C1C" stroke-width="0.15" stroke-opacity="0.3" />
    <polygon points="327.2876,244.7280 334.8116,257.7600 342.3356,270.7919 342.3356,296.8558 327.2876,296.8558 319.7636,309.8878 312.2396,296.8558 304.7156,283.8239 312.2396,270.7919 304.7156,257.7600 312.2396,244.7280 319.7636,257.7600 327.2876,270.7919" fill="#1C1C1C" opacity="0.75" stroke="#1C1C1C" stroke-width="0.15" stroke-opacity="0.3" />
    <polygon points="334.8116,283.8239 342.3356,296.8558 349.8596,309.8878 372.4316,322.9197 379.9556,309.8878 395.0036,309.8878 387.4796,296.8558 379.9556,283.8239 364.9076,283.8239 357.3836,270.7919 342.3356,270.7919 349.8596,283.8239 357.3836,296.8558" fill="#2E5090" opacity="0.75" stroke="#1C1C1C" stroke-width="0.15" stroke-opacity="0.3" />
    <polygon points="289.6676,283.8239 282.1436,296.8558 274.6196,309.8878 252.0476,322.9197 244.5236,309.8878 229.4756,309.8878 236.9996,296.8558 244.5236,283.8239 259.5716,283.8239 267.0956,270.7919 282.1436,270.7919 274.6196,283.8239 267.0956,296.8558" fill="#1C1C1C" opacity="0.75" stroke="#1C1C1C" stroke-width="0.15" stroke-opacity="0.3" />
    <polygon points="282.1436,244.7280 267.0956,244.7280 252.0476,244.7280 229.4756,257.7600 236.9996,270.7919 229.4756,283.8239 244.5236,283.8239 259.5716,283.8239 267.0956,270.7919 282.1436,270.7919 289.6676,257.7600 274.6196,257.7600 259.5716,257.7600" fill="#2E5090" opacity="0.75" stroke="#1C1C1C" stroke-width="0.15" stroke-opacity="0.3" />
    <polygon points="319.7636,205.6321 312.2396,192.6002 304.7156,179.5682 304.7156,153.5043 319.7636,153.5043 327.2876,140.4724 334.8116,153.5043 342.3356,166.5363 334.8116,179.5682 342.3356,192.6002 334.8116,205.6321 327.2876,192.6002 319.7636,179.5682" fill="#1C1C1C" opacity="0.75" stroke="#1C1C1C" stroke-width="0.15" stroke-opacity="0.3" />
    <polygon points="364.9076,205.6321 357.3836,218.6641 349.8596,231.6960 349.8596,257.7600 364.9076,257.7600 372.4316,270.7919 379.9556,257.7600 387.4796,244.7280 379.9556,231.6960 387.4796,218.6641 379.9556,205.6321 372.4316,218.6641 364.9076,231.6960" fill="#2E5090" opacity="0.75" stroke="#1C1C1C" stroke-width="0.15" stroke-opacity="0.3" />
    <polygon points="372.4316,244.7280 379.9556,257.7600 387.4796,270.7919 387.4796,296.8558 372.4316,296.8558 364.9076,309.8878 357.3836,296.8558 349.8596,283.8239 357.3836,270.7919 349.8596,257.7600 357.3836,244.7280 364.9076,257.7600 372.4316,270.7919" fill="#1C1C1C" opacity="0.75" stroke="#1C1C1C" stroke-width="0.15" stroke-opacity="0.3" />
    <polygon points="268.6438,210.8700 261.1198,223.9020 253.5958,236.9339 231.0238,249.9659 223.4998,236.9339 208.4518,236.9339 215.9758,223.9020 223.4998,210.8700 238.5478,210.8700 246.0718,197.8380 261.1198,197.8380 253.5958,210.8700 246.0718,223.9020" fill="#1C1C1C" opacity="0.75" stroke="#1C1C1C" stroke-width="0.15" stroke-opacity="0.3" />
    <polygon points="238.5478,236.9339 231.0238,249.9659 223.4998,262.9978 223.4998,289.0617 238.5478,289.0617 246.0718,302.0937 253.5958,289.0617 261.1198,276.0298 253.5958,262.9978 261.1198,249.9659 253.5958,236.9339 246.0718,249.9659 238.5478,262.9978" fill="#2E5090" opacity="0.75" stroke="#1C1C1C" stroke-width="0.15" stroke-opacity="0.3" />
    <polygon points="215.9758,197.8380 200.9278,197.8380 185.8798,197.8380 163.3078,184.8061 170.8318,171.7741 163.3078,158.7422 178.3558,158.7422 193.4038,158.7422 200.9278,171.7741 215.9758,171.7741 223.4998,184.8061 208.4518,184.8061 193.4038,184.8061" fill="#1C1C1C" opacity="0.75" stroke="#1C1C1C" stroke-width="0.15" stroke-opacity="0.3" />
    <polygon points="246.0718,171.7741 238.5478,158.7422 231.0238,145.7102 208.4518,132.6783 200.9278,145.7102 185.8798,145.7102 193.4038,158.7422 200.9278,171.7741 215.9758,171.7741 223.4998,184.8061 238.5478,184.8061 231.0238,171.7741 223.4998,158.7422" fill="#2E5090" opacity="0.75" stroke="#1C1C1C" stroke-width="0.15" stroke-opacity="0.3" />
    <polygon points="298.7398,184.8061 306.2638,171.7741 313.7878,158.7422 336.3598,145.7102 343.8838,158.7422 358.9318,158.7422 351.4078,171.7741 343.8838,184.8061 328.8358,184.8061 321.3118,197.8380 306.2638,197.8380 313.7878,184.8061 321.3118,171.7741" fill="#1C1C1C" opacity="0.75" stroke="#1C1C1C" stroke-width="0.15" stroke-opacity="0.3" />
    <polygon points="321.3118,223.9020 306.2638,223.9020 291.2158,223.9020 268.6438,236.9339 276.1678,249.9659 268.6438,262.9978 283.6918,262.9978 298.7398,262.9978 306.2638,249.9659 321.3118,249.9659 328.8358,236.9339 313.7878,236.9339 298.7398,236.9339" fill="#2E5090" opacity="0.75" stroke="#1C1C1C" stroke-width="0.15" stroke-opacity="0.3" />
    <polygon points="291.2158,249.9659 283.6918,262.9978 276.1678,276.0298 253.5958,289.0617 246.0718,276.0298 231.0238,276.0298 238.5478,262.9978 246.0718,249.9659 261.1198,249.9659 268.6438,236.9339 283.6918,236.9339 276.1678,249.9659 268.6438,262.9978" fill="#1C1C1C" opacity="0.75" stroke="#1C1C1C" stroke-width="0.15" stroke-opacity="0.3" />
    <polygon points="268.6438,143.1540 253.5958,143.1540 238.5478,143.1540 215.9758,130.1220 223.4998,117.0901 215.9758,104.0581 231.0238,104.0581 246.0718,104.0581 253.5958,117.0901 268.6438,117.0901 276.1678,130.1220 261.1198,130.1220 246.0718,130.1220" fill="#1C1C1C" opacity="0.75" stroke="#1C1C1C" stroke-width="0.15" stroke-opacity="0.3" />
    <polygon points="231.0238,130.1220 215.9758,130.1220 200.9278,130.1220 178.3558,143.1540 185.8798,156.1860 178.3558,169.2179 193.4038,169.2179 208.4518,169.2179 215.9758,156.1860 231.0238,156.1860 238.5478,143.1540 223.4998,143.1540 208.4518,143.1540" fill="#2E5090" opacity="0.75" stroke="#1C1C1C" stroke-width="0.15" stroke-opacity="0.3" />
    <polygon points="291.2158,104.0581 298.7398,91.0262 306.2638,77.9942 306.2638,51.9303 291.2158,51.9303 283.6918,38.8984 276.1678,51.9303 268.6438,64.9623 276.1678,77.9942 268.6438,91.0262 276.1678,104.0581 283.6918,91.0262 291.2158,77.9942" fill="#2E5090" opacity="0.75" stroke="#1C1C1C" stroke-width="0.15" stroke-opacity="0.3" />
    <polygon points="306.2638,156.1860 321.3118,156.1860 336.3598,156.1860 358.9318,169.2179 351.4078,182.2499 358.9318,195.2818 343.8838,195.2818 328.8358,195.2818 321.3118,182.2499 306.2638,182.2499 298.7398,169.2179 313.7878,169.2179 328.8358,169.2179" fill="#1C1C1C" opacity="0.75" stroke="#1C1C1C" stroke-width="0.15" stroke-opacity="0.3" />
    <polygon points="283.6918,195.2818 276.1678,182.2499 268.6438,169.2179 246.0718,156.1860 238.5478,169.2179 223.4998,169.2179 231.0238,182.2499 238.5478,195.2818 253.5958,195.2818 261.1198,208.3138 276.1678,208.3138 268.6438,195.2818 261.1198,182.2499" fill="#2E5090" opacity="0.75" stroke="#1C1C1C" stroke-width="0.15" stroke-opacity="0.3" />
    <polygon points="246.0718,182.2499 231.0238,182.2499 215.9758,182.2499 193.4038,169.2179 200.9278,156.1860 193.4038,143.1540 208.4518,143.1540 223.4998,143.1540 231.0238,156.1860 246.0718,156.1860 253.5958,169.2179 238.5478,169.2179 223.4998,169.2179" fill="#1C1C1C" opacity="0.75" stroke="#1C1C1C" stroke-width="0.15" stroke-opacity="0.3" />
    <polygon points="327.2876,109.2960 319.7636,96.2640 312.2396,83.2321 312.2396,57.1682 327.2876,57.1682 334.8116,44.1362 342.3356,57.1682 349.8596,70.2001 342.3356,83.2321 349.8596,96.2640 342.3356,109.2960 334.8116,96.2640 327.2876,83.2321" fill="#1C1C1C" opacity="0.75" stroke="#1C1C1C" stroke-width="0.15" stroke-opacity="0.3" />
    <polygon points="334.8116,148.3919 342.3356,161.4238 349.8596,174.4558 349.8596,200.5197 334.8116,200.5197 327.2876,213.5516 319.7636,200.5197 312.2396,187.4877 319.7636,174.4558 312.2396,161.4238 319.7636,148.3919 327.2876,161.4238 334.8116,174.4558" fill="#1C1C1C" opacity="0.75" stroke="#1C1C1C" stroke-width="0.15" stroke-opacity="0.3" />
    <polygon points="289.6676,148.3919 297.1916,135.3599 304.7156,122.3280 304.7156,96.2640 289.6676,96.2640 282.1436,83.2321 274.6196,96.2640 267.0956,109.2960 274.6196,122.3280 267.0956,135.3599 274.6196,148.3919 282.1436,135.3599 289.6676,122.3280" fill="#2E5090" opacity="0.75" stroke="#1C1C1C" stroke-width="0.15" stroke-opacity="0.3" />
    <polygon points="282.1436,109.2960 274.6196,96.2640 267.0956,83.2321 267.0956,57.1682 282.1436,57.1682 289.6676,44.1362 297.1916,57.1682 304.7156,70.2001 297.1916,83.2321 304.7156,96.2640 297.1916,109.2960 289.6676,96.2640 282.1436,83.2321" fill="#1C1C1C" opacity="0.75" stroke="#1C1C1C" stroke-width="0.15" stroke-opacity="0.3" />
  </g>
  <g id="annotations">
    <line x1="63.0" y1="427.79999999999995" x2="357.0" y2="427.79999999999995" stroke="#8B0000" stroke-width="0.3" opacity="0.5" />
    <g>
      <circle cx="63.0" cy="437.79999999999995" r="1.0" fill="#8B0000" />
      <text x="63.0" y="447.79999999999995" font-family="'Inter', 'Helvetica Neue', Arial, sans-serif, system-ui, -apple-system, 'Segoe UI', Roboto, 'Apple Color Emoji', 'Segoe UI Emoji', 'Segoe UI Symbol'" fill="#8B0000" font-size="5.0" text-anchor="middle">The Einstein Tile</text>
      <text x="63.0" y="454.79999999999995" font-family="'Inter', 'Helvetica Neue', Arial, sans-serif, system-ui, -apple-system, 'Segoe UI', Roboto, 'Apple Color Emoji', 'Segoe UI Emoji', 'Segoe UI Symbol'" fill="#1C1C1C" font-size="3.8" text-anchor="middle">
        <tspan x="63.0" dy="0">‘Ein Stein’ — German for ‘one</tspan>
        <tspan x="63.0" dy="5.0">stone’ — names the dream of a single</tspan>
        <tspan x="63.0" dy="5.0">shape that tiles the entire plane</tspan>
        <tspan x="63.0" dy="5.0">yet can never do so periodically.</tspan>
        <tspan x="63.0" dy="5.0">The Hat is the first shape proven</tspan>
        <tspan x="63.0" dy="5.0">to achieve this remarkable feat.</tspan>
      </text>
    </g>
    <g>
      <circle cx="210.0" cy="437.79999999999995" r="1.0" fill="#8B0000" />
      <text x="210.0" y="447.79999999999995" font-family="'Inter', 'Helvetica Neue', Arial, sans-serif, system-ui, -apple-system, 'Segoe UI', Roboto, 'Apple Color Emoji', 'Segoe UI Emoji', 'Segoe UI Symbol'" fill="#8B0000" font-size="5.0" text-anchor="middle">Aperiodic Order</text>
      <text x="210.0" y="454.79999999999995" font-family="'Inter', 'Helvetica Neue', Arial, sans-serif, system-ui, -apple-system, 'Segoe UI', Roboto, 'Apple Color Emoji', 'Segoe UI Emoji', 'Segoe UI Symbol'" fill="#1C1C1C" font-size="3.8" text-anchor="middle">
        <tspan x="210.0" dy="0">The Hat fills the plane edge to</tspan>
        <tspan x="210.0" dy="5.0">edge with no gaps or overlaps, yet</tspan>
        <tspan x="210.0" dy="5.0">no translation can map the tiling</tspan>
        <tspan x="210.0" dy="5.0">onto itself. Every finite patch</tspan>
        <tspan x="210.0" dy="5.0">recurs infinitely often, but the</tspan>
        <tspan x="210.0" dy="5.0">whole pattern never repeats.</tspan>
      </text>
    </g>
    <g>
      <circle cx="357.0" cy="437.79999999999995" r="1.0" fill="#8B0000" />
      <text x="357.0" y="447.79999999999995" font-family="'Inter', 'Helvetica Neue', Arial, sans-serif, system-ui, -apple-system, 'Segoe UI', Roboto, 'Apple Color Emoji', 'Segoe UI Emoji', 'Segoe UI Symbol'" fill="#8B0000" font-size="5.0" text-anchor="middle">A Simple Shape</text>
      <text x="357.0" y="454.79999999999995" font-family="'Inter', 'Helvetica Neue', Arial, sans-serif, system-ui, -apple-system, 'Segoe UI', Roboto, 'Apple Color Emoji', 'Segoe UI Emoji', 'Segoe UI Symbol'" fill="#1C1C1C" font-size="3.8" text-anchor="middle">
        <tspan x="357.0" dy="0">Just 13 sides and 8 kite shapes</tspan>
        <tspan x="357.0" dy="5.0">compose the Hat — a polykite on the</tspan>
        <tspan x="357.0" dy="5.0">triangular grid. Its outline is so</tspan>
        <tspan x="357.0" dy="5.0">simple it can be drawn by hand, yet</tspan>
        <tspan x="357.0" dy="5.0">its tiling behaviour is profoundly</tspan>
        <tspan x="357.0" dy="5.0">complex and inherently non-periodic.</tspan>
      </text>
    </g>
  </g>
  <g id="educational">
    <line x1="63.0" y1="500.79999999999995" x2="357.0" y2="500.79999999999995" stroke="#8B0000" stroke-width="0.3" opacity="0.35" />
    <g>
      <text x="63.0" y="514.8" font-family="'Inter', 'Helvetica Neue', Arial, sans-serif, system-ui, -apple-system, 'Segoe UI', Roboto, 'Apple Color Emoji', 'Segoe UI Emoji', 'Segoe UI Symbol'" fill="#8B0000" font-size="5.0" text-anchor="middle">How the Hat Tiles</text>
      <text x="63.0" y="521.8" font-family="'Inter', 'Helvetica Neue', Arial, sans-serif, system-ui, -apple-system, 'Segoe UI', Roboto, 'Apple Color Emoji', 'Segoe UI Emoji', 'Segoe UI Symbol'" fill="#1C1C1C" font-size="3.8" text-anchor="middle">
        <tspan x="63.0" dy="0">The Hat tiles through a hierarchical</tspan>
        <tspan x="63.0" dy="5.0">substitution system. Small clusters</tspan>
        <tspan x="63.0" dy="5.0">of Hats combine into four metatile</tspan>
        <tspan x="63.0" dy="5.0">types (H, T, P, F) that themselves</tspan>
        <tspan x="63.0" dy="5.0">tile by substitution. Reflected and</tspan>
        <tspan x="63.0" dy="5.0">unreflected Hats interleave at each</tspan>
        <tspan x="63.0" dy="5.0">level, ensuring the pattern extends</tspan>
        <tspan x="63.0" dy="5.0">to infinity without ever repeating.</tspan>
      </text>
    </g>
    <g>
      <text x="210.0" y="514.8" font-family="'Inter', 'Helvetica Neue', Arial, sans-serif, system-ui, -apple-system, 'Segoe UI', Roboto, 'Apple Color Emoji', 'Segoe UI Emoji', 'Segoe UI Symbol'" fill="#8B0000" font-size="5.0" text-anchor="middle">The Discovery</text>
      <text x="210.0" y="521.8" font-family="'Inter', 'Helvetica Neue', Arial, sans-serif, system-ui, -apple-system, 'Segoe UI', Roboto, 'Apple Color Emoji', 'Segoe UI Emoji', 'Segoe UI Symbol'" fill="#1C1C1C" font-size="3.8" text-anchor="middle">
        <tspan x="210.0" dy="0">In late 2022, hobbyist David Smith</tspan>
        <tspan x="210.0" dy="5.0">noticed a curious shape while playing</tspan>
        <tspan x="210.0" dy="5.0">with paper cut-outs. Teaming with</tspan>
        <tspan x="210.0" dy="5.0">mathematicians Myers, Kaplan, and</tspan>
        <tspan x="210.0" dy="5.0">Goodman-Strauss, they proved it was</tspan>
        <tspan x="210.0" dy="5.0">a true aperiodic monotile — solving</tspan>
        <tspan x="210.0" dy="5.0">a problem open for over 60 years.</tspan>
        <tspan x="210.0" dy="5.0">Their paper appeared in March 2023.</tspan>
      </text>
    </g>
    <g>
      <text x="357.0" y="514.8" font-family="'Inter', 'Helvetica Neue', Arial, sans-serif, system-ui, -apple-system, 'Segoe UI', Roboto, 'Apple Color Emoji', 'Segoe UI Emoji', 'Segoe UI Symbol'" fill="#8B0000" font-size="5.0" text-anchor="middle">Mathematical Significance</text>
      <text x="357.0" y="521.8" font-family="'Inter', 'Helvetica Neue', Arial, sans-serif, system-ui, -apple-system, 'Segoe UI', Roboto, 'Apple Color Emoji', 'Segoe UI Emoji', 'Segoe UI Symbol'" fill="#1C1C1C" font-size="3.8" text-anchor="middle">
        <tspan x="357.0" dy="0">The Hat requires reflections: some</tspan>
        <tspan x="357.0" dy="5.0">tiles are mirrored copies. In May</tspan>
        <tspan x="357.0" dy="5.0">2023 the same team unveiled the</tspan>
        <tspan x="357.0" dy="5.0">‘Spectre’ — a modified monotile that</tspan>
        <tspan x="357.0" dy="5.0">tiles aperiodically without any</tspan>
        <tspan x="357.0" dy="5.0">reflections at all. Together these</tspan>
        <tspan x="357.0" dy="5.0">discoveries reshape our fundamental</tspan>
        <tspan x="357.0" dy="5.0">understanding of geometric order.</tspan>
      </text>
    </g>
  </g>
  <text x="210.0" y="576.0" font-family="'Inter', 'Helvetica Neue', Arial, sans-serif, system-ui, -apple-system, 'Segoe UI', Roboto, 'Apple Color Emoji', 'Segoe UI Emoji', 'Segoe UI Symbol'" font-size="4.0" fill="#555555" text-anchor="middle">The Hat monotile — discovered by Smith, Myers, Kaplan &amp; Goodman-Strauss, 2023.</text>
  <text x="210.0" y="582.0" font-family="'Inter', 'Helvetica Neue', Arial, sans-serif, system-ui, -apple-system, 'Segoe UI', Roboto, 'Apple Color Emoji', 'Segoe UI Emoji', 'Segoe UI Symbol'" font-size="3.5" fill="#777777" text-anchor="middle">Generated with 2 iterations  ·  253 tiles rendered  ·  13 vertices · 8 kites</text>
  <rect x="4" y="4" width="412" height="586" fill="none" stroke="#1C1C1C" stroke-width="0.8" />
  <rect x="7" y="7" width="406" height="580" fill="none" stroke="#1C1C1C" stroke-width="0.2" />
</svg>