<?xml version='1.0' encoding='utf-8'?>
<svg xmlns="http://www.w3.org/2000/svg" version="1.1" width="420mm" height="594mm" viewBox="0 0 420 594">
  <style>@import url('https://fonts.googleapis.com/css2?family=Playfair+Display:ital,wght@0,400;0,700;1,400&amp;family=Inter:wght@300;400;500&amp;display=swap');</style>
  <rect x="0" y="0" width="420" height="594" fill="#FFFEF8" />
  <text x="210.0" y="27.918" font-family="'Playfair Display', Georgia, 'Times New Roman', serif" font-size="16.0" fill="#1C1C1C" text-anchor="middle">The Hat Monotile</text>
  <text x="210.0" y="38.016" font-family="'Inter', 'Helvetica Neue', Arial, sans-serif, system-ui, -apple-system, 'Segoe UI', Roboto, 'Apple Color Emoji', 'Segoe UI Emoji', 'Segoe UI Symbol'" font-size="6.0" fill="#8B0000" text-anchor="middle">A single shape that tiles the plane, but never periodically</text>
  <line x1="63.0" y1="43.955999999999996" x2="357.0" y2="43.955999999999996" stroke="#8B0000" stroke-width="0.4" />
  <defs>
    <marker id="arrowhead" markerWidth="6" markerHeight="6" refX="3" refY="3" orient="auto">
      <circle cx="3" cy="3" r="2" fill="#8B0000" />
    </marker>
  </defs>
  <g id="hat-tiling">
    <polygon points="210.0000,244.7280 223.1670,244.7280 236.3340,244.7280 256.0845,256.1310 262.6680,267.5339 256.0845,278.9369 242.9175,278.9369 223.1670,267.5339 210.0000,267.5339 190.2495,256.1310 183.6660,244.7280 190.2495,233.3250 203.4165,233.3250" fill="#1C1C1C" opacity="0.75" stroke="#1C1C1C" stroke-width="0.15" stroke-opacity="0.3" />
    <polygon points="223.1670,244.7280 210.0000,244.7280 196.8330,244.7280 177.0825,233.3250 170.4990,221.9221 177.0825,210.5191 190.2495,210.5191 210.0000,221.9221 223.1670,221.9221 242.9175,233.3250 249.5010,244.7280 242.9175,256.1310 229.7505,256.1310" fill="#1C1C1C" opacity="0.75" stroke="#1C1C1C" stroke-width="0.15" stroke-opacity="0.3" />
    <polygon points="269.2515,210.5191 262.6680,221.9221 256.0845,233.3250 236.3340,244.7280 223.1670,244.7280 216.5835,233.3250 223.1670,221.9221 242.9175,210.5191 249.5010,199.1162 269.2515,187.7132 282.4185,187.7132 289.0020,199.1162 282.4185,210.5191" fill="#1C1C1C" opacity="0.75" stroke="#1C1C1C" stroke-width="0.15" stroke-opacity="0.3" />
    <polygon points="282.4185,256.1310 269.2515,256.1310 256.0845,256.1310 236.3340,244.7280 229.7505,233.3250 236.3340,221.9221 249.5010,221.9221 269.2515,233.3250 282.4185,233.3250 302.1690,244.7280 308.7525,256.1310 302.1690,267.5339 289.0020,267.5339" fill="#1C1C1C" opacity="0.75" stroke="#1C1C1C" stroke-width="0.15" stroke-opacity="0.3" />
    <polygon points="249.5010,313.1457 256.0845,301.7428 262.6680,290.3398 262.6680,267.5339 256.0845,256.1310 242.9175,256.1310 236.3340,267.5339 236.3340,290.3398 229.7505,301.7428 229.7505,324.5487 236.3340,335.9517 249.5010,335.9517 256.0845,324.5487" fill="#2E5090" opacity="0.75" stroke="#1C1C1C" stroke-width="0.15" stroke-opacity="0.3" />
    <polygon points="269.2515,324.5487 262.6680,313.1457 256.0845,301.7428 256.0845,278.9369 262.6680,267.5339 275.8350,267.5339 282.4185,278.9369 282.4185,301.7428 289.0020,313.1457 289.0020,335.9517 282.4185,347.3546 269.2515,347.3546 262.6680,335.9517" fill="#1C1C1C" opacity="0.75" stroke="#1C1C1C" stroke-width="0.15" stroke-opacity="0.3" />
    <polygon points="196.8330,267.5339 210.0000,267.5339 223.1670,267.5339 242.9175,278.9369 249.5010,290.3398 242.9175,301.7428 229.7505,301.7428 210.0000,290.3398 196.8330,290.3398 177.0825,278.9369 170.4990,267.5339 177.0825,256.1310 190.2495,256.1310" fill="#1C1C1C" opacity="0.75" stroke="#1C1C1C" stroke-width="0.15" stroke-opacity="0.3" />
    <polygon points="177.0825,233.3250 183.6660,244.7280 190.2495,256.1310 190.2495,278.9369 183.6660,290.3398 170.4990,290.3398 163.9155,278.9369 163.9155,256.1310 157.3320,244.7280 157.3320,221.9221 163.9155,210.5191 177.0825,210.5191 183.6660,221.9221" fill="#1C1C1C" opacity="0.75" stroke="#1C1C1C" stroke-width="0.15" stroke-opacity="0.3" />
    <polygon points="177.0825,187.7132 183.6660,199.1162 190.2495,210.5191 190.2495,233.3250 183.6660,244.7280 170.4990,244.7280 163.9155,233.3250 163.9155,210.5191 157.3320,199.1162 157.3320,176.3103 163.9155,164.9073 177.0825,164.9073 183.6660,176.3103" fill="#1C1C1C" opacity="0.75" stroke="#1C1C1C" stroke-width="0.15" stroke-opacity="0.3" />
    <polygon points="236.3340,199.1162 229.7505,210.5191 223.1670,221.9221 203.4165,233.3250 190.2495,233.3250 183.6660,221.9221 190.2495,210.5191 210.0000,199.1162 216.5835,187.7132 236.3340,176.3103 249.5010,176.3103 256.0845,187.7132 249.5010,199.1162" fill="#1C1C1C" opacity="0.75" stroke="#1C1C1C" stroke-width="0.15" stroke-opacity="0.3" />
    <polygon points="124.4145,210.5191 137.5815,210.5191 150.7485,210.5191 170.4990,221.9221 177.0825,233.3250 170.4990,244.7280 157.3320,244.7280 137.5815,233.3250 124.4145,233.3250 104.6640,221.9221 98.0805,210.5191 104.6640,199.1162 117.8310,199.1162" fill="#1C1C1C" opacity="0.75" stroke="#1C1C1C" stroke-width="0.15" stroke-opacity="0.3" />
    <polygon points="124.4145,187.7132 137.5815,187.7132 150.7485,187.7132 170.4990,199.1162 177.0825,210.5191 170.4990,221.9221 157.3320,221.9221 137.5815,210.5191 124.4145,210.5191 104.6640,199.1162 98.0805,187.7132 104.6640,176.3103 117.8310,176.3103" fill="#1C1C1C" opacity="0.75" stroke="#1C1C1C" stroke-width="0.15" stroke-opacity="0.3" />
    <polygon points="295.5855,210.5191 289.0020,221.9221 282.4185,233.3250 262.6680,244.7280 249.5010,244.7280 242.9175,233.3250 249.5010,221.9221 269.2515,210.5191 275.8350,199.1162 295.5855,187.7132 308.7525,187.7132 315.3360,199.1162 308.7525,210.5191" fill="#1C1C1C" opacity="0.75" stroke="#1C1C1C" stroke-width="0.15" stroke-opacity="0.3" />
    <polygon points="295.5855,278.9369 282.4185,278.9369 269.2515,278.9369 249.5010,267.5339 242.9175,256.1310 249.5010,244.7280 262.6680,244.7280 282.4185,256.1310 295.5855,256.1310 315.3360,267.5339 321.9195,278.9369 315.3360,290.3398 302.1690,290.3398" fill="#1C1C1C" opacity="0.75" stroke="#1C1C1C" stroke-width="0.15" stroke-opacity="0.3" />
    <polygon points="236.3340,153.5043 242.9175,164.9073 249.5010,176.3103 249.5010,199.1162 242.9175,210.5191 229.7505,210.5191 223.1670,199.1162 223.1670,176.3103 216.5835,164.9073 216.5835,142.1014 223.1670,130.6984 236.3340,130.6984 242.9175,142.1014" fill="#1C1C1C" opacity="0.75" stroke="#1C1C1C" stroke-width="0.15" stroke-opacity="0.3" />
    <polygon points="282.4185,164.9073 275.8350,176.3103 269.2515,187.7132 249.5010,199.1162 236.3340,199.1162 229.7505,187.7132 236.3340,176.3103 256.0845,164.9073 262.6680,153.5043 282.4185,142.1014 295.5855,142.1014 302.1690,153.5043 295.5855,164.9073" fill="#1C1C1C" opacity="0.75" stroke="#1C1C1C" stroke-width="0.15" stroke-opacity="0.3" />
    <polygon points="282.4185,210.5191 289.0020,221.9221 295.5855,233.3250 315.3360,244.7280 328.5030,244.7280 335.0865,233.3250 328.5030,221.9221 308.7525,210.5191 302.1690,199.1162 282.4185,187.7132 269.2515,187.7132 262.6680,199.1162 269.2515,210.5191" fill="#2E5090" opacity="0.75" stroke="#1C1C1C" stroke-width="0.15" stroke-opacity="0.3" />
    <polygon points="335.0865,210.5191 321.9195,210.5191 308.7525,210.5191 289.0020,199.1162 282.4185,187.7132 289.0020,176.3103 302.1690,176.3103 321.9195,187.7132 335.0865,187.7132 354.8370,199.1162 361.4205,210.5191 354.8370,221.9221 341.6700,221.9221" fill="#1C1C1C" opacity="0.75" stroke="#1C1C1C" stroke-width="0.15" stroke-opacity="0.3" />
    <polygon points="315.3360,267.5339 308.7525,256.1310 302.1690,244.7280 302.1690,221.9221 308.7525,210.5191 321.9195,210.5191 328.5030,221.9221 328.5030,244.7280 335.0865,256.1310 335.0865,278.9369 328.5030,290.3398 315.3360,290.3398 308.7525,278.9369" fill="#1C1C1C" opacity="0.75" stroke="#1C1C1C" stroke-width="0.15" stroke-opacity="0.3" />
    <polygon points="315.3360,313.1457 308.7525,301.7428 302.1690,290.3398 302.1690,267.5339 308.7525,256.1310 321.9195,256.1310 328.5030,267.5339 328.5030,290.3398 335.0865,301.7428 335.0865,324.5487 328.5030,335.9517 315.3360,335.9517 308.7525,324.5487" fill="#1C1C1C" opacity="0.75" stroke="#1C1C1C" stroke-width="0.15" stroke-opacity="0.3" />
    <polygon points="295.5855,324.5487 289.0020,313.1457 282.4185,301.7428 282.4185,278.9369 289.0020,267.5339 302.1690,267.5339 308.7525,278.9369 308.7525,301.7428 315.3360,313.1457 315.3360,335.9517 308.7525,347.3546 295.5855,347.3546 289.0020,335.9517" fill="#1C1C1C" opacity="0.75" stroke="#1C1C1C" stroke-width="0.15" stroke-opacity="0.3" />
    <polygon points="223.1670,313.1457 229.7505,301.7428 236.3340,290.3398 236.3340,267.5339 229.7505,256.1310 216.5835,256.1310 210.0000,267.5339 210.0000,290.3398 203.4165,301.7428 203.4165,324.5487 210.0000,335.9517 223.1670,335.9517 229.7505,324.5487" fill="#2E5090" opacity="0.75" stroke="#1C1C1C" stroke-width="0.15" stroke-opacity="0.3" />
    <polygon points="242.9175,347.3546 236.3340,335.9517 229.7505,324.5487 210.0000,313.1457 196.8330,313.1457 190.2495,324.5487 196.8330,335.9517 216.5835,347.3546 223.1670,358.7576 242.9175,370.1605 256.0845,370.1605 262.6680,358.7576 256.0845,347.3546" fill="#2E5090" opacity="0.75" stroke="#1C1C1C" stroke-width="0.15" stroke-opacity="0.3" />
    <polygon points="282.4185,370.1605 275.8350,358.7576 269.2515,347.3546 249.5010,335.9517 236.3340,335.9517 229.7505,347.3546 236.3340,358.7576 256.0845,370.1605 262.6680,381.5635 282.4185,392.9664 295.5855,392.9664 302.1690,381.5635 295.5855,370.1605" fill="#2E5090" opacity="0.75" stroke="#1C1C1C" stroke-width="0.15" stroke-opacity="0.3" />
    <polygon points="302.1690,313.1457 289.0020,313.1457 275.8350,313.1457 256.0845,324.5487 249.5010,335.9517 256.0845,347.3546 269.2515,347.3546 289.0020,335.9517 302.1690,335.9517 321.9195,324.5487 328.5030,313.1457 321.9195,301.7428 308.7525,301.7428" fill="#2E5090" opacity="0.75" stroke="#1C1C1C" stroke-width="0.15" stroke-opacity="0.3" />
    <polygon points="216.5835,301.7428 229.7505,301.7428 242.9175,301.7428 262.6680,313.1457 269.2515,324.5487 262.6680,335.9517 249.5010,335.9517 229.7505,324.5487 216.5835,324.5487 196.8330,313.1457 190.2495,301.7428 196.8330,290.3398 210.0000,290.3398" fill="#1C1C1C" opacity="0.75" stroke="#1C1C1C" stroke-width="0.15" stroke-opacity="0.3" />
    <polygon points="335.0865,370.1605 321.9195,370.1605 308.7525,370.1605 289.0020,358.7576 282.4185,347.3546 289.0020,335.9517 302.1690,335.9517 321.9195,347.3546 335.0865,347.3546 354.8370,358.7576 361.4205,370.1605 354.8370,381.5635 341.6700,381.5635" fill="#1C1C1C" opacity="0.75" stroke="#1C1C1C" stroke-width="0.15" stroke-opacity="0.3" />
    <polygon points="216.5835,370.1605 223.1670,358.7576 229.7505,347.3546 249.5010,335.9517 262.6680,335.9517 269.2515,347.3546 262.6680,358.7576 242.9175,370.1605 236.3340,381.5635 216.5835,392.9664 203.4165,392.9664 196.8330,381.5635 203.4165,370.1605" fill="#1C1C1C" opacity="0.75" stroke="#1C1C1C" stroke-width="0.15" stroke-opacity="0.3" />
    <polygon points="163.9155,324.5487 170.4990,313.1457 177.0825,301.7428 196.8330,290.3398 210.0000,290.3398 216.5835,301.7428 210.0000,313.1457 190.2495,324.5487 183.6660,335.9517 163.9155,347.3546 150.7485,347.3546 144.1650,335.9517 150.7485,324.5487" fill="#1C1C1C" opacity="0.75" stroke="#1C1C1C" stroke-width="0.15" stroke-opacity="0.3" />
    <polygon points="150.7485,278.9369 163.9155,278.9369 177.0825,278.9369 196.8330,290.3398 203.4165,301.7428 196.8330,313.1457 183.6660,313.1457 163.9155,301.7428 150.7485,301.7428 130.9980,290.3398 124.4145,278.9369 130.9980,267.5339 144.1650,267.5339" fill="#1C1C1C" opacity="0.75" stroke="#1C1C1C" stroke-width="0.15" stroke-opacity="0.3" />
    <polygon points="124.4145,233.3250 137.5815,233.3250 150.7485,233.3250 170.4990,244.7280 177.0825,256.1310 170.4990,267.5339 157.3320,267.5339 137.5815,256.1310 124.4145,256.1310 104.6640,244.7280 98.0805,233.3250 104.6640,221.9221 117.8310,221.9221" fill="#1C1C1C" opacity="0.75" stroke="#1C1C1C" stroke-width="0.15" stroke-opacity="0.3" />
    <polygon points="137.5815,324.5487 144.1650,313.1457 150.7485,301.7428 170.4990,290.3398 183.6660,290.3398 190.2495,301.7428 183.6660,313.1457 163.9155,324.5487 157.3320,335.9517 137.5815,347.3546 124.4145,347.3546 117.8310,335.9517 124.4145,324.5487" fill="#1C1C1C" opacity="0.75" stroke="#1C1C1C" stroke-width="0.15" stroke-opacity="0.3" />
    <polygon points="111.2475,278.9369 117.8310,267.5339 124.4145,256.1310 144.1650,244.7280 157.3320,244.7280 163.9155,256.1310 157.3320,267.5339 137.5815,278.9369 130.9980,290.3398 111.2475,301.7428 98.0805,301.7428 91.4970,290.3398 98.0805,278.9369" fill="#1C1C1C" opacity="0.75" stroke="#1C1C1C" stroke-width="0.15" stroke-opacity="0.3" />
    <polygon points="150.7485,164.9073 157.3320,176.3103 163.9155,187.7132 163.9155,210.5191 157.3320,221.9221 144.1650,221.9221 137.5815,210.5191 137.5815,187.7132 130.9980,176.3103 130.9980,153.5043 137.5815,142.1014 150.7485,142.1014 157.3320,153.5043" fill="#1C1C1C" opacity="0.75" stroke="#1C1C1C" stroke-width="0.15" stroke-opacity="0.3" />
    <polygon points="190.2495,164.9073 196.8330,176.3103 203.4165,187.7132 203.4165,210.5191 196.8330,221.9221 183.6660,221.9221 177.0825,210.5191 177.0825,187.7132 170.4990,176.3103 170.4990,153.5043 177.0825,142.1014 190.2495,142.1014 196.8330,153.5043" fill="#1C1C1C" opacity="0.75" stroke="#1C1C1C" stroke-width="0.15" stroke-opacity="0.3" />
    <polygon points="150.7485,119.2955 157.3320,130.6984 163.9155,142.1014 163.9155,164.9073 157.3320,176.3103 144.1650,176.3103 137.5815,164.9073 137.5815,142.1014 130.9980,130.6984 130.9980,107.8925 137.5815,96.4896 150.7485,96.4896 157.3320,107.8925" fill="#1C1C1C" opacity="0.75" stroke="#1C1C1C" stroke-width="0.15" stroke-opacity="0.3" />
    <polygon points="210.0000,130.6984 203.4165,142.1014 196.8330,153.5043 177.0825,164.9073 163.9155,164.9073 157.3320,153.5043 163.9155,142.1014 183.6660,130.6984 190.2495,119.2955 210.0000,107.8925 223.1670,107.8925 229.7505,119.2955 223.1670,130.6984" fill="#1C1C1C" opacity="0.75" stroke="#1C1C1C" stroke-width="0.15" stroke-opacity="0.3" />
    <polygon points="229.7505,142.1014 223.1670,153.5043 216.5835,164.9073 196.8330,176.3103 183.6660,176.3103 177.0825,164.9073 183.6660,153.5043 203.4165,142.1014 210.0000,130.6984 229.7505,119.2955 242.9175,119.2955 249.5010,130.6984 242.9175,142.1014" fill="#1C1C1C" opacity="0.75" stroke="#1C1C1C" stroke-width="0.15" stroke-opacity="0.3" />
    <polygon points="269.2515,187.7132 275.8350,176.3103 282.4185,164.9073 302.1690,153.5043 315.3360,153.5043 321.9195,164.9073 315.3360,176.3103 295.5855,187.7132 289.0020,199.1162 269.2515,210.5191 256.0845,210.5191 249.5010,199.1162 256.0845,187.7132" fill="#1C1C1C" opacity="0.75" stroke="#1C1C1C" stroke-width="0.15" stroke-opacity="0.3" />
    <polygon points="78.3300,221.9221 91.4970,221.9221 104.6640,221.9221 124.4145,233.3250 130.9980,244.7280 124.4145,256.1310 111.2475,256.1310 91.4970,244.7280 78.3300,244.7280 58.5795,233.3250 51.9960,221.9221 58.5795,210.5191 71.7465,210.5191" fill="#1C1C1C" opacity="0.75" stroke="#1C1C1C" stroke-width="0.15" stroke-opacity="0.3" />
    <polygon points="104.6640,199.1162 98.0805,210.5191 91.4970,221.9221 71.7465,233.3250 58.5795,233.3250 51.9960,221.9221 58.5795,210.5191 78.3300,199.1162 84.9135,187.7132 104.6640,176.3103 117.8310,176.3103 124.4145,187.7132 117.8310,199.1162" fill="#1C1C1C" opacity="0.75" stroke="#1C1C1C" stroke-width="0.15" stroke-opacity="0.3" />
    <polygon points="111.2475,142.1014 117.8310,153.5043 124.4145,164.9073 124.4145,187.7132 117.8310,199.1162 104.6640,199.1162 98.0805,187.7132 98.0805,164.9073 91.4970,153.5043 91.4970,130.6984 98.0805,119.2955 111.2475,119.2955 117.8310,130.6984" fill="#1C1C1C" opacity="0.75" stroke="#1C1C1C" stroke-width="0.15" stroke-opacity="0.3" />
    <polygon points="130.9980,130.6984 137.5815,142.1014 144.1650,153.5043 144.1650,176.3103 137.5815,187.7132 124.4145,187.7132 117.8310,176.3103 117.8310,153.5043 111.2475,142.1014 111.2475,119.2955 117.8310,107.8925 130.9980,107.8925 137.5815,119.2955" fill="#1C1C1C" opacity="0.75" stroke="#1C1C1C" stroke-width="0.15" stroke-opacity="0.3" />
    <polygon points="91.4970,130.6984 98.0805,142.1014 104.6640,153.5043 104.6640,176.3103 98.0805,187.7132 84.9135,187.7132 78.3300,176.3103 78.3300,153.5043 71.7465,142.1014 71.7465,119.2955 78.3300,107.8925 91.4970,107.8925 98.0805,119.2955" fill="#1C1C1C" opacity="0.75" stroke="#1C1C1C" stroke-width="0.15" stroke-opacity="0.3" />
    <polygon points="341.6700,153.5043 335.0865,164.9073 328.5030,176.3103 308.7525,187.7132 295.5855,187.7132 289.0020,176.3103 295.5855,164.9073 315.3360,153.5043 321.9195,142.1014 341.6700,130.6984 354.8370,130.6984 361.4205,142.1014 354.8370,153.5043" fill="#1C1C1C" opacity="0.75" stroke="#1C1C1C" stroke-width="0.15" stroke-opacity="0.3" />
    <polygon points="361.4205,164.9073 354.8370,176.3103 348.2535,187.7132 328.5030,199.1162 315.3360,199.1162 308.7525,187.7132 315.3360,176.3103 335.0865,164.9073 341.6700,153.5043 361.4205,142.1014 374.5875,142.1014 381.1710,153.5043 374.5875,164.9073" fill="#1C1C1C" opacity="0.75" stroke="#1C1C1C" stroke-width="0.15" stroke-opacity="0.3" />
    <polygon points="368.0040,290.3398 354.8370,290.3398 341.6700,290.3398 321.9195,278.9369 315.3360,267.5339 321.9195,256.1310 335.0865,256.1310 354.8370,267.5339 368.0040,267.5339 387.7545,278.9369 394.3380,290.3398 387.7545,301.7428 374.5875,301.7428" fill="#1C1C1C" opacity="0.75" stroke="#1C1C1C" stroke-width="0.15" stroke-opacity="0.3" />
    <polygon points="368.0040,313.1457 354.8370,313.1457 341.6700,313.1457 321.9195,301.7428 315.3360,290.3398 321.9195,278.9369 335.0865,278.9369 354.8370,290.3398 368.0040,290.3398 387.7545,301.7428 394.3380,313.1457 387.7545,324.5487 374.5875,324.5487" fill="#1C1C1C" opacity="0.75" stroke="#1C1C1C" stroke-width="0.15" stroke-opacity="0.3" />
    <polygon points="242.9175,164.9073 236.3340,153.5043 229.7505,142.1014 229.7505,119.2955 236.3340,107.8925 249.5010,107.8925 256.0845,119.2955 256.0845,142.1014 262.6680,153.5043 262.6680,176.3103 256.0845,187.7132 242.9175,187.7132 236.3340,176.3103" fill="#1C1C1C" opacity="0.75" stroke="#1C1C1C" stroke-width="0.15" stroke-opacity="0.3" />
    <polygon points="210.0000,85.0866 216.5835,96.4896 223.1670,107.8925 223.1670,130.6984 216.5835,142.1014 203.4165,142.1014 196.8330,130.6984 196.8330,107.8925 190.2495,96.4896 190.2495,73.6837 196.8330,62.2807 210.0000,62.2807 216.5835,73.6837" fill="#1C1C1C" opacity="0.75" stroke="#1C1C1C" stroke-width="0.15" stroke-opacity="0.3" />
    <polygon points="269.2515,96.4896 262.6680,107.8925 256.0845,119.2955 236.3340,130.6984 223.1670,130.6984 216.5835,119.2955 223.1670,107.8925 242.9175,96.4896 249.5010,85.0866 269.2515,73.6837 282.4185,73.6837 289.0020,85.0866 282.4185,96.4896" fill="#1C1C1C" opacity="0.75" stroke="#1C1C1C" stroke-width="0.15" stroke-opacity="0.3" />
    <polygon points="289.0020,153.5043 275.8350,153.5043 262.6680,153.5043 242.9175,142.1014 236.3340,130.6984 242.9175,119.2955 256.0845,119.2955 275.8350,130.6984 289.0020,130.6984 308.7525,142.1014 315.3360,153.5043 308.7525,164.9073 295.5855,164.9073" fill="#1C1C1C" opacity="0.75" stroke="#1C1C1C" stroke-width="0.15" stroke-opacity="0.3" />
    <polygon points="308.7525,142.1014 295.5855,142.1014 282.4185,142.1014 262.6680,130.6984 256.0845,119.2955 262.6680,107.8925 275.8350,107.8925 295.5855,119.2955 308.7525,119.2955 328.5030,130.6984 335.0865,142.1014 328.5030,153.5043 315.3360,153.5043" fill="#1C1C1C" opacity="0.75" stroke="#1C1C1C" stroke-width="0.15" stroke-opacity="0.3" />
    <polygon points="348.2535,119.2955 341.6700,130.6984 335.0865,142.1014 315.3360,153.5043 302.1690,153.5043 295.5855,142.1014 302.1690,130.6984 321.9195,119.2955 328.5030,107.8925 348.2535,96.4896 361.4205,96.4896 368.0040,107.8925 361.4205,119.2955" fill="#1C1C1C" opacity="0.75" stroke="#1C1C1C" stroke-width="0.15" stroke-opacity="0.3" />
    <polygon points="335.0865,233.3250 328.5030,244.7280 321.9195,256.1310 321.9195,278.9369 328.5030,290.3398 341.6700,290.3398 348.2535,278.9369 348.2535,256.1310 354.8370,244.7280 354.8370,221.9221 348.2535,210.5191 335.0865,210.5191 328.5030,221.9221" fill="#2E5090" opacity="0.75" stroke="#1C1C1C" stroke-width="0.15" stroke-opacity="0.3" />
    <polygon points="381.1710,199.1162 368.0040,199.1162 354.8370,199.1162 335.0865,210.5191 328.5030,221.9221 335.0865,233.3250 348.2535,233.3250 368.0040,221.9221 381.1710,221.9221 400.9215,210.5191 407.5050,199.1162 400.9215,187.7132 387.7545,187.7132" fill="#2E5090" opacity="0.75" stroke="#1C1C1C" stroke-width="0.15" stroke-opacity="0.3" />
    <polygon points="368.0040,244.7280 354.8370,244.7280 341.6700,244.7280 321.9195,233.3250 315.3360,221.9221 321.9195,210.5191 335.0865,210.5191 354.8370,221.9221 368.0040,221.9221 387.7545,233.3250 394.3380,244.7280 387.7545,256.1310 374.5875,256.1310" fill="#1C1C1C" opacity="0.75" stroke="#1C1C1C" stroke-width="0.15" stroke-opacity="0.3" />
    <polygon points="374.5875,187.7132 368.0040,199.1162 361.4205,210.5191 341.6700,221.9221 328.5030,221.9221 321.9195,210.5191 328.5030,199.1162 348.2535,187.7132 354.8370,176.3103 374.5875,164.9073 387.7545,164.9073 394.3380,176.3103 387.7545,187.7132" fill="#1C1C1C" opacity="0.75" stroke="#1C1C1C" stroke-width="0.15" stroke-opacity="0.3" />
    <polygon points="341.6700,335.9517 335.0865,324.5487 328.5030,313.1457 328.5030,290.3398 335.0865,278.9369 348.2535,278.9369 354.8370,290.3398 354.8370,313.1457 361.4205,324.5487 361.4205,347.3546 354.8370,358.7576 341.6700,358.7576 335.0865,347.3546" fill="#1C1C1C" opacity="0.75" stroke="#1C1C1C" stroke-width="0.15" stroke-opacity="0.3" />
    <polygon points="381.1710,358.7576 368.0040,358.7576 354.8370,358.7576 335.0865,347.3546 328.5030,335.9517 335.0865,324.5487 348.2535,324.5487 368.0040,335.9517 381.1710,335.9517 400.9215,347.3546 407.5050,358.7576 400.9215,370.1605 387.7545,370.1605" fill="#1C1C1C" opacity="0.75" stroke="#1C1C1C" stroke-width="0.15" stroke-opacity="0.3" />
    <polygon points="315.3360,335.9517 328.5030,335.9517 341.6700,335.9517 361.4205,347.3546 368.0040,358.7576 361.4205,370.1605 348.2535,370.1605 328.5030,358.7576 315.3360,358.7576 295.5855,347.3546 289.0020,335.9517 295.5855,324.5487 308.7525,324.5487" fill="#1C1C1C" opacity="0.75" stroke="#1C1C1C" stroke-width="0.15" stroke-opacity="0.3" />
    <polygon points="262.6680,358.7576 275.8350,358.7576 289.0020,358.7576 308.7525,347.3546 315.3360,335.9517 308.7525,324.5487 295.5855,324.5487 275.8350,335.9517 262.6680,335.9517 242.9175,347.3546 236.3340,358.7576 242.9175,370.1605 256.0845,370.1605" fill="#2E5090" opacity="0.75" stroke="#1C1C1C" stroke-width="0.15" stroke-opacity="0.3" />
    <polygon points="302.1690,404.3694 295.5855,392.9664 289.0020,381.5635 289.0020,358.7576 295.5855,347.3546 308.7525,347.3546 315.3360,358.7576 315.3360,381.5635 321.9195,392.9664 321.9195,415.7723 315.3360,427.1753 302.1690,427.1753 295.5855,415.7723" fill="#1C1C1C" opacity="0.75" stroke="#1C1C1C" stroke-width="0.15" stroke-opacity="0.3" />
    <polygon points="196.8330,381.5635 203.4165,370.1605 210.0000,358.7576 210.0000,335.9517 203.4165,324.5487 190.2495,324.5487 183.6660,335.9517 183.6660,358.7576 177.0825,370.1605 177.0825,392.9664 183.6660,404.3694 196.8330,404.3694 203.4165,392.9664" fill="#2E5090" opacity="0.75" stroke="#1C1C1C" stroke-width="0.15" stroke-opacity="0.3" />
    <polygon points="163.9155,347.3546 170.4990,335.9517 177.0825,324.5487 196.8330,313.1457 210.0000,313.1457 216.5835,324.5487 210.0000,335.9517 190.2495,347.3546 183.6660,358.7576 163.9155,370.1605 150.7485,370.1605 144.1650,358.7576 150.7485,347.3546" fill="#1C1C1C" opacity="0.75" stroke="#1C1C1C" stroke-width="0.15" stroke-opacity="0.3" />
    <polygon points="229.7505,370.1605 223.1670,358.7576 216.5835,347.3546 196.8330,335.9517 183.6660,335.9517 177.0825,347.3546 183.6660,358.7576 203.4165,370.1605 210.0000,381.5635 229.7505,392.9664 242.9175,392.9664 249.5010,381.5635 242.9175,370.1605" fill="#2E5090" opacity="0.75" stroke="#1C1C1C" stroke-width="0.15" stroke-opacity="0.3" />
    <polygon points="269.2515,370.1605 256.0845,370.1605 242.9175,370.1605 223.1670,381.5635 216.5835,392.9664 223.1670,404.3694 236.3340,404.3694 256.0845,392.9664 269.2515,392.9664 289.0020,381.5635 295.5855,370.1605 289.0020,358.7576 275.8350,358.7576" fill="#2E5090" opacity="0.75" stroke="#1C1C1C" stroke-width="0.15" stroke-opacity="0.3" />
    <polygon points="295.5855,415.7723 289.0020,404.3694 282.4185,392.9664 262.6680,381.5635 249.5010,381.5635 242.9175,392.9664 249.5010,404.3694 269.2515,415.7723 275.8350,427.1753 295.5855,438.5783 308.7525,438.5783 315.3360,427.1753 308.7525,415.7723" fill="#2E5090" opacity="0.75" stroke="#1C1C1C" stroke-width="0.15" stroke-opacity="0.3" />
    <polygon points="348.2535,392.9664 341.6700,381.5635 335.0865,370.1605 315.3360,358.7576 302.1690,358.7576 295.5855,370.1605 302.1690,381.5635 321.9195,392.9664 328.5030,404.3694 348.2535,415.7723 361.4205,415.7723 368.0040,404.3694 361.4205,392.9664" fill="#2E5090" opacity="0.75" stroke="#1C1C1C" stroke-width="0.15" stroke-opacity="0.3" />
    <polygon points="354.8370,381.5635 361.4205,370.1605 368.0040,358.7576 387.7545,347.3546 400.9215,347.3546 407.5050,358.7576 400.9215,370.1605 381.1710,381.5635 374.5875,392.9664 354.8370,404.3694 341.6700,404.3694 335.0865,392.9664 341.6700,381.5635" fill="#1C1C1C" opacity="0.75" stroke="#1C1C1C" stroke-width="0.15" stroke-opacity="0.3" />
    <polygon points="203.4165,415.7723 210.0000,404.3694 216.5835,392.9664 236.3340,381.5635 249.5010,381.5635 256.0845,392.9664 249.5010,404.3694 229.7505,415.7723 223.1670,427.1753 203.4165,438.5783 190.2495,438.5783 183.6660,427.1753 190.2495,415.7723" fill="#1C1C1C" opacity="0.75" stroke="#1C1C1C" stroke-width="0.15" stroke-opacity="0.3" />
    <polygon points="150.7485,370.1605 163.9155,370.1605 177.0825,370.1605 196.8330,381.5635 203.4165,392.9664 196.8330,404.3694 183.6660,404.3694 163.9155,392.9664 150.7485,392.9664 130.9980,381.5635 124.4145,370.1605 130.9980,358.7576 144.1650,358.7576" fill="#1C1C1C" opacity="0.75" stroke="#1C1C1C" stroke-width="0.15" stroke-opacity="0.3" />
    <polygon points="150.7485,324.5487 144.1650,313.1457 137.5815,301.7428 117.8310,290.3398 104.6640,290.3398 98.0805,301.7428 104.6640,313.1457 124.4145,324.5487 130.9980,335.9517 150.7485,347.3546 163.9155,347.3546 170.4990,335.9517 163.9155,324.5487" fill="#2E5090" opacity="0.75" stroke="#1C1C1C" stroke-width="0.15" stroke-opacity="0.3" />
    <polygon points="98.0805,324.5487 111.2475,324.5487 124.4145,324.5487 144.1650,335.9517 150.7485,347.3546 144.1650,358.7576 130.9980,358.7576 111.2475,347.3546 98.0805,347.3546 78.3300,335.9517 71.7465,324.5487 78.3300,313.1457 91.4970,313.1457" fill="#1C1C1C" opacity="0.75" stroke="#1C1C1C" stroke-width="0.15" stroke-opacity="0.3" />
    <polygon points="78.3300,267.5339 91.4970,267.5339 104.6640,267.5339 124.4145,278.9369 130.9980,290.3398 124.4145,301.7428 111.2475,301.7428 91.4970,290.3398 78.3300,290.3398 58.5795,278.9369 51.9960,267.5339 58.5795,256.1310 71.7465,256.1310" fill="#1C1C1C" opacity="0.75" stroke="#1C1C1C" stroke-width="0.15" stroke-opacity="0.3" />
    <polygon points="150.7485,278.9369 163.9155,278.9369 177.0825,278.9369 196.8330,267.5339 203.4165,256.1310 196.8330,244.7280 183.6660,244.7280 163.9155,256.1310 150.7485,256.1310 130.9980,267.5339 124.4145,278.9369 130.9980,290.3398 144.1650,290.3398" fill="#2E5090" opacity="0.75" stroke="#1C1C1C" stroke-width="0.15" stroke-opacity="0.3" />
    <polygon points="104.6640,244.7280 98.0805,256.1310 91.4970,267.5339 91.4970,290.3398 98.0805,301.7428 111.2475,301.7428 117.8310,290.3398 117.8310,267.5339 124.4145,256.1310 124.4145,233.3250 117.8310,221.9221 104.6640,221.9221 98.0805,233.3250" fill="#2E5090" opacity="0.75" stroke="#1C1C1C" stroke-width="0.15" stroke-opacity="0.3" />
    <polygon points="111.2475,347.3546 124.4145,347.3546 137.5815,347.3546 157.3320,358.7576 163.9155,370.1605 157.3320,381.5635 144.1650,381.5635 124.4145,370.1605 111.2475,370.1605 91.4970,358.7576 84.9135,347.3546 91.4970,335.9517 104.6640,335.9517" fill="#1C1C1C" opacity="0.75" stroke="#1C1C1C" stroke-width="0.15" stroke-opacity="0.3" />
    <polygon points="71.7465,370.1605 78.3300,358.7576 84.9135,347.3546 104.6640,335.9517 117.8310,335.9517 124.4145,347.3546 117.8310,358.7576 98.0805,370.1605 91.4970,381.5635 71.7465,392.9664 58.5795,392.9664 51.9960,381.5635 58.5795,370.1605" fill="#1C1C1C" opacity="0.75" stroke="#1C1C1C" stroke-width="0.15" stroke-opacity="0.3" />
    <polygon points="84.9135,301.7428 98.0805,301.7428 111.2475,301.7428 130.9980,313.1457 137.5815,324.5487 130.9980,335.9517 117.8310,335.9517 98.0805,324.5487 84.9135,324.5487 65.1630,313.1457 58.5795,301.7428 65.1630,290.3398 78.3300,290.3398" fill="#1C1C1C" opacity="0.75" stroke="#1C1C1C" stroke-width="0.15" stroke-opacity="0.3" />
    <polygon points="45.4125,278.9369 58.5795,278.9369 71.7465,278.9369 91.4970,290.3398 98.0805,301.7428 91.4970,313.1457 78.3300,313.1457 58.5795,301.7428 45.4125,301.7428 25.6620,290.3398 19.0785,278.9369 25.6620,267.5339 38.8290,267.5339" fill="#1C1C1C" opacity="0.75" stroke="#1C1C1C" stroke-width="0.15" stroke-opacity="0.3" />
    <polygon points="163.9155,96.4896 170.4990,107.8925 177.0825,119.2955 177.0825,142.1014 170.4990,153.5043 157.3320,153.5043 150.7485,142.1014 150.7485,119.2955 144.1650,107.8925 144.1650,85.0866 150.7485,73.6837 163.9155,73.6837 170.4990,85.0866" fill="#1C1C1C" opacity="0.75" stroke="#1C1C1C" stroke-width="0.15" stroke-opacity="0.3" />
    <polygon points="223.1670,176.3103 216.5835,164.9073 210.0000,153.5043 190.2495,142.1014 177.0825,142.1014 170.4990,153.5043 177.0825,164.9073 196.8330,176.3103 203.4165,187.7132 223.1670,199.1162 236.3340,199.1162 242.9175,187.7132 236.3340,176.3103" fill="#2E5090" opacity="0.75" stroke="#1C1C1C" stroke-width="0.15" stroke-opacity="0.3" />
    <polygon points="183.6660,85.0866 190.2495,96.4896 196.8330,107.8925 196.8330,130.6984 190.2495,142.1014 177.0825,142.1014 170.4990,130.6984 170.4990,107.8925 163.9155,96.4896 163.9155,73.6837 170.4990,62.2807 183.6660,62.2807 190.2495,73.6837" fill="#1C1C1C" opacity="0.75" stroke="#1C1C1C" stroke-width="0.15" stroke-opacity="0.3" />
    <polygon points="117.8310,85.0866 124.4145,96.4896 130.9980,107.8925 130.9980,130.6984 124.4145,142.1014 111.2475,142.1014 104.6640,130.6984 104.6640,107.8925 98.0805,96.4896 98.0805,73.6837 104.6640,62.2807 117.8310,62.2807 124.4145,73.6837" fill="#1C1C1C" opacity="0.75" stroke="#1C1C1C" stroke-width="0.15" stroke-opacity="0.3" />
    <polygon points="150.7485,96.4896 137.5815,96.4896 124.4145,96.4896 104.6640,85.0866 98.0805,73.6837 104.6640,62.2807 117.8310,62.2807 137.5815,73.6837 150.7485,73.6837 170.4990,85.0866 177.0825,96.4896 170.4990,107.8925 157.3320,107.8925" fill="#1C1C1C" opacity="0.75" stroke="#1C1C1C" stroke-width="0.15" stroke-opacity="0.3" />
    <polygon points="236.3340,62.2807 242.9175,73.6837 249.5010,85.0866 249.5010,107.8925 242.9175,119.2955 229.7505,119.2955 223.1670,107.8925 223.1670,85.0866 216.5835,73.6837 216.5835,50.8777 223.1670,39.4748 236.3340,39.4748 242.9175,50.8777" fill="#1C1C1C" opacity="0.75" stroke="#1C1C1C" stroke-width="0.15" stroke-opacity="0.3" />
    <polygon points="295.5855,96.4896 289.0020,107.8925 282.4185,119.2955 262.6680,130.6984 249.5010,130.6984 242.9175,119.2955 249.5010,107.8925 269.2515,96.4896 275.8350,85.0866 295.5855,73.6837 308.7525,73.6837 315.3360,85.0866 308.7525,96.4896" fill="#1C1C1C" opacity="0.75" stroke="#1C1C1C" stroke-width="0.15" stroke-opacity="0.3" />
    <polygon points="302.1690,130.6984 295.5855,119.2955 289.0020,107.8925 289.0020,85.0866 295.5855,73.6837 308.7525,73.6837 315.3360,85.0866 315.3360,107.8925 321.9195,119.2955 321.9195,142.1014 315.3360,153.5043 302.1690,153.5043 295.5855,142.1014" fill="#1C1C1C" opacity="0.75" stroke="#1C1C1C" stroke-width="0.15" stroke-opacity="0.3" />
    <polygon points="32.2455,233.3250 45.4125,233.3250 58.5795,233.3250 78.3300,244.7280 84.9135,256.1310 78.3300,267.5339 65.1630,267.5339 45.4125,256.1310 32.2455,256.1310 12.4950,244.7280 5.9115,233.3250 12.4950,221.9221 25.6620,221.9221" fill="#1C1C1C" opacity="0.75" stroke="#1C1C1C" stroke-width="0.15" stroke-opacity="0.3" />
    <polygon points="65.1630,176.3103 58.5795,187.7132 51.9960,199.1162 51.9960,221.9221 58.5795,233.3250 71.7465,233.3250 78.3300,221.9221 78.3300,199.1162 84.9135,187.7132 84.9135,164.9073 78.3300,153.5043 65.1630,153.5043 58.5795,164.9073" fill="#2E5090" opacity="0.75" stroke="#1C1C1C" stroke-width="0.15" stroke-opacity="0.3" />
    <polygon points="45.4125,164.9073 51.9960,176.3103 58.5795,187.7132 58.5795,210.5191 51.9960,221.9221 38.8290,221.9221 32.2455,210.5191 32.2455,187.7132 25.6620,176.3103 25.6620,153.5043 32.2455,142.1014 45.4125,142.1014 51.9960,153.5043" fill="#1C1C1C" opacity="0.75" stroke="#1C1C1C" stroke-width="0.15" stroke-opacity="0.3" />
    <polygon points="45.4125,142.1014 58.5795,142.1014 71.7465,142.1014 91.4970,153.5043 98.0805,164.9073 91.4970,176.3103 78.3300,176.3103 58.5795,164.9073 45.4125,164.9073 25.6620,153.5043 19.0785,142.1014 25.6620,130.6984 38.8290,130.6984" fill="#1C1C1C" opacity="0.75" stroke="#1C1C1C" stroke-width="0.15" stroke-opacity="0.3" />
    <polygon points="84.9135,73.6837 91.4970,85.0866 98.0805,96.4896 98.0805,119.2955 91.4970,130.6984 78.3300,130.6984 71.7465,119.2955 71.7465,96.4896 65.1630,85.0866 65.1630,62.2807 71.7465,50.8777 84.9135,50.8777 91.4970,62.2807" fill="#1C1C1C" opacity="0.75" stroke="#1C1C1C" stroke-width="0.15" stroke-opacity="0.3" />
    <polygon points="98.0805,119.2955 91.4970,107.8925 84.9135,96.4896 84.9135,73.6837 91.4970,62.2807 104.6640,62.2807 111.2475,73.6837 111.2475,96.4896 117.8310,107.8925 117.8310,130.6984 111.2475,142.1014 98.0805,142.1014 91.4970,130.6984" fill="#1C1C1C" opacity="0.75" stroke="#1C1C1C" stroke-width="0.15" stroke-opacity="0.3" />
    <polygon points="65.1630,62.2807 71.7465,73.6837 78.3300,85.0866 78.3300,107.8925 71.7465,119.2955 58.5795,119.2955 51.9960,107.8925 51.9960,85.0866 45.4125,73.6837 45.4125,50.8777 51.9960,39.4748 65.1630,39.4748 71.7465,50.8777" fill="#1C1C1C" opacity="0.75" stroke="#1C1C1C" stroke-width="0.15" stroke-opacity="0.3" />
    <polygon points="45.4125,142.1014 58.5795,142.1014 71.7465,142.1014 91.4970,130.6984 98.0805,119.2955 91.4970,107.8925 78.3300,107.8925 58.5795,119.2955 45.4125,119.2955 25.6620,130.6984 19.0785,142.1014 25.6620,153.5043 38.8290,153.5043" fill="#2E5090" opacity="0.75" stroke="#1C1C1C" stroke-width="0.15" stroke-opacity="0.3" />
    <polygon points="387.7545,96.4896 381.1710,107.8925 374.5875,119.2955 354.8370,130.6984 341.6700,130.6984 335.0865,119.2955 341.6700,107.8925 361.4205,96.4896 368.0040,85.0866 387.7545,73.6837 400.9215,73.6837 407.5050,85.0866 400.9215,96.4896" fill="#1C1C1C" opacity="0.75" stroke="#1C1C1C" stroke-width="0.15" stroke-opacity="0.3" />
    <polygon points="216.5835,96.4896 210.0000,85.0866 203.4165,73.6837 203.4165,50.8777 210.0000,39.4748 223.1670,39.4748 229.7505,50.8777 229.7505,73.6837 236.3340,85.0866 236.3340,107.8925 229.7505,119.2955 216.5835,119.2955 210.0000,107.8925" fill="#1C1C1C" opacity="0.75" stroke="#1C1C1C" stroke-width="0.15" stroke-opacity="0.3" />
    <polygon points="269.2515,73.6837 262.6680,85.0866 256.0845,96.4896 236.3340,107.8925 223.1670,107.8925 216.5835,96.4896 223.1670,85.0866 242.9175,73.6837 249.5010,62.2807 269.2515,50.8777 282.4185,50.8777 289.0020,62.2807 282.4185,73.6837" fill="#1C1C1C" opacity="0.75" stroke="#1C1C1C" stroke-width="0.15" stroke-opacity="0.3" />
    <polygon points="335.0865,96.4896 321.9195,96.4896 308.7525,96.4896 289.0020,85.0866 282.4185,73.6837 289.0020,62.2807 302.1690,62.2807 321.9195,73.6837 335.0865,73.6837 354.8370,85.0866 361.4205,96.4896 354.8370,107.8925 341.6700,107.8925" fill="#1C1C1C" opacity="0.75" stroke="#1C1C1C" stroke-width="0.15" stroke-opacity="0.3" />
    <polygon points="374.5875,96.4896 361.4205,96.4896 348.2535,96.4896 328.5030,85.0866 321.9195,73.6837 328.5030,62.2807 341.6700,62.2807 361.4205,73.6837 374.5875,73.6837 394.3380,85.0866 400.9215,96.4896 394.3380,107.8925 381.1710,107.8925" fill="#1C1C1C" opacity="0.75" stroke="#1C1C1C" stroke-width="0.15" stroke-opacity="0.3" />
    <polygon points="242.9175,415.7723 249.5010,404.3694 256.0845,392.9664 275.8350,381.5635 289.0020,381.5635 295.5855,392.9664 289.0020,404.3694 269.2515,415.7723 262.6680,427.1753 242.9175,438.5783 229.7505,438.5783 223.1670,427.1753 229.7505,415.7723" fill="#1C1C1C" opacity="0.75" stroke="#1C1C1C" stroke-width="0.15" stroke-opacity="0.3" />
    <polygon points="190.2495,415.7723 183.6660,404.3694 177.0825,392.9664 157.3320,381.5635 144.1650,381.5635 137.5815,392.9664 144.1650,404.3694 163.9155,415.7723 170.4990,427.1753 190.2495,438.5783 203.4165,438.5783 210.0000,427.1753 203.4165,415.7723" fill="#2E5090" opacity="0.75" stroke="#1C1C1C" stroke-width="0.15" stroke-opacity="0.3" />
    <polygon points="98.0805,392.9664 104.6640,381.5635 111.2475,370.1605 130.9980,358.7576 144.1650,358.7576 150.7485,370.1605 144.1650,381.5635 124.4145,392.9664 117.8310,404.3694 98.0805,415.7723 84.9135,415.7723 78.3300,404.3694 84.9135,392.9664" fill="#1C1C1C" opacity="0.75" stroke="#1C1C1C" stroke-width="0.15" stroke-opacity="0.3" />
    <polygon points="190.2495,370.1605 183.6660,358.7576 177.0825,347.3546 157.3320,335.9517 144.1650,335.9517 137.5815,347.3546 144.1650,358.7576 163.9155,370.1605 170.4990,381.5635 190.2495,392.9664 203.4165,392.9664 210.0000,381.5635 203.4165,370.1605" fill="#2E5090" opacity="0.75" stroke="#1C1C1C" stroke-width="0.15" stroke-opacity="0.3" />
    <polygon points="236.3340,427.1753 229.7505,415.7723 223.1670,404.3694 223.1670,381.5635 229.7505,370.1605 242.9175,370.1605 249.5010,381.5635 249.5010,404.3694 256.0845,415.7723 256.0845,438.5783 249.5010,449.9812 236.3340,449.9812 229.7505,438.5783" fill="#1C1C1C" opacity="0.75" stroke="#1C1C1C" stroke-width="0.15" stroke-opacity="0.3" />
    <polygon points="335.0865,392.9664 321.9195,392.9664 308.7525,392.9664 289.0020,404.3694 282.4185,415.7723 289.0020,427.1753 302.1690,427.1753 321.9195,415.7723 335.0865,415.7723 354.8370,404.3694 361.4205,392.9664 354.8370,381.5635 341.6700,381.5635" fill="#2E5090" opacity="0.75" stroke="#1C1C1C" stroke-width="0.15" stroke-opacity="0.3" />
    <polygon points="130.9980,381.5635 124.4145,392.9664 117.8310,404.3694 117.8310,427.1753 124.4145,438.5783 137.5815,438.5783 144.1650,427.1753 144.1650,404.3694 150.7485,392.9664 150.7485,370.1605 144.1650,358.7576 130.9980,358.7576 124.4145,370.1605" fill="#2E5090" opacity="0.75" stroke="#1C1C1C" stroke-width="0.15" stroke-opacity="0.3" />
    <polygon points="71.7465,324.5487 78.3300,335.9517 84.9135,347.3546 84.9135,370.1605 78.3300,381.5635 65.1630,381.5635 58.5795,370.1605 58.5795,347.3546 51.9960,335.9517 51.9960,313.1457 58.5795,301.7428 71.7465,301.7428 78.3300,313.1457" fill="#1C1C1C" opacity="0.75" stroke="#1C1C1C" stroke-width="0.15" stroke-opacity="0.3" />
    <polygon points="58.5795,415.7723 65.1630,404.3694 71.7465,392.9664 91.4970,381.5635 104.6640,381.5635 111.2475,392.9664 104.6640,404.3694 84.9135,415.7723 78.3300,427.1753 58.5795,438.5783 45.4125,438.5783 38.8290,427.1753 45.4125,415.7723" fill="#1C1C1C" opacity="0.75" stroke="#1C1C1C" stroke-width="0.15" stroke-opacity="0.3" />
    <polygon points="51.9960,381.5635 58.5795,392.9664 65.1630,404.3694 65.1630,427.1753 58.5795,438.5783 45.4125,438.5783 38.8290,427.1753 38.8290,404.3694 32.2455,392.9664 32.2455,370.1605 38.8290,358.7576 51.9960,358.7576 58.5795,370.1605" fill="#1C1C1C" opacity="0.75" stroke="#1C1C1C" stroke-width="0.15" stroke-opacity="0.3" />
  </g>
  <g id="canonical-hat-legend-inset">
    <g id="canonical-hat-legend">
      <g id="hat-legend-grid">
        <line x1="306.7904" y1="136.5350082316988" x2="319.648" y2="136.5350082316988" stroke="#1C1C1C" stroke-opacity="0.18" stroke-width="0.22" />
        <line x1="319.648" y1="136.5350082316988" x2="332.5056" y2="136.5350082316988" stroke="#1C1C1C" stroke-opacity="0.18" stroke-width="0.22" />
        <line x1="332.5056" y1="136.5350082316988" x2="345.3632" y2="136.5350082316988" stroke="#1C1C1C" stroke-opacity="0.18" stroke-width="0.22" />
        <line x1="345.3632" y1="136.5350082316988" x2="358.2208" y2="136.5350082316988" stroke="#1C1C1C" stroke-opacity="0.18" stroke-width="0.22" />
        <line x1="358.2208" y1="136.5350082316988" x2="371.0784" y2="136.5350082316988" stroke="#1C1C1C" stroke-opacity="0.18" stroke-width="0.22" />
        <line x1="371.0784" y1="136.5350082316988" x2="383.936" y2="136.5350082316988" stroke="#1C1C1C" stroke-opacity="0.18" stroke-width="0.22" />
        <line x1="383.936" y1="136.5350082316988" x2="396.79359999999997" y2="136.5350082316988" stroke="#1C1C1C" stroke-opacity="0.18" stroke-width="0.22" />
        <line x1="396.79359999999997" y1="136.5350082316988" x2="409.6512" y2="136.5350082316988" stroke="#1C1C1C" stroke-opacity="0.18" stroke-width="0.22" />
        <line x1="313.2192" y1="125.4" x2="326.0768" y2="125.4" stroke="#1C1C1C" stroke-opacity="0.18" stroke-width="0.22" />
        <line x1="326.0768" y1="125.4" x2="338.9344" y2="125.4" stroke="#1C1C1C" stroke-opacity="0.18" stroke-width="0.22" />
        <line x1="338.9344" y1="125.4" x2="351.792" y2="125.4" stroke="#1C1C1C" stroke-opacity="0.18" stroke-width="0.22" />
        <line x1="351.792" y1="125.4" x2="364.6496" y2="125.4" stroke="#1C1C1C" stroke-opacity="0.18" stroke-width="0.22" />
        <line x1="364.6496" y1="125.4" x2="377.5072" y2="125.4" stroke="#1C1C1C" stroke-opacity="0.18" stroke-width="0.22" />
        <line x1="377.5072" y1="125.4" x2="390.3648" y2="125.4" stroke="#1C1C1C" stroke-opacity="0.18" stroke-width="0.22" />
        <line x1="390.3648" y1="125.4" x2="403.2224" y2="125.4" stroke="#1C1C1C" stroke-opacity="0.18" stroke-width="0.22" />
        <line x1="403.2224" y1="125.4" x2="416.08" y2="125.4" stroke="#1C1C1C" stroke-opacity="0.18" stroke-width="0.22" />
        <line x1="319.648" y1="114.26499176830121" x2="332.5056" y2="114.26499176830121" stroke="#1C1C1C" stroke-opacity="0.18" stroke-width="0.22" />
        <line x1="332.5056" y1="114.26499176830121" x2="345.3632" y2="114.26499176830121" stroke="#1C1C1C" stroke-opacity="0.18" stroke-width="0.22" />
        <line x1="345.3632" y1="114.26499176830121" x2="358.2208" y2="114.26499176830121" stroke="#1C1C1C" stroke-opacity="0.18" stroke-width="0.22" />
        <line x1="358.2208" y1="114.26499176830121" x2="371.0784" y2="114.26499176830121" stroke="#1C1C1C" stroke-opacity="0.18" stroke-width="0.22" />
        <line x1="371.0784" y1="114.26499176830121" x2="383.936" y2="114.26499176830121" stroke="#1C1C1C" stroke-opacity="0.18" stroke-width="0.22" />
        <line x1="383.936" y1="114.26499176830121" x2="396.79359999999997" y2="114.26499176830121" stroke="#1C1C1C" stroke-opacity="0.18" stroke-width="0.22" />
        <line x1="396.79359999999997" y1="114.26499176830121" x2="409.6512" y2="114.26499176830121" stroke="#1C1C1C" stroke-opacity="0.18" stroke-width="0.22" />
        <line x1="409.6512" y1="114.26499176830121" x2="422.5088" y2="114.26499176830121" stroke="#1C1C1C" stroke-opacity="0.18" stroke-width="0.22" />
        <line x1="326.0768" y1="103.12998353660242" x2="338.9344" y2="103.12998353660242" stroke="#1C1C1C" stroke-opacity="0.18" stroke-width="0.22" />
        <line x1="338.9344" y1="103.12998353660242" x2="351.792" y2="103.12998353660242" stroke="#1C1C1C" stroke-opacity="0.18" stroke-width="0.22" />
        <line x1="351.792" y1="103.12998353660242" x2="364.6496" y2="103.12998353660242" stroke="#1C1C1C" stroke-opacity="0.18" stroke-width="0.22" />
        <line x1="364.6496" y1="103.12998353660242" x2="377.5072" y2="103.12998353660242" stroke="#1C1C1C" stroke-opacity="0.18" stroke-width="0.22" />
        <line x1="377.5072" y1="103.12998353660242" x2="390.3648" y2="103.12998353660242" stroke="#1C1C1C" stroke-opacity="0.18" stroke-width="0.22" />
        <line x1="390.3648" y1="103.12998353660242" x2="403.2224" y2="103.12998353660242" stroke="#1C1C1C" stroke-opacity="0.18" stroke-width="0.22" />
        <line x1="403.2224" y1="103.12998353660242" x2="416.08" y2="103.12998353660242" stroke="#1C1C1C" stroke-opacity="0.18" stroke-width="0.22" />
        <line x1="416.08" y1="103.12998353660242" x2="428.9376" y2="103.12998353660242" stroke="#1C1C1C" stroke-opacity="0.18" stroke-width="0.22" />
        <line x1="332.5056" y1="91.99497530490362" x2="345.3632" y2="91.99497530490362" stroke="#1C1C1C" stroke-opacity="0.18" stroke-width="0.22" />
        <line x1="345.3632" y1="91.99497530490362" x2="358.2208" y2="91.99497530490362" stroke="#1C1C1C" stroke-opacity="0.18" stroke-width="0.22" />
        <line x1="358.2208" y1="91.99497530490362" x2="371.0784" y2="91.99497530490362" stroke="#1C1C1C" stroke-opacity="0.18" stroke-width="0.22" />
        <line x1="371.0784" y1="91.99497530490362" x2="383.936" y2="91.99497530490362" stroke="#1C1C1C" stroke-opacity="0.18" stroke-width="0.22" />
        <line x1="383.936" y1="91.99497530490362" x2="396.79359999999997" y2="91.99497530490362" stroke="#1C1C1C" stroke-opacity="0.18" stroke-width="0.22" />
        <line x1="396.79359999999997" y1="91.99497530490362" x2="409.6512" y2="91.99497530490362" stroke="#1C1C1C" stroke-opacity="0.18" stroke-width="0.22" />
        <line x1="409.6512" y1="91.99497530490362" x2="422.5088" y2="91.99497530490362" stroke="#1C1C1C" stroke-opacity="0.18" stroke-width="0.22" />
        <line x1="422.5088" y1="91.99497530490362" x2="435.3664" y2="91.99497530490362" stroke="#1C1C1C" stroke-opacity="0.18" stroke-width="0.22" />
        <line x1="338.9344" y1="80.85996707320481" x2="351.792" y2="80.85996707320481" stroke="#1C1C1C" stroke-opacity="0.18" stroke-width="0.22" />
        <line x1="351.792" y1="80.85996707320481" x2="364.6496" y2="80.85996707320481" stroke="#1C1C1C" stroke-opacity="0.18" stroke-width="0.22" />
        <line x1="364.6496" y1="80.85996707320481" x2="377.5072" y2="80.85996707320481" stroke="#1C1C1C" stroke-opacity="0.18" stroke-width="0.22" />
        <line x1="377.5072" y1="80.85996707320481" x2="390.3648" y2="80.85996707320481" stroke="#1C1C1C" stroke-opacity="0.18" stroke-width="0.22" />
        <line x1="390.3648" y1="80.85996707320481" x2="403.2224" y2="80.85996707320481" stroke="#1C1C1C" stroke-opacity="0.18" stroke-width="0.22" />
        <line x1="403.2224" y1="80.85996707320481" x2="416.08" y2="80.85996707320481" stroke="#1C1C1C" stroke-opacity="0.18" stroke-width="0.22" />
        <line x1="416.08" y1="80.85996707320481" x2="428.9376" y2="80.85996707320481" stroke="#1C1C1C" stroke-opacity="0.18" stroke-width="0.22" />
        <line x1="428.9376" y1="80.85996707320481" x2="441.7952" y2="80.85996707320481" stroke="#1C1C1C" stroke-opacity="0.18" stroke-width="0.22" />
        <line x1="345.3632" y1="69.72495884150602" x2="358.2208" y2="69.72495884150602" stroke="#1C1C1C" stroke-opacity="0.18" stroke-width="0.22" />
        <line x1="358.2208" y1="69.72495884150602" x2="371.0784" y2="69.72495884150602" stroke="#1C1C1C" stroke-opacity="0.18" stroke-width="0.22" />
        <line x1="371.0784" y1="69.72495884150602" x2="383.936" y2="69.72495884150602" stroke="#1C1C1C" stroke-opacity="0.18" stroke-width="0.22" />
        <line x1="383.936" y1="69.72495884150602" x2="396.79359999999997" y2="69.72495884150602" stroke="#1C1C1C" stroke-opacity="0.18" stroke-width="0.22" />
        <line x1="396.79359999999997" y1="69.72495884150602" x2="409.6512" y2="69.72495884150602" stroke="#1C1C1C" stroke-opacity="0.18" stroke-width="0.22" />
        <line x1="409.6512" y1="69.72495884150602" x2="422.5088" y2="69.72495884150602" stroke="#1C1C1C" stroke-opacity="0.18" stroke-width="0.22" />
        <line x1="422.5088" y1="69.72495884150602" x2="435.3664" y2="69.72495884150602" stroke="#1C1C1C" stroke-opacity="0.18" stroke-width="0.22" />
        <line x1="435.3664" y1="69.72495884150602" x2="448.224" y2="69.72495884150602" stroke="#1C1C1C" stroke-opacity="0.18" stroke-width="0.22" />
        <line x1="306.7904" y1="136.5350082316988" x2="313.2192" y2="125.4" stroke="#1C1C1C" stroke-opacity="0.18" stroke-width="0.22" />
        <line x1="313.2192" y1="125.4" x2="319.648" y2="114.26499176830121" stroke="#1C1C1C" stroke-opacity="0.18" stroke-width="0.22" />
        <line x1="319.648" y1="114.26499176830121" x2="326.0768" y2="103.12998353660242" stroke="#1C1C1C" stroke-opacity="0.18" stroke-width="0.22" />
        <line x1="326.0768" y1="103.12998353660242" x2="332.5056" y2="91.99497530490362" stroke="#1C1C1C" stroke-opacity="0.18" stroke-width="0.22" />
        <line x1="332.5056" y1="91.99497530490362" x2="338.9344" y2="80.85996707320481" stroke="#1C1C1C" stroke-opacity="0.18" stroke-width="0.22" />
        <line x1="338.9344" y1="80.85996707320481" x2="345.3632" y2="69.72495884150602" stroke="#1C1C1C" stroke-opacity="0.18" stroke-width="0.22" />
        <line x1="319.648" y1="136.5350082316988" x2="326.0768" y2="125.4" stroke="#1C1C1C" stroke-opacity="0.18" stroke-width="0.22" />
        <line x1="326.0768" y1="125.4" x2="332.5056" y2="114.26499176830121" stroke="#1C1C1C" stroke-opacity="0.18" stroke-width="0.22" />
        <line x1="332.5056" y1="114.26499176830121" x2="338.9344" y2="103.12998353660242" stroke="#1C1C1C" stroke-opacity="0.18" stroke-width="0.22" />
        <line x1="338.9344" y1="103.12998353660242" x2="345.3632" y2="91.99497530490362" stroke="#1C1C1C" stroke-opacity="0.18" stroke-width="0.22" />
        <line x1="345.3632" y1="91.99497530490362" x2="351.792" y2="80.85996707320481" stroke="#1C1C1C" stroke-opacity="0.18" stroke-width="0.22" />
        <line x1="351.792" y1="80.85996707320481" x2="358.2208" y2="69.72495884150602" stroke="#1C1C1C" stroke-opacity="0.18" stroke-width="0.22" />
        <line x1="332.5056" y1="136.5350082316988" x2="338.9344" y2="125.4" stroke="#1C1C1C" stroke-opacity="0.18" stroke-width="0.22" />
        <line x1="338.9344" y1="125.4" x2="345.3632" y2="114.26499176830121" stroke="#1C1C1C" stroke-opacity="0.18" stroke-width="0.22" />
        <line x1="345.3632" y1="114.26499176830121" x2="351.792" y2="103.12998353660242" stroke="#1C1C1C" stroke-opacity="0.18" stroke-width="0.22" />
        <line x1="351.792" y1="103.12998353660242" x2="358.2208" y2="91.99497530490362" stroke="#1C1C1C" stroke-opacity="0.18" stroke-width="0.22" />
        <line x1="358.2208" y1="91.99497530490362" x2="364.6496" y2="80.85996707320481" stroke="#1C1C1C" stroke-opacity="0.18" stroke-width="0.22" />
        <line x1="364.6496" y1="80.85996707320481" x2="371.0784" y2="69.72495884150602" stroke="#1C1C1C" stroke-opacity="0.18" stroke-width="0.22" />
        <line x1="345.3632" y1="136.5350082316988" x2="351.792" y2="125.4" stroke="#1C1C1C" stroke-opacity="0.18" stroke-width="0.22" />
        <line x1="351.792" y1="125.4" x2="358.2208" y2="114.26499176830121" stroke="#1C1C1C" stroke-opacity="0.18" stroke-width="0.22" />
        <line x1="358.2208" y1="114.26499176830121" x2="364.6496" y2="103.12998353660242" stroke="#1C1C1C" stroke-opacity="0.18" stroke-width="0.22" />
        <line x1="364.6496" y1="103.12998353660242" x2="371.0784" y2="91.99497530490362" stroke="#1C1C1C" stroke-opacity="0.18" stroke-width="0.22" />
        <line x1="371.0784" y1="91.99497530490362" x2="377.5072" y2="80.85996707320481" stroke="#1C1C1C" stroke-opacity="0.18" stroke-width="0.22" />
        <line x1="377.5072" y1="80.85996707320481" x2="383.936" y2="69.72495884150602" stroke="#1C1C1C" stroke-opacity="0.18" stroke-width="0.22" />
        <line x1="358.2208" y1="136.5350082316988" x2="364.6496" y2="125.4" stroke="#1C1C1C" stroke-opacity="0.18" stroke-width="0.22" />
        <line x1="364.6496" y1="125.4" x2="371.0784" y2="114.26499176830121" stroke="#1C1C1C" stroke-opacity="0.18" stroke-width="0.22" />
        <line x1="371.0784" y1="114.26499176830121" x2="377.5072" y2="103.12998353660242" stroke="#1C1C1C" stroke-opacity="0.18" stroke-width="0.22" />
        <line x1="377.5072" y1="103.12998353660242" x2="383.936" y2="91.99497530490362" stroke="#1C1C1C" stroke-opacity="0.18" stroke-width="0.22" />
        <line x1="383.936" y1="91.99497530490362" x2="390.3648" y2="80.85996707320481" stroke="#1C1C1C" stroke-opacity="0.18" stroke-width="0.22" />
        <line x1="390.3648" y1="80.85996707320481" x2="396.79359999999997" y2="69.72495884150602" stroke="#1C1C1C" stroke-opacity="0.18" stroke-width="0.22" />
        <line x1="371.0784" y1="136.5350082316988" x2="377.5072" y2="125.4" stroke="#1C1C1C" stroke-opacity="0.18" stroke-width="0.22" />
        <line x1="377.5072" y1="125.4" x2="383.936" y2="114.26499176830121" stroke="#1C1C1C" stroke-opacity="0.18" stroke-width="0.22" />
        <line x1="383.936" y1="114.26499176830121" x2="390.3648" y2="103.12998353660242" stroke="#1C1C1C" stroke-opacity="0.18" stroke-width="0.22" />
        <line x1="390.3648" y1="103.12998353660242" x2="396.79359999999997" y2="91.99497530490362" stroke="#1C1C1C" stroke-opacity="0.18" stroke-width="0.22" />
        <line x1="396.79359999999997" y1="91.99497530490362" x2="403.2224" y2="80.85996707320481" stroke="#1C1C1C" stroke-opacity="0.18" stroke-width="0.22" />
        <line x1="403.2224" y1="80.85996707320481" x2="409.6512" y2="69.72495884150602" stroke="#1C1C1C" stroke-opacity="0.18" stroke-width="0.22" />
        <line x1="383.936" y1="136.5350082316988" x2="390.3648" y2="125.4" stroke="#1C1C1C" stroke-opacity="0.18" stroke-width="0.22" />
        <line x1="390.3648" y1="125.4" x2="396.79359999999997" y2="114.26499176830121" stroke="#1C1C1C" stroke-opacity="0.18" stroke-width="0.22" />
        <line x1="396.79359999999997" y1="114.26499176830121" x2="403.2224" y2="103.12998353660242" stroke="#1C1C1C" stroke-opacity="0.18" stroke-width="0.22" />
        <line x1="403.2224" y1="103.12998353660242" x2="409.6512" y2="91.99497530490362" stroke="#1C1C1C" stroke-opacity="0.18" stroke-width="0.22" />
        <line x1="409.6512" y1="91.99497530490362" x2="416.08" y2="80.85996707320481" stroke="#1C1C1C" stroke-opacity="0.18" stroke-width="0.22" />
        <line x1="416.08" y1="80.85996707320481" x2="422.5088" y2="69.72495884150602" stroke="#1C1C1C" stroke-opacity="0.18" stroke-width="0.22" />
        <line x1="396.79359999999997" y1="136.5350082316988" x2="403.2224" y2="125.4" stroke="#1C1C1C" stroke-opacity="0.18" stroke-width="0.22" />
        <line x1="403.2224" y1="125.4" x2="409.6512" y2="114.26499176830121" stroke="#1C1C1C" stroke-opacity="0.18" stroke-width="0.22" />
        <line x1="409.6512" y1="114.26499176830121" x2="416.08" y2="103.12998353660242" stroke="#1C1C1C" stroke-opacity="0.18" stroke-width="0.22" />
        <line x1="416.08" y1="103.12998353660242" x2="422.5088" y2="91.99497530490362" stroke="#1C1C1C" stroke-opacity="0.18" stroke-width="0.22" />
        <line x1="422.5088" y1="91.99497530490362" x2="428.9376" y2="80.85996707320481" stroke="#1C1C1C" stroke-opacity="0.18" stroke-width="0.22" />
        <line x1="428.9376" y1="80.85996707320481" x2="435.3664" y2="69.72495884150602" stroke="#1C1C1C" stroke-opacity="0.18" stroke-width="0.22" />
        <line x1="409.6512" y1="136.5350082316988" x2="416.08" y2="125.4" stroke="#1C1C1C" stroke-opacity="0.18" stroke-width="0.22" />
        <line x1="416.08" y1="125.4" x2="422.5088" y2="114.26499176830121" stroke="#1C1C1C" stroke-opacity="0.18" stroke-width="0.22" />
        <line x1="422.5088" y1="114.26499176830121" x2="428.9376" y2="103.12998353660242" stroke="#1C1C1C" stroke-opacity="0.18" stroke-width="0.22" />
        <line x1="428.9376" y1="103.12998353660242" x2="435.3664" y2="91.99497530490362" stroke="#1C1C1C" stroke-opacity="0.18" stroke-width="0.22" />
        <line x1="435.3664" y1="91.99497530490362" x2="441.7952" y2="80.85996707320481" stroke="#1C1C1C" stroke-opacity="0.18" stroke-width="0.22" />
        <line x1="441.7952" y1="80.85996707320481" x2="448.224" y2="69.72495884150602" stroke="#1C1C1C" stroke-opacity="0.18" stroke-width="0.22" />
        <line x1="313.2192" y1="125.4" x2="319.648" y2="136.5350082316988" stroke="#1C1C1C" stroke-opacity="0.18" stroke-width="0.22" />
        <line x1="319.648" y1="114.26499176830121" x2="326.0768" y2="125.4" stroke="#1C1C1C" stroke-opacity="0.18" stroke-width="0.22" />
        <line x1="326.0768" y1="125.4" x2="332.5056" y2="136.5350082316988" stroke="#1C1C1C" stroke-opacity="0.18" stroke-width="0.22" />
        <line x1="326.0768" y1="103.12998353660242" x2="332.5056" y2="114.26499176830121" stroke="#1C1C1C" stroke-opacity="0.18" stroke-width="0.22" />
        <line x1="332.5056" y1="114.26499176830121" x2="338.9344" y2="125.4" stroke="#1C1C1C" stroke-opacity="0.18" stroke-width="0.22" />
        <line x1="338.9344" y1="125.4" x2="345.3632" y2="136.5350082316988" stroke="#1C1C1C" stroke-opacity="0.18" stroke-width="0.22" />
        <line x1="332.5056" y1="91.99497530490362" x2="338.9344" y2="103.12998353660242" stroke="#1C1C1C" stroke-opacity="0.18" stroke-width="0.22" />
        <line x1="338.9344" y1="103.12998353660242" x2="345.3632" y2="114.26499176830121" stroke="#1C1C1C" stroke-opacity="0.18" stroke-width="0.22" />
        <line x1="345.3632" y1="114.26499176830121" x2="351.792" y2="125.4" stroke="#1C1C1C" stroke-opacity="0.18" stroke-width="0.22" />
        <line x1="351.792" y1="125.4" x2="358.2208" y2="136.5350082316988" stroke="#1C1C1C" stroke-opacity="0.18" stroke-width="0.22" />
        <line x1="338.9344" y1="80.85996707320481" x2="345.3632" y2="91.99497530490362" stroke="#1C1C1C" stroke-opacity="0.18" stroke-width="0.22" />
        <line x1="345.3632" y1="91.99497530490362" x2="351.792" y2="103.12998353660242" stroke="#1C1C1C" stroke-opacity="0.18" stroke-width="0.22" />
        <line x1="351.792" y1="103.12998353660242" x2="358.2208" y2="114.26499176830121" stroke="#1C1C1C" stroke-opacity="0.18" stroke-width="0.22" />
        <line x1="358.2208" y1="114.26499176830121" x2="364.6496" y2="125.4" stroke="#1C1C1C" stroke-opacity="0.18" stroke-width="0.22" />
        <line x1="364.6496" y1="125.4" x2="371.0784" y2="136.5350082316988" stroke="#1C1C1C" stroke-opacity="0.18" stroke-width="0.22" />
        <line x1="345.3632" y1="69.72495884150602" x2="351.792" y2="80.85996707320481" stroke="#1C1C1C" stroke-opacity="0.18" stroke-width="0.22" />
        <line x1="351.792" y1="80.85996707320481" x2="358.2208" y2="91.99497530490362" stroke="#1C1C1C" stroke-opacity="0.18" stroke-width="0.22" />
        <line x1="358.2208" y1="91.99497530490362" x2="364.6496" y2="103.12998353660242" stroke="#1C1C1C" stroke-opacity="0.18" stroke-width="0.22" />
        <line x1="364.6496" y1="103.12998353660242" x2="371.0784" y2="114.26499176830121" stroke="#1C1C1C" stroke-opacity="0.18" stroke-width="0.22" />
        <line x1="371.0784" y1="114.26499176830121" x2="377.5072" y2="125.4" stroke="#1C1C1C" stroke-opacity="0.18" stroke-width="0.22" />
        <line x1="377.5072" y1="125.4" x2="383.936" y2="136.5350082316988" stroke="#1C1C1C" stroke-opacity="0.18" stroke-width="0.22" />
        <line x1="358.2208" y1="69.72495884150602" x2="364.6496" y2="80.85996707320481" stroke="#1C1C1C" stroke-opacity="0.18" stroke-width="0.22" />
        <line x1="364.6496" y1="80.85996707320481" x2="371.0784" y2="91.99497530490362" stroke="#1C1C1C" stroke-opacity="0.18" stroke-width="0.22" />
        <line x1="371.0784" y1="91.99497530490362" x2="377.5072" y2="103.12998353660242" stroke="#1C1C1C" stroke-opacity="0.18" stroke-width="0.22" />
        <line x1="377.5072" y1="103.12998353660242" x2="383.936" y2="114.26499176830121" stroke="#1C1C1C" stroke-opacity="0.18" stroke-width="0.22" />
        <line x1="383.936" y1="114.26499176830121" x2="390.3648" y2="125.4" stroke="#1C1C1C" stroke-opacity="0.18" stroke-width="0.22" />
        <line x1="390.3648" y1="125.4" x2="396.79359999999997" y2="136.5350082316988" stroke="#1C1C1C" stroke-opacity="0.18" stroke-width="0.22" />
        <line x1="371.0784" y1="69.72495884150602" x2="377.5072" y2="80.85996707320481" stroke="#1C1C1C" stroke-opacity="0.18" stroke-width="0.22" />
        <line x1="377.5072" y1="80.85996707320481" x2="383.936" y2="91.99497530490362" stroke="#1C1C1C" stroke-opacity="0.18" stroke-width="0.22" />
        <line x1="383.936" y1="91.99497530490362" x2="390.3648" y2="103.12998353660242" stroke="#1C1C1C" stroke-opacity="0.18" stroke-width="0.22" />
        <line x1="390.3648" y1="103.12998353660242" x2="396.79359999999997" y2="114.26499176830121" stroke="#1C1C1C" stroke-opacity="0.18" stroke-width="0.22" />
        <line x1="396.79359999999997" y1="114.26499176830121" x2="403.2224" y2="125.4" stroke="#1C1C1C" stroke-opacity="0.18" stroke-width="0.22" />
        <line x1="403.2224" y1="125.4" x2="409.6512" y2="136.5350082316988" stroke="#1C1C1C" stroke-opacity="0.18" stroke-width="0.22" />
        <line x1="383.936" y1="69.72495884150602" x2="390.3648" y2="80.85996707320481" stroke="#1C1C1C" stroke-opacity="0.18" stroke-width="0.22" />
        <line x1="390.3648" y1="80.85996707320481" x2="396.79359999999997" y2="91.99497530490362" stroke="#1C1C1C" stroke-opacity="0.18" stroke-width="0.22" />
        <line x1="396.79359999999997" y1="91.99497530490362" x2="403.2224" y2="103.12998353660242" stroke="#1C1C1C" stroke-opacity="0.18" stroke-width="0.22" />
        <line x1="403.2224" y1="103.12998353660242" x2="409.6512" y2="114.26499176830121" stroke="#1C1C1C" stroke-opacity="0.18" stroke-width="0.22" />
        <line x1="409.6512" y1="114.26499176830121" x2="416.08" y2="125.4" stroke="#1C1C1C" stroke-opacity="0.18" stroke-width="0.22" />
        <line x1="396.79359999999997" y1="69.72495884150602" x2="403.2224" y2="80.85996707320481" stroke="#1C1C1C" stroke-opacity="0.18" stroke-width="0.22" />
        <line x1="403.2224" y1="80.85996707320481" x2="409.6512" y2="91.99497530490362" stroke="#1C1C1C" stroke-opacity="0.18" stroke-width="0.22" />
        <line x1="409.6512" y1="91.99497530490362" x2="416.08" y2="103.12998353660242" stroke="#1C1C1C" stroke-opacity="0.18" stroke-width="0.22" />
        <line x1="416.08" y1="103.12998353660242" x2="422.5088" y2="114.26499176830121" stroke="#1C1C1C" stroke-opacity="0.18" stroke-width="0.22" />
        <line x1="409.6512" y1="69.72495884150602" x2="416.08" y2="80.85996707320481" stroke="#1C1C1C" stroke-opacity="0.18" stroke-width="0.22" />
        <line x1="416.08" y1="80.85996707320481" x2="422.5088" y2="91.99497530490362" stroke="#1C1C1C" stroke-opacity="0.18" stroke-width="0.22" />
        <line x1="422.5088" y1="91.99497530490362" x2="428.9376" y2="103.12998353660242" stroke="#1C1C1C" stroke-opacity="0.18" stroke-width="0.22" />
        <line x1="422.5088" y1="69.72495884150602" x2="428.9376" y2="80.85996707320481" stroke="#1C1C1C" stroke-opacity="0.18" stroke-width="0.22" />
        <line x1="428.9376" y1="80.85996707320481" x2="435.3664" y2="91.99497530490362" stroke="#1C1C1C" stroke-opacity="0.18" stroke-width="0.22" />
        <line x1="435.3664" y1="69.72495884150602" x2="441.7952" y2="80.85996707320481" stroke="#1C1C1C" stroke-opacity="0.18" stroke-width="0.22" />
      </g>
      <polygon points="358.2208,114.2650 371.0784,114.2650 383.9360,114.2650 403.2224,103.1300 409.6512,91.9950 403.2224,80.8600 390.3648,80.8600 371.0784,91.9950 358.2208,91.9950 338.9344,103.1300 332.5056,114.2650 338.9344,125.4000 351.7920,125.4000" fill="#1C1C1C" opacity="0.55" stroke="#1C1C1C" stroke-width="0.35" stroke-opacity="0.85" />
      <circle cx="358.2208" cy="114.26499176830121" r="1.69344" fill="#8B0000" stroke="none" />
      <text x="354.3093212617221" y="116.80571172201257" font-family="'Playfair Display', Georgia, 'Times New Roman', serif" font-size="6.12" fill="#1C1C1C" text-anchor="middle">1</text>
      <text x="354.3093212617221" y="123.57947172201257" font-family="'Playfair Display', Georgia, 'Times New Roman', serif" font-size="4.52" fill="#1C1C1C" text-anchor="middle">(0,0)</text>
      <circle cx="371.0784" cy="114.26499176830121" r="1.69344" fill="#8B0000" stroke="none" />
      <text x="371.5740176330248" y="118.56888129745742" font-family="'Playfair Display', Georgia, 'Times New Roman', serif" font-size="6.12" fill="#1C1C1C" text-anchor="middle">2</text>
      <text x="371.5740176330248" y="125.34264129745742" font-family="'Playfair Display', Georgia, 'Times New Roman', serif" font-size="4.52" fill="#1C1C1C" text-anchor="middle">(1,0)</text>
      <circle cx="383.936" cy="114.26499176830121" r="1.69344" fill="#8B0000" stroke="none" />
      <text x="388.0908107066894" y="116.50241887108002" font-family="'Playfair Display', Georgia, 'Times New Roman', serif" font-size="6.12" fill="#1C1C1C" text-anchor="middle">3</text>
      <text x="388.0908107066894" y="123.27617887108002" font-family="'Playfair Display', Georgia, 'Times New Roman', serif" font-size="4.52" fill="#1C1C1C" text-anchor="middle">(2,0)</text>
      <circle cx="403.2224" cy="103.12998353660242" r="1.69344" fill="#8B0000" stroke="none" />
      <text x="408.3950718396401" y="102.1495421867944" font-family="'Playfair Display', Georgia, 'Times New Roman', serif" font-size="6.12" fill="#1C1C1C" text-anchor="middle">4</text>
      <text x="408.3950718396401" y="108.9233021867944" font-family="'Playfair Display', Georgia, 'Times New Roman', serif" font-size="4.52" fill="#1C1C1C" text-anchor="middle">(3,1)</text>
      <circle cx="409.6512" cy="91.99497530490362" r="1.69344" fill="#8B0000" stroke="none" />
      <text x="414.60311905559274" y="89.64728461003396" font-family="'Playfair Display', Georgia, 'Times New Roman', serif" font-size="6.12" fill="#1C1C1C" text-anchor="middle">5</text>
      <text x="414.60311905559274" y="96.42104461003396" font-family="'Playfair Display', Georgia, 'Times New Roman', serif" font-size="4.52" fill="#1C1C1C" text-anchor="middle">(3,2)</text>
      <circle cx="403.2224" cy="80.85996707320481" r="1.69344" fill="#8B0000" stroke="none" />
      <text x="407.4654352220553" y="77.05164827113897" font-family="'Playfair Display', Georgia, 'Times New Roman', serif" font-size="6.12" fill="#1C1C1C" text-anchor="middle">6</text>
      <text x="407.4654352220553" y="83.82540827113897" font-family="'Playfair Display', Georgia, 'Times New Roman', serif" font-size="4.52" fill="#1C1C1C" text-anchor="middle">(2,3)</text>
      <circle cx="390.3648" cy="80.85996707320481" r="1.69344" fill="#8B0000" stroke="none" />
      <text x="393.77594846830857" y="76.1224269170994" font-family="'Playfair Display', Georgia, 'Times New Roman', serif" font-size="6.12" fill="#1C1C1C" text-anchor="middle">7</text>
      <text x="393.77594846830857" y="82.8961869170994" font-family="'Playfair Display', Georgia, 'Times New Roman', serif" font-size="4.52" fill="#1C1C1C" text-anchor="middle">(1,3)</text>
      <circle cx="371.0784" cy="91.99497530490362" r="1.69344" fill="#8B0000" stroke="none" />
      <text x="371.5037330599564" y="85.9913660150208" font-family="'Playfair Display', Georgia, 'Times New Roman', serif" font-size="6.12" fill="#1C1C1C" text-anchor="middle">8</text>
      <text x="371.5037330599564" y="92.7651260150208" font-family="'Playfair Display', Georgia, 'Times New Roman', serif" font-size="4.52" fill="#1C1C1C" text-anchor="middle">(0,2)</text>
      <circle cx="358.2208" cy="91.99497530490362" r="1.69344" fill="#8B0000" stroke="none" />
      <text x="354.58085560074187" y="87.47059026709643" font-family="'Playfair Display', Georgia, 'Times New Roman', serif" font-size="6.12" fill="#1C1C1C" text-anchor="middle">9</text>
      <text x="354.58085560074187" y="94.24435026709642" font-family="'Playfair Display', Georgia, 'Times New Roman', serif" font-size="4.52" fill="#1C1C1C" text-anchor="middle">(-1,2)</text>
      <circle cx="338.9344" cy="103.12998353660242" r="1.69344" fill="#8B0000" stroke="none" />
      <text x="333.76195444766176" y="102.1410581636495" font-family="'Playfair Display', Georgia, 'Times New Roman', serif" font-size="6.12" fill="#1C1C1C" text-anchor="middle">10</text>
      <text x="333.76195444766176" y="108.9148181636495" font-family="'Playfair Display', Georgia, 'Times New Roman', serif" font-size="4.52" fill="#1C1C1C" text-anchor="middle">(-2,1)</text>
      <circle cx="332.5056" cy="114.26499176830121" r="1.69344" fill="#8B0000" stroke="none" />
      <text x="327.514483162976" y="114.78325091802301" font-family="'Playfair Display', Georgia, 'Times New Roman', serif" font-size="6.12" fill="#1C1C1C" text-anchor="middle">11</text>
      <text x="327.514483162976" y="121.55701091802301" font-family="'Playfair Display', Georgia, 'Times New Roman', serif" font-size="4.52" fill="#1C1C1C" text-anchor="middle">(-2,0)</text>
      <circle cx="338.9344" cy="125.4" r="1.69344" fill="#8B0000" stroke="none" />
      <text x="334.67012264552443" y="127.48421056964963" font-family="'Playfair Display', Georgia, 'Times New Roman', serif" font-size="6.12" fill="#1C1C1C" text-anchor="middle">12</text>
      <text x="334.67012264552443" y="134.25797056964964" font-family="'Playfair Display', Georgia, 'Times New Roman', serif" font-size="4.52" fill="#1C1C1C" text-anchor="middle">(-1,-1)</text>
      <circle cx="351.792" cy="125.4" r="1.69344" fill="#8B0000" stroke="none" />
      <text x="348.43059145676614" y="128.48715187964666" font-family="'Playfair Display', Georgia, 'Times New Roman', serif" font-size="6.12" fill="#1C1C1C" text-anchor="middle">13</text>
      <text x="348.43059145676614" y="135.26091187964667" font-family="'Playfair Display', Georgia, 'Times New Roman', serif" font-size="4.52" fill="#1C1C1C" text-anchor="middle">(0,-1)</text>
      <text x="371.0784" y="69.5703670732048" font-family="'Playfair Display', Georgia, 'Times New Roman', serif" font-size="7.06" fill="#8B0000" text-anchor="middle">Canonical 13-Vertex Hat Construction</text>
      <rect x="339.0912" y="131.75039999999998" width="11.289600000000002" height="6.115200000000001" fill="#1C1C1C" opacity="0.75" stroke="#1C1C1C" stroke-width="0.25" />
      <text x="354.33216" y="134.808" font-family="'Playfair Display', Georgia, 'Times New Roman', serif" font-size="5.64" fill="#1C1C1C" dominant-baseline="middle">Unreflected</text>
      <rect x="374.8416" y="131.75039999999998" width="11.289600000000002" height="6.115200000000001" fill="#2E5090" opacity="0.75" stroke="#1C1C1C" stroke-width="0.25" />
      <text x="390.08256" y="134.808" font-family="'Playfair Display', Georgia, 'Times New Roman', serif" font-size="5.64" fill="#1C1C1C" dominant-baseline="middle">Reflected</text>
    </g>
  </g>
  <g id="annotations">
    <line x1="63.0" y1="427.79999999999995" x2="357.0" y2="427.79999999999995" stroke="#8B0000" stroke-width="0.3" opacity="0.5" />
    <g>
      <circle cx="63.0" cy="437.79999999999995" r="1.0" fill="#8B0000" />
      <text x="63.0" y="447.79999999999995" font-family="'Inter', 'Helvetica Neue', Arial, sans-serif, system-ui, -apple-system, 'Segoe UI', Roboto, 'Apple Color Emoji', 'Segoe UI Emoji', 'Segoe UI Symbol'" fill="#8B0000" font-size="5.0" text-anchor="middle">The Einstein Tile</text>
      <text x="63.0" y="454.79999999999995" font-family="'Inter', 'Helvetica Neue', Arial, sans-serif, system-ui, -apple-system, 'Segoe UI', Roboto, 'Apple Color Emoji', 'Segoe UI Emoji', 'Segoe UI Symbol'" fill="#1C1C1C" font-size="3.8" text-anchor="middle">
        <tspan x="63.0" dy="0">‘Ein Stein’ — German for ‘one</tspan>
        <tspan x="63.0" dy="5.0">stone’ — names the dream of a single</tspan>
        <tspan x="63.0" dy="5.0">shape that tiles the entire plane</tspan>
        <tspan x="63.0" dy="5.0">yet can never do so periodically.</tspan>
        <tspan x="63.0" dy="5.0">The Hat is the first monotile proven</tspan>
        <tspan x="63.0" dy="5.0">to be aperiodic (with reflected copies).</tspan>
      </text>
    </g>
    <g>
      <circle cx="210.0" cy="437.79999999999995" r="1.0" fill="#8B0000" />
      <text x="210.0" y="447.79999999999995" font-family="'Inter', 'Helvetica Neue', Arial, sans-serif, system-ui, -apple-system, 'Segoe UI', Roboto, 'Apple Color Emoji', 'Segoe UI Emoji', 'Segoe UI Symbol'" fill="#8B0000" font-size="5.0" text-anchor="middle">Aperiodic Order</text>
      <text x="210.0" y="454.79999999999995" font-family="'Inter', 'Helvetica Neue', Arial, sans-serif, system-ui, -apple-system, 'Segoe UI', Roboto, 'Apple Color Emoji', 'Segoe UI Emoji', 'Segoe UI Symbol'" fill="#1C1C1C" font-size="3.8" text-anchor="middle">
        <tspan x="210.0" dy="0">The Hat fills the plane edge to</tspan>
        <tspan x="210.0" dy="5.0">edge with no gaps or overlaps, yet</tspan>
        <tspan x="210.0" dy="5.0">no translation can map the tiling</tspan>
        <tspan x="210.0" dy="5.0">onto itself. Every finite patch</tspan>
        <tspan x="210.0" dy="5.0">recurs infinitely often, but the</tspan>
        <tspan x="210.0" dy="5.0">whole pattern never repeats.</tspan>
      </text>
    </g>
    <g>
      <circle cx="357.0" cy="437.79999999999995" r="1.0" fill="#8B0000" />
      <text x="357.0" y="447.79999999999995" font-family="'Inter', 'Helvetica Neue', Arial, sans-serif, system-ui, -apple-system, 'Segoe UI', Roboto, 'Apple Color Emoji', 'Segoe UI Emoji', 'Segoe UI Symbol'" fill="#8B0000" font-size="5.0" text-anchor="middle">A Simple Shape</text>
      <text x="357.0" y="454.79999999999995" font-family="'Inter', 'Helvetica Neue', Arial, sans-serif, system-ui, -apple-system, 'Segoe UI', Roboto, 'Apple Color Emoji', 'Segoe UI Emoji', 'Segoe UI Symbol'" fill="#1C1C1C" font-size="3.8" text-anchor="middle">
        <tspan x="357.0" dy="0">Just 13 sides and 8 kite shapes</tspan>
        <tspan x="357.0" dy="5.0">compose the Hat — a polykite on the</tspan>
        <tspan x="357.0" dy="5.0">triangular grid. Its outline is so</tspan>
        <tspan x="357.0" dy="5.0">simple it can be drawn by hand, yet</tspan>
        <tspan x="357.0" dy="5.0">its tiling behaviour is profoundly</tspan>
        <tspan x="357.0" dy="5.0">complex and inherently non-periodic.</tspan>
      </text>
    </g>
  </g>
  <g id="educational">
    <line x1="63.0" y1="500.79999999999995" x2="357.0" y2="500.79999999999995" stroke="#8B0000" stroke-width="0.3" opacity="0.35" />
    <g>
      <text x="63.0" y="514.8" font-family="'Inter', 'Helvetica Neue', Arial, sans-serif, system-ui, -apple-system, 'Segoe UI', Roboto, 'Apple Color Emoji', 'Segoe UI Emoji', 'Segoe UI Symbol'" fill="#8B0000" font-size="5.0" text-anchor="middle">How the Hat Tiles</text>
      <text x="63.0" y="521.8" font-family="'Inter', 'Helvetica Neue', Arial, sans-serif, system-ui, -apple-system, 'Segoe UI', Roboto, 'Apple Color Emoji', 'Segoe UI Emoji', 'Segoe UI Symbol'" fill="#1C1C1C" font-size="3.8" text-anchor="middle">
        <tspan x="63.0" dy="0">The Hat tiles through a hierarchical</tspan>
        <tspan x="63.0" dy="5.0">substitution system. Small clusters</tspan>
        <tspan x="63.0" dy="5.0">of Hats combine into four metatile</tspan>
        <tspan x="63.0" dy="5.0">types (H, T, P, F) that themselves</tspan>
        <tspan x="63.0" dy="5.0">tile by substitution. About one in</tspan>
        <tspan x="63.0" dy="5.0">every seven Hats is a reflected copy;</tspan>
        <tspan x="63.0" dy="5.0">the rest are unreflected, ensuring</tspan>
        <tspan x="63.0" dy="5.0">the pattern never repeats.</tspan>
      </text>
    </g>
    <g>
      <text x="210.0" y="514.8" font-family="'Inter', 'Helvetica Neue', Arial, sans-serif, system-ui, -apple-system, 'Segoe UI', Roboto, 'Apple Color Emoji', 'Segoe UI Emoji', 'Segoe UI Symbol'" fill="#8B0000" font-size="5.0" text-anchor="middle">The Discovery</text>
      <text x="210.0" y="521.8" font-family="'Inter', 'Helvetica Neue', Arial, sans-serif, system-ui, -apple-system, 'Segoe UI', Roboto, 'Apple Color Emoji', 'Segoe UI Emoji', 'Segoe UI Symbol'" fill="#1C1C1C" font-size="3.8" text-anchor="middle">
        <tspan x="210.0" dy="0">In late 2022, hobbyist David Smith</tspan>
        <tspan x="210.0" dy="5.0">noticed a curious shape while playing</tspan>
        <tspan x="210.0" dy="5.0">with paper cut-outs. Teaming with</tspan>
        <tspan x="210.0" dy="5.0">mathematicians Myers, Kaplan, and</tspan>
        <tspan x="210.0" dy="5.0">Goodman-Strauss, they proved it was</tspan>
        <tspan x="210.0" dy="5.0">a true aperiodic monotile — solving</tspan>
        <tspan x="210.0" dy="5.0">a problem open for over 60 years.</tspan>
        <tspan x="210.0" dy="5.0">Their paper appeared in March 2023.</tspan>
      </text>
    </g>
    <g>
      <text x="357.0" y="514.8" font-family="'Inter', 'Helvetica Neue', Arial, sans-serif, system-ui, -apple-system, 'Segoe UI', Roboto, 'Apple Color Emoji', 'Segoe UI Emoji', 'Segoe UI Symbol'" fill="#8B0000" font-size="5.0" text-anchor="middle">Mathematical Significance</text>
      <text x="357.0" y="521.8" font-family="'Inter', 'Helvetica Neue', Arial, sans-serif, system-ui, -apple-system, 'Segoe UI', Roboto, 'Apple Color Emoji', 'Segoe UI Emoji', 'Segoe UI Symbol'" fill="#1C1C1C" font-size="3.8" text-anchor="middle">
        <tspan x="357.0" dy="0">The Hat requires reflections: some</tspan>
        <tspan x="357.0" dy="5.0">tiles are mirrored copies. In May</tspan>
        <tspan x="357.0" dy="5.0">2023 the same team unveiled the</tspan>
        <tspan x="357.0" dy="5.0">‘Spectre’ — a modified monotile that</tspan>
        <tspan x="357.0" dy="5.0">tiles aperiodically without any</tspan>
        <tspan x="357.0" dy="5.0">reflections at all. Together these</tspan>
        <tspan x="357.0" dy="5.0">discoveries reshape our fundamental</tspan>
        <tspan x="357.0" dy="5.0">understanding of geometric order.</tspan>
      </text>
    </g>
  </g>
  <text x="210.0" y="576.0" font-family="'Inter', 'Helvetica Neue', Arial, sans-serif, system-ui, -apple-system, 'Segoe UI', Roboto, 'Apple Color Emoji', 'Segoe UI Emoji', 'Segoe UI Symbol'" font-size="4.0" fill="#555555" text-anchor="middle">The Hat monotile — discovered by Smith, Myers, Kaplan &amp; Goodman-Strauss, 2023.</text>
  <text x="210.0" y="582.0" font-family="'Inter', 'Helvetica Neue', Arial, sans-serif, system-ui, -apple-system, 'Segoe UI', Roboto, 'Apple Color Emoji', 'Segoe UI Emoji', 'Segoe UI Symbol'" font-size="3.5" fill="#777777" text-anchor="middle">Generated with 2 iterations  ·  112 tiles rendered  ·  13 vertices · 8 kites</text>
  <rect x="4" y="4" width="412" height="586" fill="none" stroke="#1C1C1C" stroke-width="0.8" />
  <rect x="7" y="7" width="406" height="580" fill="none" stroke="#1C1C1C" stroke-width="0.2" />
</svg>