<?xml version='1.0' encoding='utf-8'?>
<svg xmlns="http://www.w3.org/2000/svg" version="1.1" width="420mm" height="594mm" viewBox="0 0 420 594">
  <style>@import url('https://fonts.googleapis.com/css2?family=Playfair+Display:ital,wght@0,400;0,700;1,400&amp;family=Inter:wght@300;400;500&amp;display=swap');</style>
  <rect x="0" y="0" width="420" height="594" fill="#FFFEF8" />
  <text x="210.0" y="27.918" font-family="'Playfair Display', Georgia, 'Times New Roman', serif" font-size="16.0" fill="#1C1C1C" text-anchor="middle">The Koch Snowflake</text>
  <text x="210.0" y="38.016" font-family="'Inter', 'Helvetica Neue', Arial, sans-serif, system-ui, -apple-system, 'Segoe UI', Roboto, 'Apple Color Emoji', 'Segoe UI Emoji', 'Segoe UI Symbol'" font-size="6.0" fill="#8B0000" text-anchor="middle">Infinite perimeter, finite area</text>
  <line x1="63.0" y1="43.955999999999996" x2="357.0" y2="43.955999999999996" stroke="#8B0000" stroke-width="0.4" />
  <defs>
    <marker id="arrowhead" markerWidth="6" markerHeight="6" refX="3" refY="3" orient="auto">
      <circle cx="3" cy="3" r="2" fill="#8B0000" />
    </marker>
  </defs>
  <g id="fractal">
    <polygon points="210.0000,87.3418 211.6827,90.2563 210.0000,93.1709 213.3654,93.1709 215.0482,96.0854 213.3654,99.0000 210.0000,99.0000 211.6827,101.9146 210.0000,104.8291 213.3654,104.8291 215.0482,107.7437 216.7309,104.8291 220.0963,104.8291 221.7791,107.7437 220.0963,110.6582 223.4618,110.6582 225.1445,113.5728 223.4618,116.4874 220.0963,116.4874 221.7791,119.4019 220.0963,122.3165 216.7309,122.3165 215.0482,119.4019 213.3654,122.3165 210.0000,122.3165 211.6827,125.2310 210.0000,128.1456 213.3654,128.1456 215.0482,131.0602 213.3654,133.9747 210.0000,133.9747 211.6827,136.8893 210.0000,139.8038 213.3654,139.8038 215.0482,142.7184 216.7309,139.8038 220.0963,139.8038 221.7791,142.7184 220.0963,145.6330 223.4618,145.6330 225.1445,148.5475 226.8272,145.6330 230.1927,145.6330 228.5099,142.7184 230.1927,139.8038 233.5581,139.8038 235.2408,142.7184 236.9236,139.8038 240.2890,139.8038 241.9717,142.7184 240.2890,145.6330 243.6544,145.6330 245.3372,148.5475 243.6544,151.4621 240.2890,151.4621 241.9717,154.3766 240.2890,157.2912 243.6544,157.2912 245.3372,160.2058 247.0199,157.2912 250.3853,157.2912 252.0681,160.2058 250.3853,163.1203 253.7508,163.1203 255.4335,166.0349 253.7508,168.9494 250.3853,168.9494 252.0681,171.8640 250.3853,174.7786 247.0199,174.7786 245.3372,171.8640 243.6544,174.7786 240.2890,174.7786 241.9717,177.6931 240.2890,180.6077 243.6544,180.6077 245.3372,183.5222 243.6544,186.4368 240.2890,186.4368 241.9717,189.3514 240.2890,192.2659 236.9236,192.2659 235.2408,189.3514 233.5581,192.2659 230.1927,192.2659 228.5099,189.3514 230.1927,186.4368 226.8272,186.4368 225.1445,183.5222 223.4618,186.4368 220.0963,186.4368 221.7791,189.3514 220.0963,192.2659 216.7309,192.2659 215.0482,189.3514 213.3654,192.2659 210.0000,192.2659 211.6827,195.1805 210.0000,198.0950 213.3654,198.0950 215.0482,201.0096 213.3654,203.9242 210.0000,203.9242 211.6827,206.8387 210.0000,209.7533 213.3654,209.7533 215.0482,212.6678 216.7309,209.7533 220.0963,209.7533 221.7791,212.6678 220.0963,215.5824 223.4618,215.5824 225.1445,218.4970 223.4618,221.4115 220.0963,221.4115 221.7791,224.3261 220.0963,227.2406 216.7309,227.2406 215.0482,224.3261 213.3654,227.2406 210.0000,227.2406 211.6827,230.1552 210.0000,233.0698 213.3654,233.0698 215.0482,235.9843 213.3654,238.8989 210.0000,238.8989 211.6827,241.8134 210.0000,244.7280 213.3654,244.7280 215.0482,247.6426 216.7309,244.7280 220.0963,244.7280 221.7791,247.6426 220.0963,250.5571 223.4618,250.5571 225.1445,253.4717 226.8272,250.5571 230.1927,250.5571 228.5099,247.6426 230.1927,244.7280 233.5581,244.7280 235.2408,247.6426 236.9236,244.7280 240.2890,244.7280 241.9717,247.6426 240.2890,250.5571 243.6544,250.5571 245.3372,253.4717 243.6544,256.3862 240.2890,256.3862 241.9717,259.3008 240.2890,262.2154 243.6544,262.2154 245.3372,265.1299 247.0199,262.2154 250.3853,262.2154 252.0681,265.1299 250.3853,268.0445 253.7508,268.0445 255.4335,270.9590 257.1162,268.0445 260.4817,268.0445 258.7989,265.1299 260.4817,262.2154 263.8471,262.2154 265.5298,265.1299 267.2125,262.2154 270.5780,262.2154 268.8953,259.3008 270.5780,256.3862 267.2125,256.3862 265.5298,253.4717 267.2125,250.5571 270.5780,250.5571 268.8953,247.6426 270.5780,244.7280 273.9434,244.7280 275.6262,247.6426 277.3089,244.7280 280.6743,244.7280 282.3570,247.6426 280.6743,250.5571 284.0398,250.5571 285.7225,253.4717 287.4052,250.5571 290.7707,250.5571 289.0879,247.6426 290.7707,244.7280 294.1361,244.7280 295.8188,247.6426 297.5015,244.7280 300.8670,244.7280 302.5497,247.6426 300.8670,250.5571 304.2324,250.5571 305.9152,253.4717 304.2324,256.3862 300.8670,256.3862 302.5497,259.3008 300.8670,262.2154 304.2324,262.2154 305.9152,265.1299 307.5979,262.2154 310.9633,262.2154 312.6460,265.1299 310.9633,268.0445 314.3288,268.0445 316.0115,270.9590 314.3288,273.8736 310.9633,273.8736 312.6460,276.7882 310.9633,279.7027 307.5979,279.7027 305.9152,276.7882 304.2324,279.7027 300.8670,279.7027 302.5497,282.6173 300.8670,285.5318 304.2324,285.5318 305.9152,288.4464 304.2324,291.3610 300.8670,291.3610 302.5497,294.2755 300.8670,297.1901 304.2324,297.1901 305.9152,300.1046 307.5979,297.1901 310.9633,297.1901 312.6460,300.1046 310.9633,303.0192 314.3288,303.0192 316.0115,305.9338 317.6942,303.0192 321.0597,303.0192 319.3769,300.1046 321.0597,297.1901 324.4251,297.1901 326.1078,300.1046 327.7905,297.1901 331.1560,297.1901 332.8387,300.1046 331.1560,303.0192 334.5214,303.0192 336.2042,305.9338 334.5214,308.8483 331.1560,308.8483 332.8387,311.7629 331.1560,314.6774 334.5214,314.6774 336.2042,317.5920 337.8869,314.6774 341.2523,314.6774 342.9350,317.5920 341.2523,320.5066 344.6178,320.5066 346.3005,323.4211 342.9350,323.4211 341.2523,320.5066 339.5696,323.4211 336.2042,323.4211 334.5214,320.5066 336.2042,317.5920 332.8387,317.5920 331.1560,314.6774 329.4733,317.5920 326.1078,317.5920 327.7905,320.5066 326.1078,323.4211 322.7424,323.4211 321.0597,320.5066 319.3769,323.4211 316.0115,323.4211 314.3288,320.5066 316.0115,317.5920 312.6460,317.5920 310.9633,314.6774 312.6460,311.7629 316.0115,311.7629 314.3288,308.8483 316.0115,305.9338 312.6460,305.9338 310.9633,303.0192 309.2806,305.9338 305.9152,305.9338 304.2324,303.0192 305.9152,300.1046 302.5497,300.1046 300.8670,297.1901 299.1843,300.1046 295.8188,300.1046 297.5015,303.0192 295.8188,305.9338 292.4534,305.9338 290.7707,303.0192 289.0879,305.9338 285.7225,305.9338 287.4052,308.8483 285.7225,311.7629 289.0879,311.7629 290.7707,314.6774 289.0879,317.5920 285.7225,317.5920 287.4052,320.5066 285.7225,323.4211 282.3570,323.4211 280.6743,320.5066 278.9916,323.4211 275.6262,323.4211 273.9434,320.5066 275.6262,317.5920 272.2607,317.5920 270.5780,314.6774 268.8953,317.5920 265.5298,317.5920 267.2125,320.5066 265.5298,323.4211 262.1644,323.4211 260.4817,320.5066 258.7989,323.4211 255.4335,323.4211 253.7508,320.5066 255.4335,317.5920 252.0681,317.5920 250.3853,314.6774 252.0681,311.7629 255.4335,311.7629 253.7508,308.8483 255.4335,305.9338 252.0681,305.9338 250.3853,303.0192 248.7026,305.9338 245.3372,305.9338 243.6544,303.0192 245.3372,300.1046 241.9717,300.1046 240.2890,297.1901 241.9717,294.2755 245.3372,294.2755 243.6544,291.3610 245.3372,288.4464 248.7026,288.4464 250.3853,291.3610 252.0681,288.4464 255.4335,288.4464 253.7508,285.5318 255.4335,282.6173 252.0681,282.6173 250.3853,279.7027 252.0681,276.7882 255.4335,276.7882 253.7508,273.8736 255.4335,270.9590 252.0681,270.9590 250.3853,268.0445 248.7026,270.9590 245.3372,270.9590 243.6544,268.0445 245.3372,265.1299 241.9717,265.1299 240.2890,262.2154 238.6063,265.1299 235.2408,265.1299 236.9236,268.0445 235.2408,270.9590 231.8754,270.9590 230.1927,268.0445 228.5099,270.9590 225.1445,270.9590 223.4618,268.0445 225.1445,265.1299 221.7791,265.1299 220.0963,262.2154 221.7791,259.3008 225.1445,259.3008 223.4618,256.3862 225.1445,253.4717 221.7791,253.4717 220.0963,250.5571 218.4136,253.4717 215.0482,253.4717 213.3654,250.5571 215.0482,247.6426 211.6827,247.6426 210.0000,244.7280 208.3173,247.6426 204.9518,247.6426 206.6346,250.5571 204.9518,253.4717 201.5864,253.4717 199.9037,250.5571 198.2209,253.4717 194.8555,253.4717 196.5382,256.3862 194.8555,259.3008 198.2209,259.3008 199.9037,262.2154 198.2209,265.1299 194.8555,265.1299 196.5382,268.0445 194.8555,270.9590 191.4901,270.9590 189.8073,268.0445 188.1246,270.9590 184.7592,270.9590 183.0764,268.0445 184.7592,265.1299 181.3937,265.1299 179.7110,262.2154 178.0283,265.1299 174.6628,265.1299 176.3456,268.0445 174.6628,270.9590 171.2974,270.9590 169.6147,268.0445 167.9319,270.9590 164.5665,270.9590 166.2492,273.8736 164.5665,276.7882 167.9319,276.7882 169.6147,279.7027 167.9319,282.6173 164.5665,282.6173 166.2492,285.5318 164.5665,288.4464 167.9319,288.4464 169.6147,291.3610 171.2974,288.4464 174.6628,288.4464 176.3456,291.3610 174.6628,294.2755 178.0283,294.2755 179.7110,297.1901 178.0283,300.1046 174.6628,300.1046 176.3456,303.0192 174.6628,305.9338 171.2974,305.9338 169.6147,303.0192 167.9319,305.9338 164.5665,305.9338 166.2492,308.8483 164.5665,311.7629 167.9319,311.7629 169.6147,314.6774 167.9319,317.5920 164.5665,317.5920 166.2492,320.5066 164.5665,323.4211 161.2011,323.4211 159.5183,320.5066 157.8356,323.4211 154.4702,323.4211 152.7875,320.5066 154.4702,317.5920 151.1047,317.5920 149.4220,314.6774 147.7393,317.5920 144.3738,317.5920 146.0566,320.5066 144.3738,323.4211 141.0084,323.4211 139.3257,320.5066 137.6430,323.4211 134.2775,323.4211 132.5948,320.5066 134.2775,317.5920 130.9121,317.5920 129.2293,314.6774 130.9121,311.7629 134.2775,311.7629 132.5948,308.8483 134.2775,305.9338 130.9121,305.9338 129.2293,303.0192 127.5466,305.9338 124.1812,305.9338 122.4985,303.0192 124.1812,300.1046 120.8157,300.1046 119.1330,297.1901 117.4503,300.1046 114.0848,300.1046 115.7676,303.0192 114.0848,305.9338 110.7194,305.9338 109.0367,303.0192 107.3540,305.9338 103.9885,305.9338 105.6712,308.8483 103.9885,311.7629 107.3540,311.7629 109.0367,314.6774 107.3540,317.5920 103.9885,317.5920 105.6712,320.5066 103.9885,323.4211 100.6231,323.4211 98.9403,320.5066 97.2576,323.4211 93.8922,323.4211 92.2095,320.5066 93.8922,317.5920 90.5267,317.5920 88.8440,314.6774 87.1613,317.5920 83.7958,317.5920 85.4786,320.5066 83.7958,323.4211 80.4304,323.4211 78.7477,320.5066 77.0650,323.4211 73.6995,323.4211 75.3822,320.5066 78.7477,320.5066 77.0650,317.5920 78.7477,314.6774 82.1131,314.6774 83.7958,317.5920 85.4786,314.6774 88.8440,314.6774 87.1613,311.7629 88.8440,308.8483 85.4786,308.8483 83.7958,305.9338 85.4786,303.0192 88.8440,303.0192 87.1613,300.1046 88.8440,297.1901 92.2095,297.1901 93.8922,300.1046 95.5749,297.1901 98.9403,297.1901 100.6231,300.1046 98.9403,303.0192 102.3058,303.0192 103.9885,305.9338 105.6712,303.0192 109.0367,303.0192 107.3540,300.1046 109.0367,297.1901 112.4021,297.1901 114.0848,300.1046 115.7676,297.1901 119.1330,297.1901 117.4503,294.2755 119.1330,291.3610 115.7676,291.3610 114.0848,288.4464 115.7676,285.5318 119.1330,285.5318 117.4503,282.6173 119.1330,279.7027 115.7676,279.7027 114.0848,276.7882 112.4021,279.7027 109.0367,279.7027 107.3540,276.7882 109.0367,273.8736 105.6712,273.8736 103.9885,270.9590 105.6712,268.0445 109.0367,268.0445 107.3540,265.1299 109.0367,262.2154 112.4021,262.2154 114.0848,265.1299 115.7676,262.2154 119.1330,262.2154 117.4503,259.3008 119.1330,256.3862 115.7676,256.3862 114.0848,253.4717 115.7676,250.5571 119.1330,250.5571 117.4503,247.6426 119.1330,244.7280 122.4985,244.7280 124.1812,247.6426 125.8639,244.7280 129.2293,244.7280 130.9121,247.6426 129.2293,250.5571 132.5948,250.5571 134.2775,253.4717 135.9602,250.5571 139.3257,250.5571 137.6430,247.6426 139.3257,244.7280 142.6911,244.7280 144.3738,247.6426 146.0566,244.7280 149.4220,244.7280 151.1047,247.6426 149.4220,250.5571 152.7875,250.5571 154.4702,253.4717 152.7875,256.3862 149.4220,256.3862 151.1047,259.3008 149.4220,262.2154 152.7875,262.2154 154.4702,265.1299 156.1529,262.2154 159.5183,262.2154 161.2011,265.1299 159.5183,268.0445 162.8838,268.0445 164.5665,270.9590 166.2492,268.0445 169.6147,268.0445 167.9319,265.1299 169.6147,262.2154 172.9801,262.2154 174.6628,265.1299 176.3456,262.2154 179.7110,262.2154 178.0283,259.3008 179.7110,256.3862 176.3456,256.3862 174.6628,253.4717 176.3456,250.5571 179.7110,250.5571 178.0283,247.6426 179.7110,244.7280 183.0764,244.7280 184.7592,247.6426 186.4419,244.7280 189.8073,244.7280 191.4901,247.6426 189.8073,250.5571 193.1728,250.5571 194.8555,253.4717 196.5382,250.5571 199.9037,250.5571 198.2209,247.6426 199.9037,244.7280 203.2691,244.7280 204.9518,247.6426 206.6346,244.7280 210.0000,244.7280 208.3173,241.8134 210.0000,238.8989 206.6346,238.8989 204.9518,235.9843 206.6346,233.0698 210.0000,233.0698 208.3173,230.1552 210.0000,227.2406 206.6346,227.2406 204.9518,224.3261 203.2691,227.2406 199.9037,227.2406 198.2209,224.3261 199.9037,221.4115 196.5382,221.4115 194.8555,218.4970 196.5382,215.5824 199.9037,215.5824 198.2209,212.6678 199.9037,209.7533 203.2691,209.7533 204.9518,212.6678 206.6346,209.7533 210.0000,209.7533 208.3173,206.8387 210.0000,203.9242 206.6346,203.9242 204.9518,201.0096 206.6346,198.0950 210.0000,198.0950 208.3173,195.1805 210.0000,192.2659 206.6346,192.2659 204.9518,189.3514 203.2691,192.2659 199.9037,192.2659 198.2209,189.3514 199.9037,186.4368 196.5382,186.4368 194.8555,183.5222 193.1728,186.4368 189.8073,186.4368 191.4901,189.3514 189.8073,192.2659 186.4419,192.2659 184.7592,189.3514 183.0764,192.2659 179.7110,192.2659 178.0283,189.3514 179.7110,186.4368 176.3456,186.4368 174.6628,183.5222 176.3456,180.6077 179.7110,180.6077 178.0283,177.6931 179.7110,174.7786 176.3456,174.7786 174.6628,171.8640 172.9801,174.7786 169.6147,174.7786 167.9319,171.8640 169.6147,168.9494 166.2492,168.9494 164.5665,166.0349 166.2492,163.1203 169.6147,163.1203 167.9319,160.2058 169.6147,157.2912 172.9801,157.2912 174.6628,160.2058 176.3456,157.2912 179.7110,157.2912 178.0283,154.3766 179.7110,151.4621 176.3456,151.4621 174.6628,148.5475 176.3456,145.6330 179.7110,145.6330 178.0283,142.7184 179.7110,139.8038 183.0764,139.8038 184.7592,142.7184 186.4419,139.8038 189.8073,139.8038 191.4901,142.7184 189.8073,145.6330 193.1728,145.6330 194.8555,148.5475 196.5382,145.6330 199.9037,145.6330 198.2209,142.7184 199.9037,139.8038 203.2691,139.8038 204.9518,142.7184 206.6346,139.8038 210.0000,139.8038 208.3173,136.8893 210.0000,133.9747 206.6346,133.9747 204.9518,131.0602 206.6346,128.1456 210.0000,128.1456 208.3173,125.2310 210.0000,122.3165 206.6346,122.3165 204.9518,119.4019 203.2691,122.3165 199.9037,122.3165 198.2209,119.4019 199.9037,116.4874 196.5382,116.4874 194.8555,113.5728 196.5382,110.6582 199.9037,110.6582 198.2209,107.7437 199.9037,104.8291 203.2691,104.8291 204.9518,107.7437 206.6346,104.8291 210.0000,104.8291 208.3173,101.9146 210.0000,99.0000 206.6346,99.0000 204.9518,96.0854 206.6346,93.1709 210.0000,93.1709 208.3173,90.2563" fill="#1C1C1C" stroke="#1C1C1C" opacity="0.92" stroke-width="0.15" stroke-linejoin="round" />
  </g>
  <g id="annotations">
    <line x1="63.0" y1="333.42112000000003" x2="357.0" y2="333.42112000000003" stroke="#8B0000" stroke-width="0.3" opacity="0.5" />
    <g>
      <circle cx="63.0" cy="343.42112000000003" r="1.0" fill="#8B0000" />
      <text x="63.0" y="353.42112000000003" font-family="'Inter', 'Helvetica Neue', Arial, sans-serif, system-ui, -apple-system, 'Segoe UI', Roboto, 'Apple Color Emoji', 'Segoe UI Emoji', 'Segoe UI Symbol'" fill="#8B0000" font-size="5.0" text-anchor="middle">Infinite Perimeter</text>
      <text x="63.0" y="360.42112000000003" font-family="'Inter', 'Helvetica Neue', Arial, sans-serif, system-ui, -apple-system, 'Segoe UI', Roboto, 'Apple Color Emoji', 'Segoe UI Emoji', 'Segoe UI Symbol'" fill="#1C1C1C" font-size="3.8" text-anchor="middle">
        <tspan x="63.0" dy="0">Each iteration multiplies the</tspan>
        <tspan x="63.0" dy="5.0">perimeter by 4/3. After n steps,</tspan>
        <tspan x="63.0" dy="5.0">P = 3s·(4/3)ⁿ. As n → ∞ the</tspan>
        <tspan x="63.0" dy="5.0">perimeter grows without bound,</tspan>
        <tspan x="63.0" dy="5.0">yet the curve never crosses itself.</tspan>
      </text>
    </g>
    <g>
      <circle cx="210.0" cy="343.42112000000003" r="1.0" fill="#8B0000" />
      <text x="210.0" y="353.42112000000003" font-family="'Inter', 'Helvetica Neue', Arial, sans-serif, system-ui, -apple-system, 'Segoe UI', Roboto, 'Apple Color Emoji', 'Segoe UI Emoji', 'Segoe UI Symbol'" fill="#8B0000" font-size="5.0" text-anchor="middle">Fractional Dimension</text>
      <text x="210.0" y="360.42112000000003" font-family="'Inter', 'Helvetica Neue', Arial, sans-serif, system-ui, -apple-system, 'Segoe UI', Roboto, 'Apple Color Emoji', 'Segoe UI Emoji', 'Segoe UI Symbol'" fill="#1C1C1C" font-size="3.8" text-anchor="middle">
        <tspan x="210.0" dy="0">A line is 1-D. A surface is 2-D.</tspan>
        <tspan x="210.0" dy="5.0">The Koch snowflake is 1.2619-D!</tspan>
        <tspan x="210.0" dy="5.0">Its Hausdorff dimension is</tspan>
        <tspan x="210.0" dy="5.0">log(4)/log(3) — more than a line</tspan>
        <tspan x="210.0" dy="5.0">but less than a filled plane.</tspan>
      </text>
    </g>
    <g>
      <circle cx="357.0" cy="343.42112000000003" r="1.0" fill="#8B0000" />
      <text x="357.0" y="353.42112000000003" font-family="'Inter', 'Helvetica Neue', Arial, sans-serif, system-ui, -apple-system, 'Segoe UI', Roboto, 'Apple Color Emoji', 'Segoe UI Emoji', 'Segoe UI Symbol'" fill="#8B0000" font-size="5.0" text-anchor="middle">Self-Similarity</text>
      <text x="357.0" y="360.42112000000003" font-family="'Inter', 'Helvetica Neue', Arial, sans-serif, system-ui, -apple-system, 'Segoe UI', Roboto, 'Apple Color Emoji', 'Segoe UI Emoji', 'Segoe UI Symbol'" fill="#1C1C1C" font-size="3.8" text-anchor="middle">
        <tspan x="357.0" dy="0">Each of the three sides is a Koch</tspan>
        <tspan x="357.0" dy="5.0">curve. Zoom into any portion and</tspan>
        <tspan x="357.0" dy="5.0">the same pattern appears at every</tspan>
        <tspan x="357.0" dy="5.0">scale — a hallmark of fractal</tspan>
        <tspan x="357.0" dy="5.0">geometry.</tspan>
      </text>
    </g>
  </g>
  <g id="educational">
    <line x1="63.0" y1="406.42112000000003" x2="357.0" y2="406.42112000000003" stroke="#8B0000" stroke-width="0.3" opacity="0.35" />
    <g>
      <text x="63.0" y="420.42112000000003" font-family="'Inter', 'Helvetica Neue', Arial, sans-serif, system-ui, -apple-system, 'Segoe UI', Roboto, 'Apple Color Emoji', 'Segoe UI Emoji', 'Segoe UI Symbol'" fill="#8B0000" font-size="5.0" text-anchor="middle">The Construction</text>
      <text x="63.0" y="427.42112000000003" font-family="'Inter', 'Helvetica Neue', Arial, sans-serif, system-ui, -apple-system, 'Segoe UI', Roboto, 'Apple Color Emoji', 'Segoe UI Emoji', 'Segoe UI Symbol'" fill="#1C1C1C" font-size="3.8" text-anchor="middle">
        <tspan x="63.0" dy="0">Begin with a straight segment.</tspan>
        <tspan x="63.0" dy="5.0">Divide it into thirds; replace the</tspan>
        <tspan x="63.0" dy="5.0">middle third with two sides of an</tspan>
        <tspan x="63.0" dy="5.0">equilateral triangle. Repeat on</tspan>
        <tspan x="63.0" dy="5.0">every new segment — forever.</tspan>
      </text>
      <polyline points="29.0000,458.4211 49.0000,458.4211" fill="none" stroke="#1C1C1C" stroke-width="0.4" stroke-linejoin="round" opacity="0.85" />
      <text x="39.0" y="466.42112000000003" font-family="'Inter', 'Helvetica Neue', Arial, sans-serif, system-ui, -apple-system, 'Segoe UI', Roboto, 'Apple Color Emoji', 'Segoe UI Emoji', 'Segoe UI Symbol'" fill="#1C1C1C" font-size="3.0" text-anchor="middle">depth 0</text>
      <line x1="47.0" y1="456.42112000000003" x2="51.8" y2="456.42112000000003" stroke="#1C1C1C" stroke-width="0.3" />
      <polygon points="55.0000,456.4211 51.8000,455.1411 51.8000,457.7011" fill="#1C1C1C" />
      <polyline points="53.0000,458.4211 59.6667,458.4211 63.0000,464.1946 66.3333,458.4211 73.0000,458.4211" fill="none" stroke="#1C1C1C" stroke-width="0.4" stroke-linejoin="round" opacity="0.85" />
      <text x="63.0" y="466.42112000000003" font-family="'Inter', 'Helvetica Neue', Arial, sans-serif, system-ui, -apple-system, 'Segoe UI', Roboto, 'Apple Color Emoji', 'Segoe UI Emoji', 'Segoe UI Symbol'" fill="#1C1C1C" font-size="3.0" text-anchor="middle">depth 1</text>
      <line x1="71.0" y1="456.42112000000003" x2="75.8" y2="456.42112000000003" stroke="#1C1C1C" stroke-width="0.3" />
      <polygon points="79.0000,456.4211 75.8000,455.1411 75.8000,457.7011" fill="#1C1C1C" />
      <polyline points="77.0000,458.4211 79.2222,458.4211 80.3333,460.3456 81.4444,458.4211 83.6667,458.4211 84.7778,460.3456 83.6667,462.2701 85.8889,462.2701 87.0000,464.1946 88.1111,462.2701 90.3333,462.2701 89.2222,460.3456 90.3333,458.4211 92.5556,458.4211 93.6667,460.3456 94.7778,458.4211 97.0000,458.4211" fill="none" stroke="#1C1C1C" stroke-width="0.4" stroke-linejoin="round" opacity="0.85" />
      <text x="87.0" y="466.42112000000003" font-family="'Inter', 'Helvetica Neue', Arial, sans-serif, system-ui, -apple-system, 'Segoe UI', Roboto, 'Apple Color Emoji', 'Segoe UI Emoji', 'Segoe UI Symbol'" fill="#1C1C1C" font-size="3.0" text-anchor="middle">depth 2</text>
    </g>
    <g>
      <text x="210.0" y="420.42112000000003" font-family="'Inter', 'Helvetica Neue', Arial, sans-serif, system-ui, -apple-system, 'Segoe UI', Roboto, 'Apple Color Emoji', 'Segoe UI Emoji', 'Segoe UI Symbol'" fill="#8B0000" font-size="5.0" text-anchor="middle">Area Paradox</text>
      <text x="210.0" y="427.42112000000003" font-family="'Inter', 'Helvetica Neue', Arial, sans-serif, system-ui, -apple-system, 'Segoe UI', Roboto, 'Apple Color Emoji', 'Segoe UI Emoji', 'Segoe UI Symbol'" fill="#1C1C1C" font-size="3.8" text-anchor="middle">
        <tspan x="210.0" dy="0">Despite its infinite perimeter, the</tspan>
        <tspan x="210.0" dy="5.0">Koch snowflake encloses a finite</tspan>
        <tspan x="210.0" dy="5.0">area. It converges to exactly 8/5</tspan>
        <tspan x="210.0" dy="5.0">of the original triangle’s area:</tspan>
      </text>
      <text x="210.0" y="451.42112000000003" font-family="'Inter', 'Helvetica Neue', Arial, sans-serif, system-ui, -apple-system, 'Segoe UI', Roboto, 'Apple Color Emoji', 'Segoe UI Emoji', 'Segoe UI Symbol'" fill="#1C1C1C" font-size="4.2" font-style="italic" text-anchor="middle">A = (2s²√3) / 5</text>
      <text x="210.0" y="458.42112000000003" font-family="'Inter', 'Helvetica Neue', Arial, sans-serif, system-ui, -apple-system, 'Segoe UI', Roboto, 'Apple Color Emoji', 'Segoe UI Emoji', 'Segoe UI Symbol'" fill="#1C1C1C" font-size="4.2" font-style="italic" text-anchor="middle">Perimeter(n) = 3s·(4/3)ⁿ → ∞</text>
      <polygon points="192.0000,467.4211 197.1962,476.4211 186.8038,476.4211" fill="#1C1C1C" opacity="0.8" />
      <text x="192.0" y="484.42112000000003" font-family="'Inter', 'Helvetica Neue', Arial, sans-serif, system-ui, -apple-system, 'Segoe UI', Roboto, 'Apple Color Emoji', 'Segoe UI Emoji', 'Segoe UI Symbol'" fill="#1C1C1C" font-size="2.8" text-anchor="middle">n=0</text>
      <polygon points="210.0000,467.4211 211.7321,470.4211 210.0000,473.4211 213.4641,473.4211 215.1962,476.4211 211.7321,476.4211 210.0000,473.4211 208.2679,476.4211 204.8038,476.4211 206.5359,473.4211 210.0000,473.4211 208.2679,470.4211" fill="#1C1C1C" opacity="0.8" />
      <text x="210.0" y="484.42112000000003" font-family="'Inter', 'Helvetica Neue', Arial, sans-serif, system-ui, -apple-system, 'Segoe UI', Roboto, 'Apple Color Emoji', 'Segoe UI Emoji', 'Segoe UI Symbol'" fill="#1C1C1C" font-size="2.8" text-anchor="middle">n=1</text>
      <polygon points="228.0000,467.4211 228.5774,468.4211 228.0000,469.4211 229.1547,469.4211 229.7321,470.4211 229.1547,471.4211 228.0000,471.4211 228.5774,472.4211 228.0000,473.4211 229.1547,473.4211 229.7321,474.4211 230.3094,473.4211 231.4641,473.4211 232.0415,474.4211 231.4641,475.4211 232.6188,475.4211 233.1962,476.4211 232.0415,476.4211 231.4641,475.4211 230.8868,476.4211 229.7321,476.4211 229.1547,475.4211 229.7321,474.4211 228.5774,474.4211 228.0000,473.4211 227.4226,474.4211 226.2679,474.4211 226.8453,475.4211 226.2679,476.4211 225.1132,476.4211 224.5359,475.4211 223.9585,476.4211 222.8038,476.4211 223.3812,475.4211 224.5359,475.4211 223.9585,474.4211 224.5359,473.4211 225.6906,473.4211 226.2679,474.4211 226.8453,473.4211 228.0000,473.4211 227.4226,472.4211 228.0000,471.4211 226.8453,471.4211 226.2679,470.4211 226.8453,469.4211 228.0000,469.4211 227.4226,468.4211" fill="#1C1C1C" opacity="0.8" />
      <text x="228.0" y="484.42112000000003" font-family="'Inter', 'Helvetica Neue', Arial, sans-serif, system-ui, -apple-system, 'Segoe UI', Roboto, 'Apple Color Emoji', 'Segoe UI Emoji', 'Segoe UI Symbol'" fill="#1C1C1C" font-size="2.8" text-anchor="middle">n=2</text>
    </g>
    <g>
      <text x="357.0" y="420.42112000000003" font-family="'Inter', 'Helvetica Neue', Arial, sans-serif, system-ui, -apple-system, 'Segoe UI', Roboto, 'Apple Color Emoji', 'Segoe UI Emoji', 'Segoe UI Symbol'" fill="#8B0000" font-size="5.0" text-anchor="middle">Snowflake Variations</text>
      <text x="357.0" y="427.42112000000003" font-family="'Inter', 'Helvetica Neue', Arial, sans-serif, system-ui, -apple-system, 'Segoe UI', Roboto, 'Apple Color Emoji', 'Segoe UI Emoji', 'Segoe UI Symbol'" fill="#1C1C1C" font-size="3.8" text-anchor="middle">
        <tspan x="357.0" dy="0">The anti-snowflake points its</tspan>
        <tspan x="357.0" dy="5.0">bumps inward, creating a shape</tspan>
        <tspan x="357.0" dy="5.0">that tiles with the original. A</tspan>
        <tspan x="357.0" dy="5.0">single Koch curve forms one side.</tspan>
        <tspan x="357.0" dy="5.0">Higher-order variants use squares</tspan>
        <tspan x="357.0" dy="5.0">or other polygons as generators.</tspan>
      </text>
      <polygon points="337.0000,462.4211 337.5774,463.4211 337.0000,464.4211 338.1547,464.4211 338.7321,465.4211 338.1547,466.4211 337.0000,466.4211 337.5774,467.4211 337.0000,468.4211 338.1547,468.4211 338.7321,469.4211 339.3094,468.4211 340.4641,468.4211 341.0415,469.4211 340.4641,470.4211 341.6188,470.4211 342.1962,471.4211 341.0415,471.4211 340.4641,470.4211 339.8868,471.4211 338.7321,471.4211 338.1547,470.4211 338.7321,469.4211 337.5774,469.4211 337.0000,468.4211 336.4226,469.4211 335.2679,469.4211 335.8453,470.4211 335.2679,471.4211 334.1132,471.4211 333.5359,470.4211 332.9585,471.4211 331.8038,471.4211 332.3812,470.4211 333.5359,470.4211 332.9585,469.4211 333.5359,468.4211 334.6906,468.4211 335.2679,469.4211 335.8453,468.4211 337.0000,468.4211 336.4226,467.4211 337.0000,466.4211 335.8453,466.4211 335.2679,465.4211 335.8453,464.4211 337.0000,464.4211 336.4226,463.4211" fill="#1C1C1C" opacity="0.7" />
      <text x="337.0" y="479.42112000000003" font-family="'Inter', 'Helvetica Neue', Arial, sans-serif, system-ui, -apple-system, 'Segoe UI', Roboto, 'Apple Color Emoji', 'Segoe UI Emoji', 'Segoe UI Symbol'" fill="#1C1C1C" font-size="2.6" text-anchor="middle">snowflake</text>
      <polygon points="357.0000,462.4211 356.4226,463.4211 355.2679,463.4211 355.8453,464.4211 355.2679,465.4211 354.1132,465.4211 353.5359,464.4211 352.9585,465.4211 351.8038,465.4211 352.3812,466.4211 351.8038,467.4211 352.9585,467.4211 353.5359,468.4211 352.9585,469.4211 351.8038,469.4211 352.3812,470.4211 351.8038,471.4211 352.9585,471.4211 353.5359,472.4211 354.1132,471.4211 355.2679,471.4211 355.8453,472.4211 355.2679,473.4211 356.4226,473.4211 357.0000,474.4211 357.5774,473.4211 358.7321,473.4211 358.1547,472.4211 358.7321,471.4211 359.8868,471.4211 360.4641,472.4211 361.0415,471.4211 362.1962,471.4211 361.6188,470.4211 362.1962,469.4211 361.0415,469.4211 360.4641,468.4211 361.0415,467.4211 362.1962,467.4211 361.6188,466.4211 362.1962,465.4211 361.0415,465.4211 360.4641,464.4211 359.8868,465.4211 358.7321,465.4211 358.1547,464.4211 358.7321,463.4211 357.5774,463.4211" fill="none" stroke="#1C1C1C" stroke-width="0.3" opacity="0.7" />
      <text x="357.0" y="479.42112000000003" font-family="'Inter', 'Helvetica Neue', Arial, sans-serif, system-ui, -apple-system, 'Segoe UI', Roboto, 'Apple Color Emoji', 'Segoe UI Emoji', 'Segoe UI Symbol'" fill="#1C1C1C" font-size="2.6" text-anchor="middle">anti-snowflake</text>
      <polyline points="371.0000,468.4211 371.4444,468.4211 371.6667,468.8060 371.8889,468.4211 372.3333,468.4211 372.5556,468.8060 372.3333,469.1909 372.7778,469.1909 373.0000,469.5758 373.2222,469.1909 373.6667,469.1909 373.4444,468.8060 373.6667,468.4211 374.1111,468.4211 374.3333,468.8060 374.5556,468.4211 375.0000,468.4211 375.2222,468.8060 375.0000,469.1909 375.4444,469.1909 375.6667,469.5758 375.4444,469.9607 375.0000,469.9607 375.2222,470.3456 375.0000,470.7305 375.4444,470.7305 375.6667,471.1154 375.8889,470.7305 376.3333,470.7305 376.5556,471.1154 376.3333,471.5003 376.7778,471.5003 377.0000,471.8852 377.2222,471.5003 377.6667,471.5003 377.4444,471.1154 377.6667,470.7305 378.1111,470.7305 378.3333,471.1154 378.5556,470.7305 379.0000,470.7305 378.7778,470.3456 379.0000,469.9607 378.5556,469.9607 378.3333,469.5758 378.5556,469.1909 379.0000,469.1909 378.7778,468.8060 379.0000,468.4211 379.4444,468.4211 379.6667,468.8060 379.8889,468.4211 380.3333,468.4211 380.5556,468.8060 380.3333,469.1909 380.7778,469.1909 381.0000,469.5758 381.2222,469.1909 381.6667,469.1909 381.4444,468.8060 381.6667,468.4211 382.1111,468.4211 382.3333,468.8060 382.5556,468.4211 383.0000,468.4211" fill="none" stroke="#1C1C1C" stroke-width="0.3" stroke-linejoin="round" opacity="0.7" />
      <text x="377.0" y="479.42112000000003" font-family="'Inter', 'Helvetica Neue', Arial, sans-serif, system-ui, -apple-system, 'Segoe UI', Roboto, 'Apple Color Emoji', 'Segoe UI Emoji', 'Segoe UI Symbol'" fill="#1C1C1C" font-size="2.6" text-anchor="middle">Koch curve</text>
    </g>
  </g>
  <text x="210.0" y="576.0" font-family="'Inter', 'Helvetica Neue', Arial, sans-serif, system-ui, -apple-system, 'Segoe UI', Roboto, 'Apple Color Emoji', 'Segoe UI Emoji', 'Segoe UI Symbol'" font-size="4.0" fill="#555555" text-anchor="middle">Helge von Koch first described this curve in 1904.</text>
  <text x="210.0" y="582.0" font-family="'Inter', 'Helvetica Neue', Arial, sans-serif, system-ui, -apple-system, 'Segoe UI', Roboto, 'Apple Color Emoji', 'Segoe UI Emoji', 'Segoe UI Symbol'" font-size="3.5" fill="#777777" text-anchor="middle">Generated at depth 4  ·  768 sides</text>
  <rect x="4" y="4" width="412" height="586" fill="none" stroke="#1C1C1C" stroke-width="0.8" />
  <rect x="7" y="7" width="406" height="580" fill="none" stroke="#1C1C1C" stroke-width="0.2" />
</svg>