<?xml version='1.0' encoding='utf-8'?>
<svg xmlns="http://www.w3.org/2000/svg" version="1.1" width="420mm" height="594mm" viewBox="0 0 420 594">
  <style>@import url('https://fonts.googleapis.com/css2?family=Playfair+Display:ital,wght@0,400;0,700;1,400&amp;family=Inter:wght@300;400;500&amp;display=swap');</style>
  <rect x="0" y="0" width="420" height="594" fill="#FFFEF8" />
  <text x="210.0" y="27.918" font-family="'Playfair Display', Georgia, 'Times New Roman', serif" font-size="16.0" fill="#1C1C1C" text-anchor="middle">The Koch Snowflake</text>
  <text x="210.0" y="38.016" font-family="'Inter', 'Helvetica Neue', Arial, sans-serif, system-ui, -apple-system, 'Segoe UI', Roboto, 'Apple Color Emoji', 'Segoe UI Emoji', 'Segoe UI Symbol'" font-size="6.0" fill="#8B0000" text-anchor="middle">Infinite perimeter, finite area</text>
  <line x1="63.0" y1="43.955999999999996" x2="357.0" y2="43.955999999999996" stroke="#8B0000" stroke-width="0.4" />
  <defs>
    <marker id="arrowhead" markerWidth="6" markerHeight="6" refX="3" refY="3" orient="auto">
      <circle cx="3" cy="3" r="2" fill="#8B0000" />
    </marker>
  </defs>
  <g id="fractal">
    <polygon points="210.0000,87.3418 211.6827,90.2563 215.0482,90.2563 213.3654,93.1709 215.0482,96.0854 218.4136,96.0854 220.0963,93.1709 221.7791,96.0854 225.1445,96.0854 223.4618,99.0000 225.1445,101.9146 221.7791,101.9146 220.0963,104.8291 221.7791,107.7437 225.1445,107.7437 223.4618,110.6582 225.1445,113.5728 228.5099,113.5728 230.1927,110.6582 231.8754,113.5728 235.2408,113.5728 236.9236,110.6582 235.2408,107.7437 238.6063,107.7437 240.2890,104.8291 241.9717,107.7437 245.3372,107.7437 243.6544,110.6582 245.3372,113.5728 248.7026,113.5728 250.3853,110.6582 252.0681,113.5728 255.4335,113.5728 253.7508,116.4874 255.4335,119.4019 252.0681,119.4019 250.3853,122.3165 252.0681,125.2310 255.4335,125.2310 253.7508,128.1456 255.4335,131.0602 252.0681,131.0602 250.3853,133.9747 248.7026,131.0602 245.3372,131.0602 243.6544,133.9747 245.3372,136.8893 241.9717,136.8893 240.2890,139.8038 241.9717,142.7184 245.3372,142.7184 243.6544,145.6330 245.3372,148.5475 248.7026,148.5475 250.3853,145.6330 252.0681,148.5475 255.4335,148.5475 253.7508,151.4621 255.4335,154.3766 252.0681,154.3766 250.3853,157.2912 252.0681,160.2058 255.4335,160.2058 253.7508,163.1203 255.4335,166.0349 258.7989,166.0349 260.4817,163.1203 262.1644,166.0349 265.5298,166.0349 267.2125,163.1203 265.5298,160.2058 268.8953,160.2058 270.5780,157.2912 272.2607,160.2058 275.6262,160.2058 273.9434,163.1203 275.6262,166.0349 278.9916,166.0349 280.6743,163.1203 282.3570,166.0349 285.7225,166.0349 287.4052,163.1203 285.7225,160.2058 289.0879,160.2058 290.7707,157.2912 289.0879,154.3766 285.7225,154.3766 287.4052,151.4621 285.7225,148.5475 289.0879,148.5475 290.7707,145.6330 292.4534,148.5475 295.8188,148.5475 297.5015,145.6330 295.8188,142.7184 299.1843,142.7184 300.8670,139.8038 302.5497,142.7184 305.9152,142.7184 304.2324,145.6330 305.9152,148.5475 309.2806,148.5475 310.9633,145.6330 312.6460,148.5475 316.0115,148.5475 314.3288,151.4621 316.0115,154.3766 312.6460,154.3766 310.9633,157.2912 312.6460,160.2058 316.0115,160.2058 314.3288,163.1203 316.0115,166.0349 319.3769,166.0349 321.0597,163.1203 322.7424,166.0349 326.1078,166.0349 327.7905,163.1203 326.1078,160.2058 329.4733,160.2058 331.1560,157.2912 332.8387,160.2058 336.2042,160.2058 334.5214,163.1203 336.2042,166.0349 339.5696,166.0349 341.2523,163.1203 342.9350,166.0349 346.3005,166.0349 344.6178,168.9494 346.3005,171.8640 342.9350,171.8640 341.2523,174.7786 342.9350,177.6931 346.3005,177.6931 344.6178,180.6077 346.3005,183.5222 342.9350,183.5222 341.2523,186.4368 339.5696,183.5222 336.2042,183.5222 334.5214,186.4368 336.2042,189.3514 332.8387,189.3514 331.1560,192.2659 332.8387,195.1805 336.2042,195.1805 334.5214,198.0950 336.2042,201.0096 339.5696,201.0096 341.2523,198.0950 342.9350,201.0096 346.3005,201.0096 344.6178,203.9242 346.3005,206.8387 342.9350,206.8387 341.2523,209.7533 342.9350,212.6678 346.3005,212.6678 344.6178,215.5824 346.3005,218.4970 342.9350,218.4970 341.2523,221.4115 339.5696,218.4970 336.2042,218.4970 334.5214,221.4115 336.2042,224.3261 332.8387,224.3261 331.1560,227.2406 329.4733,224.3261 326.1078,224.3261 327.7905,221.4115 326.1078,218.4970 322.7424,218.4970 321.0597,221.4115 319.3769,218.4970 316.0115,218.4970 314.3288,221.4115 316.0115,224.3261 312.6460,224.3261 310.9633,227.2406 312.6460,230.1552 316.0115,230.1552 314.3288,233.0698 316.0115,235.9843 312.6460,235.9843 310.9633,238.8989 309.2806,235.9843 305.9152,235.9843 304.2324,238.8989 305.9152,241.8134 302.5497,241.8134 300.8670,244.7280 302.5497,247.6426 305.9152,247.6426 304.2324,250.5571 305.9152,253.4717 309.2806,253.4717 310.9633,250.5571 312.6460,253.4717 316.0115,253.4717 314.3288,256.3862 316.0115,259.3008 312.6460,259.3008 310.9633,262.2154 312.6460,265.1299 316.0115,265.1299 314.3288,268.0445 316.0115,270.9590 319.3769,270.9590 321.0597,268.0445 322.7424,270.9590 326.1078,270.9590 327.7905,268.0445 326.1078,265.1299 329.4733,265.1299 331.1560,262.2154 332.8387,265.1299 336.2042,265.1299 334.5214,268.0445 336.2042,270.9590 339.5696,270.9590 341.2523,268.0445 342.9350,270.9590 346.3005,270.9590 344.6178,273.8736 346.3005,276.7882 342.9350,276.7882 341.2523,279.7027 342.9350,282.6173 346.3005,282.6173 344.6178,285.5318 346.3005,288.4464 342.9350,288.4464 341.2523,291.3610 339.5696,288.4464 336.2042,288.4464 334.5214,291.3610 336.2042,294.2755 332.8387,294.2755 331.1560,297.1901 332.8387,300.1046 336.2042,300.1046 334.5214,303.0192 336.2042,305.9338 339.5696,305.9338 341.2523,303.0192 342.9350,305.9338 346.3005,305.9338 344.6178,308.8483 346.3005,311.7629 342.9350,311.7629 341.2523,314.6774 342.9350,317.5920 346.3005,317.5920 344.6178,320.5066 346.3005,323.4211 342.9350,323.4211 341.2523,326.3357 339.5696,323.4211 336.2042,323.4211 334.5214,326.3357 336.2042,329.2502 332.8387,329.2502 331.1560,332.1648 329.4733,329.2502 326.1078,329.2502 327.7905,326.3357 326.1078,323.4211 322.7424,323.4211 321.0597,326.3357 319.3769,323.4211 316.0115,323.4211 314.3288,326.3357 316.0115,329.2502 312.6460,329.2502 310.9633,332.1648 312.6460,335.0794 316.0115,335.0794 314.3288,337.9939 316.0115,340.9085 312.6460,340.9085 310.9633,343.8230 309.2806,340.9085 305.9152,340.9085 304.2324,343.8230 305.9152,346.7376 302.5497,346.7376 300.8670,349.6522 299.1843,346.7376 295.8188,346.7376 297.5015,343.8230 295.8188,340.9085 292.4534,340.9085 290.7707,343.8230 289.0879,340.9085 285.7225,340.9085 287.4052,337.9939 285.7225,335.0794 289.0879,335.0794 290.7707,332.1648 289.0879,329.2502 285.7225,329.2502 287.4052,326.3357 285.7225,323.4211 282.3570,323.4211 280.6743,326.3357 278.9916,323.4211 275.6262,323.4211 273.9434,326.3357 275.6262,329.2502 272.2607,329.2502 270.5780,332.1648 268.8953,329.2502 265.5298,329.2502 267.2125,326.3357 265.5298,323.4211 262.1644,323.4211 260.4817,326.3357 258.7989,323.4211 255.4335,323.4211 253.7508,326.3357 255.4335,329.2502 252.0681,329.2502 250.3853,332.1648 252.0681,335.0794 255.4335,335.0794 253.7508,337.9939 255.4335,340.9085 252.0681,340.9085 250.3853,343.8230 248.7026,340.9085 245.3372,340.9085 243.6544,343.8230 245.3372,346.7376 241.9717,346.7376 240.2890,349.6522 241.9717,352.5667 245.3372,352.5667 243.6544,355.4813 245.3372,358.3958 248.7026,358.3958 250.3853,355.4813 252.0681,358.3958 255.4335,358.3958 253.7508,361.3104 255.4335,364.2250 252.0681,364.2250 250.3853,367.1395 252.0681,370.0541 255.4335,370.0541 253.7508,372.9686 255.4335,375.8832 252.0681,375.8832 250.3853,378.7978 248.7026,375.8832 245.3372,375.8832 243.6544,378.7978 245.3372,381.7123 241.9717,381.7123 240.2890,384.6269 238.6063,381.7123 235.2408,381.7123 236.9236,378.7978 235.2408,375.8832 231.8754,375.8832 230.1927,378.7978 228.5099,375.8832 225.1445,375.8832 223.4618,378.7978 225.1445,381.7123 221.7791,381.7123 220.0963,384.6269 221.7791,387.5414 225.1445,387.5414 223.4618,390.4560 225.1445,393.3706 221.7791,393.3706 220.0963,396.2851 218.4136,393.3706 215.0482,393.3706 213.3654,396.2851 215.0482,399.1997 211.6827,399.1997 210.0000,402.1142 208.3173,399.1997 204.9518,399.1997 206.6346,396.2851 204.9518,393.3706 201.5864,393.3706 199.9037,396.2851 198.2209,393.3706 194.8555,393.3706 196.5382,390.4560 194.8555,387.5414 198.2209,387.5414 199.9037,384.6269 198.2209,381.7123 194.8555,381.7123 196.5382,378.7978 194.8555,375.8832 191.4901,375.8832 189.8073,378.7978 188.1246,375.8832 184.7592,375.8832 183.0764,378.7978 184.7592,381.7123 181.3937,381.7123 179.7110,384.6269 178.0283,381.7123 174.6628,381.7123 176.3456,378.7978 174.6628,375.8832 171.2974,375.8832 169.6147,378.7978 167.9319,375.8832 164.5665,375.8832 166.2492,372.9686 164.5665,370.0541 167.9319,370.0541 169.6147,367.1395 167.9319,364.2250 164.5665,364.2250 166.2492,361.3104 164.5665,358.3958 167.9319,358.3958 169.6147,355.4813 171.2974,358.3958 174.6628,358.3958 176.3456,355.4813 174.6628,352.5667 178.0283,352.5667 179.7110,349.6522 178.0283,346.7376 174.6628,346.7376 176.3456,343.8230 174.6628,340.9085 171.2974,340.9085 169.6147,343.8230 167.9319,340.9085 164.5665,340.9085 166.2492,337.9939 164.5665,335.0794 167.9319,335.0794 169.6147,332.1648 167.9319,329.2502 164.5665,329.2502 166.2492,326.3357 164.5665,323.4211 161.2011,323.4211 159.5183,326.3357 157.8356,323.4211 154.4702,323.4211 152.7875,326.3357 154.4702,329.2502 151.1047,329.2502 149.4220,332.1648 147.7393,329.2502 144.3738,329.2502 146.0566,326.3357 144.3738,323.4211 141.0084,323.4211 139.3257,326.3357 137.6430,323.4211 134.2775,323.4211 132.5948,326.3357 134.2775,329.2502 130.9121,329.2502 129.2293,332.1648 130.9121,335.0794 134.2775,335.0794 132.5948,337.9939 134.2775,340.9085 130.9121,340.9085 129.2293,343.8230 127.5466,340.9085 124.1812,340.9085 122.4985,343.8230 124.1812,346.7376 120.8157,346.7376 119.1330,349.6522 117.4503,346.7376 114.0848,346.7376 115.7676,343.8230 114.0848,340.9085 110.7194,340.9085 109.0367,343.8230 107.3540,340.9085 103.9885,340.9085 105.6712,337.9939 103.9885,335.0794 107.3540,335.0794 109.0367,332.1648 107.3540,329.2502 103.9885,329.2502 105.6712,326.3357 103.9885,323.4211 100.6231,323.4211 98.9403,326.3357 97.2576,323.4211 93.8922,323.4211 92.2095,326.3357 93.8922,329.2502 90.5267,329.2502 88.8440,332.1648 87.1613,329.2502 83.7958,329.2502 85.4786,326.3357 83.7958,323.4211 80.4304,323.4211 78.7477,326.3357 77.0650,323.4211 73.6995,323.4211 75.3822,320.5066 73.6995,317.5920 77.0650,317.5920 78.7477,314.6774 77.0650,311.7629 73.6995,311.7629 75.3822,308.8483 73.6995,305.9338 77.0650,305.9338 78.7477,303.0192 80.4304,305.9338 83.7958,305.9338 85.4786,303.0192 83.7958,300.1046 87.1613,300.1046 88.8440,297.1901 87.1613,294.2755 83.7958,294.2755 85.4786,291.3610 83.7958,288.4464 80.4304,288.4464 78.7477,291.3610 77.0650,288.4464 73.6995,288.4464 75.3822,285.5318 73.6995,282.6173 77.0650,282.6173 78.7477,279.7027 77.0650,276.7882 73.6995,276.7882 75.3822,273.8736 73.6995,270.9590 77.0650,270.9590 78.7477,268.0445 80.4304,270.9590 83.7958,270.9590 85.4786,268.0445 83.7958,265.1299 87.1613,265.1299 88.8440,262.2154 90.5267,265.1299 93.8922,265.1299 92.2095,268.0445 93.8922,270.9590 97.2576,270.9590 98.9403,268.0445 100.6231,270.9590 103.9885,270.9590 105.6712,268.0445 103.9885,265.1299 107.3540,265.1299 109.0367,262.2154 107.3540,259.3008 103.9885,259.3008 105.6712,256.3862 103.9885,253.4717 107.3540,253.4717 109.0367,250.5571 110.7194,253.4717 114.0848,253.4717 115.7676,250.5571 114.0848,247.6426 117.4503,247.6426 119.1330,244.7280 117.4503,241.8134 114.0848,241.8134 115.7676,238.8989 114.0848,235.9843 110.7194,235.9843 109.0367,238.8989 107.3540,235.9843 103.9885,235.9843 105.6712,233.0698 103.9885,230.1552 107.3540,230.1552 109.0367,227.2406 107.3540,224.3261 103.9885,224.3261 105.6712,221.4115 103.9885,218.4970 100.6231,218.4970 98.9403,221.4115 97.2576,218.4970 93.8922,218.4970 92.2095,221.4115 93.8922,224.3261 90.5267,224.3261 88.8440,227.2406 87.1613,224.3261 83.7958,224.3261 85.4786,221.4115 83.7958,218.4970 80.4304,218.4970 78.7477,221.4115 77.0650,218.4970 73.6995,218.4970 75.3822,215.5824 73.6995,212.6678 77.0650,212.6678 78.7477,209.7533 77.0650,206.8387 73.6995,206.8387 75.3822,203.9242 73.6995,201.0096 77.0650,201.0096 78.7477,198.0950 80.4304,201.0096 83.7958,201.0096 85.4786,198.0950 83.7958,195.1805 87.1613,195.1805 88.8440,192.2659 87.1613,189.3514 83.7958,189.3514 85.4786,186.4368 83.7958,183.5222 80.4304,183.5222 78.7477,186.4368 77.0650,183.5222 73.6995,183.5222 75.3822,180.6077 73.6995,177.6931 77.0650,177.6931 78.7477,174.7786 77.0650,171.8640 73.6995,171.8640 75.3822,168.9494 73.6995,166.0349 77.0650,166.0349 78.7477,163.1203 80.4304,166.0349 83.7958,166.0349 85.4786,163.1203 83.7958,160.2058 87.1613,160.2058 88.8440,157.2912 90.5267,160.2058 93.8922,160.2058 92.2095,163.1203 93.8922,166.0349 97.2576,166.0349 98.9403,163.1203 100.6231,166.0349 103.9885,166.0349 105.6712,163.1203 103.9885,160.2058 107.3540,160.2058 109.0367,157.2912 107.3540,154.3766 103.9885,154.3766 105.6712,151.4621 103.9885,148.5475 107.3540,148.5475 109.0367,145.6330 110.7194,148.5475 114.0848,148.5475 115.7676,145.6330 114.0848,142.7184 117.4503,142.7184 119.1330,139.8038 120.8157,142.7184 124.1812,142.7184 122.4985,145.6330 124.1812,148.5475 127.5466,148.5475 129.2293,145.6330 130.9121,148.5475 134.2775,148.5475 132.5948,151.4621 134.2775,154.3766 130.9121,154.3766 129.2293,157.2912 130.9121,160.2058 134.2775,160.2058 132.5948,163.1203 134.2775,166.0349 137.6430,166.0349 139.3257,163.1203 141.0084,166.0349 144.3738,166.0349 146.0566,163.1203 144.3738,160.2058 147.7393,160.2058 149.4220,157.2912 151.1047,160.2058 154.4702,160.2058 152.7875,163.1203 154.4702,166.0349 157.8356,166.0349 159.5183,163.1203 161.2011,166.0349 164.5665,166.0349 166.2492,163.1203 164.5665,160.2058 167.9319,160.2058 169.6147,157.2912 167.9319,154.3766 164.5665,154.3766 166.2492,151.4621 164.5665,148.5475 167.9319,148.5475 169.6147,145.6330 171.2974,148.5475 174.6628,148.5475 176.3456,145.6330 174.6628,142.7184 178.0283,142.7184 179.7110,139.8038 178.0283,136.8893 174.6628,136.8893 176.3456,133.9747 174.6628,131.0602 171.2974,131.0602 169.6147,133.9747 167.9319,131.0602 164.5665,131.0602 166.2492,128.1456 164.5665,125.2310 167.9319,125.2310 169.6147,122.3165 167.9319,119.4019 164.5665,119.4019 166.2492,116.4874 164.5665,113.5728 167.9319,113.5728 169.6147,110.6582 171.2974,113.5728 174.6628,113.5728 176.3456,110.6582 174.6628,107.7437 178.0283,107.7437 179.7110,104.8291 181.3937,107.7437 184.7592,107.7437 183.0764,110.6582 184.7592,113.5728 188.1246,113.5728 189.8073,110.6582 191.4901,113.5728 194.8555,113.5728 196.5382,110.6582 194.8555,107.7437 198.2209,107.7437 199.9037,104.8291 198.2209,101.9146 194.8555,101.9146 196.5382,99.0000 194.8555,96.0854 198.2209,96.0854 199.9037,93.1709 201.5864,96.0854 204.9518,96.0854 206.6346,93.1709 204.9518,90.2563 208.3173,90.2563" fill="#1C1C1C" stroke="#1C1C1C" opacity="0.92" stroke-width="0.15" stroke-linejoin="round" />
  </g>
  <g id="annotations">
    <line x1="63.0" y1="412.11423999999994" x2="357.0" y2="412.11423999999994" stroke="#8B0000" stroke-width="0.3" opacity="0.5" />
    <g>
      <circle cx="63.0" cy="422.11423999999994" r="1.0" fill="#8B0000" />
      <text x="63.0" y="432.11423999999994" font-family="'Inter', 'Helvetica Neue', Arial, sans-serif, system-ui, -apple-system, 'Segoe UI', Roboto, 'Apple Color Emoji', 'Segoe UI Emoji', 'Segoe UI Symbol'" fill="#8B0000" font-size="5.0" text-anchor="middle">Infinite Perimeter</text>
      <text x="63.0" y="439.11423999999994" font-family="'Inter', 'Helvetica Neue', Arial, sans-serif, system-ui, -apple-system, 'Segoe UI', Roboto, 'Apple Color Emoji', 'Segoe UI Emoji', 'Segoe UI Symbol'" fill="#1C1C1C" font-size="3.8" text-anchor="middle">
        <tspan x="63.0" dy="0">Each iteration multiplies the</tspan>
        <tspan x="63.0" dy="5.0">perimeter by 4/3. After n steps,</tspan>
        <tspan x="63.0" dy="5.0">P = 3s·(4/3)ⁿ. As n → ∞ the</tspan>
        <tspan x="63.0" dy="5.0">perimeter grows without bound,</tspan>
        <tspan x="63.0" dy="5.0">yet the curve never crosses itself.</tspan>
      </text>
    </g>
    <g>
      <circle cx="210.0" cy="422.11423999999994" r="1.0" fill="#8B0000" />
      <text x="210.0" y="432.11423999999994" font-family="'Inter', 'Helvetica Neue', Arial, sans-serif, system-ui, -apple-system, 'Segoe UI', Roboto, 'Apple Color Emoji', 'Segoe UI Emoji', 'Segoe UI Symbol'" fill="#8B0000" font-size="5.0" text-anchor="middle">Fractional Dimension</text>
      <text x="210.0" y="439.11423999999994" font-family="'Inter', 'Helvetica Neue', Arial, sans-serif, system-ui, -apple-system, 'Segoe UI', Roboto, 'Apple Color Emoji', 'Segoe UI Emoji', 'Segoe UI Symbol'" fill="#1C1C1C" font-size="3.8" text-anchor="middle">
        <tspan x="210.0" dy="0">A line is 1-D. A surface is 2-D.</tspan>
        <tspan x="210.0" dy="5.0">The Koch snowflake is 1.2619-D!</tspan>
        <tspan x="210.0" dy="5.0">Its Hausdorff dimension is</tspan>
        <tspan x="210.0" dy="5.0">log(4)/log(3) — more than a line</tspan>
        <tspan x="210.0" dy="5.0">but less than a filled plane.</tspan>
      </text>
    </g>
    <g>
      <circle cx="357.0" cy="422.11423999999994" r="1.0" fill="#8B0000" />
      <text x="357.0" y="432.11423999999994" font-family="'Inter', 'Helvetica Neue', Arial, sans-serif, system-ui, -apple-system, 'Segoe UI', Roboto, 'Apple Color Emoji', 'Segoe UI Emoji', 'Segoe UI Symbol'" fill="#8B0000" font-size="5.0" text-anchor="middle">Self-Similarity</text>
      <text x="357.0" y="439.11423999999994" font-family="'Inter', 'Helvetica Neue', Arial, sans-serif, system-ui, -apple-system, 'Segoe UI', Roboto, 'Apple Color Emoji', 'Segoe UI Emoji', 'Segoe UI Symbol'" fill="#1C1C1C" font-size="3.8" text-anchor="middle">
        <tspan x="357.0" dy="0">Each of the three sides is a Koch</tspan>
        <tspan x="357.0" dy="5.0">curve. Zoom into any portion and</tspan>
        <tspan x="357.0" dy="5.0">the same pattern appears at every</tspan>
        <tspan x="357.0" dy="5.0">scale — a hallmark of fractal</tspan>
        <tspan x="357.0" dy="5.0">geometry.</tspan>
      </text>
    </g>
  </g>
  <g id="educational">
    <line x1="63.0" y1="485.11423999999994" x2="357.0" y2="485.11423999999994" stroke="#8B0000" stroke-width="0.3" opacity="0.35" />
    <g>
      <text x="63.0" y="499.11423999999994" font-family="'Inter', 'Helvetica Neue', Arial, sans-serif, system-ui, -apple-system, 'Segoe UI', Roboto, 'Apple Color Emoji', 'Segoe UI Emoji', 'Segoe UI Symbol'" fill="#8B0000" font-size="5.0" text-anchor="middle">The Construction</text>
      <text x="63.0" y="506.11423999999994" font-family="'Inter', 'Helvetica Neue', Arial, sans-serif, system-ui, -apple-system, 'Segoe UI', Roboto, 'Apple Color Emoji', 'Segoe UI Emoji', 'Segoe UI Symbol'" fill="#1C1C1C" font-size="3.8" text-anchor="middle">
        <tspan x="63.0" dy="0">Begin with a straight segment.</tspan>
        <tspan x="63.0" dy="5.0">Divide it into thirds; replace the</tspan>
        <tspan x="63.0" dy="5.0">middle third with two sides of an</tspan>
        <tspan x="63.0" dy="5.0">equilateral triangle. Repeat on</tspan>
        <tspan x="63.0" dy="5.0">every new segment — forever.</tspan>
      </text>
      <polyline points="29.0000,537.1142 49.0000,537.1142" fill="none" stroke="#1C1C1C" stroke-width="0.4" stroke-linejoin="round" opacity="0.85" />
      <text x="39.0" y="545.1142399999999" font-family="'Inter', 'Helvetica Neue', Arial, sans-serif, system-ui, -apple-system, 'Segoe UI', Roboto, 'Apple Color Emoji', 'Segoe UI Emoji', 'Segoe UI Symbol'" fill="#1C1C1C" font-size="3.0" text-anchor="middle">depth 0</text>
      <line x1="47.0" y1="535.1142399999999" x2="51.8" y2="535.1142399999999" stroke="#1C1C1C" stroke-width="0.3" />
      <polygon points="55.0000,535.1142 51.8000,533.8342 51.8000,536.3942" fill="#1C1C1C" />
      <polyline points="53.0000,537.1142 59.6667,537.1142 63.0000,531.3407 66.3333,537.1142 73.0000,537.1142" fill="none" stroke="#1C1C1C" stroke-width="0.4" stroke-linejoin="round" opacity="0.85" />
      <text x="63.0" y="545.1142399999999" font-family="'Inter', 'Helvetica Neue', Arial, sans-serif, system-ui, -apple-system, 'Segoe UI', Roboto, 'Apple Color Emoji', 'Segoe UI Emoji', 'Segoe UI Symbol'" fill="#1C1C1C" font-size="3.0" text-anchor="middle">depth 1</text>
      <line x1="71.0" y1="535.1142399999999" x2="75.8" y2="535.1142399999999" stroke="#1C1C1C" stroke-width="0.3" />
      <polygon points="79.0000,535.1142 75.8000,533.8342 75.8000,536.3942" fill="#1C1C1C" />
      <polyline points="77.0000,537.1142 79.2222,537.1142 80.3333,535.1897 81.4444,537.1142 83.6667,537.1142 84.7778,535.1897 83.6667,533.2652 85.8889,533.2652 87.0000,531.3407 88.1111,533.2652 90.3333,533.2652 89.2222,535.1897 90.3333,537.1142 92.5556,537.1142 93.6667,535.1897 94.7778,537.1142 97.0000,537.1142" fill="none" stroke="#1C1C1C" stroke-width="0.4" stroke-linejoin="round" opacity="0.85" />
      <text x="87.0" y="545.1142399999999" font-family="'Inter', 'Helvetica Neue', Arial, sans-serif, system-ui, -apple-system, 'Segoe UI', Roboto, 'Apple Color Emoji', 'Segoe UI Emoji', 'Segoe UI Symbol'" fill="#1C1C1C" font-size="3.0" text-anchor="middle">depth 2</text>
    </g>
    <g>
      <text x="210.0" y="499.11423999999994" font-family="'Inter', 'Helvetica Neue', Arial, sans-serif, system-ui, -apple-system, 'Segoe UI', Roboto, 'Apple Color Emoji', 'Segoe UI Emoji', 'Segoe UI Symbol'" fill="#8B0000" font-size="5.0" text-anchor="middle">Area Paradox</text>
      <text x="210.0" y="506.11423999999994" font-family="'Inter', 'Helvetica Neue', Arial, sans-serif, system-ui, -apple-system, 'Segoe UI', Roboto, 'Apple Color Emoji', 'Segoe UI Emoji', 'Segoe UI Symbol'" fill="#1C1C1C" font-size="3.8" text-anchor="middle">
        <tspan x="210.0" dy="0">Despite its infinite perimeter, the</tspan>
        <tspan x="210.0" dy="5.0">Koch snowflake encloses a finite</tspan>
        <tspan x="210.0" dy="5.0">area. It converges to exactly 8/5</tspan>
        <tspan x="210.0" dy="5.0">of the original triangle’s area:</tspan>
      </text>
      <text x="210.0" y="530.1142399999999" font-family="'Inter', 'Helvetica Neue', Arial, sans-serif, system-ui, -apple-system, 'Segoe UI', Roboto, 'Apple Color Emoji', 'Segoe UI Emoji', 'Segoe UI Symbol'" fill="#1C1C1C" font-size="4.2" font-style="italic" text-anchor="middle">A = (2s²√3) / 5</text>
      <text x="210.0" y="537.1142399999999" font-family="'Inter', 'Helvetica Neue', Arial, sans-serif, system-ui, -apple-system, 'Segoe UI', Roboto, 'Apple Color Emoji', 'Segoe UI Emoji', 'Segoe UI Symbol'" fill="#1C1C1C" font-size="4.2" font-style="italic" text-anchor="middle">Perimeter(n) = 3s·(4/3)ⁿ → ∞</text>
      <polygon points="192.0000,546.1142 197.1962,555.1142 186.8038,555.1142" fill="#1C1C1C" opacity="0.8" />
      <text x="192.0" y="563.1142399999999" font-family="'Inter', 'Helvetica Neue', Arial, sans-serif, system-ui, -apple-system, 'Segoe UI', Roboto, 'Apple Color Emoji', 'Segoe UI Emoji', 'Segoe UI Symbol'" fill="#1C1C1C" font-size="2.8" text-anchor="middle">n=0</text>
      <polygon points="210.0000,546.1142 211.7321,549.1142 215.1962,549.1142 213.4641,552.1142 215.1962,555.1142 211.7321,555.1142 210.0000,558.1142 208.2679,555.1142 204.8038,555.1142 206.5359,552.1142 204.8038,549.1142 208.2679,549.1142" fill="#1C1C1C" opacity="0.8" />
      <text x="210.0" y="563.1142399999999" font-family="'Inter', 'Helvetica Neue', Arial, sans-serif, system-ui, -apple-system, 'Segoe UI', Roboto, 'Apple Color Emoji', 'Segoe UI Emoji', 'Segoe UI Symbol'" fill="#1C1C1C" font-size="2.8" text-anchor="middle">n=1</text>
      <polygon points="228.0000,546.1142 228.5774,547.1142 229.7321,547.1142 229.1547,548.1142 229.7321,549.1142 230.8868,549.1142 231.4641,548.1142 232.0415,549.1142 233.1962,549.1142 232.6188,550.1142 233.1962,551.1142 232.0415,551.1142 231.4641,552.1142 232.0415,553.1142 233.1962,553.1142 232.6188,554.1142 233.1962,555.1142 232.0415,555.1142 231.4641,556.1142 230.8868,555.1142 229.7321,555.1142 229.1547,556.1142 229.7321,557.1142 228.5774,557.1142 228.0000,558.1142 227.4226,557.1142 226.2679,557.1142 226.8453,556.1142 226.2679,555.1142 225.1132,555.1142 224.5359,556.1142 223.9585,555.1142 222.8038,555.1142 223.3812,554.1142 222.8038,553.1142 223.9585,553.1142 224.5359,552.1142 223.9585,551.1142 222.8038,551.1142 223.3812,550.1142 222.8038,549.1142 223.9585,549.1142 224.5359,548.1142 225.1132,549.1142 226.2679,549.1142 226.8453,548.1142 226.2679,547.1142 227.4226,547.1142" fill="#1C1C1C" opacity="0.8" />
      <text x="228.0" y="563.1142399999999" font-family="'Inter', 'Helvetica Neue', Arial, sans-serif, system-ui, -apple-system, 'Segoe UI', Roboto, 'Apple Color Emoji', 'Segoe UI Emoji', 'Segoe UI Symbol'" fill="#1C1C1C" font-size="2.8" text-anchor="middle">n=2</text>
    </g>
    <g>
      <text x="357.0" y="499.11423999999994" font-family="'Inter', 'Helvetica Neue', Arial, sans-serif, system-ui, -apple-system, 'Segoe UI', Roboto, 'Apple Color Emoji', 'Segoe UI Emoji', 'Segoe UI Symbol'" fill="#8B0000" font-size="5.0" text-anchor="middle">Snowflake Variations</text>
      <text x="357.0" y="506.11423999999994" font-family="'Inter', 'Helvetica Neue', Arial, sans-serif, system-ui, -apple-system, 'Segoe UI', Roboto, 'Apple Color Emoji', 'Segoe UI Emoji', 'Segoe UI Symbol'" fill="#1C1C1C" font-size="3.8" text-anchor="middle">
        <tspan x="357.0" dy="0">The anti-snowflake points its</tspan>
        <tspan x="357.0" dy="5.0">bumps inward, creating a shape</tspan>
        <tspan x="357.0" dy="5.0">that tiles with the original. A</tspan>
        <tspan x="357.0" dy="5.0">single Koch curve forms one side.</tspan>
        <tspan x="357.0" dy="5.0">Higher-order variants use squares</tspan>
        <tspan x="357.0" dy="5.0">or other polygons as generators.</tspan>
      </text>
      <polygon points="337.0000,541.1142 337.5774,542.1142 338.7321,542.1142 338.1547,543.1142 338.7321,544.1142 339.8868,544.1142 340.4641,543.1142 341.0415,544.1142 342.1962,544.1142 341.6188,545.1142 342.1962,546.1142 341.0415,546.1142 340.4641,547.1142 341.0415,548.1142 342.1962,548.1142 341.6188,549.1142 342.1962,550.1142 341.0415,550.1142 340.4641,551.1142 339.8868,550.1142 338.7321,550.1142 338.1547,551.1142 338.7321,552.1142 337.5774,552.1142 337.0000,553.1142 336.4226,552.1142 335.2679,552.1142 335.8453,551.1142 335.2679,550.1142 334.1132,550.1142 333.5359,551.1142 332.9585,550.1142 331.8038,550.1142 332.3812,549.1142 331.8038,548.1142 332.9585,548.1142 333.5359,547.1142 332.9585,546.1142 331.8038,546.1142 332.3812,545.1142 331.8038,544.1142 332.9585,544.1142 333.5359,543.1142 334.1132,544.1142 335.2679,544.1142 335.8453,543.1142 335.2679,542.1142 336.4226,542.1142" fill="#1C1C1C" opacity="0.7" />
      <text x="337.0" y="558.1142399999999" font-family="'Inter', 'Helvetica Neue', Arial, sans-serif, system-ui, -apple-system, 'Segoe UI', Roboto, 'Apple Color Emoji', 'Segoe UI Emoji', 'Segoe UI Symbol'" fill="#1C1C1C" font-size="2.6" text-anchor="middle">snowflake</text>
      <polygon points="357.0000,541.1142 356.4226,542.1142 357.0000,543.1142 355.8453,543.1142 355.2679,544.1142 355.8453,545.1142 357.0000,545.1142 356.4226,546.1142 357.0000,547.1142 355.8453,547.1142 355.2679,548.1142 354.6906,547.1142 353.5359,547.1142 352.9585,548.1142 353.5359,549.1142 352.3812,549.1142 351.8038,550.1142 352.9585,550.1142 353.5359,549.1142 354.1132,550.1142 355.2679,550.1142 355.8453,549.1142 355.2679,548.1142 356.4226,548.1142 357.0000,547.1142 357.5774,548.1142 358.7321,548.1142 358.1547,549.1142 358.7321,550.1142 359.8868,550.1142 360.4641,549.1142 361.0415,550.1142 362.1962,550.1142 361.6188,549.1142 360.4641,549.1142 361.0415,548.1142 360.4641,547.1142 359.3094,547.1142 358.7321,548.1142 358.1547,547.1142 357.0000,547.1142 357.5774,546.1142 357.0000,545.1142 358.1547,545.1142 358.7321,544.1142 358.1547,543.1142 357.0000,543.1142 357.5774,542.1142" fill="none" stroke="#1C1C1C" stroke-width="0.3" opacity="0.7" />
      <text x="357.0" y="558.1142399999999" font-family="'Inter', 'Helvetica Neue', Arial, sans-serif, system-ui, -apple-system, 'Segoe UI', Roboto, 'Apple Color Emoji', 'Segoe UI Emoji', 'Segoe UI Symbol'" fill="#1C1C1C" font-size="2.6" text-anchor="middle">anti-snowflake</text>
      <polyline points="371.0000,547.1142 371.4444,547.1142 371.6667,546.7293 371.8889,547.1142 372.3333,547.1142 372.5556,546.7293 372.3333,546.3444 372.7778,546.3444 373.0000,545.9595 373.2222,546.3444 373.6667,546.3444 373.4444,546.7293 373.6667,547.1142 374.1111,547.1142 374.3333,546.7293 374.5556,547.1142 375.0000,547.1142 375.2222,546.7293 375.0000,546.3444 375.4444,546.3444 375.6667,545.9595 375.4444,545.5746 375.0000,545.5746 375.2222,545.1897 375.0000,544.8048 375.4444,544.8048 375.6667,544.4199 375.8889,544.8048 376.3333,544.8048 376.5556,544.4199 376.3333,544.0350 376.7778,544.0350 377.0000,543.6501 377.2222,544.0350 377.6667,544.0350 377.4444,544.4199 377.6667,544.8048 378.1111,544.8048 378.3333,544.4199 378.5556,544.8048 379.0000,544.8048 378.7778,545.1897 379.0000,545.5746 378.5556,545.5746 378.3333,545.9595 378.5556,546.3444 379.0000,546.3444 378.7778,546.7293 379.0000,547.1142 379.4444,547.1142 379.6667,546.7293 379.8889,547.1142 380.3333,547.1142 380.5556,546.7293 380.3333,546.3444 380.7778,546.3444 381.0000,545.9595 381.2222,546.3444 381.6667,546.3444 381.4444,546.7293 381.6667,547.1142 382.1111,547.1142 382.3333,546.7293 382.5556,547.1142 383.0000,547.1142" fill="none" stroke="#1C1C1C" stroke-width="0.3" stroke-linejoin="round" opacity="0.7" />
      <text x="377.0" y="558.1142399999999" font-family="'Inter', 'Helvetica Neue', Arial, sans-serif, system-ui, -apple-system, 'Segoe UI', Roboto, 'Apple Color Emoji', 'Segoe UI Emoji', 'Segoe UI Symbol'" fill="#1C1C1C" font-size="2.6" text-anchor="middle">Koch curve</text>
    </g>
  </g>
  <text x="210.0" y="576.0" font-family="'Inter', 'Helvetica Neue', Arial, sans-serif, system-ui, -apple-system, 'Segoe UI', Roboto, 'Apple Color Emoji', 'Segoe UI Emoji', 'Segoe UI Symbol'" font-size="4.0" fill="#555555" text-anchor="middle">Helge von Koch first described this curve in 1904.</text>
  <text x="210.0" y="582.0" font-family="'Inter', 'Helvetica Neue', Arial, sans-serif, system-ui, -apple-system, 'Segoe UI', Roboto, 'Apple Color Emoji', 'Segoe UI Emoji', 'Segoe UI Symbol'" font-size="3.5" fill="#777777" text-anchor="middle">Generated at depth 4  ·  768 sides</text>
  <rect x="4" y="4" width="412" height="586" fill="none" stroke="#1C1C1C" stroke-width="0.8" />
  <rect x="7" y="7" width="406" height="580" fill="none" stroke="#1C1C1C" stroke-width="0.2" />
</svg>