<?xml version='1.0' encoding='utf-8'?>
<svg xmlns="http://www.w3.org/2000/svg" version="1.1" width="420mm" height="594mm" viewBox="0 0 420 594">
  <style>@import url('https://fonts.googleapis.com/css2?family=Playfair+Display:ital,wght@0,400;0,700;1,400&amp;family=Inter:wght@300;400;500&amp;display=swap');</style>
  <rect x="0" y="0" width="420" height="594" fill="#FFFEF8" />
  <text x="210.0" y="27.918" font-family="'Playfair Display', Georgia, 'Times New Roman', serif" font-size="16.0" fill="#1C1C1C" text-anchor="middle">The Koch Snowflake</text>
  <text x="210.0" y="38.016" font-family="'Inter', 'Helvetica Neue', Arial, sans-serif, system-ui, -apple-system, 'Segoe UI', Roboto, 'Apple Color Emoji', 'Segoe UI Emoji', 'Segoe UI Symbol'" font-size="6.0" fill="#8B0000" text-anchor="middle">Infinite perimeter, finite area</text>
  <line x1="63.0" y1="43.955999999999996" x2="357.0" y2="43.955999999999996" stroke="#8B0000" stroke-width="0.4" />
  <defs>
    <marker id="arrowhead" markerWidth="6" markerHeight="6" refX="3" refY="3" orient="auto">
      <circle cx="3" cy="3" r="2" fill="#8B0000" />
    </marker>
  </defs>
  <g id="fractal">
    <polygon points="210.0000,87.3418 210.5609,88.3133 211.6827,88.3133 211.1218,89.2848 211.6827,90.2563 212.8045,90.2563 213.3654,89.2848 213.9264,90.2563 215.0482,90.2563 214.4873,91.2278 215.0482,92.1994 213.9264,92.1994 213.3654,93.1709 213.9264,94.1424 215.0482,94.1424 214.4873,95.1139 215.0482,96.0854 216.1700,96.0854 216.7309,95.1139 217.2918,96.0854 218.4136,96.0854 218.9745,95.1139 218.4136,94.1424 219.5354,94.1424 220.0963,93.1709 220.6572,94.1424 221.7791,94.1424 221.2181,95.1139 221.7791,96.0854 222.9009,96.0854 223.4618,95.1139 224.0227,96.0854 225.1445,96.0854 224.5836,97.0570 225.1445,98.0285 224.0227,98.0285 223.4618,99.0000 224.0227,99.9715 225.1445,99.9715 224.5836,100.9430 225.1445,101.9146 224.0227,101.9146 223.4618,102.8861 222.9009,101.9146 221.7791,101.9146 221.2181,102.8861 221.7791,103.8576 220.6572,103.8576 220.0963,104.8291 220.6572,105.8006 221.7791,105.8006 221.2181,106.7722 221.7791,107.7437 222.9009,107.7437 223.4618,106.7722 224.0227,107.7437 225.1445,107.7437 224.5836,108.7152 225.1445,109.6867 224.0227,109.6867 223.4618,110.6582 224.0227,111.6298 225.1445,111.6298 224.5836,112.6013 225.1445,113.5728 226.2663,113.5728 226.8272,112.6013 227.3881,113.5728 228.5099,113.5728 229.0708,112.6013 228.5099,111.6298 229.6318,111.6298 230.1927,110.6582 230.7536,111.6298 231.8754,111.6298 231.3145,112.6013 231.8754,113.5728 232.9972,113.5728 233.5581,112.6013 234.1190,113.5728 235.2408,113.5728 235.8017,112.6013 235.2408,111.6298 236.3626,111.6298 236.9236,110.6582 236.3626,109.6867 235.2408,109.6867 235.8017,108.7152 235.2408,107.7437 236.3626,107.7437 236.9236,106.7722 237.4845,107.7437 238.6063,107.7437 239.1672,106.7722 238.6063,105.8006 239.7281,105.8006 240.2890,104.8291 240.8499,105.8006 241.9717,105.8006 241.4108,106.7722 241.9717,107.7437 243.0935,107.7437 243.6544,106.7722 244.2153,107.7437 245.3372,107.7437 244.7763,108.7152 245.3372,109.6867 244.2153,109.6867 243.6544,110.6582 244.2153,111.6298 245.3372,111.6298 244.7763,112.6013 245.3372,113.5728 246.4590,113.5728 247.0199,112.6013 247.5808,113.5728 248.7026,113.5728 249.2635,112.6013 248.7026,111.6298 249.8244,111.6298 250.3853,110.6582 250.9462,111.6298 252.0681,111.6298 251.5071,112.6013 252.0681,113.5728 253.1899,113.5728 253.7508,112.6013 254.3117,113.5728 255.4335,113.5728 254.8726,114.5443 255.4335,115.5158 254.3117,115.5158 253.7508,116.4874 254.3117,117.4589 255.4335,117.4589 254.8726,118.4304 255.4335,119.4019 254.3117,119.4019 253.7508,120.3734 253.1899,119.4019 252.0681,119.4019 251.5071,120.3734 252.0681,121.3450 250.9462,121.3450 250.3853,122.3165 250.9462,123.2880 252.0681,123.2880 251.5071,124.2595 252.0681,125.2310 253.1899,125.2310 253.7508,124.2595 254.3117,125.2310 255.4335,125.2310 254.8726,126.2026 255.4335,127.1741 254.3117,127.1741 253.7508,128.1456 254.3117,129.1171 255.4335,129.1171 254.8726,130.0886 255.4335,131.0602 254.3117,131.0602 253.7508,132.0317 253.1899,131.0602 252.0681,131.0602 251.5071,132.0317 252.0681,133.0032 250.9462,133.0032 250.3853,133.9747 249.8244,133.0032 248.7026,133.0032 249.2635,132.0317 248.7026,131.0602 247.5808,131.0602 247.0199,132.0317 246.4590,131.0602 245.3372,131.0602 244.7763,132.0317 245.3372,133.0032 244.2153,133.0032 243.6544,133.9747 244.2153,134.9462 245.3372,134.9462 244.7763,135.9178 245.3372,136.8893 244.2153,136.8893 243.6544,137.8608 243.0935,136.8893 241.9717,136.8893 241.4108,137.8608 241.9717,138.8323 240.8499,138.8323 240.2890,139.8038 240.8499,140.7754 241.9717,140.7754 241.4108,141.7469 241.9717,142.7184 243.0935,142.7184 243.6544,141.7469 244.2153,142.7184 245.3372,142.7184 244.7763,143.6899 245.3372,144.6614 244.2153,144.6614 243.6544,145.6330 244.2153,146.6045 245.3372,146.6045 244.7763,147.5760 245.3372,148.5475 246.4590,148.5475 247.0199,147.5760 247.5808,148.5475 248.7026,148.5475 249.2635,147.5760 248.7026,146.6045 249.8244,146.6045 250.3853,145.6330 250.9462,146.6045 252.0681,146.6045 251.5071,147.5760 252.0681,148.5475 253.1899,148.5475 253.7508,147.5760 254.3117,148.5475 255.4335,148.5475 254.8726,149.5190 255.4335,150.4906 254.3117,150.4906 253.7508,151.4621 254.3117,152.4336 255.4335,152.4336 254.8726,153.4051 255.4335,154.3766 254.3117,154.3766 253.7508,155.3482 253.1899,154.3766 252.0681,154.3766 251.5071,155.3482 252.0681,156.3197 250.9462,156.3197 250.3853,157.2912 250.9462,158.2627 252.0681,158.2627 251.5071,159.2342 252.0681,160.2058 253.1899,160.2058 253.7508,159.2342 254.3117,160.2058 255.4335,160.2058 254.8726,161.1773 255.4335,162.1488 254.3117,162.1488 253.7508,163.1203 254.3117,164.0918 255.4335,164.0918 254.8726,165.0634 255.4335,166.0349 256.5553,166.0349 257.1162,165.0634 257.6771,166.0349 258.7989,166.0349 259.3598,165.0634 258.7989,164.0918 259.9208,164.0918 260.4817,163.1203 261.0426,164.0918 262.1644,164.0918 261.6035,165.0634 262.1644,166.0349 263.2862,166.0349 263.8471,165.0634 264.4080,166.0349 265.5298,166.0349 266.0907,165.0634 265.5298,164.0918 266.6516,164.0918 267.2125,163.1203 266.6516,162.1488 265.5298,162.1488 266.0907,161.1773 265.5298,160.2058 266.6516,160.2058 267.2125,159.2342 267.7735,160.2058 268.8953,160.2058 269.4562,159.2342 268.8953,158.2627 270.0171,158.2627 270.5780,157.2912 271.1389,158.2627 272.2607,158.2627 271.6998,159.2342 272.2607,160.2058 273.3825,160.2058 273.9434,159.2342 274.5043,160.2058 275.6262,160.2058 275.0653,161.1773 275.6262,162.1488 274.5043,162.1488 273.9434,163.1203 274.5043,164.0918 275.6262,164.0918 275.0653,165.0634 275.6262,166.0349 276.7480,166.0349 277.3089,165.0634 277.8698,166.0349 278.9916,166.0349 279.5525,165.0634 278.9916,164.0918 280.1134,164.0918 280.6743,163.1203 281.2352,164.0918 282.3570,164.0918 281.7961,165.0634 282.3570,166.0349 283.4789,166.0349 284.0398,165.0634 284.6007,166.0349 285.7225,166.0349 286.2834,165.0634 285.7225,164.0918 286.8443,164.0918 287.4052,163.1203 286.8443,162.1488 285.7225,162.1488 286.2834,161.1773 285.7225,160.2058 286.8443,160.2058 287.4052,159.2342 287.9661,160.2058 289.0879,160.2058 289.6488,159.2342 289.0879,158.2627 290.2097,158.2627 290.7707,157.2912 290.2097,156.3197 289.0879,156.3197 289.6488,155.3482 289.0879,154.3766 287.9661,154.3766 287.4052,155.3482 286.8443,154.3766 285.7225,154.3766 286.2834,153.4051 285.7225,152.4336 286.8443,152.4336 287.4052,151.4621 286.8443,150.4906 285.7225,150.4906 286.2834,149.5190 285.7225,148.5475 286.8443,148.5475 287.4052,147.5760 287.9661,148.5475 289.0879,148.5475 289.6488,147.5760 289.0879,146.6045 290.2097,146.6045 290.7707,145.6330 291.3316,146.6045 292.4534,146.6045 291.8925,147.5760 292.4534,148.5475 293.5752,148.5475 294.1361,147.5760 294.6970,148.5475 295.8188,148.5475 296.3797,147.5760 295.8188,146.6045 296.9406,146.6045 297.5015,145.6330 296.9406,144.6614 295.8188,144.6614 296.3797,143.6899 295.8188,142.7184 296.9406,142.7184 297.5015,141.7469 298.0625,142.7184 299.1843,142.7184 299.7452,141.7469 299.1843,140.7754 300.3061,140.7754 300.8670,139.8038 301.4279,140.7754 302.5497,140.7754 301.9888,141.7469 302.5497,142.7184 303.6715,142.7184 304.2324,141.7469 304.7933,142.7184 305.9152,142.7184 305.3542,143.6899 305.9152,144.6614 304.7933,144.6614 304.2324,145.6330 304.7933,146.6045 305.9152,146.6045 305.3542,147.5760 305.9152,148.5475 307.0370,148.5475 307.5979,147.5760 308.1588,148.5475 309.2806,148.5475 309.8415,147.5760 309.2806,146.6045 310.4024,146.6045 310.9633,145.6330 311.5242,146.6045 312.6460,146.6045 312.0851,147.5760 312.6460,148.5475 313.7679,148.5475 314.3288,147.5760 314.8897,148.5475 316.0115,148.5475 315.4506,149.5190 316.0115,150.4906 314.8897,150.4906 314.3288,151.4621 314.8897,152.4336 316.0115,152.4336 315.4506,153.4051 316.0115,154.3766 314.8897,154.3766 314.3288,155.3482 313.7679,154.3766 312.6460,154.3766 312.0851,155.3482 312.6460,156.3197 311.5242,156.3197 310.9633,157.2912 311.5242,158.2627 312.6460,158.2627 312.0851,159.2342 312.6460,160.2058 313.7679,160.2058 314.3288,159.2342 314.8897,160.2058 316.0115,160.2058 315.4506,161.1773 316.0115,162.1488 314.8897,162.1488 314.3288,163.1203 314.8897,164.0918 316.0115,164.0918 315.4506,165.0634 316.0115,166.0349 317.1333,166.0349 317.6942,165.0634 318.2551,166.0349 319.3769,166.0349 319.9378,165.0634 319.3769,164.0918 320.4987,164.0918 321.0597,163.1203 321.6206,164.0918 322.7424,164.0918 322.1815,165.0634 322.7424,166.0349 323.8642,166.0349 324.4251,165.0634 324.9860,166.0349 326.1078,166.0349 326.6687,165.0634 326.1078,164.0918 327.2296,164.0918 327.7905,163.1203 327.2296,162.1488 326.1078,162.1488 326.6687,161.1773 326.1078,160.2058 327.2296,160.2058 327.7905,159.2342 328.3514,160.2058 329.4733,160.2058 330.0342,159.2342 329.4733,158.2627 330.5951,158.2627 331.1560,157.2912 331.7169,158.2627 332.8387,158.2627 332.2778,159.2342 332.8387,160.2058 333.9605,160.2058 334.5214,159.2342 335.0823,160.2058 336.2042,160.2058 335.6432,161.1773 336.2042,162.1488 335.0823,162.1488 334.5214,163.1203 335.0823,164.0918 336.2042,164.0918 335.6432,165.0634 336.2042,166.0349 337.3260,166.0349 337.8869,165.0634 338.4478,166.0349 339.5696,166.0349 340.1305,165.0634 339.5696,164.0918 340.6914,164.0918 341.2523,163.1203 341.8132,164.0918 342.9350,164.0918 342.3741,165.0634 342.9350,166.0349 344.0569,166.0349 344.6178,165.0634 345.1787,166.0349 346.3005,166.0349 345.7396,167.0064 346.3005,167.9779 345.1787,167.9779 344.6178,168.9494 345.1787,169.9210 346.3005,169.9210 345.7396,170.8925 346.3005,171.8640 345.1787,171.8640 344.6178,172.8355 344.0569,171.8640 342.9350,171.8640 342.3741,172.8355 342.9350,173.8070 341.8132,173.8070 341.2523,174.7786 341.8132,175.7501 342.9350,175.7501 342.3741,176.7216 342.9350,177.6931 344.0569,177.6931 344.6178,176.7216 345.1787,177.6931 346.3005,177.6931 345.7396,178.6646 346.3005,179.6362 345.1787,179.6362 344.6178,180.6077 345.1787,181.5792 346.3005,181.5792 345.7396,182.5507 346.3005,183.5222 345.1787,183.5222 344.6178,184.4938 344.0569,183.5222 342.9350,183.5222 342.3741,184.4938 342.9350,185.4653 341.8132,185.4653 341.2523,186.4368 340.6914,185.4653 339.5696,185.4653 340.1305,184.4938 339.5696,183.5222 338.4478,183.5222 337.8869,184.4938 337.3260,183.5222 336.2042,183.5222 335.6432,184.4938 336.2042,185.4653 335.0823,185.4653 334.5214,186.4368 335.0823,187.4083 336.2042,187.4083 335.6432,188.3798 336.2042,189.3514 335.0823,189.3514 334.5214,190.3229 333.9605,189.3514 332.8387,189.3514 332.2778,190.3229 332.8387,191.2944 331.7169,191.2944 331.1560,192.2659 331.7169,193.2374 332.8387,193.2374 332.2778,194.2090 332.8387,195.1805 333.9605,195.1805 334.5214,194.2090 335.0823,195.1805 336.2042,195.1805 335.6432,196.1520 336.2042,197.1235 335.0823,197.1235 334.5214,198.0950 335.0823,199.0666 336.2042,199.0666 335.6432,200.0381 336.2042,201.0096 337.3260,201.0096 337.8869,200.0381 338.4478,201.0096 339.5696,201.0096 340.1305,200.0381 339.5696,199.0666 340.6914,199.0666 341.2523,198.0950 341.8132,199.0666 342.9350,199.0666 342.3741,200.0381 342.9350,201.0096 344.0569,201.0096 344.6178,200.0381 345.1787,201.0096 346.3005,201.0096 345.7396,201.9811 346.3005,202.9526 345.1787,202.9526 344.6178,203.9242 345.1787,204.8957 346.3005,204.8957 345.7396,205.8672 346.3005,206.8387 345.1787,206.8387 344.6178,207.8102 344.0569,206.8387 342.9350,206.8387 342.3741,207.8102 342.9350,208.7818 341.8132,208.7818 341.2523,209.7533 341.8132,210.7248 342.9350,210.7248 342.3741,211.6963 342.9350,212.6678 344.0569,212.6678 344.6178,211.6963 345.1787,212.6678 346.3005,212.6678 345.7396,213.6394 346.3005,214.6109 345.1787,214.6109 344.6178,215.5824 345.1787,216.5539 346.3005,216.5539 345.7396,217.5254 346.3005,218.4970 345.1787,218.4970 344.6178,219.4685 344.0569,218.4970 342.9350,218.4970 342.3741,219.4685 342.9350,220.4400 341.8132,220.4400 341.2523,221.4115 340.6914,220.4400 339.5696,220.4400 340.1305,219.4685 339.5696,218.4970 338.4478,218.4970 337.8869,219.4685 337.3260,218.4970 336.2042,218.4970 335.6432,219.4685 336.2042,220.4400 335.0823,220.4400 334.5214,221.4115 335.0823,222.3830 336.2042,222.3830 335.6432,223.3546 336.2042,224.3261 335.0823,224.3261 334.5214,225.2976 333.9605,224.3261 332.8387,224.3261 332.2778,225.2976 332.8387,226.2691 331.7169,226.2691 331.1560,227.2406 330.5951,226.2691 329.4733,226.2691 330.0342,225.2976 329.4733,224.3261 328.3514,224.3261 327.7905,225.2976 327.2296,224.3261 326.1078,224.3261 326.6687,223.3546 326.1078,222.3830 327.2296,222.3830 327.7905,221.4115 327.2296,220.4400 326.1078,220.4400 326.6687,219.4685 326.1078,218.4970 324.9860,218.4970 324.4251,219.4685 323.8642,218.4970 322.7424,218.4970 322.1815,219.4685 322.7424,220.4400 321.6206,220.4400 321.0597,221.4115 320.4987,220.4400 319.3769,220.4400 319.9378,219.4685 319.3769,218.4970 318.2551,218.4970 317.6942,219.4685 317.1333,218.4970 316.0115,218.4970 315.4506,219.4685 316.0115,220.4400 314.8897,220.4400 314.3288,221.4115 314.8897,222.3830 316.0115,222.3830 315.4506,223.3546 316.0115,224.3261 314.8897,224.3261 314.3288,225.2976 313.7679,224.3261 312.6460,224.3261 312.0851,225.2976 312.6460,226.2691 311.5242,226.2691 310.9633,227.2406 311.5242,228.2122 312.6460,228.2122 312.0851,229.1837 312.6460,230.1552 313.7679,230.1552 314.3288,229.1837 314.8897,230.1552 316.0115,230.1552 315.4506,231.1267 316.0115,232.0982 314.8897,232.0982 314.3288,233.0698 314.8897,234.0413 316.0115,234.0413 315.4506,235.0128 316.0115,235.9843 314.8897,235.9843 314.3288,236.9558 313.7679,235.9843 312.6460,235.9843 312.0851,236.9558 312.6460,237.9274 311.5242,237.9274 310.9633,238.8989 310.4024,237.9274 309.2806,237.9274 309.8415,236.9558 309.2806,235.9843 308.1588,235.9843 307.5979,236.9558 307.0370,235.9843 305.9152,235.9843 305.3542,236.9558 305.9152,237.9274 304.7933,237.9274 304.2324,238.8989 304.7933,239.8704 305.9152,239.8704 305.3542,240.8419 305.9152,241.8134 304.7933,241.8134 304.2324,242.7850 303.6715,241.8134 302.5497,241.8134 301.9888,242.7850 302.5497,243.7565 301.4279,243.7565 300.8670,244.7280 301.4279,245.6995 302.5497,245.6995 301.9888,246.6710 302.5497,247.6426 303.6715,247.6426 304.2324,246.6710 304.7933,247.6426 305.9152,247.6426 305.3542,248.6141 305.9152,249.5856 304.7933,249.5856 304.2324,250.5571 304.7933,251.5286 305.9152,251.5286 305.3542,252.5002 305.9152,253.4717 307.0370,253.4717 307.5979,252.5002 308.1588,253.4717 309.2806,253.4717 309.8415,252.5002 309.2806,251.5286 310.4024,251.5286 310.9633,250.5571 311.5242,251.5286 312.6460,251.5286 312.0851,252.5002 312.6460,253.4717 313.7679,253.4717 314.3288,252.5002 314.8897,253.4717 316.0115,253.4717 315.4506,254.4432 316.0115,255.4147 314.8897,255.4147 314.3288,256.3862 314.8897,257.3578 316.0115,257.3578 315.4506,258.3293 316.0115,259.3008 314.8897,259.3008 314.3288,260.2723 313.7679,259.3008 312.6460,259.3008 312.0851,260.2723 312.6460,261.2438 311.5242,261.2438 310.9633,262.2154 311.5242,263.1869 312.6460,263.1869 312.0851,264.1584 312.6460,265.1299 313.7679,265.1299 314.3288,264.1584 314.8897,265.1299 316.0115,265.1299 315.4506,266.1014 316.0115,267.0730 314.8897,267.0730 314.3288,268.0445 314.8897,269.0160 316.0115,269.0160 315.4506,269.9875 316.0115,270.9590 317.1333,270.9590 317.6942,269.9875 318.2551,270.9590 319.3769,270.9590 319.9378,269.9875 319.3769,269.0160 320.4987,269.0160 321.0597,268.0445 321.6206,269.0160 322.7424,269.0160 322.1815,269.9875 322.7424,270.9590 323.8642,270.9590 324.4251,269.9875 324.9860,270.9590 326.1078,270.9590 326.6687,269.9875 326.1078,269.0160 327.2296,269.0160 327.7905,268.0445 327.2296,267.0730 326.1078,267.0730 326.6687,266.1014 326.1078,265.1299 327.2296,265.1299 327.7905,264.1584 328.3514,265.1299 329.4733,265.1299 330.0342,264.1584 329.4733,263.1869 330.5951,263.1869 331.1560,262.2154 331.7169,263.1869 332.8387,263.1869 332.2778,264.1584 332.8387,265.1299 333.9605,265.1299 334.5214,264.1584 335.0823,265.1299 336.2042,265.1299 335.6432,266.1014 336.2042,267.0730 335.0823,267.0730 334.5214,268.0445 335.0823,269.0160 336.2042,269.0160 335.6432,269.9875 336.2042,270.9590 337.3260,270.9590 337.8869,269.9875 338.4478,270.9590 339.5696,270.9590 340.1305,269.9875 339.5696,269.0160 340.6914,269.0160 341.2523,268.0445 341.8132,269.0160 342.9350,269.0160 342.3741,269.9875 342.9350,270.9590 344.0569,270.9590 344.6178,269.9875 345.1787,270.9590 346.3005,270.9590 345.7396,271.9306 346.3005,272.9021 345.1787,272.9021 344.6178,273.8736 345.1787,274.8451 346.3005,274.8451 345.7396,275.8166 346.3005,276.7882 345.1787,276.7882 344.6178,277.7597 344.0569,276.7882 342.9350,276.7882 342.3741,277.7597 342.9350,278.7312 341.8132,278.7312 341.2523,279.7027 341.8132,280.6742 342.9350,280.6742 342.3741,281.6458 342.9350,282.6173 344.0569,282.6173 344.6178,281.6458 345.1787,282.6173 346.3005,282.6173 345.7396,283.5888 346.3005,284.5603 345.1787,284.5603 344.6178,285.5318 345.1787,286.5034 346.3005,286.5034 345.7396,287.4749 346.3005,288.4464 345.1787,288.4464 344.6178,289.4179 344.0569,288.4464 342.9350,288.4464 342.3741,289.4179 342.9350,290.3894 341.8132,290.3894 341.2523,291.3610 340.6914,290.3894 339.5696,290.3894 340.1305,289.4179 339.5696,288.4464 338.4478,288.4464 337.8869,289.4179 337.3260,288.4464 336.2042,288.4464 335.6432,289.4179 336.2042,290.3894 335.0823,290.3894 334.5214,291.3610 335.0823,292.3325 336.2042,292.3325 335.6432,293.3040 336.2042,294.2755 335.0823,294.2755 334.5214,295.2470 333.9605,294.2755 332.8387,294.2755 332.2778,295.2470 332.8387,296.2186 331.7169,296.2186 331.1560,297.1901 331.7169,298.1616 332.8387,298.1616 332.2778,299.1331 332.8387,300.1046 333.9605,300.1046 334.5214,299.1331 335.0823,300.1046 336.2042,300.1046 335.6432,301.0762 336.2042,302.0477 335.0823,302.0477 334.5214,303.0192 335.0823,303.9907 336.2042,303.9907 335.6432,304.9622 336.2042,305.9338 337.3260,305.9338 337.8869,304.9622 338.4478,305.9338 339.5696,305.9338 340.1305,304.9622 339.5696,303.9907 340.6914,303.9907 341.2523,303.0192 341.8132,303.9907 342.9350,303.9907 342.3741,304.9622 342.9350,305.9338 344.0569,305.9338 344.6178,304.9622 345.1787,305.9338 346.3005,305.9338 345.7396,306.9053 346.3005,307.8768 345.1787,307.8768 344.6178,308.8483 345.1787,309.8198 346.3005,309.8198 345.7396,310.7914 346.3005,311.7629 345.1787,311.7629 344.6178,312.7344 344.0569,311.7629 342.9350,311.7629 342.3741,312.7344 342.9350,313.7059 341.8132,313.7059 341.2523,314.6774 341.8132,315.6490 342.9350,315.6490 342.3741,316.6205 342.9350,317.5920 344.0569,317.5920 344.6178,316.6205 345.1787,317.5920 346.3005,317.5920 345.7396,318.5635 346.3005,319.5350 345.1787,319.5350 344.6178,320.5066 345.1787,321.4781 346.3005,321.4781 345.7396,322.4496 346.3005,323.4211 345.1787,323.4211 344.6178,324.3926 344.0569,323.4211 342.9350,323.4211 342.3741,324.3926 342.9350,325.3642 341.8132,325.3642 341.2523,326.3357 340.6914,325.3642 339.5696,325.3642 340.1305,324.3926 339.5696,323.4211 338.4478,323.4211 337.8869,324.3926 337.3260,323.4211 336.2042,323.4211 335.6432,324.3926 336.2042,325.3642 335.0823,325.3642 334.5214,326.3357 335.0823,327.3072 336.2042,327.3072 335.6432,328.2787 336.2042,329.2502 335.0823,329.2502 334.5214,330.2218 333.9605,329.2502 332.8387,329.2502 332.2778,330.2218 332.8387,331.1933 331.7169,331.1933 331.1560,332.1648 330.5951,331.1933 329.4733,331.1933 330.0342,330.2218 329.4733,329.2502 328.3514,329.2502 327.7905,330.2218 327.2296,329.2502 326.1078,329.2502 326.6687,328.2787 326.1078,327.3072 327.2296,327.3072 327.7905,326.3357 327.2296,325.3642 326.1078,325.3642 326.6687,324.3926 326.1078,323.4211 324.9860,323.4211 324.4251,324.3926 323.8642,323.4211 322.7424,323.4211 322.1815,324.3926 322.7424,325.3642 321.6206,325.3642 321.0597,326.3357 320.4987,325.3642 319.3769,325.3642 319.9378,324.3926 319.3769,323.4211 318.2551,323.4211 317.6942,324.3926 317.1333,323.4211 316.0115,323.4211 315.4506,324.3926 316.0115,325.3642 314.8897,325.3642 314.3288,326.3357 314.8897,327.3072 316.0115,327.3072 315.4506,328.2787 316.0115,329.2502 314.8897,329.2502 314.3288,330.2218 313.7679,329.2502 312.6460,329.2502 312.0851,330.2218 312.6460,331.1933 311.5242,331.1933 310.9633,332.1648 311.5242,333.1363 312.6460,333.1363 312.0851,334.1078 312.6460,335.0794 313.7679,335.0794 314.3288,334.1078 314.8897,335.0794 316.0115,335.0794 315.4506,336.0509 316.0115,337.0224 314.8897,337.0224 314.3288,337.9939 314.8897,338.9654 316.0115,338.9654 315.4506,339.9370 316.0115,340.9085 314.8897,340.9085 314.3288,341.8800 313.7679,340.9085 312.6460,340.9085 312.0851,341.8800 312.6460,342.8515 311.5242,342.8515 310.9633,343.8230 310.4024,342.8515 309.2806,342.8515 309.8415,341.8800 309.2806,340.9085 308.1588,340.9085 307.5979,341.8800 307.0370,340.9085 305.9152,340.9085 305.3542,341.8800 305.9152,342.8515 304.7933,342.8515 304.2324,343.8230 304.7933,344.7946 305.9152,344.7946 305.3542,345.7661 305.9152,346.7376 304.7933,346.7376 304.2324,347.7091 303.6715,346.7376 302.5497,346.7376 301.9888,347.7091 302.5497,348.6806 301.4279,348.6806 300.8670,349.6522 300.3061,348.6806 299.1843,348.6806 299.7452,347.7091 299.1843,346.7376 298.0625,346.7376 297.5015,347.7091 296.9406,346.7376 295.8188,346.7376 296.3797,345.7661 295.8188,344.7946 296.9406,344.7946 297.5015,343.8230 296.9406,342.8515 295.8188,342.8515 296.3797,341.8800 295.8188,340.9085 294.6970,340.9085 294.1361,341.8800 293.5752,340.9085 292.4534,340.9085 291.8925,341.8800 292.4534,342.8515 291.3316,342.8515 290.7707,343.8230 290.2097,342.8515 289.0879,342.8515 289.6488,341.8800 289.0879,340.9085 287.9661,340.9085 287.4052,341.8800 286.8443,340.9085 285.7225,340.9085 286.2834,339.9370 285.7225,338.9654 286.8443,338.9654 287.4052,337.9939 286.8443,337.0224 285.7225,337.0224 286.2834,336.0509 285.7225,335.0794 286.8443,335.0794 287.4052,334.1078 287.9661,335.0794 289.0879,335.0794 289.6488,334.1078 289.0879,333.1363 290.2097,333.1363 290.7707,332.1648 290.2097,331.1933 289.0879,331.1933 289.6488,330.2218 289.0879,329.2502 287.9661,329.2502 287.4052,330.2218 286.8443,329.2502 285.7225,329.2502 286.2834,328.2787 285.7225,327.3072 286.8443,327.3072 287.4052,326.3357 286.8443,325.3642 285.7225,325.3642 286.2834,324.3926 285.7225,323.4211 284.6007,323.4211 284.0398,324.3926 283.4789,323.4211 282.3570,323.4211 281.7961,324.3926 282.3570,325.3642 281.2352,325.3642 280.6743,326.3357 280.1134,325.3642 278.9916,325.3642 279.5525,324.3926 278.9916,323.4211 277.8698,323.4211 277.3089,324.3926 276.7480,323.4211 275.6262,323.4211 275.0653,324.3926 275.6262,325.3642 274.5043,325.3642 273.9434,326.3357 274.5043,327.3072 275.6262,327.3072 275.0653,328.2787 275.6262,329.2502 274.5043,329.2502 273.9434,330.2218 273.3825,329.2502 272.2607,329.2502 271.6998,330.2218 272.2607,331.1933 271.1389,331.1933 270.5780,332.1648 270.0171,331.1933 268.8953,331.1933 269.4562,330.2218 268.8953,329.2502 267.7735,329.2502 267.2125,330.2218 266.6516,329.2502 265.5298,329.2502 266.0907,328.2787 265.5298,327.3072 266.6516,327.3072 267.2125,326.3357 266.6516,325.3642 265.5298,325.3642 266.0907,324.3926 265.5298,323.4211 264.4080,323.4211 263.8471,324.3926 263.2862,323.4211 262.1644,323.4211 261.6035,324.3926 262.1644,325.3642 261.0426,325.3642 260.4817,326.3357 259.9208,325.3642 258.7989,325.3642 259.3598,324.3926 258.7989,323.4211 257.6771,323.4211 257.1162,324.3926 256.5553,323.4211 255.4335,323.4211 254.8726,324.3926 255.4335,325.3642 254.3117,325.3642 253.7508,326.3357 254.3117,327.3072 255.4335,327.3072 254.8726,328.2787 255.4335,329.2502 254.3117,329.2502 253.7508,330.2218 253.1899,329.2502 252.0681,329.2502 251.5071,330.2218 252.0681,331.1933 250.9462,331.1933 250.3853,332.1648 250.9462,333.1363 252.0681,333.1363 251.5071,334.1078 252.0681,335.0794 253.1899,335.0794 253.7508,334.1078 254.3117,335.0794 255.4335,335.0794 254.8726,336.0509 255.4335,337.0224 254.3117,337.0224 253.7508,337.9939 254.3117,338.9654 255.4335,338.9654 254.8726,339.9370 255.4335,340.9085 254.3117,340.9085 253.7508,341.8800 253.1899,340.9085 252.0681,340.9085 251.5071,341.8800 252.0681,342.8515 250.9462,342.8515 250.3853,343.8230 249.8244,342.8515 248.7026,342.8515 249.2635,341.8800 248.7026,340.9085 247.5808,340.9085 247.0199,341.8800 246.4590,340.9085 245.3372,340.9085 244.7763,341.8800 245.3372,342.8515 244.2153,342.8515 243.6544,343.8230 244.2153,344.7946 245.3372,344.7946 244.7763,345.7661 245.3372,346.7376 244.2153,346.7376 243.6544,347.7091 243.0935,346.7376 241.9717,346.7376 241.4108,347.7091 241.9717,348.6806 240.8499,348.6806 240.2890,349.6522 240.8499,350.6237 241.9717,350.6237 241.4108,351.5952 241.9717,352.5667 243.0935,352.5667 243.6544,351.5952 244.2153,352.5667 245.3372,352.5667 244.7763,353.5382 245.3372,354.5098 244.2153,354.5098 243.6544,355.4813 244.2153,356.4528 245.3372,356.4528 244.7763,357.4243 245.3372,358.3958 246.4590,358.3958 247.0199,357.4243 247.5808,358.3958 248.7026,358.3958 249.2635,357.4243 248.7026,356.4528 249.8244,356.4528 250.3853,355.4813 250.9462,356.4528 252.0681,356.4528 251.5071,357.4243 252.0681,358.3958 253.1899,358.3958 253.7508,357.4243 254.3117,358.3958 255.4335,358.3958 254.8726,359.3674 255.4335,360.3389 254.3117,360.3389 253.7508,361.3104 254.3117,362.2819 255.4335,362.2819 254.8726,363.2534 255.4335,364.2250 254.3117,364.2250 253.7508,365.1965 253.1899,364.2250 252.0681,364.2250 251.5071,365.1965 252.0681,366.1680 250.9462,366.1680 250.3853,367.1395 250.9462,368.1110 252.0681,368.1110 251.5071,369.0826 252.0681,370.0541 253.1899,370.0541 253.7508,369.0826 254.3117,370.0541 255.4335,370.0541 254.8726,371.0256 255.4335,371.9971 254.3117,371.9971 253.7508,372.9686 254.3117,373.9402 255.4335,373.9402 254.8726,374.9117 255.4335,375.8832 254.3117,375.8832 253.7508,376.8547 253.1899,375.8832 252.0681,375.8832 251.5071,376.8547 252.0681,377.8262 250.9462,377.8262 250.3853,378.7978 249.8244,377.8262 248.7026,377.8262 249.2635,376.8547 248.7026,375.8832 247.5808,375.8832 247.0199,376.8547 246.4590,375.8832 245.3372,375.8832 244.7763,376.8547 245.3372,377.8262 244.2153,377.8262 243.6544,378.7978 244.2153,379.7693 245.3372,379.7693 244.7763,380.7408 245.3372,381.7123 244.2153,381.7123 243.6544,382.6838 243.0935,381.7123 241.9717,381.7123 241.4108,382.6838 241.9717,383.6554 240.8499,383.6554 240.2890,384.6269 239.7281,383.6554 238.6063,383.6554 239.1672,382.6838 238.6063,381.7123 237.4845,381.7123 236.9236,382.6838 236.3626,381.7123 235.2408,381.7123 235.8017,380.7408 235.2408,379.7693 236.3626,379.7693 236.9236,378.7978 236.3626,377.8262 235.2408,377.8262 235.8017,376.8547 235.2408,375.8832 234.1190,375.8832 233.5581,376.8547 232.9972,375.8832 231.8754,375.8832 231.3145,376.8547 231.8754,377.8262 230.7536,377.8262 230.1927,378.7978 229.6318,377.8262 228.5099,377.8262 229.0708,376.8547 228.5099,375.8832 227.3881,375.8832 226.8272,376.8547 226.2663,375.8832 225.1445,375.8832 224.5836,376.8547 225.1445,377.8262 224.0227,377.8262 223.4618,378.7978 224.0227,379.7693 225.1445,379.7693 224.5836,380.7408 225.1445,381.7123 224.0227,381.7123 223.4618,382.6838 222.9009,381.7123 221.7791,381.7123 221.2181,382.6838 221.7791,383.6554 220.6572,383.6554 220.0963,384.6269 220.6572,385.5984 221.7791,385.5984 221.2181,386.5699 221.7791,387.5414 222.9009,387.5414 223.4618,386.5699 224.0227,387.5414 225.1445,387.5414 224.5836,388.5130 225.1445,389.4845 224.0227,389.4845 223.4618,390.4560 224.0227,391.4275 225.1445,391.4275 224.5836,392.3990 225.1445,393.3706 224.0227,393.3706 223.4618,394.3421 222.9009,393.3706 221.7791,393.3706 221.2181,394.3421 221.7791,395.3136 220.6572,395.3136 220.0963,396.2851 219.5354,395.3136 218.4136,395.3136 218.9745,394.3421 218.4136,393.3706 217.2918,393.3706 216.7309,394.3421 216.1700,393.3706 215.0482,393.3706 214.4873,394.3421 215.0482,395.3136 213.9264,395.3136 213.3654,396.2851 213.9264,397.2566 215.0482,397.2566 214.4873,398.2282 215.0482,399.1997 213.9264,399.1997 213.3654,400.1712 212.8045,399.1997 211.6827,399.1997 211.1218,400.1712 211.6827,401.1427 210.5609,401.1427 210.0000,402.1142 209.4391,401.1427 208.3173,401.1427 208.8782,400.1712 208.3173,399.1997 207.1955,399.1997 206.6346,400.1712 206.0736,399.1997 204.9518,399.1997 205.5127,398.2282 204.9518,397.2566 206.0736,397.2566 206.6346,396.2851 206.0736,395.3136 204.9518,395.3136 205.5127,394.3421 204.9518,393.3706 203.8300,393.3706 203.2691,394.3421 202.7082,393.3706 201.5864,393.3706 201.0255,394.3421 201.5864,395.3136 200.4646,395.3136 199.9037,396.2851 199.3428,395.3136 198.2209,395.3136 198.7819,394.3421 198.2209,393.3706 197.0991,393.3706 196.5382,394.3421 195.9773,393.3706 194.8555,393.3706 195.4164,392.3990 194.8555,391.4275 195.9773,391.4275 196.5382,390.4560 195.9773,389.4845 194.8555,389.4845 195.4164,388.5130 194.8555,387.5414 195.9773,387.5414 196.5382,386.5699 197.0991,387.5414 198.2209,387.5414 198.7819,386.5699 198.2209,385.5984 199.3428,385.5984 199.9037,384.6269 199.3428,383.6554 198.2209,383.6554 198.7819,382.6838 198.2209,381.7123 197.0991,381.7123 196.5382,382.6838 195.9773,381.7123 194.8555,381.7123 195.4164,380.7408 194.8555,379.7693 195.9773,379.7693 196.5382,378.7978 195.9773,377.8262 194.8555,377.8262 195.4164,376.8547 194.8555,375.8832 193.7337,375.8832 193.1728,376.8547 192.6119,375.8832 191.4901,375.8832 190.9292,376.8547 191.4901,377.8262 190.3682,377.8262 189.8073,378.7978 189.2464,377.8262 188.1246,377.8262 188.6855,376.8547 188.1246,375.8832 187.0028,375.8832 186.4419,376.8547 185.8810,375.8832 184.7592,375.8832 184.1983,376.8547 184.7592,377.8262 183.6374,377.8262 183.0764,378.7978 183.6374,379.7693 184.7592,379.7693 184.1983,380.7408 184.7592,381.7123 183.6374,381.7123 183.0764,382.6838 182.5155,381.7123 181.3937,381.7123 180.8328,382.6838 181.3937,383.6554 180.2719,383.6554 179.7110,384.6269 179.1501,383.6554 178.0283,383.6554 178.5892,382.6838 178.0283,381.7123 176.9065,381.7123 176.3456,382.6838 175.7847,381.7123 174.6628,381.7123 175.2237,380.7408 174.6628,379.7693 175.7847,379.7693 176.3456,378.7978 175.7847,377.8262 174.6628,377.8262 175.2237,376.8547 174.6628,375.8832 173.5410,375.8832 172.9801,376.8547 172.4192,375.8832 171.2974,375.8832 170.7365,376.8547 171.2974,377.8262 170.1756,377.8262 169.6147,378.7978 169.0538,377.8262 167.9319,377.8262 168.4929,376.8547 167.9319,375.8832 166.8101,375.8832 166.2492,376.8547 165.6883,375.8832 164.5665,375.8832 165.1274,374.9117 164.5665,373.9402 165.6883,373.9402 166.2492,372.9686 165.6883,371.9971 164.5665,371.9971 165.1274,371.0256 164.5665,370.0541 165.6883,370.0541 166.2492,369.0826 166.8101,370.0541 167.9319,370.0541 168.4929,369.0826 167.9319,368.1110 169.0538,368.1110 169.6147,367.1395 169.0538,366.1680 167.9319,366.1680 168.4929,365.1965 167.9319,364.2250 166.8101,364.2250 166.2492,365.1965 165.6883,364.2250 164.5665,364.2250 165.1274,363.2534 164.5665,362.2819 165.6883,362.2819 166.2492,361.3104 165.6883,360.3389 164.5665,360.3389 165.1274,359.3674 164.5665,358.3958 165.6883,358.3958 166.2492,357.4243 166.8101,358.3958 167.9319,358.3958 168.4929,357.4243 167.9319,356.4528 169.0538,356.4528 169.6147,355.4813 170.1756,356.4528 171.2974,356.4528 170.7365,357.4243 171.2974,358.3958 172.4192,358.3958 172.9801,357.4243 173.5410,358.3958 174.6628,358.3958 175.2237,357.4243 174.6628,356.4528 175.7847,356.4528 176.3456,355.4813 175.7847,354.5098 174.6628,354.5098 175.2237,353.5382 174.6628,352.5667 175.7847,352.5667 176.3456,351.5952 176.9065,352.5667 178.0283,352.5667 178.5892,351.5952 178.0283,350.6237 179.1501,350.6237 179.7110,349.6522 179.1501,348.6806 178.0283,348.6806 178.5892,347.7091 178.0283,346.7376 176.9065,346.7376 176.3456,347.7091 175.7847,346.7376 174.6628,346.7376 175.2237,345.7661 174.6628,344.7946 175.7847,344.7946 176.3456,343.8230 175.7847,342.8515 174.6628,342.8515 175.2237,341.8800 174.6628,340.9085 173.5410,340.9085 172.9801,341.8800 172.4192,340.9085 171.2974,340.9085 170.7365,341.8800 171.2974,342.8515 170.1756,342.8515 169.6147,343.8230 169.0538,342.8515 167.9319,342.8515 168.4929,341.8800 167.9319,340.9085 166.8101,340.9085 166.2492,341.8800 165.6883,340.9085 164.5665,340.9085 165.1274,339.9370 164.5665,338.9654 165.6883,338.9654 166.2492,337.9939 165.6883,337.0224 164.5665,337.0224 165.1274,336.0509 164.5665,335.0794 165.6883,335.0794 166.2492,334.1078 166.8101,335.0794 167.9319,335.0794 168.4929,334.1078 167.9319,333.1363 169.0538,333.1363 169.6147,332.1648 169.0538,331.1933 167.9319,331.1933 168.4929,330.2218 167.9319,329.2502 166.8101,329.2502 166.2492,330.2218 165.6883,329.2502 164.5665,329.2502 165.1274,328.2787 164.5665,327.3072 165.6883,327.3072 166.2492,326.3357 165.6883,325.3642 164.5665,325.3642 165.1274,324.3926 164.5665,323.4211 163.4447,323.4211 162.8838,324.3926 162.3229,323.4211 161.2011,323.4211 160.6402,324.3926 161.2011,325.3642 160.0792,325.3642 159.5183,326.3357 158.9574,325.3642 157.8356,325.3642 158.3965,324.3926 157.8356,323.4211 156.7138,323.4211 156.1529,324.3926 155.5920,323.4211 154.4702,323.4211 153.9093,324.3926 154.4702,325.3642 153.3484,325.3642 152.7875,326.3357 153.3484,327.3072 154.4702,327.3072 153.9093,328.2787 154.4702,329.2502 153.3484,329.2502 152.7875,330.2218 152.2265,329.2502 151.1047,329.2502 150.5438,330.2218 151.1047,331.1933 149.9829,331.1933 149.4220,332.1648 148.8611,331.1933 147.7393,331.1933 148.3002,330.2218 147.7393,329.2502 146.6175,329.2502 146.0566,330.2218 145.4957,329.2502 144.3738,329.2502 144.9347,328.2787 144.3738,327.3072 145.4957,327.3072 146.0566,326.3357 145.4957,325.3642 144.3738,325.3642 144.9347,324.3926 144.3738,323.4211 143.2520,323.4211 142.6911,324.3926 142.1302,323.4211 141.0084,323.4211 140.4475,324.3926 141.0084,325.3642 139.8866,325.3642 139.3257,326.3357 138.7648,325.3642 137.6430,325.3642 138.2039,324.3926 137.6430,323.4211 136.5211,323.4211 135.9602,324.3926 135.3993,323.4211 134.2775,323.4211 133.7166,324.3926 134.2775,325.3642 133.1557,325.3642 132.5948,326.3357 133.1557,327.3072 134.2775,327.3072 133.7166,328.2787 134.2775,329.2502 133.1557,329.2502 132.5948,330.2218 132.0339,329.2502 130.9121,329.2502 130.3512,330.2218 130.9121,331.1933 129.7903,331.1933 129.2293,332.1648 129.7903,333.1363 130.9121,333.1363 130.3512,334.1078 130.9121,335.0794 132.0339,335.0794 132.5948,334.1078 133.1557,335.0794 134.2775,335.0794 133.7166,336.0509 134.2775,337.0224 133.1557,337.0224 132.5948,337.9939 133.1557,338.9654 134.2775,338.9654 133.7166,339.9370 134.2775,340.9085 133.1557,340.9085 132.5948,341.8800 132.0339,340.9085 130.9121,340.9085 130.3512,341.8800 130.9121,342.8515 129.7903,342.8515 129.2293,343.8230 128.6684,342.8515 127.5466,342.8515 128.1075,341.8800 127.5466,340.9085 126.4248,340.9085 125.8639,341.8800 125.3030,340.9085 124.1812,340.9085 123.6203,341.8800 124.1812,342.8515 123.0594,342.8515 122.4985,343.8230 123.0594,344.7946 124.1812,344.7946 123.6203,345.7661 124.1812,346.7376 123.0594,346.7376 122.4985,347.7091 121.9375,346.7376 120.8157,346.7376 120.2548,347.7091 120.8157,348.6806 119.6939,348.6806 119.1330,349.6522 118.5721,348.6806 117.4503,348.6806 118.0112,347.7091 117.4503,346.7376 116.3285,346.7376 115.7676,347.7091 115.2067,346.7376 114.0848,346.7376 114.6458,345.7661 114.0848,344.7946 115.2067,344.7946 115.7676,343.8230 115.2067,342.8515 114.0848,342.8515 114.6458,341.8800 114.0848,340.9085 112.9630,340.9085 112.4021,341.8800 111.8412,340.9085 110.7194,340.9085 110.1585,341.8800 110.7194,342.8515 109.5976,342.8515 109.0367,343.8230 108.4758,342.8515 107.3540,342.8515 107.9149,341.8800 107.3540,340.9085 106.2321,340.9085 105.6712,341.8800 105.1103,340.9085 103.9885,340.9085 104.5494,339.9370 103.9885,338.9654 105.1103,338.9654 105.6712,337.9939 105.1103,337.0224 103.9885,337.0224 104.5494,336.0509 103.9885,335.0794 105.1103,335.0794 105.6712,334.1078 106.2321,335.0794 107.3540,335.0794 107.9149,334.1078 107.3540,333.1363 108.4758,333.1363 109.0367,332.1648 108.4758,331.1933 107.3540,331.1933 107.9149,330.2218 107.3540,329.2502 106.2321,329.2502 105.6712,330.2218 105.1103,329.2502 103.9885,329.2502 104.5494,328.2787 103.9885,327.3072 105.1103,327.3072 105.6712,326.3357 105.1103,325.3642 103.9885,325.3642 104.5494,324.3926 103.9885,323.4211 102.8667,323.4211 102.3058,324.3926 101.7449,323.4211 100.6231,323.4211 100.0622,324.3926 100.6231,325.3642 99.5013,325.3642 98.9403,326.3357 98.3794,325.3642 97.2576,325.3642 97.8185,324.3926 97.2576,323.4211 96.1358,323.4211 95.5749,324.3926 95.0140,323.4211 93.8922,323.4211 93.3313,324.3926 93.8922,325.3642 92.7704,325.3642 92.2095,326.3357 92.7704,327.3072 93.8922,327.3072 93.3313,328.2787 93.8922,329.2502 92.7704,329.2502 92.2095,330.2218 91.6486,329.2502 90.5267,329.2502 89.9658,330.2218 90.5267,331.1933 89.4049,331.1933 88.8440,332.1648 88.2831,331.1933 87.1613,331.1933 87.7222,330.2218 87.1613,329.2502 86.0395,329.2502 85.4786,330.2218 84.9177,329.2502 83.7958,329.2502 84.3568,328.2787 83.7958,327.3072 84.9177,327.3072 85.4786,326.3357 84.9177,325.3642 83.7958,325.3642 84.3568,324.3926 83.7958,323.4211 82.6740,323.4211 82.1131,324.3926 81.5522,323.4211 80.4304,323.4211 79.8695,324.3926 80.4304,325.3642 79.3086,325.3642 78.7477,326.3357 78.1868,325.3642 77.0650,325.3642 77.6259,324.3926 77.0650,323.4211 75.9431,323.4211 75.3822,324.3926 74.8213,323.4211 73.6995,323.4211 74.2604,322.4496 73.6995,321.4781 74.8213,321.4781 75.3822,320.5066 74.8213,319.5350 73.6995,319.5350 74.2604,318.5635 73.6995,317.5920 74.8213,317.5920 75.3822,316.6205 75.9431,317.5920 77.0650,317.5920 77.6259,316.6205 77.0650,315.6490 78.1868,315.6490 78.7477,314.6774 78.1868,313.7059 77.0650,313.7059 77.6259,312.7344 77.0650,311.7629 75.9431,311.7629 75.3822,312.7344 74.8213,311.7629 73.6995,311.7629 74.2604,310.7914 73.6995,309.8198 74.8213,309.8198 75.3822,308.8483 74.8213,307.8768 73.6995,307.8768 74.2604,306.9053 73.6995,305.9338 74.8213,305.9338 75.3822,304.9622 75.9431,305.9338 77.0650,305.9338 77.6259,304.9622 77.0650,303.9907 78.1868,303.9907 78.7477,303.0192 79.3086,303.9907 80.4304,303.9907 79.8695,304.9622 80.4304,305.9338 81.5522,305.9338 82.1131,304.9622 82.6740,305.9338 83.7958,305.9338 84.3568,304.9622 83.7958,303.9907 84.9177,303.9907 85.4786,303.0192 84.9177,302.0477 83.7958,302.0477 84.3568,301.0762 83.7958,300.1046 84.9177,300.1046 85.4786,299.1331 86.0395,300.1046 87.1613,300.1046 87.7222,299.1331 87.1613,298.1616 88.2831,298.1616 88.8440,297.1901 88.2831,296.2186 87.1613,296.2186 87.7222,295.2470 87.1613,294.2755 86.0395,294.2755 85.4786,295.2470 84.9177,294.2755 83.7958,294.2755 84.3568,293.3040 83.7958,292.3325 84.9177,292.3325 85.4786,291.3610 84.9177,290.3894 83.7958,290.3894 84.3568,289.4179 83.7958,288.4464 82.6740,288.4464 82.1131,289.4179 81.5522,288.4464 80.4304,288.4464 79.8695,289.4179 80.4304,290.3894 79.3086,290.3894 78.7477,291.3610 78.1868,290.3894 77.0650,290.3894 77.6259,289.4179 77.0650,288.4464 75.9431,288.4464 75.3822,289.4179 74.8213,288.4464 73.6995,288.4464 74.2604,287.4749 73.6995,286.5034 74.8213,286.5034 75.3822,285.5318 74.8213,284.5603 73.6995,284.5603 74.2604,283.5888 73.6995,282.6173 74.8213,282.6173 75.3822,281.6458 75.9431,282.6173 77.0650,282.6173 77.6259,281.6458 77.0650,280.6742 78.1868,280.6742 78.7477,279.7027 78.1868,278.7312 77.0650,278.7312 77.6259,277.7597 77.0650,276.7882 75.9431,276.7882 75.3822,277.7597 74.8213,276.7882 73.6995,276.7882 74.2604,275.8166 73.6995,274.8451 74.8213,274.8451 75.3822,273.8736 74.8213,272.9021 73.6995,272.9021 74.2604,271.9306 73.6995,270.9590 74.8213,270.9590 75.3822,269.9875 75.9431,270.9590 77.0650,270.9590 77.6259,269.9875 77.0650,269.0160 78.1868,269.0160 78.7477,268.0445 79.3086,269.0160 80.4304,269.0160 79.8695,269.9875 80.4304,270.9590 81.5522,270.9590 82.1131,269.9875 82.6740,270.9590 83.7958,270.9590 84.3568,269.9875 83.7958,269.0160 84.9177,269.0160 85.4786,268.0445 84.9177,267.0730 83.7958,267.0730 84.3568,266.1014 83.7958,265.1299 84.9177,265.1299 85.4786,264.1584 86.0395,265.1299 87.1613,265.1299 87.7222,264.1584 87.1613,263.1869 88.2831,263.1869 88.8440,262.2154 89.4049,263.1869 90.5267,263.1869 89.9658,264.1584 90.5267,265.1299 91.6486,265.1299 92.2095,264.1584 92.7704,265.1299 93.8922,265.1299 93.3313,266.1014 93.8922,267.0730 92.7704,267.0730 92.2095,268.0445 92.7704,269.0160 93.8922,269.0160 93.3313,269.9875 93.8922,270.9590 95.0140,270.9590 95.5749,269.9875 96.1358,270.9590 97.2576,270.9590 97.8185,269.9875 97.2576,269.0160 98.3794,269.0160 98.9403,268.0445 99.5013,269.0160 100.6231,269.0160 100.0622,269.9875 100.6231,270.9590 101.7449,270.9590 102.3058,269.9875 102.8667,270.9590 103.9885,270.9590 104.5494,269.9875 103.9885,269.0160 105.1103,269.0160 105.6712,268.0445 105.1103,267.0730 103.9885,267.0730 104.5494,266.1014 103.9885,265.1299 105.1103,265.1299 105.6712,264.1584 106.2321,265.1299 107.3540,265.1299 107.9149,264.1584 107.3540,263.1869 108.4758,263.1869 109.0367,262.2154 108.4758,261.2438 107.3540,261.2438 107.9149,260.2723 107.3540,259.3008 106.2321,259.3008 105.6712,260.2723 105.1103,259.3008 103.9885,259.3008 104.5494,258.3293 103.9885,257.3578 105.1103,257.3578 105.6712,256.3862 105.1103,255.4147 103.9885,255.4147 104.5494,254.4432 103.9885,253.4717 105.1103,253.4717 105.6712,252.5002 106.2321,253.4717 107.3540,253.4717 107.9149,252.5002 107.3540,251.5286 108.4758,251.5286 109.0367,250.5571 109.5976,251.5286 110.7194,251.5286 110.1585,252.5002 110.7194,253.4717 111.8412,253.4717 112.4021,252.5002 112.9630,253.4717 114.0848,253.4717 114.6458,252.5002 114.0848,251.5286 115.2067,251.5286 115.7676,250.5571 115.2067,249.5856 114.0848,249.5856 114.6458,248.6141 114.0848,247.6426 115.2067,247.6426 115.7676,246.6710 116.3285,247.6426 117.4503,247.6426 118.0112,246.6710 117.4503,245.6995 118.5721,245.6995 119.1330,244.7280 118.5721,243.7565 117.4503,243.7565 118.0112,242.7850 117.4503,241.8134 116.3285,241.8134 115.7676,242.7850 115.2067,241.8134 114.0848,241.8134 114.6458,240.8419 114.0848,239.8704 115.2067,239.8704 115.7676,238.8989 115.2067,237.9274 114.0848,237.9274 114.6458,236.9558 114.0848,235.9843 112.9630,235.9843 112.4021,236.9558 111.8412,235.9843 110.7194,235.9843 110.1585,236.9558 110.7194,237.9274 109.5976,237.9274 109.0367,238.8989 108.4758,237.9274 107.3540,237.9274 107.9149,236.9558 107.3540,235.9843 106.2321,235.9843 105.6712,236.9558 105.1103,235.9843 103.9885,235.9843 104.5494,235.0128 103.9885,234.0413 105.1103,234.0413 105.6712,233.0698 105.1103,232.0982 103.9885,232.0982 104.5494,231.1267 103.9885,230.1552 105.1103,230.1552 105.6712,229.1837 106.2321,230.1552 107.3540,230.1552 107.9149,229.1837 107.3540,228.2122 108.4758,228.2122 109.0367,227.2406 108.4758,226.2691 107.3540,226.2691 107.9149,225.2976 107.3540,224.3261 106.2321,224.3261 105.6712,225.2976 105.1103,224.3261 103.9885,224.3261 104.5494,223.3546 103.9885,222.3830 105.1103,222.3830 105.6712,221.4115 105.1103,220.4400 103.9885,220.4400 104.5494,219.4685 103.9885,218.4970 102.8667,218.4970 102.3058,219.4685 101.7449,218.4970 100.6231,218.4970 100.0622,219.4685 100.6231,220.4400 99.5013,220.4400 98.9403,221.4115 98.3794,220.4400 97.2576,220.4400 97.8185,219.4685 97.2576,218.4970 96.1358,218.4970 95.5749,219.4685 95.0140,218.4970 93.8922,218.4970 93.3313,219.4685 93.8922,220.4400 92.7704,220.4400 92.2095,221.4115 92.7704,222.3830 93.8922,222.3830 93.3313,223.3546 93.8922,224.3261 92.7704,224.3261 92.2095,225.2976 91.6486,224.3261 90.5267,224.3261 89.9658,225.2976 90.5267,226.2691 89.4049,226.2691 88.8440,227.2406 88.2831,226.2691 87.1613,226.2691 87.7222,225.2976 87.1613,224.3261 86.0395,224.3261 85.4786,225.2976 84.9177,224.3261 83.7958,224.3261 84.3568,223.3546 83.7958,222.3830 84.9177,222.3830 85.4786,221.4115 84.9177,220.4400 83.7958,220.4400 84.3568,219.4685 83.7958,218.4970 82.6740,218.4970 82.1131,219.4685 81.5522,218.4970 80.4304,218.4970 79.8695,219.4685 80.4304,220.4400 79.3086,220.4400 78.7477,221.4115 78.1868,220.4400 77.0650,220.4400 77.6259,219.4685 77.0650,218.4970 75.9431,218.4970 75.3822,219.4685 74.8213,218.4970 73.6995,218.4970 74.2604,217.5254 73.6995,216.5539 74.8213,216.5539 75.3822,215.5824 74.8213,214.6109 73.6995,214.6109 74.2604,213.6394 73.6995,212.6678 74.8213,212.6678 75.3822,211.6963 75.9431,212.6678 77.0650,212.6678 77.6259,211.6963 77.0650,210.7248 78.1868,210.7248 78.7477,209.7533 78.1868,208.7818 77.0650,208.7818 77.6259,207.8102 77.0650,206.8387 75.9431,206.8387 75.3822,207.8102 74.8213,206.8387 73.6995,206.8387 74.2604,205.8672 73.6995,204.8957 74.8213,204.8957 75.3822,203.9242 74.8213,202.9526 73.6995,202.9526 74.2604,201.9811 73.6995,201.0096 74.8213,201.0096 75.3822,200.0381 75.9431,201.0096 77.0650,201.0096 77.6259,200.0381 77.0650,199.0666 78.1868,199.0666 78.7477,198.0950 79.3086,199.0666 80.4304,199.0666 79.8695,200.0381 80.4304,201.0096 81.5522,201.0096 82.1131,200.0381 82.6740,201.0096 83.7958,201.0096 84.3568,200.0381 83.7958,199.0666 84.9177,199.0666 85.4786,198.0950 84.9177,197.1235 83.7958,197.1235 84.3568,196.1520 83.7958,195.1805 84.9177,195.1805 85.4786,194.2090 86.0395,195.1805 87.1613,195.1805 87.7222,194.2090 87.1613,193.2374 88.2831,193.2374 88.8440,192.2659 88.2831,191.2944 87.1613,191.2944 87.7222,190.3229 87.1613,189.3514 86.0395,189.3514 85.4786,190.3229 84.9177,189.3514 83.7958,189.3514 84.3568,188.3798 83.7958,187.4083 84.9177,187.4083 85.4786,186.4368 84.9177,185.4653 83.7958,185.4653 84.3568,184.4938 83.7958,183.5222 82.6740,183.5222 82.1131,184.4938 81.5522,183.5222 80.4304,183.5222 79.8695,184.4938 80.4304,185.4653 79.3086,185.4653 78.7477,186.4368 78.1868,185.4653 77.0650,185.4653 77.6259,184.4938 77.0650,183.5222 75.9431,183.5222 75.3822,184.4938 74.8213,183.5222 73.6995,183.5222 74.2604,182.5507 73.6995,181.5792 74.8213,181.5792 75.3822,180.6077 74.8213,179.6362 73.6995,179.6362 74.2604,178.6646 73.6995,177.6931 74.8213,177.6931 75.3822,176.7216 75.9431,177.6931 77.0650,177.6931 77.6259,176.7216 77.0650,175.7501 78.1868,175.7501 78.7477,174.7786 78.1868,173.8070 77.0650,173.8070 77.6259,172.8355 77.0650,171.8640 75.9431,171.8640 75.3822,172.8355 74.8213,171.8640 73.6995,171.8640 74.2604,170.8925 73.6995,169.9210 74.8213,169.9210 75.3822,168.9494 74.8213,167.9779 73.6995,167.9779 74.2604,167.0064 73.6995,166.0349 74.8213,166.0349 75.3822,165.0634 75.9431,166.0349 77.0650,166.0349 77.6259,165.0634 77.0650,164.0918 78.1868,164.0918 78.7477,163.1203 79.3086,164.0918 80.4304,164.0918 79.8695,165.0634 80.4304,166.0349 81.5522,166.0349 82.1131,165.0634 82.6740,166.0349 83.7958,166.0349 84.3568,165.0634 83.7958,164.0918 84.9177,164.0918 85.4786,163.1203 84.9177,162.1488 83.7958,162.1488 84.3568,161.1773 83.7958,160.2058 84.9177,160.2058 85.4786,159.2342 86.0395,160.2058 87.1613,160.2058 87.7222,159.2342 87.1613,158.2627 88.2831,158.2627 88.8440,157.2912 89.4049,158.2627 90.5267,158.2627 89.9658,159.2342 90.5267,160.2058 91.6486,160.2058 92.2095,159.2342 92.7704,160.2058 93.8922,160.2058 93.3313,161.1773 93.8922,162.1488 92.7704,162.1488 92.2095,163.1203 92.7704,164.0918 93.8922,164.0918 93.3313,165.0634 93.8922,166.0349 95.0140,166.0349 95.5749,165.0634 96.1358,166.0349 97.2576,166.0349 97.8185,165.0634 97.2576,164.0918 98.3794,164.0918 98.9403,163.1203 99.5013,164.0918 100.6231,164.0918 100.0622,165.0634 100.6231,166.0349 101.7449,166.0349 102.3058,165.0634 102.8667,166.0349 103.9885,166.0349 104.5494,165.0634 103.9885,164.0918 105.1103,164.0918 105.6712,163.1203 105.1103,162.1488 103.9885,162.1488 104.5494,161.1773 103.9885,160.2058 105.1103,160.2058 105.6712,159.2342 106.2321,160.2058 107.3540,160.2058 107.9149,159.2342 107.3540,158.2627 108.4758,158.2627 109.0367,157.2912 108.4758,156.3197 107.3540,156.3197 107.9149,155.3482 107.3540,154.3766 106.2321,154.3766 105.6712,155.3482 105.1103,154.3766 103.9885,154.3766 104.5494,153.4051 103.9885,152.4336 105.1103,152.4336 105.6712,151.4621 105.1103,150.4906 103.9885,150.4906 104.5494,149.5190 103.9885,148.5475 105.1103,148.5475 105.6712,147.5760 106.2321,148.5475 107.3540,148.5475 107.9149,147.5760 107.3540,146.6045 108.4758,146.6045 109.0367,145.6330 109.5976,146.6045 110.7194,146.6045 110.1585,147.5760 110.7194,148.5475 111.8412,148.5475 112.4021,147.5760 112.9630,148.5475 114.0848,148.5475 114.6458,147.5760 114.0848,146.6045 115.2067,146.6045 115.7676,145.6330 115.2067,144.6614 114.0848,144.6614 114.6458,143.6899 114.0848,142.7184 115.2067,142.7184 115.7676,141.7469 116.3285,142.7184 117.4503,142.7184 118.0112,141.7469 117.4503,140.7754 118.5721,140.7754 119.1330,139.8038 119.6939,140.7754 120.8157,140.7754 120.2548,141.7469 120.8157,142.7184 121.9375,142.7184 122.4985,141.7469 123.0594,142.7184 124.1812,142.7184 123.6203,143.6899 124.1812,144.6614 123.0594,144.6614 122.4985,145.6330 123.0594,146.6045 124.1812,146.6045 123.6203,147.5760 124.1812,148.5475 125.3030,148.5475 125.8639,147.5760 126.4248,148.5475 127.5466,148.5475 128.1075,147.5760 127.5466,146.6045 128.6684,146.6045 129.2293,145.6330 129.7903,146.6045 130.9121,146.6045 130.3512,147.5760 130.9121,148.5475 132.0339,148.5475 132.5948,147.5760 133.1557,148.5475 134.2775,148.5475 133.7166,149.5190 134.2775,150.4906 133.1557,150.4906 132.5948,151.4621 133.1557,152.4336 134.2775,152.4336 133.7166,153.4051 134.2775,154.3766 133.1557,154.3766 132.5948,155.3482 132.0339,154.3766 130.9121,154.3766 130.3512,155.3482 130.9121,156.3197 129.7903,156.3197 129.2293,157.2912 129.7903,158.2627 130.9121,158.2627 130.3512,159.2342 130.9121,160.2058 132.0339,160.2058 132.5948,159.2342 133.1557,160.2058 134.2775,160.2058 133.7166,161.1773 134.2775,162.1488 133.1557,162.1488 132.5948,163.1203 133.1557,164.0918 134.2775,164.0918 133.7166,165.0634 134.2775,166.0349 135.3993,166.0349 135.9602,165.0634 136.5211,166.0349 137.6430,166.0349 138.2039,165.0634 137.6430,164.0918 138.7648,164.0918 139.3257,163.1203 139.8866,164.0918 141.0084,164.0918 140.4475,165.0634 141.0084,166.0349 142.1302,166.0349 142.6911,165.0634 143.2520,166.0349 144.3738,166.0349 144.9347,165.0634 144.3738,164.0918 145.4957,164.0918 146.0566,163.1203 145.4957,162.1488 144.3738,162.1488 144.9347,161.1773 144.3738,160.2058 145.4957,160.2058 146.0566,159.2342 146.6175,160.2058 147.7393,160.2058 148.3002,159.2342 147.7393,158.2627 148.8611,158.2627 149.4220,157.2912 149.9829,158.2627 151.1047,158.2627 150.5438,159.2342 151.1047,160.2058 152.2265,160.2058 152.7875,159.2342 153.3484,160.2058 154.4702,160.2058 153.9093,161.1773 154.4702,162.1488 153.3484,162.1488 152.7875,163.1203 153.3484,164.0918 154.4702,164.0918 153.9093,165.0634 154.4702,166.0349 155.5920,166.0349 156.1529,165.0634 156.7138,166.0349 157.8356,166.0349 158.3965,165.0634 157.8356,164.0918 158.9574,164.0918 159.5183,163.1203 160.0792,164.0918 161.2011,164.0918 160.6402,165.0634 161.2011,166.0349 162.3229,166.0349 162.8838,165.0634 163.4447,166.0349 164.5665,166.0349 165.1274,165.0634 164.5665,164.0918 165.6883,164.0918 166.2492,163.1203 165.6883,162.1488 164.5665,162.1488 165.1274,161.1773 164.5665,160.2058 165.6883,160.2058 166.2492,159.2342 166.8101,160.2058 167.9319,160.2058 168.4929,159.2342 167.9319,158.2627 169.0538,158.2627 169.6147,157.2912 169.0538,156.3197 167.9319,156.3197 168.4929,155.3482 167.9319,154.3766 166.8101,154.3766 166.2492,155.3482 165.6883,154.3766 164.5665,154.3766 165.1274,153.4051 164.5665,152.4336 165.6883,152.4336 166.2492,151.4621 165.6883,150.4906 164.5665,150.4906 165.1274,149.5190 164.5665,148.5475 165.6883,148.5475 166.2492,147.5760 166.8101,148.5475 167.9319,148.5475 168.4929,147.5760 167.9319,146.6045 169.0538,146.6045 169.6147,145.6330 170.1756,146.6045 171.2974,146.6045 170.7365,147.5760 171.2974,148.5475 172.4192,148.5475 172.9801,147.5760 173.5410,148.5475 174.6628,148.5475 175.2237,147.5760 174.6628,146.6045 175.7847,146.6045 176.3456,145.6330 175.7847,144.6614 174.6628,144.6614 175.2237,143.6899 174.6628,142.7184 175.7847,142.7184 176.3456,141.7469 176.9065,142.7184 178.0283,142.7184 178.5892,141.7469 178.0283,140.7754 179.1501,140.7754 179.7110,139.8038 179.1501,138.8323 178.0283,138.8323 178.5892,137.8608 178.0283,136.8893 176.9065,136.8893 176.3456,137.8608 175.7847,136.8893 174.6628,136.8893 175.2237,135.9178 174.6628,134.9462 175.7847,134.9462 176.3456,133.9747 175.7847,133.0032 174.6628,133.0032 175.2237,132.0317 174.6628,131.0602 173.5410,131.0602 172.9801,132.0317 172.4192,131.0602 171.2974,131.0602 170.7365,132.0317 171.2974,133.0032 170.1756,133.0032 169.6147,133.9747 169.0538,133.0032 167.9319,133.0032 168.4929,132.0317 167.9319,131.0602 166.8101,131.0602 166.2492,132.0317 165.6883,131.0602 164.5665,131.0602 165.1274,130.0886 164.5665,129.1171 165.6883,129.1171 166.2492,128.1456 165.6883,127.1741 164.5665,127.1741 165.1274,126.2026 164.5665,125.2310 165.6883,125.2310 166.2492,124.2595 166.8101,125.2310 167.9319,125.2310 168.4929,124.2595 167.9319,123.2880 169.0538,123.2880 169.6147,122.3165 169.0538,121.3450 167.9319,121.3450 168.4929,120.3734 167.9319,119.4019 166.8101,119.4019 166.2492,120.3734 165.6883,119.4019 164.5665,119.4019 165.1274,118.4304 164.5665,117.4589 165.6883,117.4589 166.2492,116.4874 165.6883,115.5158 164.5665,115.5158 165.1274,114.5443 164.5665,113.5728 165.6883,113.5728 166.2492,112.6013 166.8101,113.5728 167.9319,113.5728 168.4929,112.6013 167.9319,111.6298 169.0538,111.6298 169.6147,110.6582 170.1756,111.6298 171.2974,111.6298 170.7365,112.6013 171.2974,113.5728 172.4192,113.5728 172.9801,112.6013 173.5410,113.5728 174.6628,113.5728 175.2237,112.6013 174.6628,111.6298 175.7847,111.6298 176.3456,110.6582 175.7847,109.6867 174.6628,109.6867 175.2237,108.7152 174.6628,107.7437 175.7847,107.7437 176.3456,106.7722 176.9065,107.7437 178.0283,107.7437 178.5892,106.7722 178.0283,105.8006 179.1501,105.8006 179.7110,104.8291 180.2719,105.8006 181.3937,105.8006 180.8328,106.7722 181.3937,107.7437 182.5155,107.7437 183.0764,106.7722 183.6374,107.7437 184.7592,107.7437 184.1983,108.7152 184.7592,109.6867 183.6374,109.6867 183.0764,110.6582 183.6374,111.6298 184.7592,111.6298 184.1983,112.6013 184.7592,113.5728 185.8810,113.5728 186.4419,112.6013 187.0028,113.5728 188.1246,113.5728 188.6855,112.6013 188.1246,111.6298 189.2464,111.6298 189.8073,110.6582 190.3682,111.6298 191.4901,111.6298 190.9292,112.6013 191.4901,113.5728 192.6119,113.5728 193.1728,112.6013 193.7337,113.5728 194.8555,113.5728 195.4164,112.6013 194.8555,111.6298 195.9773,111.6298 196.5382,110.6582 195.9773,109.6867 194.8555,109.6867 195.4164,108.7152 194.8555,107.7437 195.9773,107.7437 196.5382,106.7722 197.0991,107.7437 198.2209,107.7437 198.7819,106.7722 198.2209,105.8006 199.3428,105.8006 199.9037,104.8291 199.3428,103.8576 198.2209,103.8576 198.7819,102.8861 198.2209,101.9146 197.0991,101.9146 196.5382,102.8861 195.9773,101.9146 194.8555,101.9146 195.4164,100.9430 194.8555,99.9715 195.9773,99.9715 196.5382,99.0000 195.9773,98.0285 194.8555,98.0285 195.4164,97.0570 194.8555,96.0854 195.9773,96.0854 196.5382,95.1139 197.0991,96.0854 198.2209,96.0854 198.7819,95.1139 198.2209,94.1424 199.3428,94.1424 199.9037,93.1709 200.4646,94.1424 201.5864,94.1424 201.0255,95.1139 201.5864,96.0854 202.7082,96.0854 203.2691,95.1139 203.8300,96.0854 204.9518,96.0854 205.5127,95.1139 204.9518,94.1424 206.0736,94.1424 206.6346,93.1709 206.0736,92.1994 204.9518,92.1994 205.5127,91.2278 204.9518,90.2563 206.0736,90.2563 206.6346,89.2848 207.1955,90.2563 208.3173,90.2563 208.8782,89.2848 208.3173,88.3133 209.4391,88.3133" fill="#1C1C1C" stroke="#1C1C1C" opacity="0.92" stroke-width="0.15" stroke-linejoin="round" />
  </g>
  <g id="annotations">
    <line x1="63.0" y1="412.11423999999994" x2="357.0" y2="412.11423999999994" stroke="#8B0000" stroke-width="0.3" opacity="0.5" />
    <g>
      <circle cx="63.0" cy="422.11423999999994" r="1.0" fill="#8B0000" />
      <text x="63.0" y="432.11423999999994" font-family="'Inter', 'Helvetica Neue', Arial, sans-serif, system-ui, -apple-system, 'Segoe UI', Roboto, 'Apple Color Emoji', 'Segoe UI Emoji', 'Segoe UI Symbol'" fill="#8B0000" font-size="5.0" text-anchor="middle">Infinite Perimeter</text>
      <text x="63.0" y="439.11423999999994" font-family="'Inter', 'Helvetica Neue', Arial, sans-serif, system-ui, -apple-system, 'Segoe UI', Roboto, 'Apple Color Emoji', 'Segoe UI Emoji', 'Segoe UI Symbol'" fill="#1C1C1C" font-size="3.8" text-anchor="middle">
        <tspan x="63.0" dy="0">Each iteration multiplies the</tspan>
        <tspan x="63.0" dy="5.0">perimeter by 4/3. After n steps,</tspan>
        <tspan x="63.0" dy="5.0">P = 3s·(4/3)ⁿ. As n grows, the</tspan>
        <tspan x="63.0" dy="5.0">perimeter grows without bound,</tspan>
        <tspan x="63.0" dy="5.0">yet the curve never crosses itself.</tspan>
      </text>
    </g>
    <g>
      <circle cx="210.0" cy="422.11423999999994" r="1.0" fill="#8B0000" />
      <text x="210.0" y="432.11423999999994" font-family="'Inter', 'Helvetica Neue', Arial, sans-serif, system-ui, -apple-system, 'Segoe UI', Roboto, 'Apple Color Emoji', 'Segoe UI Emoji', 'Segoe UI Symbol'" fill="#8B0000" font-size="5.0" text-anchor="middle">Fractional Dimension</text>
      <text x="210.0" y="439.11423999999994" font-family="'Inter', 'Helvetica Neue', Arial, sans-serif, system-ui, -apple-system, 'Segoe UI', Roboto, 'Apple Color Emoji', 'Segoe UI Emoji', 'Segoe UI Symbol'" fill="#1C1C1C" font-size="3.8" text-anchor="middle">
        <tspan x="210.0" dy="0">A line is 1-D. A surface is 2-D.</tspan>
        <tspan x="210.0" dy="5.0">The Koch snowflake is 1.2619-D!</tspan>
        <tspan x="210.0" dy="5.0">Its Hausdorff dimension is</tspan>
        <tspan x="210.0" dy="5.0">log(4)/log(3) — more than a line</tspan>
        <tspan x="210.0" dy="5.0">but less than a filled plane.</tspan>
      </text>
    </g>
    <g>
      <circle cx="357.0" cy="422.11423999999994" r="1.0" fill="#8B0000" />
      <text x="357.0" y="432.11423999999994" font-family="'Inter', 'Helvetica Neue', Arial, sans-serif, system-ui, -apple-system, 'Segoe UI', Roboto, 'Apple Color Emoji', 'Segoe UI Emoji', 'Segoe UI Symbol'" fill="#8B0000" font-size="5.0" text-anchor="middle">Self-Similarity</text>
      <text x="357.0" y="439.11423999999994" font-family="'Inter', 'Helvetica Neue', Arial, sans-serif, system-ui, -apple-system, 'Segoe UI', Roboto, 'Apple Color Emoji', 'Segoe UI Emoji', 'Segoe UI Symbol'" fill="#1C1C1C" font-size="3.8" text-anchor="middle">
        <tspan x="357.0" dy="0">Each of the three sides is a Koch</tspan>
        <tspan x="357.0" dy="5.0">curve. Zoom into any portion and</tspan>
        <tspan x="357.0" dy="5.0">the same pattern appears at every</tspan>
        <tspan x="357.0" dy="5.0">scale — a hallmark of fractal</tspan>
        <tspan x="357.0" dy="5.0">geometry.</tspan>
      </text>
    </g>
  </g>
  <g id="educational">
    <line x1="63.0" y1="485.11423999999994" x2="357.0" y2="485.11423999999994" stroke="#8B0000" stroke-width="0.3" opacity="0.35" />
    <g>
      <text x="63.0" y="499.11423999999994" font-family="'Inter', 'Helvetica Neue', Arial, sans-serif, system-ui, -apple-system, 'Segoe UI', Roboto, 'Apple Color Emoji', 'Segoe UI Emoji', 'Segoe UI Symbol'" fill="#8B0000" font-size="5.0" text-anchor="middle">The Construction</text>
      <text x="63.0" y="506.11423999999994" font-family="'Inter', 'Helvetica Neue', Arial, sans-serif, system-ui, -apple-system, 'Segoe UI', Roboto, 'Apple Color Emoji', 'Segoe UI Emoji', 'Segoe UI Symbol'" fill="#1C1C1C" font-size="3.8" text-anchor="middle">
        <tspan x="63.0" dy="0">Begin with a straight segment.</tspan>
        <tspan x="63.0" dy="5.0">Divide it into thirds; replace the</tspan>
        <tspan x="63.0" dy="5.0">middle third with two sides of an</tspan>
        <tspan x="63.0" dy="5.0">equilateral triangle. Repeat on</tspan>
        <tspan x="63.0" dy="5.0">every new segment — forever.</tspan>
      </text>
      <polyline points="29.0000,537.1142 49.0000,537.1142" fill="none" stroke="#1C1C1C" stroke-width="0.4" stroke-linejoin="round" opacity="0.85" />
      <text x="39.0" y="545.1142399999999" font-family="'Inter', 'Helvetica Neue', Arial, sans-serif, system-ui, -apple-system, 'Segoe UI', Roboto, 'Apple Color Emoji', 'Segoe UI Emoji', 'Segoe UI Symbol'" fill="#1C1C1C" font-size="3.0" text-anchor="middle">depth 0</text>
      <line x1="47.0" y1="535.1142399999999" x2="51.8" y2="535.1142399999999" stroke="#1C1C1C" stroke-width="0.3" />
      <polygon points="55.0000,535.1142 51.8000,533.8342 51.8000,536.3942" fill="#1C1C1C" />
      <polyline points="53.0000,537.1142 59.6667,537.1142 63.0000,531.3407 66.3333,537.1142 73.0000,537.1142" fill="none" stroke="#1C1C1C" stroke-width="0.4" stroke-linejoin="round" opacity="0.85" />
      <text x="63.0" y="545.1142399999999" font-family="'Inter', 'Helvetica Neue', Arial, sans-serif, system-ui, -apple-system, 'Segoe UI', Roboto, 'Apple Color Emoji', 'Segoe UI Emoji', 'Segoe UI Symbol'" fill="#1C1C1C" font-size="3.0" text-anchor="middle">depth 1</text>
      <line x1="71.0" y1="535.1142399999999" x2="75.8" y2="535.1142399999999" stroke="#1C1C1C" stroke-width="0.3" />
      <polygon points="79.0000,535.1142 75.8000,533.8342 75.8000,536.3942" fill="#1C1C1C" />
      <polyline points="77.0000,537.1142 79.2222,537.1142 80.3333,535.1897 81.4444,537.1142 83.6667,537.1142 84.7778,535.1897 83.6667,533.2652 85.8889,533.2652 87.0000,531.3407 88.1111,533.2652 90.3333,533.2652 89.2222,535.1897 90.3333,537.1142 92.5556,537.1142 93.6667,535.1897 94.7778,537.1142 97.0000,537.1142" fill="none" stroke="#1C1C1C" stroke-width="0.4" stroke-linejoin="round" opacity="0.85" />
      <text x="87.0" y="545.1142399999999" font-family="'Inter', 'Helvetica Neue', Arial, sans-serif, system-ui, -apple-system, 'Segoe UI', Roboto, 'Apple Color Emoji', 'Segoe UI Emoji', 'Segoe UI Symbol'" fill="#1C1C1C" font-size="3.0" text-anchor="middle">depth 2</text>
    </g>
    <g>
      <text x="210.0" y="499.11423999999994" font-family="'Inter', 'Helvetica Neue', Arial, sans-serif, system-ui, -apple-system, 'Segoe UI', Roboto, 'Apple Color Emoji', 'Segoe UI Emoji', 'Segoe UI Symbol'" fill="#8B0000" font-size="5.0" text-anchor="middle">Area Paradox</text>
      <text x="210.0" y="506.11423999999994" font-family="'Inter', 'Helvetica Neue', Arial, sans-serif, system-ui, -apple-system, 'Segoe UI', Roboto, 'Apple Color Emoji', 'Segoe UI Emoji', 'Segoe UI Symbol'" fill="#1C1C1C" font-size="3.8" text-anchor="middle">
        <tspan x="210.0" dy="0">Despite its infinite perimeter, the</tspan>
        <tspan x="210.0" dy="5.0">Koch snowflake encloses a finite</tspan>
        <tspan x="210.0" dy="5.0">area. It converges to exactly 8/5</tspan>
        <tspan x="210.0" dy="5.0">of the original triangle’s area:</tspan>
      </text>
      <text x="210.0" y="530.1142399999999" font-family="'Inter', 'Helvetica Neue', Arial, sans-serif, system-ui, -apple-system, 'Segoe UI', Roboto, 'Apple Color Emoji', 'Segoe UI Emoji', 'Segoe UI Symbol'" fill="#1C1C1C" font-size="4.2" font-style="italic" text-anchor="middle">A = (2s²√3) / 5</text>
      <text x="206.0" y="537.1142399999999" font-family="'Inter', 'Helvetica Neue', Arial, sans-serif, system-ui, -apple-system, 'Segoe UI', Roboto, 'Apple Color Emoji', 'Segoe UI Emoji', 'Segoe UI Symbol'" fill="#1C1C1C" font-size="4.2" font-style="italic" text-anchor="end">Perimeter(n) = 3s·(4/3)ⁿ</text>
      <line x1="207.0" y1="535.6142399999999" x2="210.6" y2="535.6142399999999" stroke="#1C1C1C" stroke-width="0.3" />
      <polygon points="213.0000,535.6142 210.6000,534.6542 210.6000,536.5742" fill="#1C1C1C" />
      <text x="214.0" y="537.1142399999999" font-family="'Inter', 'Helvetica Neue', Arial, sans-serif, system-ui, -apple-system, 'Segoe UI', Roboto, 'Apple Color Emoji', 'Segoe UI Emoji', 'Segoe UI Symbol'" fill="#1C1C1C" font-size="4.2" font-style="italic" text-anchor="start">∞</text>
      <polygon points="192.0000,546.1142 197.1962,555.1142 186.8038,555.1142" fill="#1C1C1C" opacity="0.8" />
      <text x="192.0" y="563.1142399999999" font-family="'Inter', 'Helvetica Neue', Arial, sans-serif, system-ui, -apple-system, 'Segoe UI', Roboto, 'Apple Color Emoji', 'Segoe UI Emoji', 'Segoe UI Symbol'" fill="#1C1C1C" font-size="2.8" text-anchor="middle">n=0</text>
      <polygon points="210.0000,546.1142 211.7321,549.1142 215.1962,549.1142 213.4641,552.1142 215.1962,555.1142 211.7321,555.1142 210.0000,558.1142 208.2679,555.1142 204.8038,555.1142 206.5359,552.1142 204.8038,549.1142 208.2679,549.1142" fill="#1C1C1C" opacity="0.8" />
      <text x="210.0" y="563.1142399999999" font-family="'Inter', 'Helvetica Neue', Arial, sans-serif, system-ui, -apple-system, 'Segoe UI', Roboto, 'Apple Color Emoji', 'Segoe UI Emoji', 'Segoe UI Symbol'" fill="#1C1C1C" font-size="2.8" text-anchor="middle">n=1</text>
      <polygon points="228.0000,546.1142 228.5774,547.1142 229.7321,547.1142 229.1547,548.1142 229.7321,549.1142 230.8868,549.1142 231.4641,548.1142 232.0415,549.1142 233.1962,549.1142 232.6188,550.1142 233.1962,551.1142 232.0415,551.1142 231.4641,552.1142 232.0415,553.1142 233.1962,553.1142 232.6188,554.1142 233.1962,555.1142 232.0415,555.1142 231.4641,556.1142 230.8868,555.1142 229.7321,555.1142 229.1547,556.1142 229.7321,557.1142 228.5774,557.1142 228.0000,558.1142 227.4226,557.1142 226.2679,557.1142 226.8453,556.1142 226.2679,555.1142 225.1132,555.1142 224.5359,556.1142 223.9585,555.1142 222.8038,555.1142 223.3812,554.1142 222.8038,553.1142 223.9585,553.1142 224.5359,552.1142 223.9585,551.1142 222.8038,551.1142 223.3812,550.1142 222.8038,549.1142 223.9585,549.1142 224.5359,548.1142 225.1132,549.1142 226.2679,549.1142 226.8453,548.1142 226.2679,547.1142 227.4226,547.1142" fill="#1C1C1C" opacity="0.8" />
      <text x="228.0" y="563.1142399999999" font-family="'Inter', 'Helvetica Neue', Arial, sans-serif, system-ui, -apple-system, 'Segoe UI', Roboto, 'Apple Color Emoji', 'Segoe UI Emoji', 'Segoe UI Symbol'" fill="#1C1C1C" font-size="2.8" text-anchor="middle">n=2</text>
    </g>
    <g>
      <text x="357.0" y="499.11423999999994" font-family="'Inter', 'Helvetica Neue', Arial, sans-serif, system-ui, -apple-system, 'Segoe UI', Roboto, 'Apple Color Emoji', 'Segoe UI Emoji', 'Segoe UI Symbol'" fill="#8B0000" font-size="5.0" text-anchor="middle">Snowflake Variations</text>
      <text x="357.0" y="506.11423999999994" font-family="'Inter', 'Helvetica Neue', Arial, sans-serif, system-ui, -apple-system, 'Segoe UI', Roboto, 'Apple Color Emoji', 'Segoe UI Emoji', 'Segoe UI Symbol'" fill="#1C1C1C" font-size="3.8" text-anchor="middle">
        <tspan x="357.0" dy="0">The anti-snowflake points its</tspan>
        <tspan x="357.0" dy="5.0">bumps inward, creating a shape</tspan>
        <tspan x="357.0" dy="5.0">that tiles with the original. A</tspan>
        <tspan x="357.0" dy="5.0">single Koch curve forms one side.</tspan>
        <tspan x="357.0" dy="5.0">Higher-order variants use squares</tspan>
        <tspan x="357.0" dy="5.0">or other polygons as generators.</tspan>
      </text>
      <polygon points="337.0000,541.1142 337.5774,542.1142 338.7321,542.1142 338.1547,543.1142 338.7321,544.1142 339.8868,544.1142 340.4641,543.1142 341.0415,544.1142 342.1962,544.1142 341.6188,545.1142 342.1962,546.1142 341.0415,546.1142 340.4641,547.1142 341.0415,548.1142 342.1962,548.1142 341.6188,549.1142 342.1962,550.1142 341.0415,550.1142 340.4641,551.1142 339.8868,550.1142 338.7321,550.1142 338.1547,551.1142 338.7321,552.1142 337.5774,552.1142 337.0000,553.1142 336.4226,552.1142 335.2679,552.1142 335.8453,551.1142 335.2679,550.1142 334.1132,550.1142 333.5359,551.1142 332.9585,550.1142 331.8038,550.1142 332.3812,549.1142 331.8038,548.1142 332.9585,548.1142 333.5359,547.1142 332.9585,546.1142 331.8038,546.1142 332.3812,545.1142 331.8038,544.1142 332.9585,544.1142 333.5359,543.1142 334.1132,544.1142 335.2679,544.1142 335.8453,543.1142 335.2679,542.1142 336.4226,542.1142" fill="#1C1C1C" opacity="0.7" />
      <text x="337.0" y="558.1142399999999" font-family="'Inter', 'Helvetica Neue', Arial, sans-serif, system-ui, -apple-system, 'Segoe UI', Roboto, 'Apple Color Emoji', 'Segoe UI Emoji', 'Segoe UI Symbol'" fill="#1C1C1C" font-size="2.6" text-anchor="middle">snowflake</text>
      <polygon points="357.0000,541.1142 356.4226,542.1142 357.0000,543.1142 355.8453,543.1142 355.2679,544.1142 355.8453,545.1142 357.0000,545.1142 356.4226,546.1142 357.0000,547.1142 355.8453,547.1142 355.2679,548.1142 354.6906,547.1142 353.5359,547.1142 352.9585,548.1142 353.5359,549.1142 352.3812,549.1142 351.8038,550.1142 352.9585,550.1142 353.5359,549.1142 354.1132,550.1142 355.2679,550.1142 355.8453,549.1142 355.2679,548.1142 356.4226,548.1142 357.0000,547.1142 357.5774,548.1142 358.7321,548.1142 358.1547,549.1142 358.7321,550.1142 359.8868,550.1142 360.4641,549.1142 361.0415,550.1142 362.1962,550.1142 361.6188,549.1142 360.4641,549.1142 361.0415,548.1142 360.4641,547.1142 359.3094,547.1142 358.7321,548.1142 358.1547,547.1142 357.0000,547.1142 357.5774,546.1142 357.0000,545.1142 358.1547,545.1142 358.7321,544.1142 358.1547,543.1142 357.0000,543.1142 357.5774,542.1142" fill="none" stroke="#1C1C1C" stroke-width="0.3" opacity="0.7" />
      <text x="357.0" y="558.1142399999999" font-family="'Inter', 'Helvetica Neue', Arial, sans-serif, system-ui, -apple-system, 'Segoe UI', Roboto, 'Apple Color Emoji', 'Segoe UI Emoji', 'Segoe UI Symbol'" fill="#1C1C1C" font-size="2.6" text-anchor="middle">anti-snowflake</text>
      <polyline points="371.0000,547.1142 371.4444,547.1142 371.6667,546.7293 371.8889,547.1142 372.3333,547.1142 372.5556,546.7293 372.3333,546.3444 372.7778,546.3444 373.0000,545.9595 373.2222,546.3444 373.6667,546.3444 373.4444,546.7293 373.6667,547.1142 374.1111,547.1142 374.3333,546.7293 374.5556,547.1142 375.0000,547.1142 375.2222,546.7293 375.0000,546.3444 375.4444,546.3444 375.6667,545.9595 375.4444,545.5746 375.0000,545.5746 375.2222,545.1897 375.0000,544.8048 375.4444,544.8048 375.6667,544.4199 375.8889,544.8048 376.3333,544.8048 376.5556,544.4199 376.3333,544.0350 376.7778,544.0350 377.0000,543.6501 377.2222,544.0350 377.6667,544.0350 377.4444,544.4199 377.6667,544.8048 378.1111,544.8048 378.3333,544.4199 378.5556,544.8048 379.0000,544.8048 378.7778,545.1897 379.0000,545.5746 378.5556,545.5746 378.3333,545.9595 378.5556,546.3444 379.0000,546.3444 378.7778,546.7293 379.0000,547.1142 379.4444,547.1142 379.6667,546.7293 379.8889,547.1142 380.3333,547.1142 380.5556,546.7293 380.3333,546.3444 380.7778,546.3444 381.0000,545.9595 381.2222,546.3444 381.6667,546.3444 381.4444,546.7293 381.6667,547.1142 382.1111,547.1142 382.3333,546.7293 382.5556,547.1142 383.0000,547.1142" fill="none" stroke="#1C1C1C" stroke-width="0.3" stroke-linejoin="round" opacity="0.7" />
      <text x="377.0" y="558.1142399999999" font-family="'Inter', 'Helvetica Neue', Arial, sans-serif, system-ui, -apple-system, 'Segoe UI', Roboto, 'Apple Color Emoji', 'Segoe UI Emoji', 'Segoe UI Symbol'" fill="#1C1C1C" font-size="2.6" text-anchor="middle">Koch curve</text>
    </g>
  </g>
  <text x="210.0" y="576.0" font-family="'Inter', 'Helvetica Neue', Arial, sans-serif, system-ui, -apple-system, 'Segoe UI', Roboto, 'Apple Color Emoji', 'Segoe UI Emoji', 'Segoe UI Symbol'" font-size="4.0" fill="#555555" text-anchor="middle">Helge von Koch first described this curve in 1904.</text>
  <text x="210.0" y="582.0" font-family="'Inter', 'Helvetica Neue', Arial, sans-serif, system-ui, -apple-system, 'Segoe UI', Roboto, 'Apple Color Emoji', 'Segoe UI Emoji', 'Segoe UI Symbol'" font-size="3.5" fill="#777777" text-anchor="middle">Generated at depth 5  ·  3,072 sides</text>
  <rect x="4" y="4" width="412" height="586" fill="none" stroke="#1C1C1C" stroke-width="0.8" />
  <rect x="7" y="7" width="406" height="580" fill="none" stroke="#1C1C1C" stroke-width="0.2" />
</svg>